<svg width="184" height="152" viewBox="0 0 184 152" fill="none" xmlns="http://www.w3.org/2000/svg">
<g clip-path="url(#clip0_3786_13745)">
<path d="M142.602 26.9998C142.602 26.7998 142.602 26.5998 142.602 26.3998C141.802 19.6998 133.502 15.0998 127.702 18.6998C126.802 19.1998 126.702 20.6998 126.202 21.5998C125.802 22.1998 125.502 22.8998 125.202 23.5998C124.802 24.3998 124.502 25.1998 124.202 25.9998C123.802 26.8998 123.502 27.7998 123.202 28.6998C122.602 30.4998 122.202 32.0998 122.002 32.6998C122.002 32.8998 121.902 32.9998 121.902 32.9998L119.702 36.3998L119.302 36.9998L118.702 37.8998L117.402 39.8998L129.702 49.9998L129.502 42.1998L128.202 41.8998L128.902 40.9998C128.902 40.9998 129.002 40.9998 129.202 41.0998C130.502 41.5998 136.502 43.1998 140.202 36.1998C140.402 35.8998 140.502 35.5998 140.702 35.2998C142.102 31.7998 142.802 29.1998 142.602 26.9998Z" fill="#FFBFBF"/>
<path d="M145.102 19.6997C145.102 19.6997 147.202 19.5997 146.302 17.2997C145.002 13.6997 139.602 13.8997 139.602 13.8997C139.602 13.8997 140.302 12.9997 138.702 12.1997C134.102 9.89967 131.302 13.5997 131.302 13.5997C125.602 12.6997 123.602 15.8997 122.402 18.8997C119.902 25.1997 121.902 32.6997 121.902 32.6997L124.102 26.4997C124.102 26.4997 127.302 26.4997 128.102 22.9997C128.502 21.1997 127.202 20.6997 128.202 19.3997C129.202 18.1997 134.402 18.7997 134.402 18.7997L136.402 19.4997C136.402 19.4997 137.302 23.3997 139.902 25.6997C142.302 27.7997 143.602 25.5997 143.602 25.5997C143.602 25.5997 145.602 27.0997 147.202 24.9997C149.602 21.6997 145.102 19.6997 145.102 19.6997Z" fill="#333333"/>
<path d="M125.603 24.0992C125.003 23.1992 123.703 22.6992 123.103 22.8992C122.503 23.0992 122.003 23.4992 121.603 23.9992C121.003 24.7992 120.803 25.9992 121.103 26.8992C121.503 27.8992 123.003 28.8992 124.003 28.7992L125.603 24.0992Z" fill="#FFBFBF"/>
<path d="M122.602 25.4994C122.802 25.4994 123.302 25.5994 123.502 25.5994C123.802 25.6994 123.902 25.9994 124.002 26.1994C124.102 26.4994 124.602 26.2994 124.502 25.9994C124.402 25.5994 124.102 25.1994 123.702 24.9994C123.502 24.8994 123.302 24.8994 123.102 24.8994C122.802 25.0994 122.702 25.1994 122.602 25.4994C122.502 25.4994 122.502 25.3994 122.602 25.4994Z" fill="#333333"/>
<path d="M144.8 19.6999C145.9 19.9999 147 20.2999 147.7 21.1999C148.6 22.3999 148.5 24.4999 146.6 24.4999C146.3 24.4999 146.3 24.8999 146.6 24.9999C148 24.9999 148.9 23.7999 148.7 22.4999C148.4 20.5999 146.5 19.7999 144.9 19.4999C144.7 19.3999 144.6 19.6999 144.8 19.6999Z" fill="#333333"/>
<path d="M132.5 23.6998C133.4 24.1998 133.9 24.6998 134.4 25.1998C134.9 25.6998 135.3 26.1998 135.7 26.6998C135.9 26.9998 136.4 26.6998 136.4 26.3998C136 24.5998 134.2 23.5998 132.6 23.2998C132.4 23.2998 132.3 23.5998 132.5 23.6998Z" fill="#333333"/>
<path d="M142.201 27.8996C141.701 27.6996 141.101 27.7996 140.601 27.8996C140.101 27.9996 139.701 28.1996 139.201 28.3996C138.901 28.4996 138.801 27.9996 138.901 27.7996C139.801 26.7996 141.201 26.9996 142.301 27.5996C142.401 27.6996 142.401 27.9996 142.201 27.8996Z" fill="#333333"/>
<path d="M140 29.1001C139.8 28.9001 139.3 29.0001 139.1 29.3001C138.8 29.6001 138.8 30.1001 139.1 30.3001C139.3 30.5001 139.8 30.4001 140 30.1001C140.3 29.8001 140.3 29.3001 140 29.1001Z" fill="#333333"/>
<path d="M133.402 26.3002C133.102 26.1002 132.702 26.3002 132.502 26.6002C132.302 26.9002 132.402 27.4002 132.702 27.6002C133.002 27.8002 133.402 27.6002 133.602 27.3002C133.802 27.0002 133.702 26.5002 133.402 26.3002Z" fill="#333333"/>
<path d="M135.199 32.2998C135.799 32.6998 137.199 32.5998 137.399 32.2998C137.499 32.1998 138.099 29.9998 137.099 28.2998" stroke="#333333" stroke-width="0.5281" stroke-linecap="round" stroke-linejoin="round"/>
<path d="M133.199 33.9995C133.799 33.5995 134.599 33.8995 134.999 34.4995" stroke="#333333" stroke-width="0.5281" stroke-linecap="round" stroke-linejoin="round"/>
<path d="M125.301 37.7993C126.401 39.6993 127.901 40.8993 130.001 41.5993C130.401 41.6993 130.501 41.1993 130.201 40.9993C128.201 40.3993 126.801 39.0993 125.301 37.7993Z" fill="#333333"/>
<path d="M126.802 43.8996C127.402 43.1996 128.002 42.4996 128.602 41.6996C128.702 41.4996 129.102 41.0996 129.102 40.7996C129.102 40.6996 129.002 40.5996 128.902 40.5996C128.602 40.6996 128.402 41.0996 128.302 41.2996C127.702 42.0996 127.202 42.8996 126.702 43.6996C126.602 43.8996 126.702 43.8996 126.802 43.8996Z" fill="#333333"/>
<path d="M137.599 100.3L102.899 89.5996C102.599 91.4996 98.7991 157.9 100.599 163.5C101.799 167.2 115.499 165.8 117.899 164.6L123.699 115.2C123.699 115.2 120.999 161.3 123.899 163.6C126.199 165.4 140.899 162.3 140.899 162.3C141.599 159.5 140.399 114.5 137.599 100.3Z" fill="#333333"/>
<path d="M118.099 164.599C118.799 154.899 122.699 134.899 123.799 120.699C123.899 118.999 124.199 117.299 124.199 115.599C124.199 115.499 124.199 115.299 124.199 115.199C124.099 115.399 123.899 115.399 124.499 115.199C125.999 114.699 127.499 113.499 128.999 112.699C129.499 112.399 129.099 111.599 128.499 111.899C127.199 112.699 125.799 113.399 124.499 114.199C123.899 114.499 123.599 114.599 123.299 115.199C122.999 115.999 123.099 117.399 123.099 118.299C122.699 123.899 117.999 160.899 117.699 164.599C117.699 164.899 118.099 164.899 118.099 164.599Z" fill="#A1A1A1"/>
<path d="M136.302 46.7002C139.802 46.3002 160.502 70.3002 156.302 88.0002C155.602 91.1002 150.702 93.8002 147.302 93.0002C138.402 91.1002 128.802 68.1002 133.702 52.8002C135.402 47.7002 135.702 46.7002 136.302 46.7002Z" fill="#FF8080"/>
<path d="M127.6 107.7C131 107.2 138.5 104.1 139.4 102C146 85.8002 139.4 48.6002 137 46.8002C135.5 45.7002 129.2 42.6002 129.2 42.6002C129.2 42.6002 130.7 47.8002 127.8 48.0002C123.8 48.3002 116.7 40.2002 116.7 40.2002C116.7 40.2002 105.8 40.4002 102.6 44.2002L103.5 72.9002C103.5 72.9002 100.2 102.2 101.2 103.5C102 104.6 110 106.8 115.7 107.8C115.7 107.7 124 108.2 127.6 107.7Z" fill="#FF8080"/>
<path d="M138.801 58.2998C140.301 62.2998 140.501 71.0998 140.501 71.0998" stroke="#333333" stroke-width="0.5281" stroke-linecap="round" stroke-linejoin="round"/>
<path d="M101.301 110.5C99.7007 111 91.0007 113.3 90.6007 98.5997C89.9007 66.7997 96.8007 57.2997 96.8007 57.2997C97.6007 54.3997 101.401 44.6997 103.901 43.0997C106.901 41.1997 111.601 46.8997 111.601 46.8997C111.601 46.8997 111.901 55.4997 111.601 64.5997C111.501 67.7997 109.501 94.5997 108.001 104.7C107.701 106.4 101.701 110.3 101.301 110.5Z" fill="#FF8080"/>
<path d="M109.402 60.2998C111.002 64.1998 111.902 100.2 106.602 107" stroke="#333333" stroke-width="0.5281" stroke-linecap="round" stroke-linejoin="round"/>
<path d="M103.899 104.6C103.999 106.4 104.299 108.1 104.799 109.8C104.799 109.9 104.899 110 104.999 110.1L105.999 110.5C106.599 110.7 107.299 111 107.799 111.5C108.399 112 108.799 112.5 109.199 113.2C109.599 113.9 109.799 114.6 109.799 115.4C109.799 116.1 109.299 116.7 109.099 117.4C108.999 117.6 111.099 118.2 110.599 120.5C110.399 121.5 109.999 122.1 108.799 122.7C108.299 123.9 107.099 123.5 106.199 123.6C105.299 124.5 104.399 123.6 103.499 123.3C102.899 123.1 102.199 122.9 101.599 122.6C100.999 122.2 100.799 121.5 100.399 120.8C99.9989 120 99.6989 119.1 99.3989 118.2C98.1989 114.8 97.4989 111.2 96.9989 107.6C96.8989 107.7 99.4989 103.6 103.899 104.6Z" fill="#FFBFBF"/>
<path d="M105.9 113.8C106.3 114.3 106.6 114.8 106.9 115.3C107.1 115.7 107.4 116.8 107.8 117.1C108.4 117.5 109.2 117.3 109.9 117.6C110.1 117.7 109.9 118.1 109.7 117.9C109.1 117.5 108.1 117.8 107.6 117.3C107.3 117 107.2 116.5 107 116.1C106.6 115.3 106.2 114.6 105.7 114C105.5 113.9 105.7 113.6 105.9 113.8Z" fill="#333333"/>
<path d="M114.9 35.3001C111.8 35.2001 110.9 38.4001 109.9 38.5001C108.5 38.6001 103.6 39.7001 103.9 42.3001C104.2 44.5001 111.3 44.2001 116.4 45.4001C122.2 46.8001 125.9 47.7001 127.5 48.1001C128.6 48.3001 120.8 35.4001 114.9 35.3001Z" fill="#FF8080"/>
<path d="M128.7 42.1997C128.3 40.6997 134.1 42.3997 133.6 43.6997C133.5 43.8997 136.5 44.8997 135.6 45.9997C133.2 48.9997 127.5 48.0997 127.5 48.0997C127.7 47.8997 129 43.3997 128.7 42.1997Z" fill="#FF8080"/>
<path d="M135.802 46C134.002 48.8 127.702 48.8 127.702 48.8C121.902 45.9 104.402 44.6 104.102 42.5" stroke="#333333" stroke-width="0.5281" stroke-linecap="round" stroke-linejoin="round"/>
<path d="M154.801 86.8995C154.901 90.0995 151.601 93.0995 148.701 92.9995C141.001 92.7995 130.901 81.2995 136.301 72.4995C138.901 68.3995 154.401 68.7995 154.801 86.8995Z" fill="#FF8080"/>
<path d="M151.901 75.3001C147.301 71.5001 143.801 69.8001 138.201 72.0001C134.101 73.6001 132.501 84.0001 141.901 90.4001" stroke="#333333" stroke-width="0.5281" stroke-linecap="round" stroke-linejoin="round"/>
<path d="M127.401 63.4998C127.701 63.4998 126.501 61.2998 128.701 60.7998C128.801 60.7998 129.001 60.8998 129.001 60.7998C129.501 58.7998 133.601 59.1998 135.301 60.0998C137.301 61.0998 138.001 62.3998 139.101 64.3998C140.301 66.4998 143.201 71.1998 142.901 73.5998C142.701 74.9998 141.801 76.3998 140.701 77.5998C140.201 78.0998 138.601 77.9998 137.901 77.6998C136.101 76.9998 133.801 75.5998 133.101 74.3998C132.501 73.2998 131.901 72.1998 131.301 71.1998C131.201 71.0998 131.101 70.9998 131.001 70.9998C130.901 70.9998 130.701 70.9998 130.601 70.9998C130.201 71.2998 129.701 71.3998 129.201 71.3998C128.401 71.1998 127.701 70.6998 127.201 69.9998C127.001 69.6998 126.801 69.2998 126.801 68.8998C126.801 68.7998 126.901 67.5998 126.801 67.5998L126.701 67.4998C126.701 67.4998 126.701 67.3998 126.601 67.3998C125.801 66.3998 125.901 63.5998 127.401 63.4998Z" fill="#FFBFBF"/>
<path d="M129.301 60.5997C129.501 60.5997 130.501 60.4997 131.301 61.2997" stroke="#333333" stroke-width="0.5281" stroke-linecap="round" stroke-linejoin="round"/>
<path d="M127.703 63.2999C127.903 63.2999 128.903 63.1999 129.703 63.9999" stroke="#333333" stroke-width="0.5281" stroke-linecap="round" stroke-linejoin="round"/>
<path d="M127.301 67.3C127.501 67.1 128.201 66.4 129.201 66.6" stroke="#333333" stroke-width="0.5281" stroke-linecap="round" stroke-linejoin="round"/>
<path d="M129.203 69.4998C129.403 69.4998 130.403 69.3998 130.903 70.3998" stroke="#333333" stroke-width="0.5281" stroke-linecap="round" stroke-linejoin="round"/>
<path d="M40.001 116.4C39.901 109.6 41.101 102 42.501 96.4C43.401 92.7 46.601 84.4 46.601 84.4L67.101 83.5C67.101 83.5 72.701 92.7 75.601 98.8C79.501 106.8 81.101 114.9 83.501 126.4C85.701 137.1 86.201 145.2 86.701 149.1C87.201 153.2 86.901 148.9 87.001 151.9C87.101 154.8 68.301 155.4 66.301 152.9C64.501 150.6 60.301 125.7 58.701 115.4L57.701 114.9C57.901 114.8 61.701 153.2 61.701 153.2C61.701 153.2 40.601 155.8 40.001 154C39.301 152.3 40.101 123.2 40.001 116.4Z" fill="#333333"/>
<path d="M64.4019 94.7004C65.2019 98.8004 68.6019 102.6 72.8019 103.9C73.2019 104 73.3019 103.5 72.9019 103.4C68.9019 102.2 65.6019 98.5004 64.9019 94.7004C64.9019 94.3004 64.3019 94.3004 64.4019 94.7004Z" fill="#A1A1A1"/>
<path d="M52.7992 113.2C54.2992 113.8 55.6992 114.5 57.1992 115C57.1992 115 58.4992 115.4 58.4992 115.5C58.5992 115.7 58.5992 116.2 58.5992 116.4C58.7992 117.7 58.9992 119 59.1992 120.4C59.9992 125.2 60.6992 130 61.4992 134.8C63.2992 146.4 65.0992 150.4 65.5992 153C65.6992 153.4 66.2992 153.4 66.1992 153C61.1992 135.2 62.9992 139.6 59.7992 120.6C59.5992 119.1 59.2992 117.7 59.0992 116.2C59.0992 116 59.0992 115.6 58.9992 115.4C58.7992 115.1 58.8992 115.3 58.0992 115C56.3992 114.3 54.5992 113.7 52.8992 113C52.7992 112.9 52.6992 113.1 52.7992 113.2Z" fill="#A1A1A1"/>
<path d="M42.4008 103.9C45.2008 101.6 47.2008 98.3998 47.3008 94.8998C47.3008 94.5998 46.7008 94.5998 46.7008 94.8998C46.6008 98.1998 44.7008 101.3 42.1008 103.5C41.8008 103.7 42.1008 104.1 42.4008 103.9Z" fill="#A1A1A1"/>
<path d="M57.0004 47.5998L44.6004 17.1998C40.8004 15.4998 36.3004 20.5998 35.4004 22.1998C33.1004 26.5998 33.0004 33.8998 35.4004 46.8998C37.1004 56.3998 27.2004 65.3998 35.4004 76.0998C35.4004 76.0998 53.2004 52.2998 57.0004 47.5998Z" fill="#333333"/>
<path d="M46.9991 50.6007C43.6991 50.3007 24.2992 72.6007 28.1992 89.1007C28.8992 92.0007 33.3991 94.5007 36.5991 93.8007C44.9991 92.0007 53.8991 70.6007 49.2991 56.3007C47.8991 51.5007 47.5991 50.6007 46.9991 50.6007Z" fill="#80CB94"/>
<path d="M48.1973 49.5005C46.1973 50.4005 43.5973 54.2005 41.4973 71.4005C39.4973 88.8005 48.8973 90.5005 59.1973 89.4005C84.5973 86.8005 74.3973 51.4005 73.3973 48.2005C72.2973 44.7005 59.3973 44.1005 48.1973 49.5005Z" fill="#80CB94"/>
<path d="M64.8974 40.2002C67.7974 40.2002 68.5974 43.2002 69.5974 43.3002C70.8974 43.5002 73.7974 44.4002 73.3974 46.9002C73.0974 48.9002 68.0974 48.6002 63.2974 49.7002C57.7974 50.9002 51.9974 53.3002 50.4974 53.6002C49.2974 53.8002 59.2974 40.2002 64.8974 40.2002Z" fill="#80CB94"/>
<path d="M52.1997 45.1C51.4997 43.8 48.4997 46 48.7997 47.4C48.7997 47.6 45.8997 49.1 46.4997 50.3C47.9997 53.6 50.6997 54.4 50.6997 54.4C50.6997 54.2 52.4997 45.6 52.1997 45.1Z" fill="#80CB94"/>
<path d="M46.3984 49.9002C47.8984 53.2002 50.4984 54.0002 50.4984 54.0002C55.9984 51.1002 72.8984 48.9002 73.1984 46.9002C73.5984 44.4002 70.6984 43.5002 69.3984 43.3002C68.3984 43.2002 67.6984 40.2002 64.6984 40.2002" stroke="#333333" stroke-width="0.5281" stroke-linecap="round" stroke-linejoin="round"/>
<path d="M42.9004 60C42.5004 61.2 41.2004 64 40.7004 67.5C40.2004 70.8 41.5004 72.4 41.5004 72.4" stroke="#333333" stroke-width="0.5281" stroke-linecap="round" stroke-linejoin="round"/>
<path d="M46.8977 56.2999C48.4977 55.7999 49.9977 56.7999 50.8977 58.2999L50.9977 58.4C50.9977 58.4 51.0977 58.4 51.1977 58.4C51.2977 58.4 51.2977 58.4 51.3977 58.4L51.4977 58.2999C53.3977 55.5999 58.6977 54.6999 59.1977 58.9999C59.4977 61.4999 58.1977 63.7999 56.5977 65.4999C55.4977 66.5999 51.3977 69.3999 50.6977 69.5999C49.9977 69.6999 49.5977 69.1999 49.1977 68.7999C47.0977 66.5999 44.5977 63.2999 44.5977 59.7999C44.5977 58.0999 45.4977 56.6999 46.8977 56.2999Z" fill="#FF8080"/>
<path d="M73.0975 48.7004C76.3975 49.2004 91.1975 89.7004 83.4975 104C82.0975 106.5 76.1975 107.7 73.4975 106.7C61.6975 102.1 68.8975 70.5004 66.5975 59.8004C65.4975 55.0004 72.4975 48.6004 73.0975 48.7004Z" fill="#80CB94"/>
<path d="M66.7994 60.3008C65.1994 64.1008 64.4994 98.9008 69.7994 105.501" stroke="#333333" stroke-width="0.5281" stroke-linecap="round" stroke-linejoin="round"/>
<path d="M73.398 106.6C73.398 106.6 76.998 118.8 78.698 120.8C80.298 122.8 81.898 124.3 83.298 124.6C84.698 124.9 85.498 124.7 85.398 123.8C85.298 122.9 84.298 122.8 83.298 122.3C82.298 121.8 80.998 120.5 80.998 120.5C80.998 120.5 83.598 121.8 85.198 121.7C86.798 121.6 87.498 121.8 87.198 120.5C87.198 120.5 88.798 119.7 87.598 118.6C87.598 118.6 88.398 118.1 88.098 117.3C87.698 116.3 86.998 116.5 85.498 115.8C83.998 115 83.098 114.3 82.898 112.2C82.698 110.1 81.098 108.8 79.698 108.2L79.498 103.5C79.498 102.7 78.898 102.1 78.198 102C76.098 101.9 72.698 102.1 73.398 106.6Z" fill="#FFBFBF"/>
<path d="M87.0999 120.2C85.4999 119.8 83.7999 119.3 82.2999 118.8C81.8999 118.7 81.6999 119.2 81.9999 119.3C83.5999 119.9 85.2999 120.4 86.9999 120.8C87.3999 120.9 87.4999 120.3 87.0999 120.2Z" fill="#333333"/>
<path d="M82.3965 117.1C83.9965 118 85.6965 118.6 87.4965 118.9C87.8965 119 87.9965 118.4 87.5965 118.4C85.8965 118.1 84.1965 117.4 82.6965 116.6C82.5965 116.5 82.2965 116.6 82.2965 116.7C82.0965 116.9 82.1965 117 82.3965 117.1Z" fill="#333333"/>
<path d="M50.1998 19.3997C43.5998 16.4997 36.2998 22.1997 36.9998 29.6997C37.1998 32.0997 38.1998 34.6997 40.1998 37.8997C44.9998 45.7997 51.5998 42.6997 51.5998 42.6997L52.3998 45.1997L50.5998 53.4997L62.8998 43.5997L58.6998 32.4997C58.6998 32.4997 55.7998 25.1997 52.7998 21.2997C51.9998 20.4997 51.0998 19.7997 50.1998 19.3997Z" fill="#FFBFBF"/>
<path d="M48.1999 29.3995C47.1999 29.5995 46.4999 29.5995 45.7999 29.5995C45.0999 29.5995 44.4999 29.4995 43.7999 29.3995C43.3999 29.2995 43.1999 29.8995 43.4999 30.0995C44.8999 31.1995 46.9999 30.6995 48.3999 29.8995C48.5999 29.5995 48.4999 29.2995 48.1999 29.3995Z" fill="#333333"/>
<path d="M38.2 32.6998C38.7 32.4998 39.1 31.9998 39.4 31.5998C39.7 31.1998 39.9 30.7998 40.1 30.2998C40.2 29.9998 40.7 30.2998 40.7 30.4998C40.7 31.7998 39.5 32.5998 38.4 32.8998C38.2 33.0998 38 32.7998 38.2 32.6998Z" fill="#333333"/>
<path d="M40.4979 33.9996C40.7979 33.7996 41.1979 33.8996 41.3979 34.1996C41.5979 34.4996 41.6979 34.9996 41.3979 35.1996C41.0979 35.3996 40.6979 35.2996 40.4979 34.9996C40.2979 34.6996 40.1979 34.1996 40.4979 33.9996Z" fill="#333333"/>
<path d="M47.1986 31.3998C47.4986 31.1998 47.8986 31.3997 48.0986 31.7997C48.2986 32.1997 48.1986 32.6997 47.8986 32.7997C47.5986 32.9997 47.1986 32.7998 46.9986 32.3998C46.7986 31.9998 46.8986 31.5998 47.1986 31.3998Z" fill="#333333"/>
<path d="M45.3008 37.3994C44.7008 37.6994 43.3008 37.6994 43.1008 37.3994C43.0008 37.2994 44.0008 35.0994 43.5008 33.3994" stroke="#333333" stroke-width="0.5281" stroke-linecap="round" stroke-linejoin="round"/>
<path d="M47.1984 39.2C46.5984 38.8 45.7984 39 45.3984 39.7" stroke="#333333" stroke-width="0.5281" stroke-linecap="round" stroke-linejoin="round"/>
<path d="M55.899 38.5C55.199 40.6 53.699 42.2 51.899 43.2C51.499 43.4 51.199 42.8 51.599 42.6C53.299 41.5 54.699 40.2 55.899 38.5Z" fill="#333333"/>
<path d="M39.3984 21.1998C39.3984 21.1998 44.2984 14.7998 50.0984 15.4998C55.8984 16.2998 58.3984 18.5998 60.2984 20.2998C63.4984 23.1998 73.1984 38.8998 71.5984 41.3998C68.0984 46.6998 57.1984 51.1998 51.9984 28.4998C51.3984 25.9998 41.9984 24.3998 39.3984 21.1998Z" fill="#333333"/>
<path d="M55 28.4996C55.7 27.1996 56.6 27.0996 57.2 27.0996C57.8 27.1996 58.4 27.4996 58.8 27.9996C59.5 28.7996 59.9 29.8996 59.7 30.9996C59.5 32.0996 58.6 32.9996 57.5 32.9996L55 28.4996Z" fill="#FFBFBF"/>
<path d="M58.1016 29.7994C57.9016 29.7994 57.5016 29.9994 57.3016 30.0994C57.0016 30.2994 56.9016 30.4994 56.8016 30.8994C56.7016 31.2994 56.1016 31.1994 56.1016 30.7994C56.1016 30.2994 56.4016 29.7994 56.8016 29.5994C57.0016 29.4994 57.2016 29.3994 57.5016 29.3994C57.8016 29.3994 57.8016 29.5994 58.0016 29.6994C58.2016 29.6994 58.1016 29.7994 58.1016 29.7994Z" fill="#333333"/>
<path d="M29.6977 87.9994C29.5977 90.9994 32.6977 93.7994 35.3977 93.6994C42.5977 93.4994 52.0977 82.7994 46.9977 74.5994C44.5977 70.7994 30.0977 71.1994 29.6977 87.9994Z" fill="#80CB94"/>
<path d="M45.3961 87.2001C47.9961 83.5001 49.0961 78.8001 46.5961 74.7001C44.6961 71.7001 35.7961 71.3001 31.4961 78.8001" stroke="#333333" stroke-width="0.5281" stroke-linecap="round" stroke-linejoin="round"/>
<path d="M41.2983 73.9998C41.2983 73.9998 44.1983 64.0998 45.4983 62.1998C46.7983 60.3998 47.9983 58.9998 49.0983 58.6998C50.1983 58.3998 50.8983 58.5998 50.8983 59.3998C50.8983 60.1998 50.0983 60.2998 49.2983 60.7998C48.4983 61.2998 47.4983 62.3998 47.4983 62.3998C47.4983 62.3998 49.4983 61.1998 50.7983 61.1998C52.0983 61.1998 52.6983 60.9998 52.3983 62.1998C52.3983 62.1998 53.6983 62.7998 52.7983 63.8998C52.7983 63.8998 53.4983 64.2998 53.1983 64.9998C52.8983 65.8998 52.2983 65.6998 51.0983 66.3998C49.8983 67.0998 49.1983 67.7998 49.0983 69.5998C48.9983 71.3998 47.7983 72.5998 46.5983 73.1998L44.6983 78.0998C44.7983 78.1998 40.6983 79.4998 41.2983 73.9998Z" fill="#FFBFBF"/>
<path d="M52.3992 62.4003C50.9992 62.8003 49.6992 63.3003 48.3992 63.9003C48.0992 64.0003 47.8992 63.6003 48.1992 63.4003C49.4992 62.8003 50.8992 62.3003 52.3992 61.8003C52.6992 61.7003 52.7992 62.3003 52.3992 62.4003Z" fill="#333333"/>
<path d="M52.8991 63.9994C51.5991 64.8994 50.1991 65.4994 48.6991 65.7994C48.3991 65.8994 48.2991 65.3994 48.5991 65.2994C50.0991 64.9994 51.3991 64.2994 52.6991 63.4994C52.7991 63.3994 52.9991 63.4994 53.0991 63.5994C53.0991 63.7994 52.9991 63.8994 52.8991 63.9994Z" fill="#333333"/>
<path d="M43.1992 52C44.9992 55.2 47.4992 58 50.3992 60.2C53.2992 62.4 56.5992 63.9 59.9992 64.8C63.4992 65.7 67.0992 66.1 70.6992 66.2C72.4992 66.2 74.2992 66.3 76.0992 66.1C77.8992 65.9 79.6992 65.4 81.2992 64.2C79.9992 65.6 78.0992 66.5 76.2992 66.9C74.3992 67.3 72.5992 67.5 70.6992 67.6C66.9992 67.8 63.1992 67.6 59.4992 66.6C55.7992 65.6 52.2992 63.8 49.4992 61.3C46.5992 58.7 44.3992 55.4 43.1992 52Z" fill="#333333"/>
<path d="M47.9008 58.0004C49.2008 57.6004 50.4008 57.0004 51.6008 56.4004C50.4008 57.4004 49.1008 58.3004 47.8008 59.2004C47.8008 58.8004 47.8008 58.4004 47.9008 58.0004Z" fill="#333333"/>
<path d="M52.3984 62.4L54.6984 59C54.1984 60.2 53.7984 61.4 53.3984 62.6L52.3984 62.4Z" fill="#333333"/>
<path d="M54.1985 62.7998C53.6985 64.5998 53.3985 66.2998 53.0985 68.1998C52.9985 66.5998 52.8985 64.8998 52.9985 63.2998C53.3985 63.0998 53.7985 62.8998 54.1985 62.7998Z" fill="#333333"/>
<path d="M63.0977 65.5996C63.7977 64.3996 64.4977 63.1996 65.1977 62.0996C64.7977 63.5996 64.2977 65.0996 63.7977 66.5996C63.5977 66.1996 63.2977 65.8996 63.0977 65.5996Z" fill="#333333"/>
<path d="M66.6 66.0996C67.2 67.4996 67.9 68.8996 68.7 70.2996C67.7 69.3996 66.8 68.4996 66 67.4996L66.6 66.0996Z" fill="#333333"/>
<path d="M75.3008 66.0998C75.7008 64.7998 76.0008 63.5998 76.1008 62.2998C76.3008 63.7998 76.3008 65.2998 76.3008 66.7998C75.9008 66.6998 75.6008 66.3998 75.3008 66.0998Z" fill="#333333"/>
<path d="M57.3008 65C57.6008 63.2 58.0008 61.3 58.4008 59.5C58.3008 61.1 58.3008 62.8 58.3008 64.5L57.3008 65Z" fill="#333333"/>
<path d="M60.8977 66.7C59.9977 67.7 59.0977 68.6 58.0977 69.5C58.8977 68.2 59.6977 66.8 60.3977 65.5L60.8977 66.7Z" fill="#333333"/>
<path d="M49.9977 61.4996C48.5977 61.9996 47.0977 62.3996 45.5977 62.6996C47.1977 61.8996 48.6977 61.0996 50.1977 60.0996C50.0977 60.4996 50.0977 60.9996 49.9977 61.4996Z" fill="#333333"/>
<path d="M74.2984 66.4004L74.8984 70.7004C74.2984 69.5004 73.7984 68.3004 73.3984 67.0004L74.2984 66.4004Z" fill="#333333"/>
<path d="M69.1 67.0004C68.9 65.1004 68.6 63.2004 68.5 61.4004C68.9 63.1004 69.4 64.7004 70 66.3004L69.1 67.0004Z" fill="#333333"/>
<path d="M94.8008 60.4997C95.2008 59.4997 95.9008 58.5997 96.8008 57.8997C97.8008 57.1997 98.9008 56.7997 100.001 56.4997C102.301 55.7997 104.701 55.5997 107.201 55.3997C109.601 55.1997 111.901 55.0997 114.401 54.7997C116.701 54.4997 119.001 54.0997 121.101 53.0997C122.301 52.4997 123.601 52.1997 124.801 52.1997C125.401 52.0997 126.001 52.1997 126.701 52.1997C127.301 52.1997 127.901 52.2997 128.501 52.3997C130.901 52.6997 133.201 53.3997 135.601 54.0997C140.101 55.5997 144.601 57.5997 148.801 59.7997C144.301 58.2997 139.701 56.8997 135.101 55.7997C132.801 55.2997 130.601 54.7997 128.201 54.5997C126.001 54.3997 123.701 54.3997 122.201 55.1997C119.701 56.4997 117.101 56.7997 114.601 57.0997C112.101 57.2997 109.701 57.2997 107.301 57.2997C104.901 57.2997 102.601 57.2997 100.301 57.5997C99.2008 57.7997 98.1008 57.9997 97.1008 58.4997C96.1008 58.8997 95.3008 59.5997 94.8008 60.4997Z" fill="#333333"/>
<path d="M102.801 56.0004C103.301 54.3004 104.001 52.6004 104.601 50.9004C104.301 52.9004 104.101 55.0004 103.901 57.0004C103.601 56.6004 103.201 56.3004 102.801 56.0004Z" fill="#333333"/>
<path d="M111.001 56.0998L110.801 50.7998C111.201 52.3998 111.701 53.9998 112.101 55.6998L111.001 56.0998Z" fill="#333333"/>
<path d="M113.302 55.2002C114.002 57.4002 114.902 59.7002 115.802 61.9002C114.502 60.2002 113.402 58.4002 112.402 56.6002L113.302 55.2002Z" fill="#333333"/>
<path d="M125.5 52.3C126.2 50.7 127.2 49 128.2 47.5C127.6 49.5 127 51.5 126.6 53.5C126.2 53.1 125.8 52.7 125.5 52.3Z" fill="#333333"/>
<path d="M130.102 52.9004C130.702 54.8004 131.202 56.8004 131.602 58.7004C130.802 57.3004 130.002 56.0004 129.102 54.6004C129.502 54.0004 129.802 53.5004 130.102 52.9004Z" fill="#333333"/>
<path d="M120.702 54.2998C121.702 55.3998 122.602 56.5998 123.402 57.6998C122.302 56.9998 121.302 56.3998 120.102 55.7998C120.302 55.1998 120.502 54.7998 120.702 54.2998Z" fill="#333333"/>
<path d="M141.102 56.2006C142.302 55.0006 143.502 53.8006 144.802 52.6006C143.802 54.3006 142.702 56.0006 141.702 57.7006L141.102 56.2006Z" fill="#333333"/>
<path d="M118.299 55.4006C117.299 53.2006 116.399 50.9006 115.699 48.6006C116.699 50.5006 117.699 52.3006 119.099 54.1006C118.799 54.5006 118.599 55.0006 118.299 55.4006Z" fill="#333333"/>
<path d="M108.002 57.0006C107.102 58.7006 106.202 60.4006 105.402 62.2006C105.902 60.0006 106.402 57.8006 107.002 55.6006L108.002 57.0006Z" fill="#333333"/>
<path d="M139.799 56L138.199 61.5C138.299 59.8 138.399 58.1 138.399 56.3L139.799 56Z" fill="#333333"/>
<path d="M133.199 54.6002C133.499 52.1002 133.699 49.7002 133.799 47.2002C134.099 49.5002 134.299 51.7002 134.499 54.0002L133.199 54.6002Z" fill="#333333"/>
<path d="M65.5977 77.3C65.9977 76.3 66.6977 75.5 67.5977 75C68.5977 74.4 69.5977 74.1 70.7977 73.9C72.9977 73.5 75.2977 73.4 77.4977 73.6C77.9977 73.7 78.6977 73.7 79.1977 73.9C79.4977 74 79.6977 74 80.0977 74.1L80.7977 74.4C81.8977 74.9 82.7977 75.6 83.4977 76.5C84.1977 77.4 84.4977 78.4 84.6977 79.5C84.7977 80.5 84.7977 81.6 84.7977 82.6C84.4977 80.5 84.1977 78.4 82.8977 76.9C81.5977 75.4 79.5977 74.8 77.4977 74.6C75.3977 74.4 73.0977 74.4 70.9977 74.6C68.7977 74.8 66.6977 75.4 65.5977 77.3Z" fill="#333333"/>
<path d="M68.8984 74.4C68.9984 73.6 69.0984 72.8 69.2984 72C69.2984 72.9 69.3984 73.8 69.4984 74.7C69.2984 74.6 69.0984 74.5 68.8984 74.4Z" fill="#333333"/>
<path d="M72.6977 73.9996L72.5977 71.5996C72.7977 72.2996 72.9977 72.9996 73.1977 73.6996C73.0977 73.8996 72.8977 73.8996 72.6977 73.9996Z" fill="#333333"/>
<path d="M73.6969 73.5996C73.9969 74.5996 74.2969 75.5996 74.5969 76.5996C74.1969 75.7996 73.6969 74.9996 73.2969 74.1996L73.6969 73.5996Z" fill="#333333"/>
<path d="M79.5977 73.9998C80.0977 73.3998 80.7977 72.7998 81.3977 72.2998C80.8977 73.0998 80.2977 73.7998 79.8977 74.5998C79.7977 74.3998 79.6977 74.1998 79.5977 73.9998Z" fill="#333333"/>
<path d="M81.5984 74.7998C81.5984 75.6998 81.2984 76.5998 80.9984 77.2998C80.9984 76.9998 81.0984 76.6998 81.0984 76.3998C81.0984 76.0998 80.9984 75.7998 80.8984 75.3998C81.1984 75.1998 81.3984 74.9998 81.5984 74.7998Z" fill="#333333"/>
<path d="M84.5992 78.8994C85.4992 78.9994 86.1992 79.1994 86.9992 79.4994C85.9992 79.4994 85.0992 79.3994 84.1992 79.4994C84.2992 79.2994 84.3992 79.0994 84.5992 78.8994Z" fill="#333333"/>
<path d="M76.0961 73.9998C75.8961 72.8998 75.6961 71.8998 75.4961 70.7998C75.8961 71.6998 76.3961 72.5998 76.6961 73.4998L76.0961 73.9998Z" fill="#333333"/>
<path d="M78.2961 74.5994C77.8961 75.1994 77.3961 75.7994 76.9961 76.3994C77.1961 75.5994 77.4961 74.6994 77.8961 73.8994L78.2961 74.5994Z" fill="#333333"/>
<path d="M71.2977 74.4994C70.9977 75.2994 70.6977 76.0994 70.5977 76.8994C70.5977 75.8994 70.6977 74.8994 70.7977 73.8994L71.2977 74.4994Z" fill="#333333"/>
<path d="M84.2969 78.3996C83.3969 78.6996 82.5969 78.9996 81.7969 79.2996C82.3969 78.9996 83.1969 78.4996 83.7969 78.0996L84.2969 78.3996Z" fill="#333333"/>
<path d="M82.5977 76.0998C83.2977 75.1998 83.8977 74.2998 84.4977 73.2998C84.2977 74.2998 83.8977 75.2998 83.2977 76.0998C82.9977 76.0998 82.7977 76.0998 82.5977 76.0998Z" fill="#333333"/>
<path d="M66 87.2994C67.8 86.6994 69.4 86.1994 71.3 85.9994C73.2 85.7994 75.1 85.8994 76.8 86.2994C78.6 86.6994 80.4 87.4994 81.8 88.4994C83.4 89.4994 84.6 90.7994 85.8 92.0994C84.4 90.9994 83 89.8994 81.4 88.9994C79.8 88.1994 78.3 87.4994 76.5 87.0994C74.8 86.6994 73.1 86.4994 71.3 86.5994C69.6 86.6994 67.8 86.9994 66 87.2994Z" fill="#333333"/>
<path d="M69.6992 86.1998C69.8992 85.5998 69.9992 84.8998 70.2992 84.2998C70.1992 85.0998 70.1992 85.7998 70.1992 86.5998L69.6992 86.1998Z" fill="#333333"/>
<path d="M72.8984 86.2002V84.2002C72.9984 84.8002 73.1984 85.4002 73.2984 86.0002L72.8984 86.2002Z" fill="#333333"/>
<path d="M73.7984 85.8994C73.9984 86.7994 74.0984 87.5994 74.1984 88.4994C73.9984 87.7994 73.6984 87.0994 73.3984 86.3994L73.7984 85.8994Z" fill="#333333"/>
<path d="M78.5 86.7994C79 86.2994 79.4 85.8994 80.1 85.3994C79.7 85.9994 79.3 86.6994 78.8 87.2994L78.5 86.7994Z" fill="#333333"/>
<path d="M80.1992 87.5C80.1992 88.3 80.1992 89 80.1992 89.7C80.0992 89.1 79.8992 88.6 79.6992 88L80.1992 87.5Z" fill="#333333"/>
<path d="M83.6992 89.8996C84.2992 89.5996 84.9992 89.2996 85.5992 89.0996C84.9992 89.5996 84.2992 89.9996 83.7992 90.4996L83.6992 89.8996Z" fill="#333333"/>
<path d="M75.6 86.4998C75.6 85.5998 75.5 84.6998 75.5 83.7998C75.7 84.5998 75.9 85.3998 76.1 86.1998L75.6 86.4998Z" fill="#333333"/>
<path d="M77.3 87.1996C76.9 87.6996 76.5 88.0996 76 88.5996C76.3 87.8996 76.6 87.2996 77 86.5996L77.3 87.1996Z" fill="#333333"/>
<path d="M71.6984 86.4994C71.3984 87.0994 71.0984 87.7994 70.8984 88.3994C70.9984 87.5994 71.1984 86.6994 71.3984 85.8994L71.6984 86.4994Z" fill="#333333"/>
<path d="M83.3 89.6L82 91.3C82.2 90.7 82.5 90.1 82.7 89.5L83.3 89.6Z" fill="#333333"/>
<path d="M81.1016 88.3998C81.4016 87.5998 81.8016 86.6998 82.1016 85.7998C82.0016 86.5998 81.8016 87.3998 81.7016 88.2998C81.4016 88.3998 81.3016 88.3998 81.1016 88.3998Z" fill="#333333"/>
<path d="M67.2993 97.3001C67.0993 96.9001 67.2993 96.5001 67.5993 96.2001C67.8993 95.9001 68.3993 95.6001 68.8993 95.5001C69.7993 95.2001 70.8993 94.9001 71.8993 94.8001C73.9993 94.4001 75.9993 94.4001 78.0993 94.6001C79.0993 94.7001 80.1993 94.9001 81.0993 95.2001C82.0993 95.5001 83.1993 95.8001 83.9993 96.4001C85.7993 97.7001 85.7993 100.3 84.3993 101.7C85.3993 100.1 84.8993 97.9001 83.4993 97.0001C82.7993 96.5001 81.8993 96.3001 80.8993 96.1001C79.9993 95.9001 78.8993 95.7001 77.9993 95.6001C75.9993 95.4001 74.0993 95.3001 71.9993 95.5001C70.9993 95.6001 69.9993 95.7001 68.9993 95.9001C68.5993 96.0001 68.0993 96.1001 67.7993 96.4001C67.3993 96.6001 67.1993 96.9001 67.2993 97.3001Z" fill="#333333"/>
<path d="M70 95.1004C70.1 94.4004 70.3 93.6004 70.5 92.9004C70.5 93.8004 70.5 94.6004 70.5 95.5004C70.3 95.3004 70.2 95.2004 70 95.1004Z" fill="#333333"/>
<path d="M73.4008 94.9002L73.3008 92.7002C73.5008 93.4002 73.7008 94.0002 73.9008 94.7002L73.4008 94.9002Z" fill="#333333"/>
<path d="M74.4977 94.5C74.7977 95.5 74.9977 96.4 75.1977 97.4C74.8977 96.6 74.4977 95.9 74.0977 95.1L74.4977 94.5Z" fill="#333333"/>
<path d="M79.8008 94.9006C80.2008 94.3006 80.7008 93.7006 81.2008 93.1006C80.8008 93.9006 80.5008 94.7006 80.2008 95.5006L79.8008 94.9006Z" fill="#333333"/>
<path d="M81.8008 95.4004C82.0008 96.2004 82.1008 97.1004 82.0008 97.8004C81.9008 97.2004 81.6008 96.6004 81.3008 96.0004L81.8008 95.4004Z" fill="#333333"/>
<path d="M85.2008 98.5C85.9008 98.6 86.6008 98.9 87.4008 99.4C86.6008 99.2 85.8008 99.1 84.8008 99C84.9008 98.8 85.1008 98.7 85.2008 98.5Z" fill="#333333"/>
<path d="M76.4977 94.9004C76.3977 93.9004 76.1977 92.9004 76.0977 91.9004C76.3977 92.8004 76.6977 93.6004 76.9977 94.5004L76.4977 94.9004Z" fill="#333333"/>
<path d="M78.5984 95.5004C78.1984 96.1004 77.7984 96.6004 77.3984 97.2004C77.6984 96.4004 77.8984 95.6004 78.1984 94.9004L78.5984 95.5004Z" fill="#333333"/>
<path d="M72.1984 95.3002C71.8984 96.0002 71.5984 96.8002 71.3984 97.5002C71.4984 96.6002 71.5984 95.6002 71.7984 94.7002L72.1984 95.3002Z" fill="#333333"/>
<path d="M84.8977 98.0002C84.1977 98.3002 83.4977 98.6002 82.5977 98.9002C83.1977 98.6002 83.7977 98.2002 84.3977 97.7002C84.5977 97.8002 84.7977 97.9002 84.8977 98.0002Z" fill="#333333"/>
<path d="M82.8984 96.3008C83.1984 95.3008 83.4984 94.3008 83.6984 93.3008C83.6984 94.3008 83.6984 95.3008 83.4984 96.2008C83.2984 96.2008 83.0984 96.2008 82.8984 96.3008Z" fill="#333333"/>
<path d="M91.5 75.3004C91.5 74.5004 92 73.5004 92.5 72.7004C93 71.9004 93.6 71.1004 94.4 70.5004C95.9 69.2004 97.7 68.2004 99.7 67.7004C100.6 67.4004 101.7 67.4004 102.7 67.4004L104.3 67.5004C104.8 67.5004 105.2 67.7004 105.8 67.8004C106.8 68.0004 107.7 68.4004 108.6 68.8004C109.5 69.2004 110.4 69.7004 111.2 70.2004C110.3 69.9004 109.3 69.5004 108.5 69.2004C107.6 69.0004 106.6 68.6004 105.7 68.5004C105.2 68.4004 104.8 68.3004 104.2 68.3004L102.7 68.2004C101.8 68.3004 100.8 68.3004 99.9 68.6004C98.1 69.0004 96.4 69.9004 94.9 71.0004C94.2 71.6004 93.4 72.2004 92.8 72.9004C92.3 73.6004 91.7 74.4004 91.5 75.3004Z" fill="#333333"/>
<path d="M93.1984 71.7002C92.8984 71.1002 92.5984 70.4002 92.3984 69.7002C92.8984 70.4002 93.2984 71.1002 93.8984 71.7002H93.1984Z" fill="#333333"/>
<path d="M95.8016 69.8L94.6016 68C95.1016 68.5 95.6016 68.9 96.2016 69.4L95.8016 69.8Z" fill="#333333"/>
<path d="M96.5008 69C97.2008 69.7 97.8008 70.4 98.5008 71.2C97.9008 70.7 97.3008 70.1 96.5008 69.7C96.4008 69.5 96.4008 69.2 96.5008 69Z" fill="#333333"/>
<path d="M101.398 67.5004C101.598 66.8004 101.898 66.1004 102.198 65.4004C101.998 66.2004 101.898 67.1004 101.798 67.9004L101.398 67.5004Z" fill="#333333"/>
<path d="M103.4 67.5C103.7 68.3 104 69 104.2 69.7C103.9 69.2 103.5 68.7 103 68.2L103.4 67.5Z" fill="#333333"/>
<path d="M108 68.6002C108.5 68.1002 109 67.6002 109.7 67.2002C109.2 67.9002 108.8 68.5002 108.4 69.2002L108 68.6002Z" fill="#333333"/>
<path d="M98.5008 68.5996C98.0008 67.7996 97.5008 66.8996 96.8008 66.0996C97.5008 66.6996 98.1008 67.3996 98.8008 67.9996L98.5008 68.5996Z" fill="#333333"/>
<path d="M100.602 68.4004C100.402 69.1004 100.302 69.7004 100.202 70.3004C100.102 69.5004 100.102 68.7004 100.102 67.9004L100.602 68.4004Z" fill="#333333"/>
<path d="M95.0984 70.7996C95.1984 71.5996 95.3984 72.2996 95.6984 72.9996C95.1984 72.1996 94.7984 71.3996 94.3984 70.5996L95.0984 70.7996Z" fill="#333333"/>
<path d="M107.401 68.5L106.801 70.7C106.901 70 106.901 69.3 106.901 68.6L107.401 68.5Z" fill="#333333"/>
<path d="M104.699 68C104.699 67 104.699 66 104.699 65C104.899 65.9 105.099 66.8 105.199 67.7L104.699 68Z" fill="#333333"/>
<path d="M90.7008 88.3004C89.9008 86.4004 90.3008 83.9004 91.9008 82.3004C93.4008 80.7004 95.6008 79.9004 97.8008 79.4004C99.9008 78.8004 102.201 78.8004 104.301 79.1004C106.501 79.4004 108.601 80.0004 110.601 80.8004C108.501 80.4004 106.401 80.1004 104.201 80.0004C103.101 79.9004 102.101 79.9004 101.101 80.0004C100.101 80.1004 99.1008 80.3004 98.0008 80.5004C96.0008 81.0004 93.9008 81.6004 92.5008 82.9004C91.0008 84.1004 90.2008 86.3004 90.7008 88.3004Z" fill="#333333"/>
<path d="M90.8 83.9002C90.3 83.3002 89.8 82.5002 89.5 81.7002C90.1 82.4002 90.8 83.1002 91.5 83.7002C91.2 83.8002 91 83.9002 90.8 83.9002Z" fill="#333333"/>
<path d="M93.5008 81.5004L92.3008 79.4004C92.9008 79.9004 93.4008 80.5004 93.9008 81.1004C93.7008 81.2004 93.6008 81.4004 93.5008 81.5004Z" fill="#333333"/>
<path d="M94.2016 80.7002C94.9016 81.5002 95.5016 82.4002 96.1016 83.3002C95.5016 82.6002 94.8016 82.0002 94.1016 81.4002C94.1016 81.2002 94.2016 81.0002 94.2016 80.7002Z" fill="#333333"/>
<path d="M99.6992 79.1002C99.8992 78.3002 100.199 77.5002 100.499 76.7002C100.399 77.6002 100.299 78.6002 100.199 79.5002L99.6992 79.1002Z" fill="#333333"/>
<path d="M101.8 79.001C102.2 79.801 102.6 80.601 103 81.501C102.5 80.901 102 80.401 101.5 79.901L101.8 79.001Z" fill="#333333"/>
<path d="M107 79.6002C107.4 79.0002 107.9 78.3002 108.4 77.7002C108 78.5002 107.7 79.4002 107.4 80.2002L107 79.6002Z" fill="#333333"/>
<path d="M96.4008 80.3004C95.9008 79.3004 95.4008 78.3004 94.8008 77.4004C95.5008 78.1004 96.1008 78.9004 96.7008 79.7004L96.4008 80.3004Z" fill="#333333"/>
<path d="M98.7016 80.2002C98.5016 80.9002 98.3016 81.7002 98.1016 82.4002C98.1016 81.5002 98.1016 80.6002 98.1016 79.7002L98.7016 80.2002Z" fill="#333333"/>
<path d="M92.6008 82.6008C92.8008 83.4008 93.1008 84.2008 93.6008 84.8008C92.9008 84.1008 92.3008 83.3008 91.8008 82.3008C92.1008 82.5008 92.4008 82.5008 92.6008 82.6008Z" fill="#333333"/>
<path d="M106.299 79.6006L105.999 82.2006C105.899 81.4006 105.799 80.6006 105.699 79.9006L106.299 79.6006Z" fill="#333333"/>
<path d="M103.3 79.5006C103.2 78.4006 103.1 77.3006 103 76.1006C103.3 77.1006 103.6 78.1006 103.9 79.1006L103.3 79.5006Z" fill="#333333"/>
<path d="M90.8992 101.8C90.1992 101.2 89.9992 99.9002 90.3992 98.9002C90.7992 97.9002 91.5992 97.1002 92.4992 96.4002C94.2992 95.1002 96.0992 94.0002 98.0992 93.1002C100.099 92.2002 102.099 91.3002 104.199 90.8002C106.299 90.4002 108.699 90.5002 110.499 91.5002C108.499 90.8002 106.399 91.0002 104.399 91.6002C102.499 92.3002 100.499 93.2002 98.5992 94.1002C96.6992 95.0002 94.7992 96.0002 92.9992 97.1002C92.0992 97.6002 91.2992 98.3002 90.8992 99.1002C90.3992 99.9002 90.2992 101 90.8992 101.8Z" fill="#333333"/>
<path d="M91.0984 97.8004C90.7984 97.1004 90.5984 96.2004 90.3984 95.4004C90.7984 96.2004 91.2984 97.1004 91.7984 97.8004C91.5984 97.8004 91.2984 97.8004 91.0984 97.8004Z" fill="#333333"/>
<path d="M94.2 95.8998L93 93.7998L94.6 95.3998L94.2 95.8998Z" fill="#333333"/>
<path d="M94.9008 95C95.6008 95.8 96.4008 96.6 97.1008 97.4C96.4008 96.9 95.6008 96.3 94.8008 95.8L94.9008 95Z" fill="#333333"/>
<path d="M100 92.4004C100 91.6004 100 90.8004 100 89.9004L100.6 92.6004L100 92.4004Z" fill="#333333"/>
<path d="M101.898 91.5996C102.598 92.1996 103.298 92.7996 103.898 93.3996C103.198 93.0996 102.598 92.7996 101.898 92.4996V91.5996Z" fill="#333333"/>
<path d="M107 90.6C107.3 89.9 107.7 89.2 108.1 88.5C107.8 89.4 107.6 90.2 107.4 91.1C107.3 91 107.1 90.8 107 90.6Z" fill="#333333"/>
<path d="M97.1 94.3002C96.4 93.4002 95.7 92.6002 95 91.7002C95.8 92.3002 96.5 93.0002 97.3 93.6002L97.1 94.3002Z" fill="#333333"/>
<path d="M99.2977 93.6998C99.2977 94.4998 99.1977 95.1998 99.1977 95.9998C98.9977 95.0998 98.7977 94.1998 98.5977 93.2998L99.2977 93.6998Z" fill="#333333"/>
<path d="M93.2 96.8996C93.2 97.7996 93.3 98.5996 93.6 99.3996C93.1 98.4996 92.8 97.4996 92.5 96.5996L93.2 96.8996Z" fill="#333333"/>
<path d="M106.398 90.7002L106.698 93.3002C106.498 92.6002 106.198 91.8002 105.898 91.1002C105.998 91.0002 106.198 90.9002 106.398 90.7002Z" fill="#333333"/>
<path d="M103.498 91.5996L101.898 88.5996C102.498 89.3996 103.198 90.1996 103.798 90.9996C103.698 91.1996 103.598 91.3996 103.498 91.5996Z" fill="#333333"/>
<path d="M73.6992 109.1C74.5992 109.3 75.3992 108.8 75.9992 108.4C76.5992 108 77.0992 107.5 77.7992 107.1C78.0992 106.9 78.3992 106.7 78.6992 106.5C78.9992 106.4 79.4992 106.3 79.7992 106.6L81.5992 107.9C83.9992 109.6 86.4992 111.2 89.1992 112.2C91.8992 113.2 94.8992 113.6 97.6992 112.9C99.1992 112.6 100.499 112 101.699 111.2C102.299 110.8 102.899 110.4 103.599 110C103.899 109.8 104.199 109.6 104.499 109.4C104.799 109.2 105.099 109.1 105.299 109.1C105.099 109.1 104.799 109.3 104.599 109.5C104.299 109.7 104.099 109.9 103.799 110.2C103.299 110.7 102.699 111.2 101.999 111.6C100.799 112.5 99.3992 113.3 97.9992 113.8C96.3992 114.3 94.8992 114.5 93.1992 114.4C91.5992 114.3 89.9992 113.9 88.4992 113.4C85.5992 112.3 82.9992 110.5 80.6992 108.6C80.1992 108.1 79.5992 107.6 78.9992 107.1C78.9992 107.1 78.8992 107.1 78.7992 107.1C78.5992 107.2 78.2992 107.3 77.9992 107.5C77.3992 107.8 76.7992 108.2 75.9992 108.6C75.4992 109 74.5992 109.4 73.6992 109.1Z" fill="#333333"/>
<path d="M79.3984 106.4C79.6984 105.9 80.5984 105.9 81.0984 105.6L82.5984 104.9C81.5984 105.7 80.5984 106.5 79.5984 107.2C79.5984 107.1 79.5984 106.9 79.5984 106.8C79.5984 106.7 79.4984 106.6 79.3984 106.4Z" fill="#333333"/>
<path d="M83.1992 109.701L85.1992 107.101C84.7992 108.001 84.3992 109.001 83.9992 109.901L83.1992 109.701Z" fill="#333333"/>
<path d="M84.6008 110.2C84.1008 111.5 83.7008 112.9 83.3008 114.3C83.4008 113 83.5008 111.7 83.6008 110.5C83.9008 110.4 84.3008 110.3 84.6008 110.2Z" fill="#333333"/>
<path d="M91.6992 113.101C92.2992 112.201 92.7992 111.301 93.3992 110.301C93.0992 111.501 92.6992 112.701 92.2992 113.901C91.9992 113.601 91.7992 113.301 91.6992 113.101Z" fill="#333333"/>
<path d="M94.4984 113.4C94.7984 113.9 95.0984 114.4 95.4984 115C95.8984 115.5 96.2984 116 96.6984 116.5C95.6984 115.9 94.6984 115.3 93.8984 114.6C94.1984 114.2 94.2984 113.8 94.4984 113.4Z" fill="#333333"/>
<path d="M101.1 111.601C101 110.601 100.8 109.601 100.5 108.601C101 109.701 101.5 110.701 102.1 111.801C101.7 111.701 101.4 111.601 101.1 111.601Z" fill="#333333"/>
<path d="M86.8984 112.1C87.2984 110.7 87.7984 109.3 88.3984 107.9C88.1984 109.2 87.9984 110.4 87.8984 111.8L86.8984 112.1Z" fill="#333333"/>
<path d="M89.6992 113.9C88.8992 114.6 87.9992 115.3 87.1992 115.9C87.9992 114.9 88.7992 114 89.3992 112.9C89.4992 113.2 89.5992 113.5 89.6992 113.9Z" fill="#333333"/>
<path d="M81.3008 109C80.2008 109.4 79.0008 109.8 77.8008 110.1C79.0008 109.4 80.3008 108.7 81.4008 108L81.3008 109Z" fill="#333333"/>
<path d="M100.498 112.101C101.098 113.101 101.698 114.001 102.498 115.001C101.698 114.301 100.798 113.601 100.098 112.801C100.198 112.601 100.298 112.301 100.498 112.101Z" fill="#333333"/>
<path d="M96.5984 113.8C96.0984 112.4 95.6984 111 95.3984 109.5C95.8984 110.8 96.3984 111.9 97.2984 113.1C96.9984 113.4 96.7984 113.6 96.5984 113.8Z" fill="#333333"/>
</g>
<defs>
<clipPath id="clip0_3786_13745">
<rect width="171" height="141" fill="white" transform="translate(6 6)"/>
</clipPath>
</defs>
</svg>
