<svg width="184" height="152" viewBox="0 0 184 152" fill="none" xmlns="http://www.w3.org/2000/svg">
<path d="M16.6992 82.8004C16.9992 83.5004 16.5992 100.1 21.5992 101.4C26.4992 102.6 59.1992 100.1 59.8992 97.0004C60.5992 93.9004 64.9992 65.6004 62.1992 63.0004C59.2992 60.3004 59.5992 57.5004 44.3992 55.5004C30.6992 53.7004 19.5992 56.6004 17.6992 62.0004C15.6992 67.6004 16.6992 82.8004 16.6992 82.8004Z" fill="#C9D6F2"/>
<path d="M16.6992 82.8009C16.9992 83.5009 16.5992 100.101 21.5992 101.401C26.4992 102.601 59.1992 100.101 59.8992 97.0009C60.5992 93.9009 64.9992 65.6009 62.1992 63.0009C59.2992 60.3009 56.3992 63.8009 41.0992 63.4009C20.2992 62.9009 19.5992 56.6009 17.6992 62.0009C15.6992 67.6009 16.6992 82.8009 16.6992 82.8009Z" fill="#9CAAD8"/>
<path d="M20.1992 83.4002C20.4992 84.1002 20.0992 100.7 25.0992 102C29.9992 103.2 62.6992 100.7 63.3992 97.6002C64.0992 94.5002 68.4992 66.2002 65.6992 63.6002C62.7992 60.9002 60.1992 58.6002 45.0992 56.7002C31.3992 54.9002 23.1992 57.2002 21.1992 62.7002C19.1992 68.1002 20.1992 83.4002 20.1992 83.4002Z" fill="#AFBAE8" stroke="#687AAD" stroke-width="0.75" stroke-miterlimit="10"/>
<path d="M77.6015 36.0003C77.6015 25.4003 70.2015 19.0003 70.2015 19.0003C69.9015 23.1003 60.0015 20.3003 60.4015 16.1003C60.4015 16.1003 45.4015 11.9003 40.3015 26.6003C27.8015 62.5003 21.8015 61.6003 22.9015 93.9003C22.9015 93.9003 38.4015 118.1 57.4015 77.9003C63.8015 116.2 71.5015 84.3003 71.5015 84.3003C73.6015 79.7003 77.5015 74.6003 77.6015 36.0003Z" fill="#333333"/>
<path d="M63.2016 49.7003C63.0016 49.7003 61.3016 49.6003 61.3016 49.6003L59.7016 56.3003L46.1016 50.1003L48.1016 48.8003L49.8016 40.6003C49.8016 40.6003 48.6016 29.8003 48.7016 28.6003C48.8016 27.5003 49.0016 26.5003 49.2016 25.6003C49.5016 24.2003 49.1016 22.2003 50.0016 21.1003C56.1016 13.9003 68.5016 16.3003 72.2016 24.8003C72.3016 25.0003 72.4016 25.3003 72.5016 25.5003C73.5016 28.4003 73.4016 36.5003 72.9016 38.4003C70.4016 48.4003 65.0016 49.7003 63.2016 49.7003Z" fill="#FFBFBF"/>
<path d="M54.603 46.1001C56.503 48.4001 58.603 50.1001 61.603 50.5001C62.103 50.6001 62.303 49.8001 61.703 49.7001C58.903 49.2001 56.903 47.6001 54.603 46.1001C54.603 46.0001 54.503 46.1001 54.603 46.1001Z" fill="#3D3442"/>
<path d="M75.9003 27.6C72.5003 16.3 64.0003 15 60.9003 15.9C59.7003 15.5 57.3003 15.4 56.0003 15.6C50.2003 16.4 48.8003 18.6 47.0003 20.2C43.8003 23.1 34.1003 38.8 35.7003 41.3C39.2003 46.6 50.1003 51.1 55.3003 28.4C55.7003 26.5 61.1003 25.1 64.8003 23.2C66.7003 24.7 69.6003 26.7 72.7003 27.4C74.1003 27.7 74.5003 37.5 74.5003 37.5C74.5003 37.5 79.0003 37.5 75.9003 27.6Z" fill="#333333"/>
<path d="M50.7996 31.8002C49.4996 29.0002 46.4996 29.7002 45.7996 30.1002C44.9996 30.5002 44.4996 31.2002 44.0996 32.0002C43.4996 33.3002 43.4996 34.9002 44.2996 36.1002C45.0996 37.3002 47.3996 38.3002 48.7996 37.8002L50.7996 31.8002Z" fill="#FFBFBF"/>
<path d="M45.7977 33.7998C45.8977 33.6998 46.1977 33.7998 46.2977 33.6998C46.4977 33.6998 46.6977 33.6998 46.8977 33.6998C47.3977 33.7998 47.5977 34.0998 47.7977 34.3998C48.0977 34.7998 48.6977 34.3998 48.4977 33.9998C48.2977 33.3998 47.6977 32.9998 47.0977 32.8998C46.7977 32.7998 46.4977 32.8998 46.1977 32.9998C46.0977 33.0998 45.8977 33.0998 45.7977 33.2998C45.6977 33.3998 45.6977 33.5998 45.5977 33.6998C45.6977 33.6998 45.7977 33.7998 45.7977 33.7998Z" fill="#3D3442"/>
<path d="M69.6019 36.0006C69.2019 35.9006 68.7019 36.1006 68.6019 36.6006C68.4019 37.1006 68.6019 37.5006 69.0019 37.7006C69.4019 37.8006 69.9019 37.6006 70.0019 37.1006C70.2019 36.6006 70.0019 36.1006 69.6019 36.0006Z" fill="#3D3442"/>
<path d="M60.1012 35.0008C59.6012 34.9008 59.2012 35.3008 59.1012 35.8008C59.0012 36.3008 59.3012 36.8008 59.8012 36.8008C60.3012 36.9008 60.7012 36.5008 60.8012 36.0008C60.9012 35.5008 60.6012 35.0008 60.1012 35.0008Z" fill="#3D3442"/>
<path d="M72.7011 33.8004C73.0011 33.9004 72.1011 33.1004 71.8011 33.0004C70.0011 31.9004 68.3011 32.2004 67.3011 32.6004C67.0011 32.7004 67.2011 33.3004 67.7011 33.4004C69.3011 33.8004 70.0011 32.9004 72.5011 33.8004H72.7011Z" fill="#333333"/>
<path d="M57.5 31.6004C59.8 30.9004 61.8 31.5004 63 32.1004C63.3 32.3004 63 32.8004 62.4 32.8004C60.4 32.9004 59.6 31.8004 56.5 32.2004" fill="#333333"/>
<path d="M63.6016 41.3002C64.5016 41.7002 66.3016 41.4002 66.5016 40.9002C66.6016 40.7002 65.0016 38.0002 65.4016 35.7002" stroke="#3D3442" stroke-width="0.5281" stroke-linecap="round" stroke-linejoin="round"/>
<path d="M60.8008 43.1006C62.2008 44.7006 65.5008 44.9006 67.1008 43.5006" stroke="#3D3442" stroke-width="0.5281" stroke-linecap="round" stroke-linejoin="round"/>
<path d="M62.9985 50.5007C63.9985 50.6007 65.7985 51.3007 66.3985 52.2007C66.3985 52.2007 69.2985 52.4007 70.2985 52.5007C71.9985 52.7007 74.0985 54.0007 72.7985 55.9007C71.4985 57.9007 56.5985 59.3007 59.1985 56.5007C62.2985 53.3007 59.7985 50.3007 62.9985 50.5007Z" fill="#80CB94"/>
<path d="M51.5987 47.9003C50.4987 47.4003 45.9987 45.6003 40.7987 46.6003C40.2987 46.7003 35.3987 47.7003 35.0987 49.7003C34.9987 50.3003 35.3987 50.6003 35.0987 51.2003C34.5987 52.3003 32.9987 52.3003 31.8987 53.2003C30.3987 54.5003 31.0987 56.3003 32.1987 55.5003C35.9987 53.0003 37.4987 52.3003 44.3987 52.0003C50.1987 51.8003 57.3987 58.4003 59.3987 57.1003C60.2987 56.7003 57.4987 50.8003 51.5987 47.9003Z" fill="#80CB94"/>
<path d="M59.1982 56.5005C57.4982 56.1005 47.0982 50.4005 43.3982 51.1005C39.6982 51.8005 34.4982 52.9005 31.3982 55.8005C25.7982 61.1005 23.0982 74.6005 20.1982 97.6005C18.3982 111.901 50.2982 113.301 61.4982 108.801C64.2982 107.701 75.5982 105.101 73.7982 100.601C70.1982 91.2005 73.5982 64.0005 68.1982 59.3005C66.6982 58.1005 64.1982 57.5005 59.1982 56.5005Z" fill="#80CB94"/>
<path d="M31.5977 55.5006C35.2977 51.6006 37.3977 54.7006 44.2977 53.8006C49.9977 53.1006 57.4977 59.2006 59.3977 57.2006" stroke="#3D3442" stroke-width="0.5281" stroke-linecap="round" stroke-linejoin="round"/>
<path d="M62.8996 59.7998C66.6996 59.1998 68.1996 53.1998 72.6996 55.0998C83.5996 59.5998 100.4 79.0998 97.4996 86.4998C92.2996 100.1 81.3996 101.6 72.2996 85.9998C69.0996 80.4998 69.1996 80.5998 69.5996 76.2998C69.6996 75.6998 60.4996 60.1998 62.8996 59.7998Z" fill="#80CB94"/>
<path d="M72.298 85.9998C69.098 80.4998 69.198 80.5998 69.598 76.2998" stroke="#3D3442" stroke-width="0.5281" stroke-linecap="round" stroke-linejoin="round"/>
<path d="M42.9994 67.5996C39.0994 67.4996 35.0994 73.6996 35.0994 73.6996C31.4994 58.1996 32.6994 53.7996 29.5994 57.4996C23.6994 64.3996 10.9994 83.4996 18.9994 95.9996C26.7994 108.3 36.9994 100.4 48.5994 85.5996C52.4994 80.5996 52.9994 80.6996 51.8994 76.4996C51.8994 75.8996 45.4994 67.6996 42.9994 67.5996Z" fill="#80CB94"/>
<path d="M19 95.9992C26.8 108.299 34.9 98.6992 49.8 87.1992C61.4 78.1992 51.1 68.6992 45.5 68.6992C38.2 68.6992 29.6 79.8992 29.6 79.8992" stroke="#3D3442" stroke-width="0.5281" stroke-linecap="round" stroke-linejoin="round"/>
<path d="M38.8008 64.2998C38.9008 65.2998 39.0008 66.5998 38.8008 68.0998C38.6008 69.5998 38.2008 70.8998 37.8008 71.7998" stroke="#3D3442" stroke-width="0.5281" stroke-linecap="round" stroke-linejoin="round"/>
<path d="M76.0008 74.4998L75.9008 59.2998L58.8008 59.3998L58.9008 74.4998V74.5998C58.9008 74.5998 58.9008 74.5998 58.9008 74.6998C58.9008 75.7998 63.1008 77.3998 68.0008 77.3998C72.6008 77.3998 76.0008 75.5998 76.0008 74.4998Z" fill="#6969B7" stroke="#333333" stroke-width="0.5" stroke-miterlimit="10"/>
<path d="M58.9023 59.4002C58.9023 58.8002 62.7023 58.3002 67.5023 58.2002C72.2023 58.2002 76.1023 58.6002 76.1023 59.3002C76.1023 59.8002 71.2023 60.4002 67.5023 60.4002C62.7023 60.4002 58.9023 59.9002 58.9023 59.4002Z" fill="#575787" stroke="#333333" stroke-miterlimit="10"/>
<path d="M72.0996 73.2001C71.4996 73.8001 69.0996 71.5001 69.0996 71.5001C69.0996 71.5001 68.9996 74.8001 68.1996 74.8001C67.3996 74.8001 66.9996 71.6001 66.9996 71.6001C66.9996 71.6001 64.7996 74.1001 64.0996 73.5001C63.3996 73.0001 65.2996 70.3001 65.2996 70.3001C65.2996 70.3001 62.0996 70.8001 61.8996 69.9001C61.6996 69.1001 64.8996 68.2001 64.8996 68.2001C64.8996 68.2001 62.0996 66.5001 62.4996 65.7001C62.8996 64.9001 65.8996 66.3001 65.8996 66.3001C65.8996 66.3001 64.8996 63.2001 65.6996 62.9001C66.4996 62.6001 67.8996 65.5001 67.8996 65.5001C67.8996 65.5001 69.0996 62.4001 69.8996 62.7001C70.6996 63.0001 69.8996 66.1001 69.8996 66.1001C69.8996 66.1001 72.7996 64.5001 73.1996 65.3001C73.5996 66.1001 70.9996 67.9001 70.9996 67.9001C70.9996 67.9001 74.1996 68.6001 74.0996 69.4001C73.9996 70.2001 70.6996 70.0001 70.6996 70.0001C70.6996 70.0001 72.6996 72.6001 72.0996 73.2001Z" fill="white"/>
<path d="M68.2 70.4C69.1389 70.4 69.9 69.6389 69.9 68.7C69.9 67.7611 69.1389 67 68.2 67C67.2611 67 66.5 67.7611 66.5 68.7C66.5 69.6389 67.2611 70.4 68.2 70.4Z" fill="#FFBFBF"/>
<path d="M77.7019 65.5006C78.3019 65.2006 78.6019 64.0006 78.3019 63.3006C77.7019 61.9006 74.5019 61.6006 72.6019 62.8006C72.0019 63.2006 71.1019 64.0006 71.3019 64.6006C71.5019 65.2006 72.6019 65.2006 72.8019 65.3006C74.2019 65.4006 74.7019 64.4006 75.6019 64.8006C76.2019 65.0006 76.2019 65.5006 77.0019 65.7006C77.1019 65.6006 77.4019 65.7006 77.7019 65.5006Z" fill="#FFBFBF"/>
<path d="M77.8026 68.1005C78.4026 67.7005 78.6026 66.5005 78.2026 65.9005C77.3026 64.6005 73.8026 64.7005 71.8026 66.2005C71.2026 66.7005 70.3026 67.6005 70.6026 68.1005C70.9026 68.6005 72.1026 68.5005 72.3026 68.5005C73.9026 68.4005 74.3026 67.3005 75.3026 67.6005" fill="#FFBFBF"/>
<path d="M77.9029 70.3007C78.4029 69.8007 78.4029 68.9007 77.9029 68.3007C77.0029 67.1007 70.3029 68.6007 71.4029 70.9007C71.6029 71.4007 72.9029 71.2007 73.0029 71.2007C76.0029 70.0007 76.4029 70.6007 77.1029 70.5007C77.3029 70.6007 77.7029 70.6007 77.9029 70.3007Z" fill="#FFBFBF"/>
<path d="M78.0018 72.6006C78.3018 72.1006 78.6018 71.2006 78.0018 70.7006C76.8018 69.7006 74.6018 70.8006 73.4018 72.1006C73.0018 72.5006 72.5018 73.4006 72.7018 73.9006C72.9018 74.4006 73.8018 74.0006 73.9018 74.0006C74.7018 73.7006 75.5018 72.9006 76.1018 72.9006C76.8018 72.8006 76.7018 73.1006 77.4018 72.9006C77.6018 72.9006 77.9018 72.9006 78.0018 72.6006Z" fill="#FFBFBF"/>
<path d="M72.3008 65.4005C73.7008 65.5005 74.6008 64.4005 75.5008 64.7005" stroke="#575787" stroke-width="0.5281" stroke-miterlimit="10" stroke-linecap="round" stroke-linejoin="round"/>
<path d="M73 68.7004C73.7 68.4004 74.6 67.4004 75.6 67.6004" stroke="#575787" stroke-width="0.5281" stroke-miterlimit="10" stroke-linecap="round" stroke-linejoin="round"/>
<path d="M78.2008 65.8009C77.3008 64.5009 73.8008 64.6009 71.8008 66.1009" stroke="#3D3442" stroke-width="0.5281" stroke-linecap="round" stroke-linejoin="round"/>
<path d="M77.9992 68.4004C77.3992 67.6004 74.4992 68.0004 72.6992 68.9004" stroke="#3D3442" stroke-width="0.5281" stroke-linecap="round" stroke-linejoin="round"/>
<path d="M78 70.7001C77 70.1001 76.2 70.1002 75 70.9002" stroke="#3D3442" stroke-width="0.5281" stroke-linecap="round" stroke-linejoin="round"/>
<path d="M46.1006 71.8999C46.4006 71.1999 46.9006 71.2999 47.9006 70.4999C49.5006 69.0999 49.1006 67.6999 50.3006 65.6999C52.0006 62.7999 55.1006 61.8999 55.6006 61.7999C57.7006 61.1999 60.0006 60.6999 60.2006 62.1999C60.3006 62.6999 59.2006 63.7999 59.2006 63.9999C59.1006 64.1999 60.5006 63.8999 61.1006 64.5999C61.5006 65.0999 61.6006 65.8999 61.3006 66.2999C61.1006 66.5999 60.6006 66.8999 60.6006 67.0999C60.5006 67.2999 61.5006 66.6999 61.8006 67.9999C62.1006 69.1999 60.8006 69.1999 60.9006 69.2999C61.0006 69.6999 61.8006 69.3999 61.7006 70.3999C61.5006 71.4999 60.4006 71.2999 60.4006 71.2999C60.4006 71.2999 61.1006 71.4999 60.9006 72.3999C60.6006 73.4999 59.1006 73.8999 58.9006 73.9999C52.8006 76.4999 52.2006 78.1999 50.0006 77.4999C47.2006 76.6999 45.4006 73.4999 46.1006 71.8999Z" fill="#FFBFBF"/>
<path d="M58.8 63.9001C58 63.6001 56 64.1001 55.5 64.5001" stroke="#3D3442" stroke-width="0.5281" stroke-linecap="round" stroke-linejoin="round"/>
<path d="M60.1992 66.8998C59.2992 66.5998 57.1992 67.2998 56.6992 67.6998" stroke="#3D3442" stroke-width="0.5281" stroke-linecap="round" stroke-linejoin="round"/>
<path d="M60.5 69.2001C59.7 68.8001 57.5 69.1001 57 69.3001" stroke="#3D3442" stroke-width="0.5281" stroke-linecap="round" stroke-linejoin="round"/>
<path d="M60.1016 71.1996C59.4016 70.7996 57.5016 71.1996 57.1016 71.4996" stroke="#3D3442" stroke-width="0.5281" stroke-linecap="round" stroke-linejoin="round"/>
<path d="M51.1992 106.199V113.299L91.4992 135.499V130.199L51.1992 106.199Z" fill="#687AAD"/>
<path d="M168.6 105.699V111.699L91.5 135.499V130.199L168.6 105.699Z" fill="#9CAAD8"/>
<path d="M51.1992 106.2L125.699 89.0996L168.599 105.7L91.4992 130.2L51.1992 106.2Z" fill="#8E9FCE"/>
<path d="M168.2 105.8L91.5 130.2" stroke="#687AAD" stroke-miterlimit="10" stroke-linecap="round" stroke-linejoin="round"/>
<path d="M93.4974 59.3C93.4974 59.3 91.8974 57.2 89.0974 63.8C86.1974 70.4 78.9974 112.8 115.797 107.6C152.597 102.4 141.997 65 138.797 64.5C135.597 64 133.597 72.5 133.597 72.5C133.597 72.5 128.897 45.5 121.197 47.4C116.597 48.5 114.197 66.5 114.197 66.5C114.197 66.5 117.797 36.8 110.997 35.8C104.197 34.8 97.8974 61.3 97.8974 71L93.4974 59.3Z" fill="#FFAEAE"/>
<path d="M115.398 102.7C110.398 102.7 105.598 100.6 102.198 96.7998C101.398 95.8998 100.598 94.8998 100.298 93.5998C99.998 92.2998 100.198 90.6998 101.098 89.6998C101.998 88.5998 103.498 88.3998 104.698 88.7998C105.898 89.1998 106.798 90.0998 107.798 90.9998C106.498 87.3998 105.898 83.4998 106.098 79.4998C106.198 77.9998 106.498 76.1998 107.598 75.2998C109.098 74.0998 110.998 75.1998 112.298 76.2998C115.798 79.4998 118.498 83.8998 119.898 88.8998C120.098 87.3998 120.298 85.9998 120.998 84.5998C121.598 83.2998 122.798 82.0998 124.098 82.0998C125.498 81.9998 126.598 83.2998 126.998 84.6998C127.398 86.1998 127.698 89.6998 127.298 91.1998C125.798 96.4998 122.598 101.8 115.398 102.7Z" fill="#FF8080"/>
<path d="M108.997 107.1C108.597 106.9 97.8973 107.7 92.9973 101.5C92.9973 101.5 85.6973 103.7 83.7973 104.6C82.2973 105.2 82.1973 107.2 82.3973 107.6C84.2973 110.9 102.497 116.5 107.997 116C113.497 115.5 142.197 110.7 143.897 107.9C144.597 106.7 157.397 79.0002 154.597 76.6002C153.097 75.3002 121.897 78.8003 118.797 81.5003C115.697 84.1003 108.997 107.1 108.997 107.1Z" fill="#333333"/>
<path d="M106.597 112.3C106.597 112.3 87.9966 107.5 88.2966 106.7C88.3966 106.4 96.2966 104.3 96.2966 104.3C102.697 107.5 108.497 106.8 108.497 106.8C108.497 106.8 106.997 112.4 106.597 112.3Z" fill="#FFC5C5"/>
<path d="M93.0961 108.7C96.2961 108.3 99.3961 107.4 102.496 106.6C102.596 106.6 102.596 106.4 102.396 106.4C99.2961 107.2 96.0961 107.7 92.9961 108.5C92.9961 108.6 92.9961 108.7 93.0961 108.7Z" fill="#333333"/>
<path d="M100.299 110.7C102.899 110.2 105.499 109.3 107.999 108.6C108.199 108.5 108.099 108.2 107.899 108.3C105.399 109.1 102.699 109.7 100.199 110.6C100.199 110.6 100.199 110.7 100.299 110.7Z" fill="#333333"/>
<path d="M93.4957 105.5C97.9957 107 102.596 108.4 107.196 109.7C107.496 109.8 107.596 109.4 107.296 109.3C102.796 107.7 98.0957 106.7 93.5957 105.2C93.3957 105.2 93.2957 105.4 93.4957 105.5Z" fill="#333333"/>
<path d="M106.198 114.3C107.098 112.7 107.598 110.8 108.198 109C109.098 106.4 109.998 103.7 110.798 101.1C112.398 96.1001 113.998 91.1001 115.998 86.3001C116.098 86.0001 115.698 85.9001 115.598 86.1001C113.598 90.8001 112.098 95.7001 110.498 100.5C109.598 103.1 108.798 105.7 107.898 108.3C107.298 110.2 106.398 112.2 105.898 114.2C105.998 114.4 106.198 114.5 106.198 114.3Z" fill="#FF8080"/>
<path d="M121.096 81.9002C126.496 81.1002 131.796 79.9002 137.296 79.2002C142.496 78.6002 147.796 78.1002 152.996 77.6002C153.196 77.6002 153.196 77.2002 152.996 77.2002C147.496 77.7002 142.096 78.2002 136.596 78.9002C131.396 79.6002 126.096 80.2002 120.996 81.6002C120.796 81.7002 120.896 82.0002 121.096 81.9002Z" fill="#FF8080"/>
<path d="M126.498 104.6C126.798 105 127.198 105.2 127.698 105.2C128.198 105.2 128.898 105.3 131.698 102.9C131.998 103.5 132.398 104.2 132.698 104.7C133.298 105.5 133.898 105.8 134.598 105.6C135.398 105.4 136.098 105 136.698 101.2C138.098 101.2 140.098 100.9 141.098 99.7003C141.498 99.2003 141.698 98.4003 141.098 97.5003C140.698 97.0003 139.998 96.4003 139.298 96.0003C142.198 92.5003 142.498 91.9003 141.798 90.9003L141.598 90.7003L141.398 90.5003C140.898 90.2003 140.398 89.8003 136.398 91.5003C136.198 89.7003 135.798 87.8003 135.198 87.0003C135.198 86.9003 135.098 86.9003 135.098 86.8003C134.698 86.3003 133.998 86.1003 133.398 86.3003C132.698 86.5003 131.898 86.7003 130.698 92.7003C128.698 92.8003 126.598 93.1003 125.898 93.4003C125.298 93.7003 124.898 94.2003 124.798 94.7003C124.598 95.4003 124.798 96.1003 125.398 96.8003C125.998 97.7003 127.198 98.6003 128.098 99.3003C127.598 100.2 126.898 101.6 126.498 102.8C125.998 103.7 126.198 104.3 126.498 104.6Z" fill="white"/>
<path d="M140.497 91.8007C140.697 91.9007 136.997 96.4007 136.997 96.4007C136.997 96.4007 140.297 98.4007 139.797 98.9007C138.797 100.101 135.197 99.8007 135.197 99.8007C135.197 99.8007 134.697 104.101 134.097 104.301C133.597 104.401 131.897 100.701 131.897 100.701C131.897 100.701 126.897 105.301 127.497 103.501C128.197 101.601 129.697 99.1007 129.697 99.1007C129.697 99.1007 124.497 95.8007 126.197 94.9007C126.997 94.5007 131.597 94.3007 131.597 94.3007C131.597 94.3007 132.897 87.1007 133.697 88.0007C134.497 88.8007 134.797 93.9007 134.797 93.9007C134.797 93.9007 139.997 91.5007 140.497 91.8007Z" fill="#80CB94"/>
</svg>
