<svg width="184" height="152" viewBox="0 0 184 152" fill="none" xmlns="http://www.w3.org/2000/svg">
<path opacity="0.52" d="M176.102 77.1997C176.702 69.9997 158.602 61.3997 122.002 59.7997C99.4017 58.7997 73.1017 61.3997 70.4017 69.6997C69.4017 72.4997 70.9017 75.4997 85.5017 76.3997C93.1017 76.8997 107.902 90.7997 103.302 98.9997C99.4018 105.9 90.5018 106.5 90.8018 110.2C91.0018 113.1 96.7018 115 98.3018 115.5C120.702 122.5 166.302 110.9 165.402 101.6C164.902 96.1997 149.202 95.4997 149.202 90.5997C149.302 84.0997 175.602 83.2997 176.102 77.1997Z" fill="#C9D6F2"/>
<path d="M20.3977 101.799C19.2977 100.799 15.0977 95.2988 14.6977 95.3988C14.1977 95.4988 12.6977 97.3988 13.9977 101.399C14.7977 103.999 17.5977 110.799 18.5977 111.099C19.6977 111.399 23.2977 109.199 24.8977 108.599C26.4977 107.999 31.5977 107.399 31.5977 107.399V100.999C31.4977 101.199 26.2977 103.999 24.7977 103.799C23.4977 103.599 22.0977 102.999 20.9977 102.199C20.6977 102.299 20.5977 101.999 20.3977 101.799Z" fill="#FFAEAE"/>
<path d="M17.2969 94.599C18.2969 93.799 19.2969 92.699 19.2969 91.399C19.2969 90.699 18.8969 89.999 18.1969 89.799C17.4969 89.699 16.8969 90.199 16.4969 90.699C15.7969 91.499 15.1969 92.399 14.7969 93.399" fill="#80CB94"/>
<path d="M17.7992 98.0993C18.7992 97.9993 19.6992 97.6993 20.4992 97.1993C20.7992 96.9993 20.9992 96.8993 21.2992 96.6993C21.6992 96.2993 21.9992 95.6993 21.9992 95.0993C21.9992 94.4993 21.4992 93.9993 20.8992 93.8993C20.5992 93.7993 20.1992 93.9993 19.8992 94.0993C19.0992 94.3993 18.3992 94.6993 17.6992 95.1993" fill="#80CB94"/>
<path d="M17.6984 112.299C16.6984 113.099 15.9984 112.299 15.9984 112.299C15.4984 111.599 14.4984 108.699 13.7984 106.699C12.8984 104.099 12.1984 101.899 11.2984 99.299C10.9984 98.199 10.3984 96.699 10.3984 95.599C10.4984 94.499 11.3984 93.499 12.3984 92.999C12.9984 92.799 13.5984 92.699 14.1984 92.799C14.8984 92.799 15.5984 92.999 16.1984 93.299C16.9984 93.699 17.4984 94.499 17.9984 95.199C18.4984 95.899 18.9984 96.599 19.2984 97.399C19.6984 98.699 19.4984 100.199 18.6984 101.399C17.9984 102.599 16.7984 103.499 15.5984 104.099C16.3984 106.099 17.1984 108.099 17.5984 110.099C17.7984 110.599 18.1984 111.899 17.6984 112.299Z" fill="#80CB94"/>
<path d="M12.3 94.599C13.018 94.599 13.6 94.017 13.6 93.299C13.6 92.5811 13.018 91.999 12.3 91.999C11.582 91.999 11 92.5811 11 93.299C11 94.017 11.582 94.599 12.3 94.599Z" fill="#3D3442"/>
<path d="M14.7984 94.9986C14.8984 94.8986 14.7984 94.6986 14.6984 94.6986C14.5984 94.5986 14.3984 94.6987 14.3984 94.7987C14.3984 94.8987 14.3984 95.0986 14.4984 95.0986C14.5984 95.1986 14.6984 95.1986 14.7984 94.9986Z" fill="#3D3442"/>
<path d="M16.8965 95.6988C16.6965 95.7988 16.5965 95.3988 16.7965 95.3988C17.7965 94.9988 18.7965 94.5988 19.8965 94.1988C20.4965 93.9988 21.3965 93.8988 21.8965 94.4988C22.3965 95.0988 22.1965 95.8988 21.6965 96.4988C20.6965 97.7988 18.8965 98.3988 17.3965 98.2988C17.1965 98.2988 17.1965 97.9988 17.4965 97.9988C18.4965 98.0988 19.3965 97.7988 20.1965 97.3988C20.8965 96.9988 21.7965 96.2988 21.8965 95.4988C21.8965 94.9988 21.6965 94.5988 21.1965 94.4988C20.7965 94.3988 20.2965 94.5988 19.8965 94.6988C18.7965 94.8988 17.8965 95.2988 16.8965 95.6988Z" fill="#3D3442"/>
<path d="M13.0996 92.9988C12.8996 92.9988 12.7996 92.6988 12.9996 92.6988C13.8996 92.3988 14.9996 92.4989 15.8996 92.8989C16.7996 93.2989 17.4996 93.9989 17.8996 94.8989C17.9996 95.0989 17.5996 95.1988 17.5996 94.9988C16.7996 93.3988 14.8996 92.4988 13.0996 92.9988Z" fill="#3D3442"/>
<path d="M83.8001 87.3994C86.5001 89.7994 87.8001 92.8994 87.1001 95.2994C86.2001 98.0994 79.2001 99.7994 76.5001 100.399C67.8001 102.499 56.6001 101.599 56.6001 101.599C51.0001 102.999 52.4001 104.399 45.4001 106.899C40.9001 108.499 31.4001 110.199 28.9001 105.899C24.5001 98.1994 39.2001 95.1994 52.6001 90.8994C60.6001 88.2994 73.5001 83.3994 78.5001 82.3994" fill="#333333"/>
<path d="M21.6992 103.3C22.6992 102.5 23.6992 101.4 23.6992 100.1C23.6992 99.4002 23.2992 98.7002 22.5992 98.5002C21.8992 98.4002 21.2992 98.9002 20.8992 99.4002C20.1992 100.2 19.5992 101.1 19.1992 102.1" fill="#80CB94"/>
<path d="M21.6992 103.3C22.6992 102.5 23.6992 101.4 23.6992 100.1C23.6992 99.4002 23.2992 98.7002 22.5992 98.5002C21.8992 98.4002 21.2992 98.9002 20.8992 99.4002C20.1992 100.2 19.5992 101.1 19.1992 102.1" stroke="#333333" stroke-width="0.5281" stroke-linecap="round" stroke-linejoin="round"/>
<path d="M24.8001 110.601C23.7001 109.601 19.5001 104.101 19.1001 104.201C18.6001 104.301 17.1001 106.201 18.4001 110.201C19.2001 112.801 22.0001 119.601 23.0001 119.901C24.1001 120.201 27.7001 118.001 29.3001 117.401C30.9001 116.801 37.0001 116.101 37.0001 116.101L36.0001 109.801C35.9001 110.001 30.7001 112.801 29.2001 112.601C27.9001 112.401 26.5001 111.801 25.4001 111.001C25.1001 111.001 25.0001 110.701 24.8001 110.601Z" fill="#FFAEAE"/>
<path d="M22.1984 121C21.1984 121.8 20.4984 121 20.4984 121C19.9984 120.3 18.9984 117.4 18.2984 115.4C17.3984 112.8 16.6984 110.6 15.7984 108C15.4984 106.9 14.8984 105.4 14.8984 104.3C14.9984 103.2 15.8984 102.2 16.8984 101.7C17.4984 101.5 18.0984 101.4 18.6984 101.5C19.3984 101.5 20.0984 101.7 20.6984 102C21.4984 102.4 21.9984 103.2 22.4984 103.9C22.9984 104.6 23.4984 105.3 23.7984 106.1C24.1984 107.4 23.9984 108.9 23.1984 110.1C22.4984 111.3 21.2984 112.2 20.0984 112.8C20.8984 114.8 21.6984 116.8 22.0984 118.8C22.1984 119.3 22.5984 120.6 22.1984 121Z" fill="#80CB94"/>
<path d="M16.6984 103.3C17.4164 103.3 17.9984 102.718 17.9984 102C17.9984 101.282 17.4164 100.7 16.6984 100.7C15.9805 100.7 15.3984 101.282 15.3984 102C15.3984 102.718 15.9805 103.3 16.6984 103.3Z" fill="#3D3442"/>
<path d="M19.1969 103.8C19.2969 103.7 19.1969 103.5 19.0969 103.5C18.9969 103.4 18.7969 103.5 18.7969 103.6C18.7969 103.7 18.7969 103.9 18.8969 103.9C18.9969 103.9 19.1969 103.9 19.1969 103.8Z" fill="#3D3442"/>
<path d="M17.5996 101.7C17.3996 101.7 17.2996 101.4 17.4996 101.4C18.3996 101.1 19.4996 101.2 20.3996 101.6C21.2996 102 21.9996 102.7 22.3996 103.6C22.4996 103.8 22.0996 103.9 22.0996 103.7C21.1996 102.1 19.2996 101.2 17.5996 101.7Z" fill="#3D3442"/>
<path d="M22.1984 121C21.1984 121.8 20.4984 121 20.4984 121C19.9984 120.3 18.9984 117.4 18.2984 115.4C17.3984 112.8 16.6984 110.6 15.7984 108C15.4984 106.9 14.8984 105.4 14.8984 104.3C14.9984 103.2 15.8984 102.2 16.8984 101.7C17.4984 101.5 18.0984 101.4 18.6984 101.5C19.3984 101.5 20.0984 101.7 20.6984 102C21.4984 102.4 21.9984 103.2 22.4984 103.9C22.9984 104.6 23.4984 105.3 23.7984 106.1C24.1984 107.4 23.9984 108.9 23.1984 110.1C22.4984 111.3 21.2984 112.2 20.0984 112.8C20.8984 114.8 21.6984 116.8 22.0984 118.8C22.1984 119.3 22.5984 120.6 22.1984 121Z" stroke="#333333" stroke-width="0.5281" stroke-linecap="round" stroke-linejoin="round"/>
<path d="M22.1977 106.9C23.1977 106.8 24.0977 106.5 24.8977 106C25.1977 105.8 25.3977 105.7 25.6977 105.5C26.0977 105.1 26.3977 104.5 26.3977 103.9C26.3977 103.3 25.8977 102.8 25.2977 102.7C24.9977 102.6 24.5977 102.8 24.2977 102.9C23.4977 103.2 22.7977 103.5 22.0977 104" fill="#80CB94"/>
<path d="M22.1977 106.9C23.1977 106.8 24.0977 106.5 24.8977 106C25.1977 105.8 25.3977 105.7 25.6977 105.5C26.0977 105.1 26.3977 104.5 26.3977 103.9C26.3977 103.3 25.8977 102.8 25.2977 102.7C24.9977 102.6 24.5977 102.8 24.2977 102.9C23.4977 103.2 22.7977 103.5 22.0977 104" stroke="#333333" stroke-width="0.5281" stroke-linecap="round" stroke-linejoin="round"/>
<path d="M89.097 96C91.797 98.4 93.097 101.5 92.397 103.9C91.497 106.7 84.497 108.4 81.797 109C73.097 111.1 61.897 110.2 61.897 110.2C56.297 111.6 57.697 113 50.697 115.5C46.197 117.1 36.697 118.8 34.197 114.5C29.797 106.8 44.497 103.8 57.897 99.5C65.897 96.9 71.597 94 76.697 93" fill="#333333"/>
<path d="M35.1992 108.4C38.9992 104.7 48.8992 102.4 58.0992 99.4C66.0992 96.8 76.5992 90.5 81.5992 89.5" stroke="#A1A1A1" stroke-width="0.5" stroke-miterlimit="10" stroke-linecap="round" stroke-linejoin="round"/>
<path d="M134.298 84.6995C135.698 84.9995 139.098 95.5995 132.598 100.599C128.898 103.499 115.498 111.599 110.198 102.099C109.098 100.199 105.198 104.7 100.598 105.8C93.5975 107.4 85.9975 109.3 87.3975 107.3C87.3975 107.3 87.8975 97.4995 81.7975 89.4995C78.6975 85.3995 74.7975 83.2995 75.2975 81.9995C77.0975 77.4995 79.3975 74.6995 86.8975 75.0995C88.2975 75.1995 84.5975 72.8995 89.4975 69.4995C92.7975 67.1995 95.7975 66.5995 99.9975 68.3995C102.598 69.4995 99.1975 69.4995 100.498 68.5995C104.198 65.9995 116.098 69.1995 117.698 69.8995C123.098 72.0995 126.598 83.1995 134.298 84.6995Z" fill="#80CB94"/>
<path d="M120.301 91.9C122.201 89.3 125.201 87.3 127.801 85.5" stroke="#333333" stroke-width="0.5281" stroke-linecap="round" stroke-linejoin="round"/>
<path d="M135.399 85.6996C136.899 91.6996 138.199 94.6996 132.599 100.7C128.099 105.5 115.199 110.3 109.899 101.7C107.199 97.2996 104.499 85.9996 106.699 82.6996C108.899 79.3996 111.199 80.0996 113.899 81.4996C117.099 82.9996 121.299 92.5996 121.099 96.2996" stroke="#333333" stroke-width="0.5281" stroke-linecap="round" stroke-linejoin="round"/>
<path d="M87.4961 74.2998C90.1961 76.4998 93.8961 76.4998 95.7961 74.2998" stroke="#333333" stroke-width="0.5281" stroke-linecap="round" stroke-linejoin="round"/>
<path d="M101.295 69.9998C101.295 68.9998 100.395 68.2998 99.1953 68.2998" stroke="#333333" stroke-width="0.5281" stroke-linecap="round" stroke-linejoin="round"/>
<path d="M112.798 70C108.998 69.4 106.298 68.9 101.598 69.7" stroke="#333333" stroke-width="0.5281" stroke-linecap="round" stroke-linejoin="round"/>
<path d="M155.6 70.0996C155.6 78.1996 148.4 85.4996 137.6 85.4996C126.8 85.4996 118 78.8996 118 70.7996C118 62.6996 126.8 56.0996 137.6 56.0996C148.4 56.0996 155.6 61.9996 155.6 70.0996Z" fill="#80CB94"/>
<path d="M122.202 73.6998C116.202 69.4998 122.202 70.0998 122.202 73.6998ZM122.202 73.6998C119.202 78.5998 130.302 79.1998 122.202 73.6998ZM122.202 73.6998C121.302 75.1998 121.502 72.1998 122.202 73.6998Z" stroke="#333333" stroke-width="0.5281" stroke-linecap="round" stroke-linejoin="round"/>
<path d="M121.602 73.8994C121.402 74.2994 120.102 77.1994 118.602 75.4994" stroke="#333333" stroke-width="0.5281" stroke-linecap="round" stroke-linejoin="round"/>
<path d="M121.6 73.4999C121.4 73.3999 119.6 72.5999 118.5 73.8999" stroke="#333333" stroke-width="0.5281" stroke-linecap="round" stroke-linejoin="round"/>
<path d="M147.697 70.9997C150.797 64.1997 143.597 57.5997 135.297 57.9997C132.697 58.0997 130.497 57.8997 126.997 59.7997C118.397 64.4997 121.897 70.2997 124.497 72.3997C128.997 75.8997 141.397 76.5997 145.597 73.5997C146.597 72.8997 147.297 71.9997 147.697 70.9997Z" fill="#FFBFBF"/>
<path d="M142.097 59.2998C142.097 59.2998 151.597 61.2998 151.697 67.1998C151.797 73.0998 147.597 72.7998 145.897 73.5998C145.397 73.7998 149.097 69.3998 146.997 66.8998C145.297 64.8998 139.097 62.2998 142.097 59.2998Z" fill="#333333"/>
<path d="M142.096 59.2994C142.096 59.2994 141.596 57.6994 135.196 57.7994C128.796 57.8994 126.496 58.9994 125.796 60.5994C125.496 60.9994 134.996 56.5994 142.096 59.2994Z" fill="#333333"/>
<path d="M143.197 65.3998C142.497 64.7998 142.097 64.3998 141.697 63.7998C141.297 63.2998 141.097 62.7998 140.797 62.2998C140.697 61.9998 140.097 62.1998 139.997 62.4998C139.797 64.0998 141.397 65.1998 142.897 65.6998C143.197 65.7998 143.497 65.4998 143.197 65.3998Z" fill="#333333"/>
<path d="M132.299 59.099C132.799 59.399 133.499 59.499 134.099 59.499C134.699 59.499 135.199 59.399 135.799 59.399C136.099 59.399 136.199 59.799 135.899 59.999C134.699 60.799 133.199 60.199 132.199 59.499C131.999 59.299 132.099 58.999 132.299 59.099Z" fill="#333333"/>
<path d="M132.699 61.299C132.899 61.599 132.799 61.999 132.399 62.199C131.999 62.399 131.499 62.399 131.299 62.099C131.099 61.799 131.199 61.399 131.599 61.199C131.899 60.999 132.499 60.999 132.699 61.299Z" fill="#3D3442"/>
<path d="M138.797 65.7992C139.097 66.0992 138.997 66.4992 138.597 66.7992C138.197 67.0992 137.697 66.9992 137.397 66.7992C137.097 66.4992 137.197 66.0992 137.597 65.7992C138.097 65.4992 138.597 65.4992 138.797 65.7992Z" fill="#3D3442"/>
<path d="M130.297 65.5996C129.797 64.9996 129.997 63.9996 130.297 63.6996C132.697 64.6996 133.597 64.4996 135.397 63.0996" stroke="#3D3442" stroke-width="0.5281" stroke-linecap="round" stroke-linejoin="round"/>
<path d="M129.796 68.8994C129.796 67.9994 128.396 66.4994 127.496 66.3994" stroke="#3D3442" stroke-width="0.5281" stroke-linecap="round" stroke-linejoin="round"/>
<path d="M138.198 67.0994C139.698 68.1994 143.998 70.6994 143.698 74.3994C143.598 75.9994 141.698 83.5994 142.998 87.7994C143.398 88.9994 147.098 90.3994 145.798 86.9994C143.998 82.1994 144.998 73.9994 144.998 73.8994C144.398 70.7994 141.298 68.5994 138.298 66.8994C138.198 66.8994 138.098 67.0994 138.198 67.0994Z" fill="#E2E9F8"/>
<path d="M130.996 61.7998C129.096 61.2998 124.096 60.8998 121.996 61.7998C121.996 61.7998 122.296 60.2998 124.296 60.4998C124.996 60.5998 127.796 60.1998 130.996 61.5998C131.196 61.6998 131.096 61.8998 130.996 61.7998Z" fill="#E2E9F8"/>
<path d="M112.796 81.9993C112.396 80.0993 112.096 78.5993 111.496 77.1993C110.996 75.6993 107.896 74.0993 106.896 74.6993C106.896 74.6993 104.496 73.8993 103.896 74.6993C103.296 74.6993 102.596 74.8993 102.696 75.5993C102.296 75.7993 101.996 75.7993 102.196 76.3993C102.396 76.9993 103.196 77.5993 104.196 78.0993C105.096 78.5993 106.196 79.7993 106.696 80.7993C107.196 81.8993 108.396 82.3993 108.796 83.3993C108.996 83.9993 112.596 83.9993 112.796 81.9993Z" fill="#FFBFBF"/>
<path d="M102.695 75.5996C103.495 75.6996 104.695 76.0996 105.695 76.7996C105.995 76.9996 106.195 77.1996 106.395 77.3996" stroke="#333333" stroke-width="0.5" stroke-miterlimit="10" stroke-linecap="round"/>
<path d="M104.098 74.5996C104.898 74.7996 105.898 75.0996 106.898 75.8996C107.098 76.0996 107.398 76.2996 107.498 76.4996" stroke="#333333" stroke-width="0.5" stroke-miterlimit="10" stroke-linecap="round"/>
<path d="M107.098 74.6992C107.898 74.8992 108.898 76.0992 109.698 76.3992" stroke="#333333" stroke-width="0.5" stroke-miterlimit="10" stroke-linecap="round"/>
<path d="M111.597 76.9997C111.097 75.4997 108.097 74.0997 107.097 74.5997C107.097 74.5997 104.297 73.7997 103.697 74.5997C103.097 74.5997 102.397 74.7997 102.497 75.4997C102.097 75.6997 101.797 75.6997 101.997 76.2997C102.197 76.9997 102.997 77.4997 103.897 77.9997C104.797 78.5997 105.897 79.6997 106.397 80.7997C106.797 81.8997 108.097 82.3997 108.497 83.3997" stroke="#333333" stroke-width="0.5" stroke-miterlimit="10" stroke-linecap="round"/>
<path d="M96.3978 69.9998C98.2978 69.8998 99.7978 69.7998 101.398 69.8998C102.998 69.9998 105.298 72.5998 105.098 73.6998C105.098 73.6998 106.498 75.7998 105.898 76.5998C106.098 77.1998 105.998 77.8998 105.398 77.9998C105.298 78.3998 105.398 78.6998 104.698 78.6998C103.998 78.6998 103.298 77.9998 102.498 77.2998C101.698 76.5998 100.298 75.7998 99.1978 75.5998C98.0978 75.3998 97.1978 74.3998 96.0978 74.1998C95.4978 74.1998 94.4978 70.7998 96.3978 69.9998Z" fill="#FFBFBF"/>
<path d="M105.296 77.9994C104.896 77.1994 104.296 76.1994 103.296 75.3994C102.996 75.1994 102.796 74.9994 102.496 74.8994" stroke="#333333" stroke-width="0.5" stroke-miterlimit="10" stroke-linecap="round"/>
<path d="M105.798 76.4996C105.398 75.7996 104.798 74.8996 103.798 74.0996C103.498 73.8996 103.298 73.7996 103.098 73.5996" stroke="#333333" stroke-width="0.5" stroke-miterlimit="10" stroke-linecap="round"/>
<path d="M104.999 73.6C104.599 72.9 103.199 72.2 102.699 71.5" stroke="#333333" stroke-width="0.5" stroke-miterlimit="10" stroke-linecap="round"/>
<path d="M101.398 70C102.998 70.1 105.298 72.7 105.098 73.8C105.098 73.8 106.498 75.9 105.898 76.7C106.098 77.3 105.998 78 105.398 78.1C105.298 78.5 105.398 78.8 104.698 78.8C103.998 78.8 103.298 78.1 102.498 77.4C101.698 76.7 100.298 75.9 99.1977 75.7C98.0977 75.5 97.1977 74.5 96.0977 74.3" stroke="#333333" stroke-width="0.5" stroke-miterlimit="10" stroke-linecap="round"/>
<path d="M69.0016 37.9996C70.2016 36.6996 70.0016 36.4996 68.4016 37.5996C69.6016 36.2996 69.4016 36.0996 67.8016 37.1996C69.0016 35.7996 68.7016 35.6996 67.2016 36.7996C68.3016 35.3996 68.1016 35.2996 66.6016 36.3996C67.7016 34.9996 67.4016 34.8996 66.0016 36.0996C67.0016 34.6996 66.8016 34.5996 65.4016 35.7996C66.4016 34.3996 66.1016 34.2996 64.7016 35.4996C65.6016 34.0996 65.4016 33.9996 64.0016 35.2996C64.9016 33.8996 64.6016 33.7996 63.3016 35.0996C64.1016 33.6996 63.9016 33.5996 62.6016 34.9996C63.4016 33.5996 63.1016 33.5996 61.9016 34.8996C62.6016 33.4996 62.4016 33.4996 61.2016 34.8996C61.9016 33.4996 61.7016 33.4996 60.5016 34.8996C61.2016 33.5996 60.9016 33.5996 59.8016 34.9996C60.4016 33.6996 60.2016 33.6996 59.1016 35.0996C59.7016 33.7996 59.4016 33.8996 58.4016 35.2996C58.9016 33.9996 58.7016 34.0996 57.7016 35.5996C58.2016 34.3996 58.0016 34.4996 57.1016 35.8996C57.6016 34.6996 57.4016 34.7996 56.5016 36.1996C56.9016 35.0996 56.7016 35.1996 55.9016 36.5996C56.3016 35.4996 56.2016 35.5996 55.4016 36.9996C55.9016 35.7996 55.7016 35.9996 54.8016 37.4996C55.2016 36.4996 55.0016 36.6996 54.3016 37.9996C54.7016 36.9996 54.5016 37.1996 53.8016 38.4996C54.1016 37.5996 54.0016 37.7996 53.3016 39.0996C53.6016 38.1996 53.4016 38.3996 52.8016 39.6996C53.1016 38.8996 52.9016 39.0996 52.3016 40.2996C52.5016 39.5996 52.3016 39.7996 51.8016 40.8996C52.0016 40.0996 51.8016 40.2996 51.3016 41.3996C51.5016 40.5996 51.3016 40.6996 50.7016 41.7996C50.8016 40.9996 50.6016 41.0996 50.1016 42.0996C50.2016 41.2996 50.0016 41.3996 49.5016 42.4996C49.5016 41.6996 49.4016 41.8996 48.9016 42.8996C48.9016 42.1996 48.7016 42.2996 48.4016 43.2996C48.4016 42.5996 48.2016 42.7996 47.9016 43.7996C47.9016 43.1996 47.7016 43.2996 47.5016 44.2996C47.5016 43.6996 47.3016 43.7996 47.1016 44.6996C47.0016 44.0996 46.8016 44.1996 46.6016 44.9996C46.5016 44.3996 46.3016 44.3996 46.0016 45.1996C45.8016 44.4996 45.6016 44.5996 45.3016 45.3996C45.1016 44.7996 44.8016 44.7996 44.6016 45.5996C44.3016 44.9996 44.1016 45.0996 43.9016 45.7996C43.6016 45.1996 43.3016 45.2996 43.2016 45.9996C42.8016 45.3996 42.6016 45.4996 42.6016 46.2996C42.2016 45.7996 42.0016 45.8996 42.0016 46.5996C41.6016 45.9996 41.4016 46.1996 41.4016 46.9996C41.0016 46.4996 40.8016 46.6996 40.9016 47.4996C40.5016 47.0996 40.3016 47.2996 40.4016 47.9996C39.9016 47.5996 39.8016 47.7996 40.0016 48.5996C39.5016 48.2996 39.4016 48.4996 39.6016 49.1996C39.1016 48.8996 39.0016 49.1996 39.2016 49.7996C38.7016 49.5996 38.6016 49.7996 38.9016 50.3996C38.4016 50.1996 38.3016 50.4996 38.6016 51.0996C38.1016 50.9996 38.0016 51.1996 38.3016 51.7996C37.8016 51.6996 37.7016 51.8996 38.0016 52.4996C37.5016 52.4996 37.4016 52.6996 37.8016 53.1996C37.2016 53.1996 37.2016 53.3996 37.6016 53.8996C37.0016 53.8996 37.0016 54.1996 37.4016 54.5996C36.8016 54.6996 36.8016 54.8996 37.2016 55.2996C36.6016 55.3996 36.5016 55.6996 37.0016 55.9996C36.4016 56.1996 36.3016 56.3996 36.8016 56.6996C36.2016 56.8996 36.1016 57.1996 36.6016 57.3996C36.0016 57.6996 35.9016 57.8996 36.4016 58.0996C35.8016 58.3996 35.7016 58.6996 36.2016 58.7996C35.6016 59.1996 35.5016 59.3996 36.0016 59.4996C35.4016 59.8996 35.3016 60.0996 35.8016 60.1996C35.2016 60.5996 35.1016 60.8996 35.6016 60.8996C34.9016 61.3996 34.9016 61.5996 35.5016 61.5996C34.8016 62.0996 34.8016 62.3996 35.4016 62.2996C34.7016 62.8996 34.7016 63.0996 35.3016 62.9996C34.6016 63.5996 34.6016 63.8996 35.2016 63.6996C34.5016 64.3996 34.5016 64.5996 35.1016 64.3996C34.4016 65.0996 34.4016 65.3996 35.0016 65.0996C34.3016 65.7996 34.3016 66.0996 34.9016 65.7996C34.2016 66.5996 34.2016 66.7996 34.8016 66.4996C34.1016 67.2996 34.1016 67.5996 34.8016 67.1996C34.1016 68.0996 34.1016 68.2996 34.8016 67.8996C34.2016 68.7996 34.2016 69.0996 34.8016 68.5996C34.2016 69.5996 34.2016 69.7996 34.8016 69.2996C34.2016 70.2996 34.2016 70.5996 34.9016 69.9996C34.3016 70.9996 34.3016 71.2996 35.0016 70.6996C34.2016 71.3996 34.0016 71.1996 34.5016 70.1996C33.7016 70.7996 33.5016 70.5996 34.0016 69.6996C33.1016 70.2996 33.0016 70.0996 33.5016 69.1996C32.6016 69.7996 32.4016 69.5996 33.0016 68.6996C32.1016 69.1996 31.9016 68.9996 32.5016 68.0996C31.6016 68.5996 31.4016 68.3996 32.0016 67.4996C31.0016 67.8996 30.9016 67.6996 31.5016 66.8996C30.5016 67.2996 30.3016 67.0996 31.1016 66.2996C30.1016 66.6996 29.9016 66.4996 30.7016 65.6996C29.7016 65.9996 29.5016 65.7996 30.3016 65.0996C29.2016 65.3996 29.1016 65.1996 29.9016 64.4996C28.8016 64.7996 28.7016 64.4996 29.5016 63.8996C28.4016 64.0996 28.2016 63.8996 29.1016 63.2996C28.0016 63.4996 27.8016 63.2996 28.7016 62.6996C27.5016 62.7996 27.4016 62.5996 28.3016 62.0996C27.1016 62.1996 27.0016 61.9996 27.9016 61.4996C26.7016 61.5996 26.6016 61.2996 27.6016 60.8996C26.4016 60.8996 26.3016 60.6996 27.3016 60.2996C26.1016 60.2996 26.0016 59.9996 27.0016 59.6996C25.8016 59.5996 25.7016 59.3996 26.7016 59.0996C25.5016 58.9996 25.4016 58.7996 26.4016 58.4996C25.1016 58.2996 25.0016 58.0996 26.1016 57.7996C24.8016 57.5996 24.7016 57.3996 25.8016 57.0996C24.5016 56.8996 24.4016 56.5996 25.5016 56.3996C24.2016 56.0996 24.1016 55.8996 25.2016 55.6996C23.9016 55.3996 23.8016 55.0996 24.9016 54.9996C23.6016 54.5996 23.5016 54.3996 24.6016 54.2996C23.2016 53.8996 23.2016 53.6996 24.3016 53.5996C22.9016 53.1996 22.8016 52.8996 24.0016 52.9996C22.6016 52.4996 22.5016 52.2996 23.7016 52.3996C22.3016 51.8996 22.2016 51.6996 23.4016 51.7996C21.9016 51.2996 21.8016 50.9996 23.0016 51.1996C21.5016 50.5996 21.3016 50.3996 22.5016 50.6996C20.9016 50.0996 20.7016 49.9996 21.9016 50.2996C20.3016 49.7996 20.0016 49.6996 21.2016 50.1996C19.5016 49.7996 19.3016 49.8996 20.6016 50.3996C18.9016 50.0996 18.8016 50.2996 20.2016 50.9996C18.6016 50.7996 18.5016 51.0996 20.0016 51.5996C18.4016 51.4996 18.3016 51.6996 19.9016 52.2996C18.3016 52.1996 18.3016 52.4996 19.8016 52.9996C18.2016 52.9996 18.2016 53.1996 19.8016 53.6996C18.2016 53.6996 18.2016 53.9996 19.8016 54.3996C18.2016 54.4996 18.3016 54.6996 19.8016 55.0996C18.3016 55.1996 18.3016 55.4996 19.9016 55.7996C18.4016 55.9996 18.4016 56.1996 20.0016 56.4996C18.5016 56.6996 18.5016 56.8996 20.1016 57.1996C18.6016 57.3996 18.6016 57.6996 20.2016 57.8996C18.7016 58.1996 18.8016 58.3996 20.3016 58.5996C18.8016 58.8996 18.9016 59.1996 20.5016 59.2996C19.0016 59.6996 19.1016 59.8996 20.7016 59.9996C19.3016 60.3996 19.3016 60.5996 20.9016 60.6996C19.5016 61.1996 19.6016 61.3996 21.1016 61.3996C19.7016 61.8996 19.8016 62.0996 21.3016 62.0996C19.9016 62.5996 20.0016 62.8996 21.5016 62.6996C20.1016 63.2996 20.2016 63.4996 21.8016 63.2996C20.5016 63.8996 20.6016 64.0996 22.1016 63.8996C20.8016 64.4996 20.9016 64.7996 22.4016 64.4996C21.1016 65.1996 21.2016 65.3996 22.7016 65.0996C21.4016 65.7996 21.5016 65.9996 23.0016 65.6996C21.8016 66.4996 21.9016 66.6996 23.3016 66.2996C22.1016 67.0996 22.2016 67.2996 23.7016 66.8996C22.5016 67.6996 22.6016 67.8996 24.1016 67.4996C22.9016 68.3996 23.1016 68.5996 24.5016 68.0996C23.4016 68.9996 23.5016 69.1996 24.9016 68.6996C23.8016 69.5996 23.9016 69.7996 25.3016 69.2996C24.2016 70.1996 24.4016 70.3996 25.7016 69.7996C24.7016 70.7996 24.8016 70.9996 26.2016 70.2996C25.2016 71.2996 25.4016 71.4996 26.7016 70.7996C25.7016 71.7996 25.9016 71.9996 27.2016 71.2996C26.3016 72.2996 26.5016 72.4996 27.7016 71.7996C26.8016 72.8996 27.0016 72.9996 28.2016 72.1996C27.4016 73.2996 27.5016 73.3996 28.8016 72.5996C28.0016 73.6996 28.2016 73.7996 29.4016 72.9996C28.6016 74.0996 28.8016 74.2996 30.0016 73.3996C29.3016 74.4996 29.5016 74.6996 30.6016 73.6996C29.9016 74.7996 30.1016 74.9996 31.2016 73.9996C30.6016 75.1996 30.8016 75.2996 31.8016 74.2996C31.2016 75.4996 31.4016 75.4996 32.4016 74.4996C31.9016 75.6996 32.1016 75.6996 33.1016 74.6996C32.6016 75.8996 32.8016 75.8996 33.8016 74.8996C33.3016 76.0996 33.6016 76.0996 34.5016 74.9996C34.1016 76.1996 34.3016 76.1996 35.2016 75.0996C34.8016 76.2996 35.1016 76.2996 35.9016 75.1996C35.4016 76.5996 35.5016 76.7996 36.2016 75.7996C35.8016 77.1996 36.0016 77.3996 36.6016 76.2996C36.3016 77.6996 36.4016 77.7996 37.1016 76.7996C36.8016 78.1996 37.0016 78.2996 37.7016 77.1996C37.5016 78.5996 37.7016 78.6996 38.3016 77.4996C38.1016 78.8996 38.4016 78.9996 39.0016 77.7996C38.9016 79.1996 39.1016 79.2996 39.7016 78.0996C39.6016 79.4996 39.8016 79.5996 40.3016 78.3996C40.2016 79.7996 40.5016 79.8996 40.9016 78.6996C40.9016 80.0996 41.1016 80.1996 41.6016 78.8996C41.6016 80.2996 41.9016 80.3996 42.3016 78.9996C42.4016 80.3996 42.6016 80.3996 43.0016 79.0996C43.1016 80.4996 43.3016 80.4996 43.7016 79.0996C43.8016 80.4996 44.1016 80.4996 44.4016 79.0996C44.6016 80.4996 44.8016 80.3996 45.1016 79.0996C45.3016 80.3996 45.6016 80.3996 45.8016 79.0996C46.1016 80.3996 46.3016 80.3996 46.5016 79.0996C46.8016 80.3996 47.1016 80.3996 47.2016 79.0996C47.6016 80.3996 47.8016 80.3996 47.9016 79.0996C48.3016 80.3996 48.5016 80.3996 48.6016 79.0996C49.0016 80.3996 49.3016 80.3996 49.3016 79.0996C49.8016 80.3996 50.0016 80.3996 50.0016 79.0996C50.5016 80.3996 50.8016 80.3996 50.7016 79.0996C51.3016 80.3996 51.5016 80.3996 51.4016 79.0996C52.0016 80.3996 52.3016 80.3996 52.1016 79.0996C52.8016 80.3996 53.0016 80.4996 52.8016 79.0996C53.5016 80.3996 53.7016 80.4996 53.5016 79.0996C54.2016 80.4996 54.5016 80.4996 54.2016 79.0996C55.0016 80.4996 55.2016 80.4996 54.9016 79.0996C55.7016 80.4996 56.0016 80.4996 55.6016 79.0996C56.5016 80.4996 56.7016 80.4996 56.3016 79.0996C57.2016 80.4996 57.5016 80.4996 57.0016 79.0996C58.0016 80.4996 58.2016 80.4996 57.7016 79.0996C58.7016 80.4996 59.0016 80.4996 58.4016 79.0996C59.5016 80.3996 59.7016 80.3996 59.1016 79.0996C60.2016 80.3996 60.4016 80.3996 59.8016 78.9996C60.9016 80.2996 61.2016 80.2996 60.5016 78.8996C61.7016 80.1996 61.9016 80.1996 61.2016 78.7996C62.4016 80.0996 62.7016 79.9996 61.9016 78.6996C63.2016 79.9996 63.4016 79.8996 62.6016 78.4996C63.9016 79.6996 64.1016 79.6996 63.3016 78.2996C64.6016 79.4996 64.9016 79.3996 63.9016 77.9996C65.3016 79.1996 65.5016 79.0996 64.5016 77.6996C65.9016 78.7996 66.1016 78.6996 65.1016 77.2996C66.5016 78.3996 66.7016 78.1996 65.6016 76.8996C67.0016 77.8996 67.2016 77.6996 66.0016 76.2996C67.4016 77.1996 67.4016 76.9996 66.2016 75.5996C67.5016 76.4996 67.5016 76.1996 66.0016 74.8996C67.1016 75.7996 66.9016 75.6996 65.4016 74.4996C66.4016 75.4996 66.2016 75.4996 64.7016 74.3996C65.7016 75.4996 65.4016 75.3996 64.0016 74.3996C64.9016 75.4996 64.7016 75.4996 63.3016 74.3996C64.1016 75.4996 63.9016 75.3996 62.7016 74.1996C63.6016 75.0996 63.5016 74.8996 62.4016 73.5996C63.4016 74.3996 63.3016 74.1996 62.3016 72.8996C63.3016 73.6996 63.3016 73.3996 62.3016 72.1996C63.3016 72.8996 63.4016 72.6996 62.3016 71.4996C63.4016 72.1996 63.4016 71.8996 62.4016 70.7996C63.5016 71.3996 63.5016 71.1996 62.5016 70.0996C63.6016 70.6996 63.6016 70.3996 62.6016 69.3996C63.7016 69.8996 63.7016 69.6996 62.7016 68.6996C63.8016 69.1996 63.9016 68.8996 62.8016 67.9996C63.9016 68.3996 64.0016 68.1996 63.0016 67.2996C64.1016 67.6996 64.2016 67.4996 63.2016 66.5996C64.4016 66.9996 64.4016 66.6996 63.4016 65.8996C64.6016 66.1996 64.6016 65.9996 63.6016 65.1996C64.8016 65.4996 64.8016 65.1996 63.8016 64.4996C65.0016 64.6996 65.1016 64.4996 64.0016 63.7996C65.2016 63.9996 65.3016 63.6996 64.2016 63.0996C65.4016 63.1996 65.5016 62.9996 64.4016 62.3996C65.6016 62.4996 65.7016 62.2996 64.6016 61.6996C65.8016 61.7996 65.9016 61.4996 64.8016 60.9996C66.0016 60.9996 66.1016 60.7996 65.0016 60.2996C66.2016 60.2996 66.3016 59.9996 65.2016 59.5996C66.5016 59.4996 66.5016 59.2996 65.4016 58.8996C66.7016 58.7996 66.7016 58.4996 65.5016 58.1996C66.8016 57.9996 66.8016 57.7996 65.6016 57.4996C66.9016 57.2996 66.9016 57.0996 65.7016 56.7996C67.0016 56.5996 67.0016 56.2996 65.8016 56.0996C67.1016 55.7996 67.1016 55.5996 65.9016 55.3996C67.2016 55.0996 67.2016 54.7996 66.0016 54.6996C67.3016 54.2996 67.3016 54.0996 66.1016 53.9996C67.4016 53.5996 67.4016 53.2996 66.2016 53.2996C67.5016 52.7996 67.5016 52.5996 66.3016 52.5996C67.6016 52.0996 67.6016 51.8996 66.4016 51.8996C67.7016 51.3996 67.7016 51.0996 66.5016 51.1996C67.8016 50.8996 68.0016 50.6996 67.1016 50.7996C68.6016 50.2996 68.8016 50.1996 67.6016 50.3996C69.1016 49.8996 69.3016 49.6996 68.1016 49.9996C69.6016 49.3996 69.8016 49.2996 68.6016 49.5996C70.2016 48.9996 70.3016 48.7996 69.1016 49.0996C70.7016 48.4996 70.8016 48.2996 69.5016 48.5996C71.1016 47.8996 71.3016 47.6996 69.9016 48.0996C71.5016 47.3996 71.7016 47.1996 70.3016 47.4996C71.9016 46.7996 72.0016 46.4996 70.6016 46.7996C72.2016 45.9996 72.3016 45.6996 70.8016 46.0996C72.4016 45.1996 72.4016 44.9996 70.9016 45.3996C72.5016 44.4996 72.5016 44.1996 71.0016 44.6996C72.6016 43.6996 72.6016 43.4996 71.1016 43.9996C72.7016 42.9996 72.7016 42.6996 71.1016 43.2996C72.7016 42.1996 72.7016 41.9996 71.1016 42.5996C72.6016 41.4996 72.6016 41.1996 71.0016 41.8996C72.5016 40.6996 72.5016 40.4996 70.9016 41.1996C72.6016 40.1996 72.5016 39.8996 70.7016 40.4996C72.1016 39.2996 72.0016 38.9996 70.4016 39.7996C71.8016 38.4996 71.7016 38.2996 70.0016 39.0996C71.3016 37.7996 71.2016 37.4996 69.6016 38.3996C70.6016 37.1996 70.4016 36.8996 69.0016 37.9996Z" fill="#9FA09F"/>
<path d="M73.401 38.4998C71.601 38.1998 70.001 37.2998 69.901 37.1998C63.701 32.2998 59.001 33.8998 56.401 35.7998C56.201 35.8998 56.101 36.0998 55.901 36.1998C55.301 36.4998 54.501 36.8998 53.301 36.8998C51.801 36.9998 51.101 36.5998 50.901 36.8998C50.701 37.2998 51.701 38.3998 53.201 39.0998C52.901 39.3998 52.701 39.6998 52.301 40.0998C51.301 41.1998 49.701 41.3998 47.901 43.5998C47.501 44.0998 47.001 44.4998 46.401 44.5998C45.301 44.8998 43.501 45.4998 42.401 46.0998C41.601 46.4998 39.001 47.9998 36.701 57.7998C35.201 63.9998 34.801 67.0998 35.401 70.6998C33.501 68.4998 31.001 65.6998 29.001 62.4998C25.201 56.5998 24.601 49.5998 21.601 49.5998C17.401 49.5998 21.301 74.1998 36.501 75.3998C37.301 77.4998 39.701 77.8998 41.201 78.5998C44.801 80.2998 46.201 78.4998 57.301 79.1998C63.101 79.5998 66.701 77.6998 67.201 76.3998C67.701 74.8998 67.201 74.3998 64.401 74.4998C62.301 74.5998 63.601 68.7998 64.601 65.1998C66.501 58.4998 66.901 55.7998 67.401 50.8998C67.401 50.8998 69.801 49.5998 71.201 47.0998C71.801 46.0998 72.301 43.0998 71.801 40.5998C72.201 40.5998 72.601 40.4998 72.801 40.3998C74.301 39.9998 75.601 38.8998 75.501 38.4998C75.201 38.3998 74.601 38.6998 73.401 38.4998Z" fill="#9FA09F"/>
<path d="M53.1016 39.0998C55.3016 39.8998 56.0016 39.7998 57.2016 38.7998" stroke="#333333" stroke-width="0.25" stroke-miterlimit="10" stroke-linecap="round"/>
<path d="M40.5 60.2001C41.6 58.3001 46.3 58.3001 48.5 60.0001C56.1 66.1001 48.6 73.8001 49.1 74.6001C49.7 75.8001 55.4 77.7001 57.4 76.5001C59.6 75.1001 61.7 78.3001 60.1 79.5001" stroke="#333333" stroke-width="0.25" stroke-miterlimit="10" stroke-linecap="round"/>
<path d="M52.8008 61.3994C52.8008 69.6994 54.7008 76.4994 57.1008 76.4994" stroke="#333333" stroke-width="0.25" stroke-miterlimit="10" stroke-linecap="round"/>
<path d="M59.5019 62.7998C56.9019 70.6998 57.6019 75.3998 60.3019 76.2998L61.7019 76.1998C62.6019 76.1998 63.4019 76.8998 63.4019 77.7998C63.4019 78.6998 62.6019 79.3998 61.7019 79.3998" stroke="#333333" stroke-width="0.25" stroke-miterlimit="10" stroke-linecap="round"/>
<path d="M64.8011 61.0996C62.3011 68.5996 61.7011 75.1996 63.4011 75.7996L64.3011 75.5996C65.2011 75.5996 66.0011 76.2996 66.0011 77.1996C66.0011 78.0996 65.2011 78.7996 64.3011 78.7996" stroke="#333333" stroke-width="0.25" stroke-miterlimit="10" stroke-linecap="round"/>
<path d="M57 49.8994C61.6 53.2994 64.7 52.2994 66.4 51.6994" stroke="#495F9E" stroke-miterlimit="10" stroke-linecap="round"/>
<path d="M64.2693 56.0268C64.5842 55.0839 64.1599 54.0927 63.3218 53.8128C62.4836 53.533 61.549 54.0705 61.2341 55.0134C60.9193 55.9563 61.3435 56.9476 62.1817 57.2274C63.0198 57.5073 63.9545 56.9698 64.2693 56.0268Z" fill="#E0E2E0" stroke="white" stroke-width="0.25" stroke-miterlimit="9.9998"/>
<path d="M63.4 52.0996C63.5 51.8996 63.6 51.7996 63.8 51.8996L64 51.9996C64.2 52.0996 64.3 52.1996 64.2 52.3996L63.8 53.6996C63.7 53.8996 63.6 53.9996 63.4 53.8996L63.2 53.7996C63 53.6996 63 53.2996 63 53.1996" stroke="white" stroke-width="0.25" stroke-miterlimit="10"/>
<path opacity="0.72" d="M62.0008 56.2993C62.1008 56.3993 62.3008 56.3993 62.4008 56.1993C62.5008 56.4993 63.0008 56.7993 63.2008 56.3993C63.3008 56.1993 63.3008 55.2993 62.9008 55.1993C62.3008 55.0993 61.9008 55.4993 61.8008 55.7993C61.9008 55.9993 61.9008 56.1993 62.0008 56.2993Z" fill="#333333"/>
<path opacity="0.72" d="M62.1984 55.1996C62.3641 55.1996 62.4984 55.0653 62.4984 54.8996C62.4984 54.7339 62.3641 54.5996 62.1984 54.5996C62.0328 54.5996 61.8984 54.7339 61.8984 54.8996C61.8984 55.0653 62.0328 55.1996 62.1984 55.1996Z" fill="#333333"/>
<path opacity="0.72" d="M62.9016 54.8998C63.0673 54.8998 63.2016 54.7655 63.2016 54.5998C63.2016 54.4341 63.0673 54.2998 62.9016 54.2998C62.7359 54.2998 62.6016 54.4341 62.6016 54.5998C62.6016 54.7655 62.7359 54.8998 62.9016 54.8998Z" fill="#333333"/>
<path opacity="0.72" d="M63.6984 55.2992C63.8641 55.2992 63.9984 55.1649 63.9984 54.9992C63.9984 54.8335 63.8641 54.6992 63.6984 54.6992C63.5328 54.6992 63.3984 54.8335 63.3984 54.9992C63.3984 55.1649 63.5328 55.2992 63.6984 55.2992Z" fill="#333333"/>
<path opacity="0.72" d="M63.8 56.099C63.9657 56.099 64.1 55.9647 64.1 55.799C64.1 55.6333 63.9657 55.499 63.8 55.499C63.6343 55.499 63.5 55.6333 63.5 55.799C63.5 55.9647 63.6343 56.099 63.8 56.099Z" fill="#333333"/>
<path d="M63.7033 44.0997C63.6033 43.3997 62.8033 42.7997 62.6033 42.7997C62.0033 42.5997 61.0033 42.4997 60.6033 43.1997C60.2033 43.7997 60.5033 44.5997 61.0033 44.9997C61.5033 45.4997 62.3033 45.5997 62.9033 45.1997C63.4033 44.9997 63.8033 44.6997 63.7033 44.0997Z" fill="white"/>
<path d="M67.703 43.7987C67.803 43.0987 68.403 42.6987 68.603 42.6987C69.003 42.4987 69.803 42.4987 70.103 43.0987C70.403 43.5987 70.203 44.2987 69.803 44.6987C69.403 45.0987 68.903 45.1987 68.403 44.8987C68.003 44.6987 67.603 44.3987 67.703 43.7987Z" fill="white"/>
<path d="M64.4023 49.2993C64.4023 49.2993 65.5023 47.8993 65.9023 47.9993C66.3023 48.0993 66.8023 49.4993 66.8023 49.4993" stroke="#333333" stroke-width="0.25" stroke-miterlimit="10" stroke-linecap="round"/>
<path d="M66.0023 47.0996L65.9023 47.8996" stroke="#333333" stroke-width="0.25" stroke-miterlimit="10" stroke-linecap="round"/>
<path d="M66.9016 45.8996C66.7016 45.7996 66.4016 45.9996 66.3016 46.0996C66.0016 45.7996 65.2016 45.6996 65.1016 46.1996C65.1016 46.4996 65.2016 46.6996 65.5016 46.8996C65.7016 46.9996 66.0016 47.1996 66.1016 47.2996C66.2016 47.2996 67.3016 46.6996 67.3016 46.2996C67.2016 46.0996 67.1016 45.8996 66.9016 45.8996Z" fill="#F9C2C2"/>
<path opacity="0.8" d="M62.0461 40.9582C62.7116 40.6887 63.1502 40.2212 63.0258 39.9141C62.9014 39.6069 62.2611 39.5764 61.5956 39.846C60.9301 40.1155 60.4915 40.583 60.6159 40.8901C60.7403 41.1973 61.3806 41.2278 62.0461 40.9582Z" fill="#333333"/>
<path opacity="0.8" d="M70.1044 40.8821C70.2512 40.585 69.8486 40.0863 69.205 39.7681C68.5614 39.4499 67.9206 39.4327 67.7737 39.7297C67.6269 40.0268 68.0295 40.5255 68.6731 40.8437C69.3167 41.1619 69.9575 41.1791 70.1044 40.8821Z" fill="#333333"/>
<path d="M63.5026 43.799C63.4026 43.099 62.8026 42.899 62.7026 42.799C62.1026 42.599 61.6026 42.699 61.2026 43.399C60.8026 43.999 60.8026 44.699 61.3026 45.099C61.8026 45.499 62.4026 45.499 63.0026 45.199C63.4026 44.999 63.6026 44.399 63.5026 43.799Z" fill="#80CB94"/>
<path d="M68.0048 43.6987C68.1048 42.9987 68.5048 42.6987 68.6048 42.6987C69.0048 42.4987 69.8048 42.4987 70.1048 43.0987C70.4048 43.5987 70.1048 44.2987 69.8048 44.6987C69.4048 45.0987 68.9048 45.1987 68.4048 44.8987C68.0048 44.6987 67.9048 44.2987 68.0048 43.6987Z" fill="#80CB94"/>
<path d="M62.6031 42.7988C63.1031 43.5988 62.8031 44.6988 62.2031 45.3988C62.2031 44.4988 62.4031 43.6988 62.6031 42.7988Z" fill="#333333"/>
<path d="M69.3016 42.5986C69.8016 43.0986 69.6016 43.8986 69.4016 44.5986C68.7016 46.1986 69.2016 43.0986 69.3016 42.5986Z" fill="#333333"/>
<path d="M63.7033 44.0991C63.6033 43.3991 62.8033 42.7991 62.6033 42.6991C62.0033 42.4991 61.0033 42.3991 60.6033 43.0991C60.2033 43.6991 60.5033 44.4991 61.0033 44.8991C61.5033 45.3991 62.3033 45.4991 62.9033 45.1991C63.4033 44.9991 63.8033 44.6991 63.7033 44.0991Z" stroke="#333333" stroke-width="0.25" stroke-miterlimit="10" stroke-linecap="round"/>
<path d="M67.703 43.7987C67.803 43.0987 68.403 42.6987 68.603 42.6987C69.003 42.4987 69.803 42.4987 70.103 43.0987C70.403 43.5987 70.203 44.2987 69.803 44.6987C69.403 45.0987 68.903 45.1987 68.403 44.8987C68.003 44.6987 67.603 44.3987 67.703 43.7987Z" stroke="#333333" stroke-width="0.25" stroke-miterlimit="10" stroke-linecap="round"/>
<path d="M58.6023 46.299C57.8023 46.099 56.5023 45.999 55.4023 47.199" stroke="#333333" stroke-width="0.25" stroke-miterlimit="10" stroke-linecap="round"/>
<path d="M58.8039 46.8994C58.0039 46.9994 56.7039 47.2994 56.0039 48.7994" stroke="#333333" stroke-width="0.25" stroke-miterlimit="10" stroke-linecap="round"/>
<path d="M69.9023 46.6994C70.7023 46.4994 72.0023 46.3994 73.1023 47.5994" stroke="#333333" stroke-width="0.25" stroke-miterlimit="10" stroke-linecap="round"/>
<path d="M69.7031 47.2998C70.5031 47.3998 71.8031 47.6998 72.5031 49.1998" stroke="#333333" stroke-width="0.25" stroke-miterlimit="10" stroke-linecap="round"/>
<g opacity="0.45">
<path d="M44.6992 48.2C43.5992 48.4 42.7992 49.2 42.0992 49.9C41.5992 50.5 41.4992 50.4 41.8992 49.7C42.0992 49.3 42.3992 48.9 42.7992 48.6C43.1992 48.3 43.9992 47.9 44.6992 48.2Z" fill="#333333"/>
<path d="M45.1016 61.2997C45.9016 61.0997 46.5016 61.5997 47.0016 62.1997C47.2016 62.4997 47.5016 63.0997 47.5016 63.4997C47.7016 64.2997 47.5016 64.2997 47.2016 63.5997C46.7016 62.6997 46.2016 61.5997 45.1016 61.2997Z" fill="#333333"/>
<path d="M40.5019 69.2998C40.5019 70.3998 40.9019 71.4998 41.6019 72.2998C40.3019 71.9998 39.7019 70.2998 40.5019 69.2998Z" fill="#333333"/>
<path d="M57.4019 56.7998C57.3019 57.6998 56.9019 58.3998 56.4019 59.0998C56.3019 58.1998 56.7019 57.2998 57.4019 56.7998Z" fill="#333333"/>
<path d="M60.6023 61.3998C60.5023 60.1998 60.5023 58.9998 60.6023 57.7998C61.1023 58.8998 61.1023 60.2998 60.6023 61.3998Z" fill="#333333"/>
<path d="M63.6992 60.2994C63.8992 59.3994 64.2992 58.6994 64.7992 57.8994C64.9992 58.7994 64.4992 59.7994 63.6992 60.2994Z" fill="#333333"/>
<path d="M55.8008 54.4998C56.2008 53.6998 56.6008 52.9998 57.3008 52.2998C57.3008 53.2998 56.7008 54.1998 55.8008 54.4998Z" fill="#333333"/>
<path d="M52.8004 50.7002C52.7004 51.6002 52.3004 52.3002 51.8004 53.0002C51.7004 52.1002 52.1004 51.2002 52.8004 50.7002Z" fill="#333333"/>
<path d="M50 48.3994C49.7 49.1994 49.2 49.7994 48.5 50.3994C48.6 49.4994 49.2 48.6994 50 48.3994Z" fill="#333333"/>
<path d="M47.8008 70.4996C47.8008 69.5996 47.9008 68.7996 48.3008 68.0996C48.6008 68.8996 48.4008 69.8996 47.8008 70.4996Z" fill="#333333"/>
<path d="M43.2989 67.3994C42.9989 66.5994 42.9989 65.7994 43.0989 64.8994C43.5989 65.5994 43.6989 66.5994 43.2989 67.3994Z" fill="#333333"/>
<path d="M51.6016 42.7998C51.3016 43.5998 50.8016 44.1998 50.1016 44.7998C50.1016 43.8998 50.8016 43.0998 51.6016 42.7998Z" fill="#333333"/>
<path d="M63.1023 62.7998C62.8023 63.9998 62.3023 65.0998 61.7023 66.0998C61.6023 64.7998 62.2023 63.5998 63.1023 62.7998Z" fill="#333333"/>
<path d="M54.8991 67.5996C55.3991 68.6996 55.6991 69.7996 55.7991 70.9996C55.0991 69.9996 54.6991 68.7996 54.8991 67.5996Z" fill="#333333"/>
<path d="M57.7998 62.7002C57.6998 63.8002 57.3998 64.8002 56.8998 65.8002C56.6998 64.7002 56.9998 63.5002 57.7998 62.7002Z" fill="#333333"/>
<path d="M60.0017 69.8994C60.3017 70.7994 60.4017 71.5994 60.3017 72.5994C59.7017 71.7994 59.6017 70.6994 60.0017 69.8994Z" fill="#333333"/>
<path d="M54.5017 61.3994C54.8017 62.2994 54.9017 63.0994 54.8017 64.0994C54.2017 63.2994 54.1017 62.1994 54.5017 61.3994Z" fill="#333333"/>
<path d="M45.5023 53.3994C45.1023 54.4994 44.6023 55.3994 43.9023 56.2994C44.0023 55.1994 44.6023 54.0994 45.5023 53.3994Z" fill="#333333"/>
<path d="M23.5008 55.4994C22.9008 54.4994 22.6008 53.4994 22.3008 52.3994C23.2008 53.1994 23.6008 54.3994 23.5008 55.4994Z" fill="#333333"/>
<path d="M22.6016 59.5996C23.3016 60.4996 23.9016 61.3996 24.3016 62.4996C23.3016 61.8996 22.7016 60.7996 22.6016 59.5996Z" fill="#333333"/>
<path d="M26.1016 66.7002C26.7016 67.3002 27.2016 68.0002 27.4016 68.9002C26.6016 68.5002 26.1016 67.6002 26.1016 66.7002Z" fill="#333333"/>
<path d="M29.9023 70.7998C30.8023 70.9998 31.5023 71.3998 32.1023 71.9998C31.3023 72.0998 30.4023 71.5998 29.9023 70.7998Z" fill="#333333"/>
<path d="M30.4992 67.2998C30.9992 67.7998 31.1992 68.1998 31.1992 68.8998C30.5992 68.5998 30.2992 67.8998 30.4992 67.2998Z" fill="#333333"/>
<path d="M24.6012 57.5996C25.1012 58.0996 25.3012 58.4996 25.3012 59.1996C24.8012 58.9996 24.5012 58.2996 24.6012 57.5996Z" fill="#333333"/>
<path d="M39.901 62.8994C39.801 63.5994 39.601 63.9994 39.101 64.4994C39.001 63.7994 39.301 63.1994 39.901 62.8994Z" fill="#333333"/>
<path d="M51.2018 56.3994C51.1018 57.0994 50.9018 57.4994 50.4018 57.9994C50.3018 57.2994 50.6018 56.6994 51.2018 56.3994Z" fill="#333333"/>
<path d="M39.5025 56C39.5025 56.7 39.2025 57.1 38.7025 57.6C38.6025 56.9 38.9025 56.2 39.5025 56Z" fill="#333333"/>
<path d="M26.9023 62.2002C27.6023 63.1002 28.2023 64.0002 28.6023 65.1002C27.6023 64.5002 27.0023 63.4002 26.9023 62.2002Z" fill="#333333"/>
</g>
</svg>
