<svg width="184" height="152" viewBox="0 0 184 152" fill="none" xmlns="http://www.w3.org/2000/svg">
<path d="M62.7006 8.00019C63.7006 8.80019 62.2006 10.8002 62.6006 13.0002C63.3006 16.2002 67.4006 16.3002 67.7006 18.7002C68.0006 21.2002 64.2006 25.1002 60.6006 24.4002C56.9006 23.8002 55.6006 18.7002 55.7006 15.7002C55.8006 12.3002 57.9006 8.60019 60.7006 7.80019C61.1006 7.80019 62.1006 7.50019 62.7006 8.00019Z" fill="#FF8080"/>
<path d="M103.7 11.4006C102.7 12.2006 104.2 14.2006 103.8 16.4006C103.1 19.6006 99.0003 19.7006 98.7003 22.1006C98.4003 24.6006 102.2 28.5006 105.8 27.8006C109.5 27.2006 110.8 22.1006 110.7 19.1006C110.6 15.7006 108.5 12.0006 105.7 11.2006C105.3 11.2006 104.3 10.9006 103.7 11.4006Z" fill="#FF8080"/>
<path d="M135.701 69.2002L139.801 67.2002L137.801 67.1002L138.401 66.1002L134.701 66.6002L136.101 65.3002L138.701 63.8002L138.501 63.1002L136.601 62.9002L137.001 62.0002L135.101 61.9002L135.301 61.1002L135.001 60.4002L135.801 59.4002L135.701 58.6002L132.701 59.0002L136.101 56.9002L133.701 57.1002L133.101 56.5002L132.501 56.0002L133.801 54.7002L133.301 54.1002L132.701 53.6002L133.401 52.5002L131.101 52.7002L133.601 50.8002H131.901H130.101L132.201 49.0002L130.901 48.8002L128.901 49.0002L129.401 48.0002L130.601 46.5002L131.101 45.5002L126.601 47.0002L128.001 45.5002L126.201 45.6002L127.001 44.4002H125.601L128.601 41.8002V40.9002L128.301 40.3002L124.001 42.1002L126.901 39.3002L123.701 40.6002L123.801 39.7002L126.201 37.2002L125.101 37.0002L121.901 38.4002L124.901 35.3002L121.501 37.0002L123.301 34.7002L121.701 35.0002L119.501 35.9002L119.301 35.2002L119.801 33.8002L120.801 32.0002L120.501 31.3002L118.301 32.3002L117.701 31.8002L118.601 30.1002L118.401 29.2002L118.601 28.0002L117.301 28.2002L115.001 29.6002L116.801 26.7002L115.601 26.8002L115.501 25.8002L112.501 28.2002H111.601L114.001 24.2002L112.001 25.5002L111.401 25.1002L110.601 25.0002L110.201 24.4002L108.601 25.4002L109.101 23.4002L107.301 24.9002L108.501 21.8002L107.701 21.6002L105.501 23.9002L105.901 21.9002L104.401 23.1002L105.901 18.8002L105.301 18.4002L103.601 20.2002L103.501 18.7002L103.201 17.5002L101.701 19.1002L100.101 20.9002L100.501 18.3002L99.2008 19.6002L98.9008 18.3002L98.0008 18.8002L97.9008 16.9002L97.7008 15.4002L96.8008 15.7002L95.8008 16.4002L94.6008 17.8002L94.4008 15.9002L93.8008 15.4002L92.5008 17.6002L91.9008 17.2002L91.4008 16.0002L91.1008 14.5002L90.6008 13.2002L89.0008 17.6002V13.7002L87.7008 17.0002L87.2008 15.6002L86.6008 14.6002L86.1008 13.2002L85.0008 15.5002L84.6008 13.5002L83.5008 16.5002L82.9008 15.5002L82.4008 13.5002L81.7008 13.4002L81.0008 13.0002L80.0008 16.7002L79.4008 15.5002L78.7008 14.5002L77.9008 15.9002L77.2008 15.2002L76.5008 13.9002L75.8008 16.1002L75.1008 11.7002L74.4008 14.3002L73.7008 13.7002L73.0008 15.3002L72.2008 13.4002L71.6008 15.1002L70.8008 13.6002H70.0008L69.2008 12.4002L68.8008 15.9002L68.1008 15.6002L67.4008 16.1002L66.2008 12.4002L65.6008 13.1002L65.4008 16.8002L64.3008 14.3002L63.9008 16.1002L63.1008 16.2002L62.2008 14.9002L61.7008 16.1002L61.2008 17.0002L60.1008 15.7002L59.3008 15.4002L59.0008 17.1002L58.1008 16.4002L57.1008 15.5002V18.2002L55.3008 14.6002L55.6008 18.1002L54.2008 16.0002L53.9008 17.5002L52.7008 16.0002L52.5008 17.6002L51.9008 18.1002L51.4008 19.0002L50.8008 19.4002L50.2008 19.8002L49.1008 18.9002L47.8008 17.8002L47.2008 18.3002L47.1008 19.8002L46.4008 20.1002L46.7008 22.3002L44.9008 20.1002L44.6008 21.1002L43.1008 19.9002L43.3008 21.8002L42.0008 20.9002L42.3008 22.9002L41.7008 23.4002L39.9008 21.8002L39.1008 22.0002L39.6008 24.1002V25.4002L37.6008 23.7002L37.3008 24.5002L38.5008 27.4002L36.1008 25.4002L36.9008 27.6002L37.0008 29.0002L34.5008 27.0002L36.0008 29.9002H35.1008L34.7008 30.5002L34.4008 31.2002L31.2008 28.7002L30.9008 29.4002L30.4008 30.0002L31.5008 32.1002L31.3008 32.9002L29.0008 31.7002L30.5008 34.2002V35.1002L29.7008 35.3002L28.8008 35.4002L26.9008 34.7002L25.5008 34.5002L28.2008 37.7002L24.2008 35.3002L23.6008 35.7002L24.3008 37.2002L25.4008 39.0002L25.3008 39.8002L23.7008 39.5002L22.2008 39.3002L22.7008 40.6002L21.9008 40.9002L23.2008 42.5002L20.1008 41.5002L22.1008 43.5002V44.4002L21.1008 44.6002L20.4008 45.0002L20.0008 45.6002V46.4002L20.9008 47.7002L16.9008 46.6002L17.9008 47.8002L16.3008 47.9002L17.6008 49.3002L16.0008 49.4002L19.7008 51.7002L17.3008 51.5002L15.9008 51.8002L14.8008 52.1002L14.9008 53.0002L18.6008 54.9002L17.2008 55.2002L17.5008 56.0002L17.6008 56.8002L14.1008 56.6002L13.7008 57.3002L15.2008 58.4002V59.1002L16.8008 60.2002L15.2008 60.6002L16.7008 61.5002L16.6008 62.2002L13.5008 62.5002L16.6008 63.6002L11.9008 63.7002L14.2008 64.7002L13.9008 65.4002L15.6008 66.3002L14.3008 66.9002L12.2008 67.5002L13.0008 68.3002L14.8008 69.1002L11.7008 69.7002L15.9008 70.5002L11.3008 71.2002L13.4008 71.9002L15.6008 72.6002L15.7008 73.3002L16.2008 74.1002L12.4008 74.8002L16.1008 75.5002L13.2008 76.3002L11.8008 77.0002L13.6008 77.7002L13.7008 78.4002L14.4008 79.1002L16.1008 79.8002L15.9008 80.5002L13.8008 81.3002L15.3008 82.0002L11.6008 82.9002L14.5008 83.4002L16.0008 84.1002L16.7008 84.7002L13.4008 85.7002L16.3008 86.2002L14.2008 87.1002L13.5008 87.9002L15.5008 88.4002L13.3008 89.4002L14.3008 90.0002L13.9008 90.8002L15.9008 91.3002L14.4008 92.2002L15.4008 92.8002L15.2008 93.5002V94.3002L15.6008 94.9002L16.4008 95.5002L15.9008 96.3002L17.9008 96.7002V97.4002L13.9008 99.0002L15.8008 99.3002L14.8008 100.3L16.8008 100.6L18.2008 101L19.2008 101.4L15.8008 103.1H18.5008L18.9008 103.7L18.3008 104.6L16.3008 106L17.8008 106.3L16.3008 107.6L19.3008 107.3L18.4008 108.4L20.6008 108.2L18.6008 109.9L17.6008 111.2L20.7008 110.5L18.5008 112.4L20.7008 112.1L20.1008 113.3L19.6008 114.4L19.8008 115.2L20.3008 115.7L20.4008 116.6L21.0008 117.1L23.3008 116.4L24.8008 116.2L25.5008 116.5L23.7008 118.8L25.3008 118.4L26.7008 118.1L25.4008 120.3L26.6008 120.2L27.3008 120.5L25.9008 123L28.8008 120.9L29.8008 120.8L29.0008 122.9L28.3008 125L31.0008 122.6V123.8L32.2008 123.3L33.1008 123.1V124.4L32.9008 126.2L32.8008 127.9L34.5008 126.2L36.2008 124.4V126L36.0008 128.2L37.6008 126.4L37.1008 129.3L38.5008 127.8L39.8008 126.3L39.1008 130.4L40.7008 127.9L41.2008 128.7L42.1008 128.1L42.9008 127.9L43.2008 129.7L44.1008 129L44.7008 129.3L45.4008 129.5L46.2008 129.4L46.9008 129.5L47.6008 129.4L48.4008 129L48.8008 131.1L49.4008 131.7L50.4008 129.5L51.1008 130.1L51.4008 133.2L52.5008 130.4L53.3008 129.6L53.8008 132L54.7008 130L55.3008 130.3L55.9008 133.9L56.8008 129.2L57.5008 129.7L58.2008 131.1L58.8008 132.6L59.6008 131.1L60.3008 134.1L61.1008 129.3L61.8008 132.1L62.5008 133L63.2008 133.1L63.9008 133.3L64.6008 132.9L65.3008 134.1L66.0008 133.8L66.8008 131.5L67.5008 131.1L68.3008 129.8L68.9008 132.6L69.7008 132L70.4008 130.1L71.1008 132.1L71.9008 131.3L72.6008 130.1L73.3008 130.6L74.0008 132.5L74.8008 134.1L75.5008 132.7L76.2008 131.8L76.9008 129.5L77.7008 131.7L78.4008 130L79.1008 132.2L79.8008 131.1L80.5008 130.1L81.3008 132.9L82.0008 132.5L82.8008 133.7L83.4008 130.2L84.3008 133.9H85.0008L85.7008 133.7L86.1008 130.3L86.9008 132.4L87.1008 129.4L88.5008 132.8L89.1008 132.2L89.9008 132.7L90.5008 131.9L91.4008 132.5L91.7008 129.9L93.0008 133L93.3008 130.6L93.8008 129.6L94.5008 129.4L95.3008 129.9L96.1008 130.1L96.4008 128.6L97.5008 129.6L98.0008 128.9L99.0008 129.6L99.1008 127.7L100.201 128.5L100.001 126.1L102.401 130L102.001 127.2L103.001 127.6L104.501 129.2V127.5L104.101 125.1L105.601 126.5L106.701 126.9L106.501 125L107.901 126.1L107.201 123.4H108.001L107.901 121.8L109.501 123.1L110.201 122.9L110.701 122.3L111.401 122.1L110.801 120L112.901 121.7L112.601 120L112.901 119.3L113.601 119.1L113.701 118.1L116.601 120.5L117.101 120L117.301 119.1L117.201 117.8L117.001 116.5H117.901L120.101 117.8L120.901 117.6L118.801 114.3L119.301 113.8L120.001 113.5L121.301 113.8L122.601 114.1L121.901 112.4L122.201 111.7H123.201L123.101 110.6V109.7L125.201 110.6H126.401L126.701 109.9L126.001 108.4L128.501 109.5L128.301 108.4L127.301 106.7H128.601L127.301 104.9L127.901 104.5L129.901 105L128.901 103.4L129.701 103.1L130.001 102.5L131.001 102.2L131.501 101.7L129.801 99.9002L130.401 99.4002L132.401 99.7002L134.201 99.9002L133.501 98.7002L133.001 97.6002L134.901 97.7002L132.101 95.6002L135.101 96.2002L134.101 95.0002L136.701 95.3002L134.701 93.7002L135.501 93.2002L138.001 93.4002L135.501 91.7002L134.301 90.5002L137.301 90.8002L137.001 89.9002L137.501 89.3002L137.601 88.6002L135.201 87.2002L137.001 87.0002L136.401 86.1002L140.301 86.2002L138.901 85.2002L139.601 84.6002L136.801 83.4002L137.801 82.8002L138.001 82.1002L136.401 81.2002L136.901 80.6002V79.9002L139.901 79.4002L138.301 78.6002L137.301 77.9002L138.401 77.2002L140.601 76.4002L139.501 75.7002L137.501 75.1002L138.001 74.4002L139.101 73.5002L138.901 72.8002L138.301 72.2002L140.601 71.0002L138.801 70.6002L138.401 69.9002L136.701 69.6002L135.701 69.2002Z" fill="#FFAEAE"/>
<path d="M62.6003 22C61.6003 22.3 59.1003 22.7 57.5003 22.2C55.7003 21.6 55.1003 20.3 54.4003 20.6C53.4003 21 53.0003 23.9 54.1003 26C54.8003 27.3 56.4003 29 58.5003 28.7C60.0003 28.5 60.9003 27.5 61.2003 27.1L62.6003 22Z" fill="#FFAEAE"/>
<path d="M61.5003 22.3C60.5003 22.6 59.0003 22.7 57.5003 22.2C55.7003 21.6 55.1003 20.3 54.4003 20.6C53.4003 21 53.0003 23.9 54.1003 26C54.8003 27.3 56.4003 29 58.5003 28.7C60.0003 28.5 60.9003 27.5 61.2003 27.1" stroke="#FF8080" stroke-miterlimit="10" stroke-linecap="round" stroke-linejoin="round"/>
<path d="M99.8008 25.9C100.901 26.1 103.401 26.3 105.001 25.8C106.901 25.3 107.501 24.2 108.301 24.4C109.401 24.7 109.801 27.2 108.601 29C107.901 30.1 106.101 31.6 103.901 31.3C102.301 31.1 101.401 30.2 101.101 29.9L99.8008 25.9Z" fill="#FFAEAE"/>
<path d="M100.801 26.0006C101.901 26.2006 103.401 26.4006 105.001 25.9006C106.901 25.4006 107.501 24.3006 108.301 24.5006C109.401 24.8006 109.801 27.3006 108.601 29.1006C107.901 30.2006 106.101 31.7006 103.901 31.4006C102.301 31.2006 101.401 30.3006 101.101 30.0006" stroke="#FF8080" stroke-miterlimit="10" stroke-linecap="round" stroke-linejoin="round"/>
<path d="M78.8992 20.4003C75.0992 18.9003 70.9992 20.4003 69.6992 23.8003" stroke="#FF8080" stroke-width="5" stroke-miterlimit="10" stroke-linecap="round" stroke-linejoin="round"/>
<path d="M87.1016 20.5C88.4016 23 92.1016 23.7 95.4016 22" stroke="#FF8080" stroke-width="5" stroke-miterlimit="10" stroke-linecap="round" stroke-linejoin="round"/>
<path d="M75.9023 29.8C76.7308 29.8 77.4023 28.9493 77.4023 27.9C77.4023 26.8507 76.7308 26 75.9023 26C75.0739 26 74.4023 26.8507 74.4023 27.9C74.4023 28.9493 75.0739 29.8 75.9023 29.8Z" fill="#333333"/>
<path d="M90.5 30.5998C91.3284 30.5998 92 29.7491 92 28.6998C92 27.6505 91.3284 26.7998 90.5 26.7998C89.6716 26.7998 89 27.6505 89 28.6998C89 29.7491 89.6716 30.5998 90.5 30.5998Z" fill="#333333"/>
<path d="M68.2026 36.1006C67.6026 40.6006 74.2026 52.2006 74.2026 51.1006C74.8026 43.3006 76.1026 35.1006 76.1026 35.1006" fill="white"/>
<path d="M98.5992 37.2998C98.8992 41.6998 91.8992 52.6998 91.8992 51.5998C91.6992 44.0998 91.1992 35.7998 91.1992 35.7998" fill="white"/>
<path d="M91.2008 115.6C90.9008 115.4 87.8008 113.5 84.3008 115C81.3008 116.3 79.9008 120.4 79.8008 120.9" stroke="#333333" stroke-width="0.75" stroke-miterlimit="10" stroke-linecap="round" stroke-linejoin="round"/>
<path d="M82.1016 107.7C74.9016 108.4 75.2016 115.3 75.1016 115.8" stroke="#333333" stroke-width="0.75" stroke-miterlimit="10" stroke-linecap="round" stroke-linejoin="round"/>
<path d="M110.601 61.7998C110.301 61.7998 116.901 75.3998 111.901 81.0998C104.301 89.5998 88.0012 101.3 79.6012 102.4C73.3012 103.2 70.3012 112.1 75.2012 115.1" stroke="#333333" stroke-width="0.75" stroke-miterlimit="10" stroke-linecap="round" stroke-linejoin="round"/>
<path d="M76.3 119.2C74.4 108.5 61.4 115.6 61 115.9" stroke="#333333" stroke-width="0.75" stroke-miterlimit="10" stroke-linecap="round" stroke-linejoin="round"/>
<path d="M72.7992 109.8C69.8992 106.6 63.0992 109 62.6992 109.3" stroke="#333333" stroke-width="0.75" stroke-miterlimit="10" stroke-linecap="round" stroke-linejoin="round"/>
<path d="M73.8002 106.5C70.4002 102.5 65.8002 103.6 65.1002 103C58.0002 97.1 48.7002 87 55.1002 64" stroke="#333333" stroke-width="0.75" stroke-miterlimit="10" stroke-linecap="round" stroke-linejoin="round"/>
<path d="M57.1992 74.7998C58.9992 72.7998 63.6992 68.0998 71.1992 66.4998C72.9992 66.0998 84.8992 65.0998 89.8992 72.0998C92.5992 75.8998 90.8992 87.1998 85.4992 100.6" stroke="#333333" stroke-width="0.75" stroke-miterlimit="10" stroke-linecap="round" stroke-linejoin="round"/>
<path d="M90.6016 73.1995C91.2016 70.2995 110.302 62.3995 113.702 77.0995" stroke="#333333" stroke-width="0.75" stroke-miterlimit="10" stroke-linecap="round" stroke-linejoin="round"/>
<path d="M66.5 36.0005C83.4 32.4005 100.2 37.3005 100.2 37.3005" stroke="#333333" stroke-miterlimit="10" stroke-linecap="round" stroke-linejoin="round"/>
<path d="M83.5016 75.5C84.9016 77.9 82.8016 80.7 80.6016 81.8C81.8016 79.6 83.4016 78.1 83.5016 75.5Z" fill="#FF8080"/>
<path d="M67.201 76.5C66.001 77.8 64.801 79 63.601 80.3C62.401 81.6 61.201 82.7 60.801 84.5C60.101 81.1 64.501 77.7 67.201 76.5Z" fill="#FF8080"/>
<path d="M75.0008 95C76.2008 97.3 75.1008 100.5 72.8008 101.6C74.1008 99.4 74.7008 97.5 75.0008 95Z" fill="#FF8080"/>
<path d="M102.499 74C103.499 75.7 103.399 78 102.299 79.6C101.999 77.7 102.099 76 102.499 74Z" fill="#FF8080"/>
<path d="M98.3992 82.0996C98.4992 84.7996 97.5992 87.3996 95.6992 89.2996C96.2992 86.6996 97.0992 84.3996 98.3992 82.0996Z" fill="#FF8080"/>
<path d="M68.7984 88.0996C68.0984 90.7996 66.5984 93.1996 64.3984 94.9996C65.4984 92.2996 66.8984 90.0996 68.7984 88.0996Z" fill="#FF8080"/>
<path d="M83.6008 86.8994C84.1008 88.7994 83.6008 90.7994 82.3008 92.2994C82.3008 90.2994 82.7008 88.5994 83.6008 86.8994Z" fill="#FF8080"/>
<path d="M74.8008 74.5996C75.6008 72.7996 77.1008 71.4996 79.1008 71.0996C77.9008 72.5996 76.5008 73.6996 74.8008 74.5996Z" fill="#FF8080"/>
<path d="M51.1016 108.3C53.0016 108.5 54.8016 109.6 55.7016 111.3C53.9016 110.7 52.4016 109.8 51.1016 108.3Z" fill="#FF8080"/>
<path d="M88.1992 111.6C89.2992 110 91.0992 109 93.0992 109C91.5992 110.3 90.0992 111.1 88.1992 111.6Z" fill="#FF8080"/>
<path d="M41.6013 55.0996C41.5013 53.0996 42.4013 51.2996 44.0013 50.0996C43.6013 52.0996 42.9013 53.5996 41.6013 55.0996Z" fill="#FF8080"/>
<path d="M56.3992 40.2998C54.6992 43.5998 52.9992 46.6998 51.1992 49.9998C51.6992 46.2998 53.5992 42.7998 56.3992 40.2998Z" fill="#FF8080"/>
<path d="M35.6992 97.8994C37.3992 101.199 38.9992 104.299 40.4992 107.699C37.8992 105.199 36.0992 101.599 35.6992 97.8994Z" fill="#FF8080"/>
<path d="M92 104.9C94.9 102.5 97.7 100.4 100.7 98.2002C98.7 101.4 95.5 103.8 92 104.9Z" fill="#FF8080"/>
<path d="M23.8003 55.5996C22.9003 59.1996 22.0003 62.5996 20.9003 66.1996C20.6003 62.4996 21.7003 58.5996 23.8003 55.5996Z" fill="#FF8080"/>
<path d="M33.302 78.8994C33.502 81.6994 33.402 84.2994 33.002 87.0994C32.102 84.4994 32.202 81.4994 33.302 78.8994Z" fill="#FF8080"/>
<path d="M52.9984 32.7998C51.2984 35.0998 49.4984 36.9998 47.3984 38.7998C48.3984 36.0998 50.3984 33.8998 52.9984 32.7998Z" fill="#FF8080"/>
<path d="M111.998 50.6002C109.598 49.2002 107.598 47.5002 105.898 45.2002C108.398 46.4002 110.498 48.3002 111.998 50.6002Z" fill="#FF8080"/>
<path d="M40.6984 39C37.0984 41.7 33.9984 44.6 30.8984 47.9C32.7984 43.9 36.4984 40.5 40.6984 39Z" fill="#FF8080"/>
<path d="M45.0992 62.3994C45.7992 65.5994 45.7992 68.8994 45.0992 72.0994C44.3992 68.8994 44.3992 65.6994 45.0992 62.3994Z" fill="#FF8080"/>
<path d="M33.9004 61.0996C31.6004 64.4996 30.1004 68.0996 29.2004 72.0996C28.7004 67.9996 30.6004 63.4996 33.9004 61.0996Z" fill="#FF8080"/>
<path d="M22.3984 88.7998C23.9984 92.1998 23.4984 95.8998 24.9984 99.2998C22.2984 96.5998 22.5984 92.3998 22.3984 88.7998Z" fill="#FF8080"/>
<path d="M40.8984 86.2998C42.2984 90.2998 43.4984 94.0998 44.6984 98.0998C42.1984 94.6998 40.8984 90.4998 40.8984 86.2998Z" fill="#FF8080"/>
<path d="M34.6992 113.899C37.0992 116.699 39.2992 119.399 41.5992 122.199C38.3992 120.499 35.8992 117.399 34.6992 113.899Z" fill="#FF8080"/>
<path d="M57.6992 124.6C60.2992 124.7 62.4992 124.9 64.9992 125.4C62.5992 126.3 59.7992 126 57.6992 124.6Z" fill="#FF8080"/>
<path d="M81.199 51.8994C78.799 53.5994 77.399 55.6994 76.799 58.4994C75.899 55.6994 78.199 52.0994 81.199 51.8994Z" fill="#FF8080"/>
<path d="M86.6985 56.0996C87.8985 58.4996 88.0985 61.1996 87.3985 63.7996C86.6985 61.1996 86.4985 58.7996 86.6985 56.0996Z" fill="#FF8080"/>
<path d="M97.8984 54.5002C98.5984 54.4002 99.2984 54.9002 99.8984 55.3002C101.498 56.6002 102.898 58.1002 103.898 59.9002C102.098 58.8002 100.698 57.4002 99.3984 55.8002C98.8984 55.3002 98.4984 54.8002 97.8984 54.5002Z" fill="#FF8080"/>
<path d="M118.199 43.8998C118.999 43.6998 119.599 44.2998 120.099 44.7998C121.799 46.6998 121.199 47.1998 119.399 45.4998C118.799 44.9998 118.599 44.3998 118.199 43.8998Z" fill="#FF8080"/>
<path d="M101.199 47.9994C101.999 47.7994 102.599 48.3994 103.099 48.8994C104.799 50.7994 104.199 51.2994 102.399 49.5994C101.899 49.0994 101.599 48.4994 101.199 47.9994Z" fill="#FF8080"/>
<path d="M63.2008 44.2002C62.3008 45.9002 62.0008 47.7002 60.3008 49.1002C60.4008 48.1002 60.7008 47.2002 61.2008 46.3002C61.7008 45.5002 62.2008 44.3002 63.2008 44.2002Z" fill="#FF8080"/>
<path d="M126.199 57.2C127.099 57.1 127.699 57.9 128.299 58.4C130.099 60.7 129.499 61.2 127.499 59.1C126.999 58.5 126.799 57.8 126.199 57.2Z" fill="#FF8080"/>
<path d="M118.801 52.0996C119.901 52.0996 120.501 53.1996 121.101 53.8996C123.101 56.7996 122.501 57.1996 120.301 54.4996C119.701 53.7996 119.401 52.7996 118.801 52.0996Z" fill="#FF8080"/>
<path d="M67.3011 51.3994C65.2011 53.6994 62.6011 55.4994 62.2011 58.7994C61.1011 55.4994 64.4011 52.4994 67.3011 51.3994Z" fill="#FF8080"/>
<path d="M105.898 37.3994C108.298 37.6994 110.398 39.5994 110.898 41.8994C109.198 40.2994 107.698 38.9994 105.898 37.3994Z" fill="#FF8080"/>
<path d="M115.5 56.7998C118 58.6998 119.8 61.2998 120.7 64.2998C118.7 61.9998 117 59.5998 115.5 56.7998Z" fill="#FF8080"/>
<path d="M131.801 62.5992C136.901 58.0992 144.101 58.7992 150.001 60.8992C156.001 62.8992 171.401 127.799 166.501 130.799C161.601 133.799 133.601 137.199 125.101 135.499C121.801 134.799 145.801 80.9992 142.801 79.0992C139.801 77.1992 133.701 66.9992 131.801 62.5992Z" fill="#324F3A"/>
<path d="M148.002 88.0994C159.502 85.4994 157.302 64.9994 147.802 65.0994L145.502 64.7994C141.502 63.9994 139.102 66.5994 135.702 69.7994C132.402 73.0994 129.002 79.0994 127.102 83.6994" fill="#333333"/>
<path d="M140.401 70.2986C144.801 66.3986 151.901 68.3986 153.201 74.0986C153.601 75.8986 153.501 78.0986 152.701 80.9986C150.701 88.8986 143.901 87.3986 143.901 87.3986L138.001 86.9986L133.301 89.6986L137.101 81.7986C137.101 81.7986 137.601 75.5986 138.901 71.9986C139.301 71.0986 139.701 70.8986 140.401 70.2986Z" fill="#FFC1C1"/>
<path d="M137.1 85.3988C137.8 85.4988 138.8 84.8988 139.6 83.8988C140.8 82.3988 141.6 79.9988 140.5 76.8988C139.7 74.4988 138.5 73.6988 138.5 73.6988C141.7 72.6988 145.9 69.3988 147.9 68.5988L147.7 65.0988C145.7 63.8988 138.5 66.1988 137.4 66.9988C136.5 67.6988 127.5 76.4988 134.2 82.9988C134.4 83.1988 134.7 83.4988 135 83.6988" fill="#333333"/>
<path d="M150.302 77.1994C150.002 76.9994 149.702 77.2994 149.502 77.6994C149.302 78.0994 149.402 78.6994 149.702 78.7994C150.002 78.9994 150.302 78.6994 150.502 78.2994C150.702 77.8994 150.602 77.3994 150.302 77.1994Z" fill="#333333"/>
<path d="M144.105 76.1996C143.805 75.9996 143.405 76.1996 143.205 76.5996C143.005 77.0996 143.005 77.5996 143.205 77.7996C143.405 77.9996 143.905 77.7996 144.105 77.3996C144.305 76.9996 144.305 76.3996 144.105 76.1996Z" fill="#333333"/>
<path d="M147.102 81.7994C147.702 81.8994 148.902 81.4994 149.002 81.0994C149.002 80.8994 147.602 79.0994 147.602 77.3994" stroke="#333333" stroke-width="0.4661" stroke-linecap="round" stroke-linejoin="round"/>
<path d="M147.703 83.7C147.103 83.5 143.103 83 143.103 83C142.603 83.1 142.603 83.4 142.603 83.4C142.503 83.9 147.403 84.5 147.903 84.4C148.103 84.4 147.903 83.8 147.703 83.7Z" fill="white" stroke="#333333" stroke-width="0.25" stroke-miterlimit="10"/>
<path d="M141.801 74.3996C141.901 73.2996 143.801 72.6996 145.101 72.5996C145.401 72.4996 145.701 72.3996 146.001 72.0996C146.401 72.4996 146.201 72.8996 145.801 73.1996C145.301 73.4996 142.701 73.5996 141.801 74.3996Z" fill="#333333"/>
<path d="M152.102 76.3988C152.502 75.3988 151.402 74.2988 150.302 73.5988C150.102 73.3988 149.802 73.1988 149.702 72.7988C149.202 72.9988 149.202 73.3988 149.502 73.8988C149.602 74.1988 151.602 75.2988 152.102 76.3988Z" fill="#333333"/>
<path d="M136.803 76.1994C137.203 76.0994 138.303 77.4994 138.303 79.0994C138.303 80.3994 137.603 81.6994 137.203 81.6994C136.403 81.4994 136.003 76.3994 136.803 76.1994Z" fill="#FFC1C1"/>
<path opacity="0.52" d="M151.4 66.0991L152.9 67.4991C153.3 67.8991 153.7 68.3991 154 68.8991C155.1 70.9991 157.7 76.8991 156 78.3991C152 82.0991 136 79.4991 133.3 74.9991C132.2 73.0991 137.3 67.2991 137.3 67.2991L148.3 65.3991C149.5 64.9991 150.6 65.3991 151.4 66.0991Z" fill="#806E8E"/>
<path d="M150.101 60.8997C150.101 60.8997 158.501 66.9996 149.601 65.2996C147.901 64.9996 122.201 73.7996 139.501 86.9996C140.701 87.8996 142.901 84.3996 147.001 86.6996C149.901 88.2996 150.001 90.1997 148.201 93.2997C143.501 101.5 116.001 116.4 107.101 109.1C101.601 104.6 107.001 86.1996 111.301 79.4996C114.101 75.1996 120.301 69.8997 126.001 68.3997C130.101 63.2997 135.401 55.5997 150.101 60.8997Z" fill="#80CB94"/>
<path d="M167.5 116.699C168.2 113.799 168.2 90.9994 160.5 81.7994C157.5 78.1994 161.3 66.7994 150.2 60.8994L149.3 65.0994C149.5 64.9994 155.2 65.8994 156.9 78.4994C157.5 82.5994 156 86.2994 149 88.0994C146 88.4994 144.3 85.4994 140.5 87.8994C139.7 87.3994 142.6 94.5994 141.9 93.9994C131.4 97.5994 118.8 95.3994 108 96.1994C105.5 98.8994 107 95.0994 103.5 99.2994C99.9997 103.399 95.2997 118.799 95.2997 126.199C95.2997 127.799 85.3997 128.299 94.1997 131.099C99.2997 132.699 125.1 145.499 130.2 134.999C134 127.099 134.8 123.899 145.6 128.899C147.4 129.699 158.3 119.699 161.6 133.499C162.7 138.099 166.7 131.899 169.3 131.199C176.4 129.199 167.1 118.399 167.5 116.699Z" fill="#80CB94"/>
<g opacity="0.83">
<path d="M159.598 92.6994C156.798 92.1994 155.998 92.8994 153.898 92.1994C152.498 91.7994 151.798 91.3994 150.498 90.8994L150.398 90.9994C151.498 91.4994 152.098 91.8994 153.298 92.2994C155.398 92.8994 156.298 92.4994 158.898 92.8994" fill="#F4F5F6"/>
</g>
<g opacity="0.83">
<path d="M152.097 107.899C151.597 112.099 150.497 115.999 149.297 120.099C149.197 120.399 149.597 120.599 149.797 120.199C151.597 116.299 152.397 112.199 152.397 107.899C152.297 107.699 152.097 107.699 152.097 107.899Z" fill="#F4F5F6"/>
</g>
<g opacity="0.83">
<path d="M140.497 62.0992C143.397 60.6992 146.397 60.8992 149.497 61.2992C149.797 61.2992 149.697 61.0992 149.397 60.9992C146.197 60.2992 143.097 60.1992 140.297 61.9992C140.197 62.0992 140.397 62.0992 140.497 62.0992Z" fill="#333333"/>
</g>
<g opacity="0.83">
<path d="M154.899 94.4996C156.699 94.0996 158.599 93.9996 160.299 94.3996C160.599 94.4996 161.099 94.1996 160.699 94.0996C158.699 93.4996 156.599 93.5996 154.699 94.3996C154.599 94.3996 154.699 94.4996 154.899 94.4996Z" fill="#333333"/>
</g>
<g opacity="0.83">
<path d="M125.597 90.2992C125.397 91.4992 125.097 92.4992 124.597 93.4992C124.497 93.6992 124.697 94.0992 124.897 93.7992C125.797 92.7992 126.097 91.5992 125.797 90.1992C125.797 90.1992 125.697 90.2992 125.597 90.2992Z" fill="#F4F5F6"/>
</g>
<g opacity="0.83">
<path d="M119.3 89.7994C119.3 90.2994 119.3 90.9994 119.2 91.4994C119.1 91.9994 118.8 92.5994 118.7 92.8994C118.6 93.1994 118.9 93.3994 119 93.1994C119.7 92.1994 119.7 90.9994 119.5 89.7994C119.5 89.5994 119.3 89.5994 119.3 89.7994Z" fill="#F4F5F6"/>
</g>
<g opacity="0.83">
<path d="M113.497 92.0994C113.497 92.1994 113.497 92.7994 113.497 92.9994C113.497 93.1994 113.297 93.7994 113.297 94.0994C113.297 94.3994 113.497 94.6994 113.697 94.2994C113.897 93.9994 113.897 93.3994 113.897 93.0994C113.897 92.7994 113.797 92.1994 113.497 92.0994C113.597 91.9994 113.497 91.9994 113.497 92.0994Z" fill="#F4F5F6"/>
</g>
<g opacity="0.83">
<path d="M124.698 71.5996C120.198 72.2996 116.998 74.5996 113.998 78.0996C109.798 82.9996 107.698 88.7996 107.098 95.2996C107.098 95.5996 107.398 95.5996 107.498 95.2996C109.298 84.2996 113.898 75.7996 124.698 71.7996C124.798 71.7996 124.798 71.5996 124.698 71.5996Z" fill="#F4F5F6"/>
</g>
<g opacity="0.83">
<path d="M125.797 78.4995C119.997 80.3995 116.497 84.2995 115.297 90.2995C115.197 90.5995 115.597 90.6995 115.697 90.3995C117.297 84.5995 120.397 81.0995 125.797 78.4995Z" fill="#F4F5F6"/>
</g>
<g opacity="0.83">
<path d="M106.297 100.899C108.297 105.299 111.397 107.599 115.397 107.799C115.597 107.799 115.597 107.499 115.397 107.499C111.497 106.899 108.797 104.799 106.297 100.899C106.297 100.799 106.297 100.799 106.297 100.899Z" fill="#F4F5F6"/>
</g>
<g opacity="0.83">
<path d="M106.3 110.299C104 112.099 102.5 114.299 101.2 116.899C99.9 119.699 99.3 122.699 99 125.699C99 125.899 99.2 125.899 99.2 125.699C99.6 122.799 100.2 119.799 101.4 117.199C102.6 114.499 104.3 112.399 106.3 110.299Z" fill="#F4F5F6"/>
</g>
<g opacity="0.83">
<path d="M99.1973 126.099C96.9973 127.199 95.7973 128.999 94.9973 131.299C94.7973 131.699 95.3973 131.899 95.5973 131.499C96.3973 129.499 97.5973 127.799 99.2973 126.399C99.2973 126.199 99.2973 125.999 99.1973 126.099Z" fill="#F4F5F6"/>
</g>
<g opacity="0.83">
<path d="M118.9 109.099C119.5 106.399 119.9 103.599 121.2 101.099C122.5 98.5994 124.3 96.5994 126.2 94.5994C126.4 94.3994 126.1 94.0994 125.9 94.2994C121.1 98.3994 118.6 103.199 118.7 109.099C118.6 109.299 118.9 109.299 118.9 109.099Z" fill="#F4F5F6"/>
</g>
<g opacity="0.83">
<path d="M108.896 127.899C106.996 128.599 106.096 131.099 106.396 132.999C106.396 133.299 106.796 133.199 106.796 132.999C106.996 132.299 107.096 131.199 107.296 130.599C107.496 129.999 107.796 129.499 108.096 128.999C108.396 128.599 108.696 128.399 108.896 127.999C108.996 127.999 108.996 127.899 108.896 127.899Z" fill="#F4F5F6"/>
</g>
<g opacity="0.83">
<path d="M120.898 111.999C119.698 115.699 119.398 119.299 119.398 123.099C119.398 126.899 119.598 130.799 120.098 134.599C120.198 135.099 120.798 134.899 120.698 134.399C120.398 130.599 119.998 126.599 119.998 122.799C119.998 119.099 120.598 115.699 121.098 111.999C121.098 111.899 120.998 111.799 120.898 111.999Z" fill="#F4F5F6"/>
</g>
<g opacity="0.83">
<path d="M142.497 88.6987C135.797 91.2987 130.597 94.5987 125.797 99.8987C125.497 100.199 125.997 100.599 126.197 100.299C131.097 95.4987 136.497 92.0987 142.497 88.6987C142.597 88.6987 142.497 88.5987 142.497 88.6987Z" fill="#F4F5F6"/>
</g>
<g opacity="0.83">
<path d="M146.398 92.2988C143.698 93.8988 141.198 96.1988 138.798 97.9988C136.398 99.6988 134.198 100.799 131.898 102.499C131.598 102.699 132.098 102.999 132.298 102.799C134.798 101.299 137.198 99.8988 139.698 98.1988C142.098 96.4988 144.598 94.6988 146.398 92.2988C146.598 92.3988 146.498 92.2988 146.398 92.2988Z" fill="#F4F5F6"/>
</g>
<g opacity="0.83">
<path d="M143.197 102.099C140.497 105.399 138.197 108.799 135.397 112.099C132.597 115.299 129.297 118.399 125.997 121.299C125.697 121.599 126.097 121.999 126.397 121.699C129.897 118.799 133.397 115.499 136.297 112.099C138.997 108.899 141.397 105.999 143.297 102.299C143.497 102.099 143.297 101.999 143.197 102.099Z" fill="#F4F5F6"/>
</g>
<g opacity="0.83">
<path d="M158.699 96.9988C158.299 99.9988 158.099 102.699 157.299 105.699C156.499 108.699 155.199 111.799 154.099 114.799C153.899 115.199 154.499 115.399 154.699 114.999C157.299 109.299 159.199 103.399 158.799 96.9988C158.799 96.8988 158.699 96.8988 158.699 96.9988Z" fill="#F4F5F6"/>
</g>
<g opacity="0.83">
<path d="M151.797 88.8995C153.097 88.8995 153.797 88.6995 154.997 89.0995C156.197 89.5995 157.497 90.4995 158.497 91.2995C158.697 91.4995 159.097 91.0995 158.897 90.8995C157.197 89.5995 155.097 87.5995 151.797 88.8995Z" fill="#F4F5F6"/>
</g>
<g opacity="0.83">
<path d="M161.5 118.3C163.7 120.4 164.7 123 165.3 125.5C165.6 126.7 166.1 127.6 166.4 128.7C166.7 129.6 166.8 130.4 167.3 131.1C167.4 131.2 167.8 131.1 167.8 130.9C167.8 129.8 167.4 129 167 127.9C166.6 126.8 166.2 125.9 165.9 124.7C165.2 122.3 164 119.9 161.7 118.1C161.6 118.1 161.4 118.2 161.5 118.3Z" fill="#F4F5F6"/>
</g>
<g opacity="0.83">
<path d="M115.298 111.099C112.798 113.299 111.098 115.699 109.998 118.599C108.898 121.499 108.498 124.299 108.698 127.399C108.698 127.599 108.998 127.499 108.998 127.399C109.298 124.399 109.498 121.299 110.498 118.499C111.598 115.499 113.298 113.399 115.298 111.099Z" fill="#F4F5F6"/>
</g>
<g opacity="0.83">
<path d="M147.399 98.2988C146.499 102.199 146.199 105.899 145.299 109.799C144.399 113.699 142.799 117.899 141.599 121.799C141.499 122.199 141.999 122.299 142.199 121.899C143.899 117.999 145.099 113.599 145.999 109.599C146.899 105.599 147.599 102.299 147.499 98.2988C147.499 98.2988 147.399 98.2988 147.399 98.2988Z" fill="#F4F5F6"/>
</g>
<g opacity="0.83">
<path d="M146.797 94.0986C150.097 93.5986 153.197 93.7986 156.197 95.0986Z" fill="#80CB94"/>
<path d="M146.798 94.1991C149.998 93.6991 153.098 93.9991 156.098 95.1991C156.298 95.2991 156.598 95.0991 156.398 94.9991C153.398 93.5991 150.098 93.4991 146.798 93.9991C146.598 93.9991 146.598 94.1991 146.798 94.1991Z" fill="#333333"/>
</g>
<g opacity="0.83">
<path d="M140.298 61.8994C133.398 62.2994 129.398 65.8994 125.798 71.3994C125.598 71.6994 125.898 71.7994 125.998 71.5994C127.698 69.3994 129.098 67.5994 131.398 65.5994C133.698 63.5994 136.898 62.4994 140.098 62.0994C140.398 62.0994 140.498 61.8994 140.298 61.8994Z" fill="#F4F5F6"/>
</g>
<g opacity="0.83">
<path d="M134.997 69.0995C130.897 71.1995 128.097 74.2995 126.097 78.3995C125.997 78.5995 126.197 78.7995 126.397 78.4995C128.397 74.5995 131.197 71.5995 134.997 69.2995C135.197 69.1995 135.197 68.9995 134.997 69.0995Z" fill="#F4F5F6"/>
</g>
<g opacity="0.83">
<path d="M127.998 83.4995C129.198 80.3995 130.698 77.8996 133.298 75.7996C133.498 75.5996 133.398 75.2995 133.198 75.4995C130.398 77.4995 128.898 80.1996 127.798 83.2996C127.598 83.4996 127.898 83.6995 127.998 83.4995Z" fill="#F4F5F6"/>
</g>
<g opacity="0.83">
<path d="M153.299 65.4996C156.699 68.6996 158.599 72.3996 159.399 76.8996C159.399 77.1996 159.199 77.1995 159.099 76.9995C158.199 72.6995 156.299 68.9995 153.199 65.7995C152.999 65.5995 153.099 65.2996 153.299 65.4996Z" fill="#F4F5F6"/>
</g>
<g opacity="0.83">
<path d="M158.198 83.399C158.498 80.099 158.298 77.199 156.898 74.199C156.798 73.999 156.998 73.699 157.098 73.999C158.698 76.999 158.798 80.099 158.498 83.399C158.498 83.599 158.198 83.599 158.198 83.399Z" fill="#F4F5F6"/>
</g>
<g opacity="0.83">
<path d="M132.997 88.5995C134.097 86.9995 134.697 84.9995 135.097 83.0995C135.197 82.7995 134.797 82.8995 134.797 83.0995C134.397 84.9995 133.697 86.6995 132.797 88.3995C132.697 88.5995 132.897 88.7995 132.997 88.5995Z" fill="#F4F5F6"/>
</g>
<g opacity="0.83">
<path d="M125.799 68.399C124.499 77.199 125.699 84.299 133.499 89.199C133.699 89.399 133.899 88.999 133.699 88.899C126.099 83.899 125.299 76.999 126.099 68.399C126.099 68.199 125.899 68.199 125.799 68.399Z" fill="#333333"/>
</g>
<g opacity="0.83">
<path d="M94.9983 126.6C98.7983 126.3 102.398 126.7 106.098 127.5C110.898 128.6 114.998 130.1 118.898 133.1C119.098 133.3 119.298 132.9 119.098 132.7C115.198 129.7 110.998 128.1 106.198 127.1C102.498 126.3 98.7983 126 94.9983 126.3C94.8983 126.3 94.7983 126.6 94.9983 126.6Z" fill="#333333"/>
</g>
<path d="M150.098 97.2988C148.998 105.399 146.998 113.499 144.098 121.199C146.298 113.299 148.298 105.299 150.098 97.2988Z" fill="#333333"/>
<path d="M129.496 130.1C129.296 125.9 136.296 125.5 139.296 125.6C140.596 125.7 141.896 125.9 143.196 126.3C139.796 125.7 129.696 125.5 129.496 130.1Z" fill="#333333"/>
<path d="M138.699 124.599C139.699 123.999 140.999 123.999 141.999 124.599C140.799 124.699 139.899 124.699 138.699 124.599Z" fill="#333333"/>
<path d="M146.297 128C148.697 124.8 153.097 124.1 156.897 124.1C153.097 124.9 149.197 125.4 146.297 128Z" fill="#333333"/>
<path d="M137.099 89.1992C139.699 87.0992 143.199 85.0992 146.599 86.3992C148.299 86.9992 149.799 88.4992 149.499 90.4992C148.499 98.2992 137.199 103.999 130.699 106.699C136.999 103.599 147.999 97.8992 149.099 90.3992C149.399 88.6992 147.999 87.3992 146.499 86.6992C143.199 85.3992 139.699 87.2992 137.099 89.1992Z" fill="#333333"/>
<path d="M104.798 103.6C104.498 110.5 112.598 111.3 117.798 110.7C118.598 110.6 119.398 110.5 120.198 110.3C118.598 110.9 116.998 111.1 115.298 111.2C110.498 111.7 103.998 109.8 104.798 103.6Z" fill="#333333"/>
<path d="M164.698 103.6C165.598 109.9 159.498 114 157.098 119.2C158.898 113.7 164.998 109.9 164.698 103.6Z" fill="#333333"/>
<path d="M149.098 87.6994C154.998 86.4994 157.698 86.2994 161.398 91.4994C162.298 92.6994 163.398 93.8994 164.698 94.5994C163.198 93.9994 162.098 92.8994 161.098 91.6994C157.098 86.5994 155.098 87.2994 149.098 87.6994Z" fill="#333333"/>
<path d="M132.1 134.2C132.3 132.5 132.9 130.7 134 129.4C135.1 128 136.8 127.1 138.6 127C139.7 127 140.7 127.3 141.8 127.6C142.9 127.9 144 128.3 144.9 129C145.6 129.6 148.1 134.2 144.7 136.8C143.4 137.3 141.2 137.3 139.8 137.3C135.3 137.3 131.6 138.2 132.1 134.2Z" fill="#8CDEA2"/>
<path d="M140.702 131.2C141.309 131.2 141.802 130.708 141.802 130.1C141.802 129.492 141.309 129 140.702 129C140.094 129 139.602 129.492 139.602 130.1C139.602 130.708 140.094 131.2 140.702 131.2Z" fill="#333333"/>
<path d="M137.802 129.499C137.902 129.599 138.102 129.599 138.302 129.499C138.402 129.399 138.402 129.199 138.302 128.999C138.202 128.799 138.002 128.899 137.802 128.999C137.702 129.099 137.702 129.299 137.802 129.499Z" fill="#333333"/>
<path d="M142.7 129.499C142.8 129.599 143 129.599 143.2 129.499C143.4 129.399 143.3 129.199 143.2 128.999C143.1 128.799 142.9 128.899 142.7 128.999C142.6 129.099 142.6 129.299 142.7 129.499Z" fill="#333333"/>
<path d="M135.099 128.4C134.099 127 133.699 125 134.399 123.3C134.699 122.6 135.399 121.9 136.199 122C137.099 122.1 137.499 123 137.599 123.7C137.799 124.9 137.999 126.1 138.099 127.2C138.199 127.5 135.199 128.6 135.099 128.4Z" fill="#8CDEA2"/>
<path d="M137.799 127.299C137.599 126.199 137.499 125.099 137.299 123.999C137.199 123.499 137.099 122.999 136.799 122.699C136.399 122.299 135.799 122.299 135.399 122.599C134.599 123.099 134.499 124.399 134.499 125.199C134.499 126.199 134.799 127.299 135.399 128.099C135.499 128.299 135.199 128.499 135.099 128.299C134.099 126.899 133.699 124.899 134.399 123.199C134.699 122.499 135.399 121.799 136.199 121.899C137.099 121.999 137.499 122.899 137.599 123.599C137.799 124.799 137.999 125.999 138.099 127.099C138.199 127.399 137.799 127.499 137.799 127.299Z" fill="#333333"/>
<path d="M144.699 128.8C145.799 127.5 146.299 125.7 145.699 124.1C145.499 123.4 144.799 122.7 143.999 122.8C143.199 122.8 142.699 123.6 142.499 124.3C142.199 125.4 141.999 126.5 141.699 127.6C141.699 127.7 144.599 129 144.699 128.8Z" fill="#8CDEA2"/>
<path d="M142.099 127.5C142.299 126.5 142.599 125.5 142.799 124.5C142.899 124.1 142.999 123.6 143.399 123.3C143.799 122.9 144.399 123 144.799 123.3C145.499 123.9 145.599 125 145.499 125.8C145.399 126.8 144.999 127.7 144.399 128.4C144.299 128.6 144.499 128.8 144.699 128.7C145.799 127.4 146.299 125.6 145.699 124C145.499 123.3 144.799 122.6 143.999 122.7C143.199 122.7 142.699 123.5 142.499 124.2C142.199 125.3 141.999 126.4 141.699 127.5C141.699 127.7 142.099 127.8 142.099 127.5Z" fill="#333333"/>
<path d="M149.4 128.2C148.4 126.8 148 124.8 148.7 123.1C149 122.4 149.7 121.7 150.6 121.8C151.5 121.9 151.9 122.7 152 123.5C152.2 124.6 152.3 125.8 152.5 126.9C152.6 127.2 149.6 128.4 149.4 128.2Z" fill="#8CDEA2"/>
<path d="M158.802 128.3C159.802 127.1 160.302 125.4 159.802 123.9C159.602 123.3 159.002 122.6 158.302 122.7C157.502 122.7 157.102 123.5 156.902 124.1C156.602 125.1 156.402 126.2 156.102 127.2C156.102 127.3 158.702 128.5 158.802 128.3Z" fill="#8CDEA2"/>
<path d="M145.9 133.8C145.7 132.1 145.4 131.7 147 129.5C148.1 128 151.2 126.8 153 126.8C154.1 126.8 155.1 127 156.1 127.3C157.1 127.6 158.2 127.9 159 128.5C159.6 129 161.8 133.1 158.7 135.6C157.5 136.2 155.4 136.3 154.1 136.5C149.5 136.9 146.4 137.2 145.9 133.8Z" fill="#8CDEA2"/>
<path d="M154.302 129.1C154.702 128.7 155.302 128.6 155.802 129C156.202 129.4 156.201 130 155.901 130.4C155.501 130.8 154.902 130.9 154.502 130.6C154.002 130.1 153.902 129.5 154.302 129.1Z" fill="#333333"/>
<path d="M152.2 129.2C152.3 129.3 152.5 129.3 152.7 129.2C152.8 129.1 152.8 128.9 152.7 128.7C152.6 128.6 152.4 128.6 152.2 128.7C152.1 128.9 152.1 129.1 152.2 129.2Z" fill="#333333"/>
<path d="M157.001 128.999C157.101 129.099 157.301 129.099 157.401 128.999C157.501 128.899 157.501 128.699 157.401 128.599C157.301 128.499 157.101 128.499 157.001 128.599C156.901 128.699 156.901 128.899 157.001 128.999Z" fill="#333333"/>
<path d="M152.198 127.099C151.998 125.999 151.898 124.999 151.698 123.899C151.598 123.399 151.498 122.999 151.198 122.599C150.798 122.199 150.198 122.199 149.698 122.499C148.898 123.099 148.698 124.299 148.698 125.099C148.698 126.099 148.998 127.099 149.598 127.999C149.698 128.199 149.398 128.399 149.298 128.299C148.298 126.899 147.898 124.899 148.598 123.199C148.898 122.499 149.598 121.799 150.498 121.899C151.398 121.999 151.798 122.799 151.898 123.599C152.098 124.699 152.198 125.899 152.398 126.999C152.598 127.199 152.198 127.299 152.198 127.099Z" fill="#333333"/>
<path d="M156.502 127.2C156.702 126.2 157.002 125.3 157.202 124.3C157.302 123.9 157.402 123.5 157.802 123.2C158.202 122.9 158.702 122.9 159.102 123.2C159.802 123.7 159.802 124.8 159.702 125.6C159.602 126.5 159.202 127.4 158.602 128.1C158.502 128.3 158.702 128.5 158.802 128.3C159.802 127.1 160.302 125.4 159.802 123.9C159.602 123.3 159.002 122.6 158.302 122.7C157.502 122.7 157.102 123.5 156.902 124.1C156.602 125.1 156.402 126.2 156.102 127.2C156.102 127.3 156.402 127.4 156.502 127.2Z" fill="#333333"/>
</svg>
