<svg width="184" height="152" viewBox="0 0 184 152" fill="none" xmlns="http://www.w3.org/2000/svg">
<path d="M165.503 105.8C168.603 100.5 169.803 97.2997 170.903 90.4997C171.103 89.3997 173.503 88.3997 173.403 81.4997C173.303 72.1997 169.803 68.6997 164.303 68.8997C162.203 68.9997 157.703 70.7997 156.203 71.8997C154.903 71.3997 153.603 71.0997 152.203 71.0997C149.003 71.1997 147.603 69.6997 145.703 72.2997C144.203 72.4997 141.403 76.2997 140.403 77.9997C132.203 90.5997 125.503 99.0997 125.203 107.4C125.003 113.7 132.503 129.6 137.203 135.5C139.703 138.6 145.103 136.3 145.903 131.9C147.103 125 142.303 113.3 138.303 107.1C142.603 103.5 146.003 101.1 150.403 96.7997C150.803 96.3997 151.603 95.7997 152.603 94.8997C152.703 99.1997 152.603 103.3 152.803 109C153.103 117 163.103 128.1 169.303 133.3C172.603 136 177.403 131.9 177.003 127.2C176.603 119.9 171.303 110.9 165.503 105.8Z" fill="#333333"/>
<path d="M165.005 78.3994C165.105 78.9994 166.205 84.0994 163.105 87.6994C159.905 91.3994 153.405 92.0994 148.305 88.2994" stroke="#A1A1A1" stroke-width="0.5" stroke-miterlimit="10" stroke-linecap="round" stroke-linejoin="round"/>
<path d="M157.202 91L153.102 94.4" stroke="#A1A1A1" stroke-width="0.5" stroke-miterlimit="10" stroke-linecap="round" stroke-linejoin="round"/>
<path d="M145.002 36.8992C146.002 36.4992 151.602 33.2992 153.802 33.4992C160.002 33.9992 163.002 40.5992 171.402 62.3992C175.002 71.7992 155.002 79.2992 148.202 77.0992C146.502 76.4992 143.302 75.4992 142.002 72.4992C140.502 69.1992 137.402 43.2992 140.102 39.6992C140.702 38.6992 142.202 38.0992 145.002 36.8992Z" fill="#80CB94"/>
<path d="M112.801 50.5994C112.001 50.2994 108.201 50.2994 108.201 50.2994C108.101 50.2994 103.801 49.8994 101.801 49.9994C99.8013 50.1994 93.5013 50.5994 93.2013 51.9994C92.9013 53.3994 94.7013 53.0994 95.6013 52.8994C96.5013 52.6994 98.7013 52.4994 98.7013 52.4994C98.7013 52.4994 98.0013 54.5994 99.5013 54.9994C99.5013 54.9994 98.9013 56.2994 100.401 56.8994C100.401 56.8994 100.001 58.2994 101.401 58.4994C102.801 58.6994 103.401 58.4994 104.001 57.5994C104.001 57.5994 108.401 57.3994 109.801 55.6994" fill="#FFC1C1"/>
<path d="M125.302 47.4993C139.302 32.7993 143.702 36.0993 145.002 36.9993C148.002 39.0993 149.602 45.6993 146.402 49.2993C144.302 51.5993 139.802 55.2993 132.102 58.1993C126.702 60.2993 116.702 60.1993 111.302 57.5993C108.502 56.2993 107.302 51.5993 108.502 49.7993C110.602 46.5993 123.702 49.1993 125.302 47.4993Z" fill="#80CB94"/>
<path d="M145.002 36.999C148.002 39.099 149.602 45.699 146.402 49.299C145.002 50.799 142.802 52.699 139.402 54.699" stroke="#3D3442" stroke-width="0.5281" stroke-linecap="round" stroke-linejoin="round"/>
<path d="M135.7 17.8994C133.2 18.0994 132.1 21.0994 132 22.7994C131.9 24.1994 133.6 25.8994 133.9 26.4994" fill="#333333"/>
<path d="M137.501 18.5996C130.901 18.6996 133.501 25.7996 133.501 26.1996C133.501 26.7996 133.301 27.3996 132.901 27.7996C132.201 28.5996 131.401 28.8996 131.301 28.9996C131.201 29.2996 131.501 29.4996 131.701 29.5996C132.301 29.8996 132.701 30.1996 133.101 30.2996C133.401 30.3996 133.601 30.5996 133.801 30.8996C134.301 32.5996 135.501 34.6996 137.601 35.3996C138.401 35.8996 140.401 34.7996 141.701 33.7996L147.101 29.1996L137.501 18.5996Z" fill="#FFBFBF"/>
<path d="M134.702 24.9996C134.902 24.8996 135.202 25.0996 135.202 25.3996C135.302 25.6996 135.202 26.0996 134.902 26.1996C134.702 26.2996 134.402 26.0996 134.402 25.7996C134.402 25.3996 134.502 25.0996 134.702 24.9996Z" fill="#3D3442"/>
<path d="M136.499 23.2996C136.699 23.2996 135.999 23.0996 135.799 23.0996C134.599 23.0996 133.999 23.6996 133.699 24.1996C133.599 24.2996 133.899 24.5996 134.199 24.4996C134.999 24.2996 134.999 23.5996 136.499 23.2996Z" fill="#333333"/>
<path d="M134.3 32.1994C133.9 31.6994 134.6 31.3994 134.9 31.3994C135.3 31.3994 136.2 31.6994 136.4 32.2994C136.5 32.4994 136.4 32.5994 136.2 32.4994C136 32.3994 135.9 32.1994 135.7 32.0994C135.5 31.9994 135.2 31.8994 135 31.8994C134.8 31.8994 134.6 31.9994 134.5 32.0994C134.5 32.0994 134.5 32.2994 134.3 32.1994C134.3 32.2994 134.3 32.2994 134.3 32.1994Z" fill="#3D3442"/>
<path d="M158 23.9996C150 10.2996 134.6 12.7996 135 19.4996C135.1 21.5996 138.8 22.5996 138.5 25.4996C138.2 28.4996 137.7 36.7996 140.1 36.3996C153.5 34.4996 162.1 64.0996 162.1 64.0996C172.8 56.6996 165.3 36.4996 158 23.9996Z" fill="#333333"/>
<path d="M67.1002 98.0005C65.7002 85.4005 54.5002 80.2005 48.8002 74.8005C45.6002 71.8005 41.0002 72.9005 37.7002 75.4005C35.6002 72.2005 32.4002 70.2005 29.9002 70.6005C26.8002 71.1005 24.0002 78.4005 22.9002 81.2005C19.4002 90.3005 18.7002 102.501 18.7002 102.501C16.4002 108.301 15.1002 106.501 11.3002 113.801C8.90019 118.401 5.80019 128.401 9.90019 131.701C19.9002 137.501 22.8002 122.201 29.5002 108.401C33.4002 100.201 37.3002 94.4005 39.2002 89.2005C40.0002 90.0005 40.7002 90.7005 41.1002 91.1005C48.1002 97.7005 53.8002 100.601 53.8002 100.601C53.0002 101.701 50.2002 126.601 54.2002 132.601C57.5002 136.501 64.0002 135.801 64.7002 130.401C66.0002 120.001 67.7002 103.601 67.1002 98.0005Z" fill="#333333"/>
<path d="M26.7992 80.1004C29.2992 79.5004 31.5992 78.0004 32.8992 75.8004C32.9992 75.6004 32.5992 75.4004 32.4992 75.6004C31.2992 77.8004 29.1992 79.1004 26.7992 79.7004C26.4992 79.7004 26.4992 80.1004 26.7992 80.1004Z" fill="#A1A1A1"/>
<path d="M50.0969 38.7003C49.9969 38.7003 47.5969 41.9003 47.5969 41.9003L39.2969 41.7003L40.0969 38.9003L40.2969 38.0003L40.4969 37.4003L41.3969 34.2003C41.3969 34.2003 41.3969 34.1003 41.3969 34.0003C41.3969 33.5003 41.2969 32.2003 41.2969 30.7003C41.2969 30.0003 41.2969 29.1003 41.3969 28.3003C41.3969 27.6003 41.4969 26.9003 41.5969 26.2003C41.6969 25.6003 41.7969 25.0003 41.8969 24.4003C42.0969 23.6003 41.7969 22.4003 42.2969 21.8003C45.7969 17.6003 53.0969 19.1003 55.3969 24.1003C55.4969 24.2003 55.4969 24.4003 55.5969 24.5003C56.1969 26.2003 56.3969 28.3003 56.0969 31.3003C56.0969 31.6003 56.0969 31.9003 55.9969 32.2003C53.8969 38.3003 51.1969 38.8003 50.0969 38.7003Z" fill="#FFBFBF"/>
<path d="M14.3984 65.6006C17.9984 68.6006 26.3984 51.5006 33.4984 27.1006C35.3984 20.4006 41.5984 18.6006 41.5984 18.6006C40.6984 23.2006 44.2984 47.9006 42.2984 52.0006C28.0984 79.1006 14.3984 65.6006 14.3984 65.6006Z" fill="#333333"/>
<path d="M53.8961 29.401C53.6961 29.301 53.3961 29.501 53.2961 29.801C53.1961 30.101 53.3961 30.501 53.5961 30.601C53.7961 30.701 54.0961 30.501 54.1961 30.201C54.1961 29.801 54.0961 29.501 53.8961 29.401Z" fill="#3D3442"/>
<path d="M48.4985 29.501C48.1985 29.501 47.9985 29.701 47.8985 30.101C47.7985 30.501 48.0985 30.801 48.3985 30.801C48.6985 30.801 48.8985 30.601 48.9985 30.201C48.9985 29.801 48.6985 29.501 48.4985 29.501Z" fill="#3D3442"/>
<path d="M56.0962 27.1007C56.2962 27.1007 55.5962 26.9007 55.3962 27.0007C54.0962 27.1007 53.3962 27.7007 52.9962 28.3007C52.8962 28.5007 53.1962 28.7007 53.4962 28.6007C54.2962 28.2007 54.3962 27.5007 56.0962 27.1007Z" fill="#333333"/>
<path d="M46.5981 27.501C46.3981 27.501 47.0981 27.301 47.2981 27.301C48.5981 27.201 49.3981 27.801 49.7981 28.401C49.8981 28.501 49.6981 28.801 49.3981 28.701C48.3981 28.501 48.1981 27.801 46.5981 27.501Z" fill="#333333"/>
<path d="M51.4961 33.2008C52.0961 33.3008 52.9961 32.8008 52.9961 32.5008C52.9961 32.4008 51.6961 31.1008 51.4961 29.8008" stroke="#3D3442" stroke-width="0.5281" stroke-linecap="round" stroke-linejoin="round"/>
<path d="M52.2994 35.301C52.6994 34.801 51.9994 34.501 51.6994 34.501C51.2994 34.501 50.3994 34.901 50.1994 35.401C50.0994 35.601 50.1994 35.701 50.3994 35.601C50.5994 35.501 50.6994 35.301 50.8994 35.201C51.0994 35.001 51.3994 35.001 51.5994 35.001C51.7994 35.001 51.9994 35.101 52.0994 35.201C52.0994 35.201 52.0994 35.401 52.2994 35.301C52.2994 35.401 52.2994 35.401 52.2994 35.301Z" fill="#3D3442"/>
<path d="M45.5977 37.1006C46.8977 38.3006 48.0977 39.1006 49.8977 39.1006C50.1977 39.1006 50.1977 38.6006 49.8977 38.6006C48.1977 38.6006 46.9977 37.8006 45.5977 37.1006Z" fill="#3D3442"/>
<path d="M41.6002 18.5003C43.8002 17.4003 45.7002 17.3003 47.9002 18.2003C48.3002 18.3003 49.8002 20.6003 49.8002 20.9003C48.3002 23.0003 43.2002 28.3003 39.4002 30.9003C37.9002 28.8003 37.2002 26.0003 37.8002 23.5003C38.5002 21.2003 39.4002 19.6003 41.6002 18.5003Z" fill="#333333"/>
<path d="M42.2966 28.9998C40.9966 27.6998 39.5966 28.6998 39.2966 29.0998C38.9966 29.4998 38.7966 29.9998 38.7966 30.4998C38.6966 31.3998 39.0966 32.2998 39.6966 32.7998C40.3966 33.2998 41.6966 33.3998 42.3966 32.7998L42.2966 28.9998Z" fill="#FFBFBF"/>
<path d="M40.0984 31.0998C40.1984 30.9998 40.2984 30.9998 40.3984 30.9998C40.4984 30.8998 40.5984 30.8998 40.6984 30.8998C40.9984 30.7998 41.0984 30.9998 41.3984 31.0998C41.5984 31.2998 41.8984 30.8998 41.6984 30.6998C41.4984 30.3998 40.9984 30.2998 40.6984 30.3998C40.4984 30.3998 40.3984 30.4998 40.2984 30.5998C40.1984 30.6998 40.1984 30.6998 40.0984 30.7998C39.9984 30.8998 39.9984 30.8998 40.0984 31.0998C39.9984 31.0998 39.9984 31.0998 40.0984 31.0998Z" fill="#3D3442"/>
<path d="M56.8 24.9001C58.5 30.7001 55.3 33.8001 55.3 33.8001C55.3 33.8001 55.9 25.0001 55.1 24.8001C52.2 24.1001 49.5 21.4001 49.5 21.4001L48 18.1001C49.4 17.4001 54.8 17.8001 56.8 24.9001Z" fill="#333333"/>
<path d="M69.8002 66.0005C69.4002 65.7005 65.7002 64.8005 61.5002 63.5005C59.8002 63.0005 60.0002 46.9005 54.2002 45.0005C51.8002 44.2005 50.9002 46.9005 48.6002 50.6005C44.7002 56.8005 49.0002 65.8005 52.3002 70.0005C53.0002 70.8005 58.3002 76.5005 65.8002 76.5005C67.2002 76.5005 69.9002 76.5005 71.3002 74.2005C72.9002 71.7005 72.2002 67.6005 69.8002 66.0005Z" fill="#80CB94"/>
<path d="M69.7988 68.801C69.9988 68.001 70.6988 66.501 71.2988 66.301C72.7988 65.801 74.2988 66.101 75.4988 66.101C77.2988 66.201 78.6988 67.101 79.0988 68.401C79.3988 69.701 77.6988 69.501 76.9988 69.401C76.1988 69.301 78.4988 69.401 78.4988 69.401C78.4988 69.401 79.1988 71.501 77.8988 71.901C77.8988 71.901 78.3988 73.101 77.0988 73.801C77.0988 73.801 77.4988 75.201 76.2988 75.401C75.0988 75.601 74.4988 75.501 73.8988 74.601C73.8988 74.601 70.5988 74.301 68.6988 73.301C67.9988 73.001 67.5988 72.101 67.6988 71.301L67.8988 70.201C68.1988 69.301 68.9988 68.701 69.7988 68.801Z" fill="#FFC1C1"/>
<path d="M74.7969 67.901C75.5969 68.101 75.9969 68.901 76.0969 69.701C76.0969 70.601 75.7969 71.501 75.3969 72.201C75.1969 72.601 74.9969 73.101 74.5969 73.301C74.2969 73.501 73.7969 73.401 73.5969 73.101C72.9969 72.401 73.2969 71.401 73.6969 70.601C73.7969 70.501 73.5969 70.301 73.4969 70.401C72.3969 71.001 71.0969 70.201 71.0969 68.701C71.0969 68.501 70.7969 68.401 70.7969 68.701C70.7969 70.401 72.2969 71.401 73.6969 70.701C73.5969 70.601 73.5969 70.501 73.4969 70.501C73.0969 71.201 72.8969 72.101 73.1969 72.901C73.4969 73.501 74.0969 73.901 74.6969 73.701C74.9969 73.601 75.2969 73.301 75.3969 73.001C75.5969 72.601 75.7969 72.201 75.9969 71.801C76.2969 71.001 76.4969 70.101 76.3969 69.301C76.1969 68.501 75.6969 67.801 74.8969 67.601C74.5969 67.501 74.5969 67.901 74.7969 67.901Z" fill="#4A1434"/>
<path d="M76.8984 73.5008C76.2984 73.9008 75.4984 73.7008 75.2984 73.0008C75.2984 72.9008 75.0984 72.9008 75.0984 73.0008C74.9984 73.1008 74.9984 73.2008 75.0984 73.3008C75.2984 73.7008 75.6984 74.0008 76.0984 74.1008C76.4984 74.2008 76.8984 74.1008 77.2984 73.8008C77.2984 73.7008 77.0984 73.4008 76.8984 73.5008Z" fill="#4A1434"/>
<path d="M78 71.6008C77.6 71.8008 77.2 72.0008 76.8 72.0008C76.5 72.0008 76.1 71.8008 75.9 71.5008C75.9 71.4008 75.7 71.4008 75.7 71.5008C75.6 71.6008 75.6 71.7008 75.7 71.8008C75.9 72.2008 76.4 72.5008 76.8 72.5008C77.3 72.5008 77.8 72.3008 78.2 72.1008C78.4 71.8008 78.2 71.5008 78 71.6008Z" fill="#4A1434"/>
<path d="M78.2992 69.3012C77.6992 69.4012 76.9992 69.4012 76.4992 69.2012C76.2992 69.2012 76.1992 69.2012 76.1992 69.3012C76.1992 69.4012 76.2992 69.5012 76.4992 69.5012C77.2992 69.7012 77.9992 69.8012 78.5992 69.6012C78.6992 69.6012 78.7992 69.5012 78.6992 69.4012C78.4992 69.4012 78.3992 69.3012 78.2992 69.3012Z" fill="#4A1434"/>
<path d="M75.0981 75.1014C74.7981 74.9014 74.4981 74.7014 74.2981 74.4014C74.0981 74.2014 74.0981 73.9014 74.1981 73.6014C74.1981 73.5014 74.1981 73.4014 74.0981 73.4014C73.9981 73.4014 73.8981 73.4014 73.8981 73.5014C73.6981 73.9014 73.7981 74.3014 73.9981 74.6014C74.1981 75.0014 74.4981 75.2014 74.8981 75.4014C74.9981 75.5014 75.0981 75.4014 75.0981 75.4014C75.0981 75.3014 75.0981 75.2014 75.0981 75.1014Z" fill="#4A1434"/>
<path d="M51.1006 38.6008C51.8006 38.7008 52.9006 39.1008 53.3006 39.9008C53.7006 40.8008 54.0006 42.0008 54.0006 42.0008C55.1006 42.6008 56.4006 43.7008 55.6006 45.2008C54.7006 46.8008 44.6006 44.2008 46.7006 42.4008C49.6006 39.9008 49.0006 38.4008 51.1006 38.6008Z" fill="#80CB94"/>
<path d="M43.2996 36.6005C42.5996 36.1005 39.4996 34.5005 36.0996 35.8005C35.7996 35.9005 32.4996 37.2005 32.3996 39.2005C32.3996 39.8005 32.5996 40.1005 32.4996 40.8005C32.1996 42.0005 31.0996 42.1005 30.4996 43.1005C29.4996 44.5005 29.7996 47.2005 30.6996 47.7005C32.1996 48.5005 34.2996 41.9005 38.7996 41.3005C42.6996 40.8005 47.1996 44.4005 48.5996 43.1005C48.9996 42.4005 47.2996 39.3005 43.2996 36.6005Z" fill="#80CB94"/>
<path d="M47.4025 42.6008C46.4025 42.4008 40.6025 40.4008 38.5025 40.8008C32.7025 41.9008 30.6025 47.7008 25.4025 66.5008C23.2025 74.5008 43.2025 78.4008 49.5025 75.8008C51.0025 75.1008 54.1025 73.9008 54.8025 71.3008C55.8025 68.5008 55.5025 46.9008 52.5025 44.2008C51.6025 43.5008 50.2025 43.2008 47.4025 42.6008Z" fill="#80CB94"/>
<path d="M34.1008 44.1006C31.6008 45.9006 30.8008 49.1006 29.3008 50.3006" stroke="#3D3442" stroke-width="0.5281" stroke-linecap="round" stroke-linejoin="round"/>
<path d="M25.301 66.5008C23.101 74.5008 43.101 78.4008 49.401 75.8008C50.901 75.1008 54.001 73.9008 54.701 71.3008C55.101 70.0008 55.301 65.1008 55.101 59.8008" stroke="#3D3442" stroke-width="0.5281" stroke-linecap="round" stroke-linejoin="round"/>
<path d="M70.6992 49.7006C71.4992 49.4006 75.2992 49.2006 75.2992 49.2006C75.3992 49.2006 79.6992 48.5006 81.6992 48.6006C83.6992 48.7006 89.9992 48.7006 90.3992 50.1006C90.7992 51.5006 88.8992 51.3006 88.0992 51.1006C87.1992 51.0006 84.9992 50.8006 84.9992 50.8006C84.9992 50.8006 85.7992 52.9006 84.3992 53.3006C84.3992 53.3006 84.9992 54.5006 83.5992 55.3006C83.5992 55.3006 84.0992 56.7006 82.6992 57.0006C81.2992 57.3006 80.6992 57.1006 79.9992 56.2006C79.9992 56.2006 75.5992 56.2006 74.0992 54.6006" fill="#FFC1C1"/>
<path d="M70.9012 47.3003C65.8012 47.3003 59.5012 47.3003 57.3012 46.2003C39.2012 37.5003 36.3012 41.3003 35.1012 42.5003C32.4012 45.2003 32.0012 52.0003 36.0012 54.8003C38.6012 56.7003 39.9012 56.4003 48.4012 57.7003C54.3012 58.7003 53.8012 60.0003 58.7012 60.6003C59.4012 60.7003 68.9012 61.9003 73.5012 56.2003C75.5012 53.7003 76.3012 49.7003 74.9012 48.0003C74.8012 48.0003 74.2012 47.3003 70.9012 47.3003Z" fill="#80CB94"/>
<path d="M70.9012 47.3003C65.8012 47.3003 59.5012 47.3003 57.3012 46.2003C39.2012 37.5003 36.3012 41.3003 35.1012 42.5003C32.4012 45.2003 32.0012 52.0003 36.0012 54.8003C38.6012 56.7003 39.9012 56.4003 48.4012 57.7003C54.3012 58.7003 53.8012 60.0003 58.7012 60.6003C59.4012 60.7003 68.9012 61.9003 73.5012 56.2003C75.5012 53.7003 76.3012 49.7003 74.9012 48.0003C74.8012 48.0003 74.2012 47.3003 70.9012 47.3003Z" stroke="#3D3442" stroke-width="0.5281" stroke-linecap="round" stroke-linejoin="round"/>
</svg>
