<svg width="184" height="152" viewBox="0 0 184 152" fill="none" xmlns="http://www.w3.org/2000/svg">
<path d="M163.398 83.2001C163.098 84.1001 163.498 105.8 157.798 107.4C152.298 109 115.298 105.7 114.398 101.7C113.598 97.7001 108.698 60.7001 111.798 57.3001C115.098 53.8001 114.798 50.1001 131.898 47.5001C147.398 45.2001 159.898 48.9001 162.098 56.0001C164.598 63.3001 163.398 83.2001 163.398 83.2001Z" fill="#C9D6F2"/>
<path d="M163.398 83.2006C163.098 84.1006 163.498 105.801 157.798 107.401C152.298 109.001 115.298 105.701 114.398 101.701C113.598 97.7006 108.698 60.7006 111.798 57.3006C115.098 53.8006 118.298 58.3006 135.698 57.8006C159.198 57.2006 159.998 48.9006 162.198 56.0006C164.598 63.3006 163.398 83.2006 163.398 83.2006Z" fill="#9CAAD8"/>
<path d="M153.9 108.2C148.4 109.8 111.4 106.5 110.5 102.5C109.7 98.5002 104.8 61.5002 107.9 58.1002C111.2 54.6002 114.1 51.6002 131.3 49.1002C146.8 46.8002 156.1 49.8002 158.3 56.9002C160.6 64.1002 159.6 106.5 153.9 108.2Z" fill="#AFBAE8" stroke="#687AAD" stroke-width="0.75" stroke-miterlimit="10"/>
<path d="M141.801 78.4002L104.401 23.7002C102.301 23.7002 100.401 25.1002 99.3008 26.9002C98.1008 28.7002 97.6008 30.9002 97.3008 33.0002C97.0008 35.1002 99.8008 54.5002 92.3008 86.4002C92.3008 86.4002 119.101 60.6002 123.201 55.1002" fill="#333333"/>
<path d="M115.001 24.3996C107.501 21.2996 99.4005 27.9996 100.401 36.4996C100.701 39.1996 102.001 42.0996 104.301 45.6996C110.701 55.5996 121.801 57.8996 121.801 57.8996L130.401 52.0995L125.001 38.9996C125.001 38.9996 121.501 30.7996 117.901 26.4996C117.101 25.5996 116.101 24.8996 115.001 24.3996Z" fill="#FFBFBF"/>
<path d="M122.302 45.5991C121.602 47.9991 120.002 49.8991 117.902 50.9991C117.502 51.1991 117.102 50.5991 117.502 50.3991C119.402 49.0991 120.902 47.4991 122.302 45.5991Z" fill="#333333"/>
<path d="M112.101 34.8995C111.301 35.2995 110.301 35.3995 109.401 35.3995C108.601 35.3995 107.901 35.0995 107.101 34.9995C106.701 34.8995 106.501 35.5995 106.801 35.7995C108.501 36.9995 110.701 36.2995 112.201 35.3995C112.501 35.0995 112.301 34.6995 112.101 34.8995Z" fill="#333333"/>
<path d="M101.401 38.8992C102.001 38.5992 102.601 37.9992 103.001 37.3992C103.401 36.8992 103.501 36.2992 103.801 35.6992C104.001 35.3992 104.501 35.5992 104.501 35.8992C104.501 37.5992 103.001 38.6992 101.701 39.1992C101.301 39.3992 101.201 38.9992 101.401 38.8992Z" fill="#333333"/>
<g opacity="0.59">
<path d="M103 41.4998C102.1 44.0998 104.1 45.5998 103.9 45.1998C103.5 43.8998 103.2 43.0998 103.2 41.4998C103.2 41.3998 103 41.3998 103 41.4998Z" fill="#87D3F6"/>
</g>
<g opacity="0.59">
<path d="M112.903 38.5994C114.503 39.8994 116.103 41.2994 117.303 42.8994C118.403 44.3994 119.003 46.0994 119.903 47.7994C120.003 47.9994 120.403 47.8994 120.403 47.5994C119.703 43.9994 116.403 40.3994 113.103 38.3994C112.903 38.3994 112.803 38.4994 112.903 38.5994Z" fill="#87D3F6"/>
</g>
<path d="M109.599 38.6997C110.099 38.6997 110.599 38.8997 111.099 38.7997C111.699 38.6997 112.199 38.3997 112.599 37.9997C112.899 37.6997 113.299 37.4997 113.099 38.2997C112.899 39.0997 111.999 39.5997 111.199 39.5997C110.499 39.5997 109.699 39.3997 109.599 38.6997Z" fill="#333333"/>
<path d="M105.702 40.0996C106.002 40.7996 105.602 41.3996 105.102 41.6996C104.502 42.0996 103.702 42.2996 103.102 41.6996C102.602 41.1996 102.902 40.9996 103.302 41.0996C103.802 41.1996 104.402 41.1996 104.802 40.8996C105.102 40.6996 105.302 40.2996 105.702 40.0996C105.602 40.0996 105.602 40.0996 105.702 40.0996Z" fill="#333333"/>
<path d="M108 44.6994C107.4 44.8994 106.2 44.6994 106.1 44.3994C106 44.2994 107.2 42.4994 106.9 40.8994" stroke="#333333" stroke-width="0.5281" stroke-linecap="round" stroke-linejoin="round"/>
<path d="M105.101 34.0996C105.001 34.5996 105.601 35.2996 105.601 35.2996" stroke="#333333" stroke-width="0.25" stroke-miterlimit="10" stroke-linecap="round" stroke-linejoin="round"/>
<path d="M113.101 52.5997C112.401 52.2997 103.601 57.0997 103.301 58.1997C102.901 59.4997 107.701 61.4997 107.201 65.4997C104.301 85.0997 112.101 89.2997 113.601 91.2997C115.801 94.0997 155.501 101.6 155.401 97.9997C154.401 62.1997 143.101 51.9997 139.901 48.2997C136.701 44.4997 126.601 45.2997 126.601 45.2997C126.601 45.2997 124.001 55.4997 119.001 56.9997C117.401 57.4997 115.001 53.4997 113.101 52.5997Z" fill="#80CB94"/>
<path d="M155.4 97.9998C154.4 62.1998 142 50.0998 138 46.7998" stroke="#333333" stroke-width="0.5" stroke-miterlimit="10" stroke-linecap="round"/>
<path d="M162.1 104.4C159.6 100.5 22.2996 104.4 22.2996 104.4C22.2996 104.4 19.9996 114.6 22.2996 118.2C22.2996 126.2 53.5996 132.7 92.1996 132.7C130.8 132.7 162.1 126.2 162.1 118.2C162.1 118.3 164.7 108.3 162.1 104.4Z" fill="#9CAAD8"/>
<path d="M92.2008 118.9C130.805 118.9 162.101 112.409 162.101 104.4C162.101 96.3923 130.805 89.9004 92.2008 89.9004C53.5961 89.9004 22.3008 96.3923 22.3008 104.4C22.3008 112.409 53.5961 118.9 92.2008 118.9Z" fill="#9CAAD8"/>
<path d="M92.1984 119.3C52.7984 119.3 21.8984 112.7 21.8984 104.4C21.8984 96 52.7984 89.5 92.1984 89.5C131.598 89.5 162.498 96.1 162.498 104.4C162.598 112.8 131.698 119.3 92.1984 119.3ZM92.1984 90.3C54.4984 90.3 22.6984 96.8 22.6984 104.4C22.6984 112 54.4984 118.5 92.1984 118.5C129.898 118.5 161.698 112 161.698 104.4C161.698 96.8 129.898 90.3 92.1984 90.3Z" fill="#687AAD"/>
<path d="M129 42.5002C132.3 42.4002 137.7 42.7002 138 45.6002C138.5 51.3002 123.3 59.9002 120.4 58.0002C117.2 55.9002 122.7 42.7002 129 42.5002Z" fill="#80CB94"/>
<path d="M134.801 47.9004C134.801 47.9004 132.101 56.2004 123.301 58.1004" stroke="#333333" stroke-width="0.5281" stroke-linecap="round" stroke-linejoin="round"/>
<path d="M103.801 24.7999C103.801 24.7999 106.701 17.5999 113.301 18.2999C119.901 18.9999 122.801 21.4999 124.901 23.3999C128.601 26.5999 140.101 43.9999 138.301 46.8999C134.501 52.9999 122.301 58.3999 115.701 32.9999C115.001 30.0999 106.701 28.2999 103.801 24.7999Z" fill="#333333"/>
<path d="M120.801 34.4996C121.601 32.9996 122.501 32.7996 123.201 32.8996C123.901 32.9996 124.601 33.3996 125.101 33.8996C126.001 34.7996 126.501 36.0996 126.201 37.2996C126.001 38.4996 125.001 39.5996 123.801 39.6996L120.801 34.4996Z" fill="#FFBFBF"/>
<path d="M124.299 36C124.099 36 123.599 36.2 123.399 36.3C123.099 36.5 122.999 36.8 122.899 37.2C122.799 37.6 122.199 37.6 122.199 37.1C122.199 36.5 122.499 36 122.999 35.7C123.199 35.6 123.499 35.5 123.699 35.5C123.999 35.5 124.099 35.7 124.299 35.8C124.399 35.9 124.399 36 124.299 36Z" fill="#333333"/>
<path d="M137.699 49.1002C139.399 47.2002 148.699 51.5002 148.899 71.0002C148.999 83.0002 144.199 103.6 130.399 96.1002C123.399 92.3002 113.099 65.4002 114.199 61.7002C115.399 57.8002 116.899 56.4002 120.299 56.6002C124.399 56.8002 134.899 74.8002 134.899 73.8002C134.899 73.9002 128.199 59.8002 137.699 49.1002Z" fill="#80CB94"/>
<path d="M132.498 70.2998C132.498 70.2998 131.998 64.5998 133.198 56.2998" stroke="#333333" stroke-width="0.5281" stroke-linecap="round" stroke-linejoin="round"/>
<path d="M140.199 48.7002C143.499 49.8002 148.699 56.1002 148.899 71.0002C148.999 83.0002 144.199 103.6 130.399 96.1002C123.399 92.3002 113.099 65.4002 114.199 61.7002C115.399 57.8002 116.899 56.4002 120.299 56.6002C124.399 56.8002 134.899 74.3002 136.199 77.3002" stroke="#333333" stroke-width="0.5281" stroke-linecap="round" stroke-linejoin="round"/>
<path d="M104.3 57.4998C101.8 57.8998 96.1 70.4998 90.9 89.3998C87 103.7 118.1 106.2 122.2 104.8C125.8 103.5 126.4 97.3998 124.4 94.1998C120.8 88.5998 109.4 85.9998 111.3 80.6998C114.5 72.0998 109.5 56.7998 104.3 57.4998Z" fill="#80CB94"/>
<path d="M91.0016 89.3996C87.1016 103.7 118.202 106.2 122.302 104.8C125.902 103.5 126.502 97.3996 124.502 94.1996C120.902 88.5996 109.102 86.9996 103.402 87.7996" stroke="#333333" stroke-width="0.5281" stroke-linecap="round" stroke-linejoin="round"/>
<path d="M119.8 95.2001C123.5 94.3001 126.4 93.7001 129.5 93.4001C132.6 93.1001 138.3 96.2001 138.3 98.1001C138.3 98.1001 141.9 100.8 141.2 102.4C141.8 103.3 142 104.4 140.8 104.8C140.7 105.5 141.1 105.9 139.8 106.1C138.4 106.3 136.8 105.5 135 104.6C133.2 103.7 130.2 103 127.9 103.1C125.6 103.2 123.6 101.9 121.4 102C119.9 102 116.5 97.0001 119.8 95.2001Z" fill="#FFBFBF"/>
<path d="M140.598 104.6C139.598 103.5 137.898 102.1 135.598 101.3C134.998 101.1 134.398 100.9 133.898 100.8" stroke="#333333" stroke-width="0.5" stroke-miterlimit="10" stroke-linecap="round"/>
<path d="M141 102C140 101 138.4 99.8 136.1 99C135.5 98.8 135 98.7 134.5 98.5" stroke="#333333" stroke-width="0.5" stroke-miterlimit="10" stroke-linecap="round"/>
<path d="M138.101 97.8004C137.101 96.8004 134.001 96.3004 132.801 95.4004" stroke="#333333" stroke-width="0.5" stroke-miterlimit="10" stroke-linecap="round"/>
<path d="M107.2 65.5C103.8 81.5 109.6 85.9 111.1 87.9" stroke="#333333" stroke-width="0.5281" stroke-linecap="round" stroke-linejoin="round"/>
<path d="M77.1008 114.501L63.3008 100.301L82.5008 94.6006L98.7008 103.101L77.1008 114.501Z" fill="white" stroke="#BFBFD8" stroke-width="0.25" stroke-miterlimit="10"/>
<path d="M78.4 111.001L67 100.501L81.9 95.8008L94.8 103.001L78.4 111.001Z" fill="#DFDFEF" stroke="white" stroke-width="0.25" stroke-miterlimit="10"/>
<path d="M87.7003 104.501C88.2003 102.901 85.4003 101.801 83.5003 101.601C82.6003 101.601 80.9003 101.601 80.8003 101.601C80.8003 101.601 80.5003 102.501 80.2003 102.701C80.0003 102.801 78.2003 102.501 76.8003 102.301C76.5003 102.201 76.5003 102.001 76.8003 101.901L78.6003 101.801C78.6003 101.801 79.3003 100.901 79.6003 100.701C79.7003 100.701 81.6003 100.701 82.6003 100.601C84.0003 100.301 85.0003 98.8009 82.8003 97.9009C79.8003 96.7009 76.6003 98.1009 75.2003 99.2009C74.5003 99.7009 73.2003 101.001 72.4003 101.701C72.0003 102.001 72.2003 102.501 72.7003 102.701C74.0003 103.301 76.5003 104.401 77.9003 104.801C80.7003 105.701 87.0003 107.001 87.7003 104.501Z" fill="#FF8080"/>
<path d="M68.7995 102.3C69.2995 102.4 69.3995 103 68.9995 103.3C68.8995 103.4 68.9995 103.5 69.2995 103.6C69.3995 103.6 69.3995 103.6 69.4995 103.6C71.6995 103.6 78.1995 105 72.7995 106.4C69.0995 107.3 65.2995 107 61.5995 107.4C60.8995 107.5 60.7995 108.4 61.4995 108.6C61.8995 108.7 62.1995 108.8 62.5995 108.8C63.1995 108.9 63.1995 109.7 62.6995 109.9C59.2995 111.2 48.6995 111 49.8995 109.4C50.1995 109 49.8995 108.5 49.3995 108.5C45.0995 108.6 35.7995 109.1 36.0995 107.3C36.0995 107.1 36.2995 106.9 36.5995 106.8C47.3995 104.8 36.5995 105 32.8995 103.7C32.7995 103.7 32.6995 103.6 32.5995 103.5C30.3995 100.6 62.6995 100.6 68.7995 102.3Z" fill="#333333"/>
<path d="M58.6016 89.1006C61.6016 86.1006 67.0016 87.1006 65.1016 92.1006C63.9016 94.8006 61.9016 96.4006 59.1016 97.3006L59.0016 97.2006C59.8016 96.3006 60.6016 95.4006 61.4016 94.5006C62.4016 93.2006 65.3016 89.4006 62.2016 89.1006C61.0016 89.0006 59.8016 89.2006 58.7016 89.4006L58.6016 89.1006Z" fill="#575787"/>
<path d="M60.5016 102.2V83.2998H40.6016V102.1V102.2C40.6016 102.2 40.6016 102.2 40.6016 102.3C40.6016 103.6 43.5016 104.7 47.6016 105.1H53.1016C57.4016 104.8 60.5016 103.6 60.5016 102.2Z" fill="#6969B7"/>
<path d="M47.5 86.4002C43.4 86.0002 40.5 84.9002 40.5 83.6002C40.5 82.0002 45 80.7002 50.5 80.7002C56 80.7002 60.5 82.0002 60.5 83.6002C60.5 85.0002 57.4 86.1002 53.1 86.4002" fill="#333333"/>
<path d="M47.5 86.4002C43.4 86.0002 40.5 84.9002 40.5 83.6002C40.5 82.0002 45 80.7002 50.5 80.7002C56 80.7002 60.5 82.0002 60.5 83.6002C60.5 85.0002 57.4 86.1002 53.1 86.4002" stroke="#8F8FC9" stroke-miterlimit="10"/>
<path d="M47.5 85.5V87.2L49 90L47.5 94.5L50.4 105.1V95.2L53.5 90.7L53.2 87.6L53 85.6L47.5 85.5Z" fill="#333333"/>
<path d="M117.502 49.9996C117.102 47.6996 113.102 45.2996 111.802 45.2996C110.402 45.2996 107.402 45.9996 107.302 46.9996C107.302 47.1996 105.702 46.7996 104.802 46.5996C105.502 47.2996 103.702 43.4996 102.202 43.9996C101.202 44.3996 102.502 47.1996 103.802 48.6996C104.302 49.1996 103.602 49.9996 104.302 51.0996C104.602 51.6996 105.102 51.7996 105.402 52.8996C105.902 54.5996 106.102 56.1996 106.702 56.7996C108.202 58.3996 113.502 60.4996 115.402 62.2996C116.402 63.1996 119.302 60.4996 119.302 59.0996C119.402 58.6996 118.202 53.6996 117.502 49.9996Z" fill="#FFBFBF"/>
<path d="M107.101 52.9996C106.801 52.8996 106.301 52.7996 105.701 52.3996C105.601 52.2996 105.401 52.1996 105.301 52.0996" stroke="#333333" stroke-width="0.5" stroke-miterlimit="10" stroke-linecap="round"/>
<path d="M107.5 47.0996C108 47.3996 109.3 47.8996 110.8 47.8996C112 47.8996 112.7 49.1996 113.4 49.3996" stroke="#333333" stroke-width="0.5" stroke-miterlimit="10" stroke-linecap="round"/>
<path d="M119.401 58.9999C119.401 58.5999 118.201 53.5999 117.501 49.9999C117.101 47.6999 113.101 45.2999 111.801 45.2999C110.401 45.2999 107.401 45.9999 107.301 46.9999C107.301 47.1999 104.801 46.5999 104.801 46.5999C104.801 46.5999 103.701 43.4999 102.201 43.9999C101.201 44.3999 102.301 47.4999 103.801 48.6999C104.701 49.4999 107.201 50.6999 108.101 50.7999" stroke="#333333" stroke-width="0.5281" stroke-linecap="round" stroke-linejoin="round"/>
<path d="M106 55.7998C106.5 58.2998 111.6 59.4998 115.4 62.2998" stroke="#333333" stroke-width="0.5281" stroke-linecap="round" stroke-linejoin="round"/>
</svg>
