<svg width="280" height="250" viewBox="0 0 280 250" fill="none" xmlns="http://www.w3.org/2000/svg">
<path d="M72.0082 247.722V204.239L80.6389 248.776L118.061 248.908C118.061 248.908 110.286 184.277 107.058 173.208L33.73 157.726C32.0829 173.999 32.8735 210.828 34.7841 248.381L72.0082 247.722Z" fill="#333333"/>
<path d="M63.4337 59.8879C56.1866 62.5232 57.8996 64.0385 55.9231 64.5656C53.8148 65.1585 50.1253 64.3679 49.5983 67.135C49.203 69.1115 37.4098 72.801 34.4451 75.041C8.8165 94.1472 1.50346 140.924 0.844627 146.195C-1.85659 167.739 14.0872 168.991 28.5156 177.819C30.0309 178.741 29.8333 186.384 33.1274 188.36C33.1274 188.36 49.5983 185.066 69.3632 189.019C105.336 196.2 110.87 177.819 110.87 177.819C113.439 179.598 112.056 181.838 116.14 186.384C116.997 187.306 123.058 193.894 129.976 193.631C137.75 193.302 144.141 184.473 146.447 177.16C150.729 163.391 127.67 96.4531 117.458 82.947C111.924 75.634 98.3519 72.4057 97.0342 69.7704C94.0036 63.7091 90.4459 65.1585 90.4459 65.1585C85.1752 54.6172 72.1303 56.7255 63.4337 59.8879Z" fill="#4E66B5"/>
<path d="M82.4746 102.119C84.0558 101.329 85.7687 101.987 87.0864 103.107C87.1523 103.173 87.1523 103.173 87.2182 103.173C87.2841 103.173 87.3499 103.173 87.4158 103.173C87.4817 103.173 87.5476 103.107 87.5476 103.107C87.6135 103.042 87.6135 103.042 87.6793 102.976C89.1288 100.143 94.5971 98.1662 95.8489 102.053C96.5736 104.227 95.7171 106.533 94.2677 108.51C93.3453 109.762 89.59 113.188 88.8652 113.451C88.1405 113.715 87.6793 113.319 87.0864 112.99C84.4511 111.409 81.2228 108.971 80.6298 105.809C80.4322 104.227 81.1569 102.778 82.4746 102.119Z" fill="#D9D2D2"/>
<path d="M16.3281 139.277C25.3541 134.6 36.3566 137.762 44.9874 142.045C49.138 143.494 50.6533 149.489 50.9168 153.772C52.0369 166.487 44.4603 185.33 28.8459 178.149C44.2626 184.078 50.6533 166.158 49.5992 153.838C49.2039 149.885 48.4133 144.812 44.3285 143.099C35.9613 138.816 25.42 135.456 16.3281 139.277Z" fill="#333333"/>
<path d="M44.462 154.036C41.2338 155.419 41.1679 159.109 41.102 159.702C40.9043 161.019 40.509 163.523 41.8926 164.775C43.1444 165.895 44.5938 164.775 47.7562 165.236C51.7751 165.763 51.7751 167.871 55.201 168.135C58.034 168.398 58.2975 166.949 62.9752 166.619C65.347 166.488 67.2577 166.883 68.18 168.201C68.18 168.201 68.3777 172.088 69.3 172.747C70.0248 173.274 71.3424 171.824 72.133 170.572C72.726 169.65 72.9895 168.332 72.9236 168.069V168.003C72.9895 167.805 72.9236 168.53 73.5166 168.332C74.4389 168.003 75.2295 165.631 75.2295 165.499C75.1637 164.511 75.6907 164.709 75.8884 164.379C77.6013 161.546 75.4272 159.504 76.2178 159.965C76.8107 160.295 76.679 157.593 76.4154 157C75.3613 154.826 70.3542 151.532 69.6953 151.466C68.2459 151.334 59.6811 150.741 52.4339 153.443C48.5468 154.958 46.8338 153.047 44.462 154.036Z" fill="#F49980"/>
<path d="M72.5267 168.069C73.1855 168.859 75.4914 168.266 75.0961 165.038C75.0961 165.038 75.8209 165.104 76.0185 164.841C77.7315 162.008 75.4256 159.504 76.2162 159.965C76.8091 160.295 76.6773 157.593 76.4138 157C75.3597 154.826 70.3525 151.532 69.6937 151.466C68.2443 151.334 59.6795 150.741 52.4323 153.443C48.4793 154.958 46.7663 152.982 44.3945 154.036" stroke="#333333" stroke-width="0.658833" stroke-miterlimit="10" stroke-linecap="round"/>
<path d="M41.3672 164.313C42.619 165.433 44.6614 164.775 47.8238 165.17C51.8426 165.697 51.8426 167.805 55.2686 168.069C58.1015 168.332 58.3651 166.883 63.0428 166.554C65.4146 166.422 67.3252 166.817 68.2476 168.135C68.2476 168.135 68.4452 172.022 69.3676 172.681C70.0923 173.208 71.41 171.758 72.2006 170.507" stroke="#333333" stroke-width="0.658833" stroke-miterlimit="10" stroke-linecap="round"/>
<path d="M41.0999 101.131C42.0881 104.293 41.9563 107.719 42.0222 110.947C41.8905 117.536 41.2316 124.124 39.8481 130.647C39.1234 133.875 38.2669 137.103 36.9492 140.134C38.5304 133.743 39.321 127.287 40.1116 120.764C40.5728 116.679 40.9022 112.595 41.1657 108.51C41.2316 106.006 41.4952 103.569 41.0999 101.131Z" fill="#333333"/>
<path d="M101.644 99.418C102.237 111.145 102.566 127.55 103.95 139.014C105.662 152.125 108.034 165.169 111.131 178.017C106.848 165.433 104.279 152.322 102.698 139.146C101.314 125.969 101.512 112.726 101.644 99.418Z" fill="#333333"/>
<path d="M94.7943 148.897C82.2106 146.854 69.1657 148.699 56.3844 147.711C55.0667 161.744 55.8573 164.577 48.2148 178.017C75.3588 182.563 80.6294 177.754 99.2085 179.401C94.1355 168.069 96.5073 160.361 94.7943 148.897Z" fill="#4E66B5"/>
<path d="M94.7292 148.962C85.1761 147.842 75.5572 148.567 66.0041 148.633C62.7758 148.633 59.5475 148.567 56.3851 148.238L56.9781 147.777C56.451 152.454 55.9898 159.043 54.8698 163.523C54.211 166.092 53.2886 168.596 52.1686 171.033C51.0486 173.471 49.7968 175.777 48.545 178.083L48.3474 177.688C52.5639 178.281 56.7804 178.808 60.997 179.071C65.2135 179.401 69.4959 179.401 73.7124 179.269C81.0914 178.939 88.6679 177.885 96.1128 178.412L99.341 178.676L98.6822 179.598C96.5739 174.789 95.5198 169.584 95.388 164.313C95.1245 159.24 95.3222 154.035 94.7292 148.962ZM94.7951 148.831C95.7833 153.97 95.7833 159.174 96.1786 164.313C96.5081 169.452 97.6281 174.459 99.8022 179.071L100.263 180.125L99.1434 180.059C90.6444 179.269 82.2114 180.257 73.7124 180.586C65.1476 180.916 56.5828 179.796 48.2156 178.281L47.8203 178.215C49.2039 175.843 50.5215 173.405 51.7074 170.902C52.8274 168.53 53.7498 166.026 54.3428 163.457C55.331 158.977 55.4628 152.323 55.8581 147.711L55.924 147.184L56.451 147.249C69.1665 148.04 82.2114 146.327 94.7951 148.831Z" fill="#333333"/>
<path d="M49.9258 67.4648C54.5376 80.6415 68.0437 81.7615 72.3261 82.618C75.6203 83.2768 97.8229 71.8131 98.0206 70.759" stroke="#333333" stroke-width="0.941406" stroke-miterlimit="10"/>
<path d="M56.5156 66.8057C57.8992 69.2433 59.6121 71.2198 61.7204 72.9987C63.7628 74.8434 66.0687 76.4246 67.7158 78.6647C63.104 75.8317 57.3721 72.6693 56.5156 66.8057Z" fill="#333333"/>
<path d="M219.58 39.4643C219.58 39.4643 212.333 29.9772 201.792 32.876C182.685 38.1467 178.996 55.8693 178.074 62.5235C173.462 96.7828 166.742 84.9238 160.285 117.207C156.991 133.677 166.215 138.289 166.215 138.289C168.85 129.066 178.074 94.1475 198.497 85.5826C205.02 82.8155 197.839 69.1777 197.839 55.2763C197.839 53.2998 217.999 46.9092 219.58 39.4643Z" fill="#333333"/>
<path d="M233.744 60.2177C237.434 60.4154 243.1 72.6038 237.697 78.0062C234.93 80.7733 229.396 81.6298 227.156 79.3239C222.94 75.1074 229.528 60.0201 233.744 60.2177Z" fill="#F49980"/>
<path d="M191.912 89.5353L212.797 34.0616C219.913 30.8333 232.233 41.2429 234.078 44.0758C241.984 56.5937 239.348 65.8173 228.148 78.3351C216.157 91.7753 234.802 78.7963 219.583 98.759C219.583 98.759 196.722 99.3519 189.738 90.5894" fill="#333333"/>
<path d="M195.669 41.6381C204.234 31.3604 221.166 34.7863 226.239 47.8312C227.82 51.9818 228.281 57.2525 227.688 64.1702C226.107 81.234 214.314 81.6952 214.314 81.6952V88.6788C214.314 89.6671 214.841 90.5235 215.698 90.9847L219.585 92.8953L211.02 104.754L201.137 100.143L198.502 84.3305C198.502 84.3305 191.321 55.8689 193.1 46.9088C193.495 44.8664 194.417 43.1535 195.669 41.6381Z" fill="#F49980"/>
<path d="M208.906 64.3286C208.968 63.6035 207.695 62.9033 206.064 62.7648C204.432 62.6262 203.06 63.1016 202.998 63.8267C202.937 64.5518 204.209 65.252 205.841 65.3906C207.472 65.5292 208.845 65.0537 208.906 64.3286Z" fill="#D46A6A"/>
<path d="M221.827 65.351C223.461 65.2487 224.749 64.5769 224.703 63.8507C224.658 63.1244 223.296 62.6186 221.662 62.7209C220.028 62.8233 218.74 63.495 218.785 64.2213C218.831 64.9476 220.193 65.4533 221.827 65.351Z" fill="#D46A6A"/>
<path d="M202.843 56.8576C204.49 56.2647 205.61 56.0011 206.927 55.8035C208.113 55.6717 209.167 55.6058 210.353 55.6717C211.078 55.7376 211.144 54.6176 210.617 54.354C207.85 52.8387 204.556 54.2882 202.447 56.1988C202.118 56.5282 202.447 57.187 202.843 56.8576Z" fill="#333333"/>
<path d="M224.324 57.1211C222.809 56.3964 221.821 56.0011 220.635 55.7375C219.515 55.474 218.527 55.3422 217.407 55.3422C216.748 55.3422 216.748 54.2222 217.275 53.9587C220.042 52.641 222.941 54.4199 224.785 56.4622C225.049 56.8575 224.654 57.4505 224.324 57.1211Z" fill="#333333"/>
<path d="M206.011 58.0435C205.221 58.4388 204.891 59.427 205.221 60.2835C205.55 61.14 206.406 61.5353 207.197 61.14C207.988 60.7447 208.317 59.7564 207.988 58.9C207.658 58.0435 206.802 57.6482 206.011 58.0435Z" fill="#333333"/>
<path d="M219.187 58.0435C218.396 58.4388 218.067 59.427 218.396 60.2835C218.726 61.14 219.582 61.5353 220.373 61.14C221.163 60.7447 221.493 59.7564 221.163 58.9C220.834 58.0435 219.978 57.6482 219.187 58.0435Z" fill="#333333"/>
<path d="M219.582 39.4643C219.582 39.4643 212.335 29.9772 201.794 32.876C182.688 38.1467 178.998 55.8693 178.076 62.5235C173.464 96.7828 178.076 91.5121 198.5 82.9473C205.022 80.1802 197.841 69.1777 197.841 55.2763C197.841 53.2998 218.001 46.9092 219.582 39.4643Z" fill="#333333"/>
<path d="M191.514 58.241C189.011 56.9892 187.561 57.8457 186.771 58.7022C185.914 59.5586 185.519 60.8763 185.387 62.194C185.19 64.3681 185.914 66.8058 187.496 68.2552C189.077 69.7706 191.449 70.1659 193.03 68.9141L191.514 58.241Z" fill="#F49980"/>
<path d="M209.703 70.4297C211.021 71.7474 212.997 71.7474 212.997 71.7474" stroke="#333333" stroke-width="1.06191" stroke-linecap="round" stroke-linejoin="round"/>
<path d="M212.668 66.8056C214.644 68.1233 217.939 67.4644 215.962 64.8291" stroke="#333333" stroke-width="0.658833" stroke-linecap="round" stroke-linejoin="round"/>
<path d="M152.379 186.384C151.852 187.701 150.863 189.678 149.085 191.654C145.856 195.278 142.562 195.871 136.567 199.56C134.59 200.746 129.32 203.513 129.978 205.49C130.242 206.346 132.811 205.029 133.273 205.49C133.404 205.688 131.296 206.808 131.296 209.443C131.296 210.431 133.931 208.586 133.931 208.784C133.931 210.102 135.908 208.784 135.908 208.784C136.633 208.455 146.713 209.245 144.473 210.761C142.496 212.078 142.167 217.085 145.132 214.714C145.725 214.187 154.619 203.777 155.673 200.219C156.464 197.452 157.913 190.996 158.308 190.996L152.379 186.384Z" fill="#F49980"/>
<path d="M129.98 205.49C130.244 206.346 132.484 204.699 132.945 205.16" stroke="#333333" stroke-width="0.658833" stroke-miterlimit="10" stroke-linecap="round"/>
<path d="M152.379 186.384C151.852 187.701 150.863 189.678 149.085 191.654C145.856 195.278 142.562 195.871 136.567 199.56C134.59 200.746 129.32 203.513 129.978 205.49" stroke="#333333" stroke-width="0.658833" stroke-miterlimit="10" stroke-linecap="round"/>
<path d="M137.557 202.525C137.557 202.525 135.185 204.765 134.79 205.556C134.461 206.281 133.934 208.784 133.934 208.784" stroke="#333333" stroke-width="0.658833" stroke-miterlimit="10" stroke-linecap="round"/>
<path d="M132.285 206.676C132.746 206.742 133.01 206.939 133.076 207.005C133.471 207.466 133.537 208.455 132.944 209.245" stroke="#333333" stroke-width="0.59822" stroke-miterlimit="10" stroke-linecap="round"/>
<path d="M131.822 202.657C132.152 203.053 132.152 203.448 132.152 203.514C132.152 204.238 131.493 205.161 130.57 205.49" stroke="#333333" stroke-width="0.64783" stroke-miterlimit="10" stroke-linecap="round"/>
<path d="M136.897 201.208C136.238 201.208 131.297 206.808 131.297 209.443C131.297 210.432 133.932 208.587 133.932 208.785C133.932 210.102 135.909 208.785 135.909 208.785C136.633 208.455 146.714 209.246 144.474 210.761C142.497 212.079 142.168 217.086 145.132 214.714C145.725 214.187 154.62 203.777 155.674 200.22C156.464 197.453 157.98 191.984 158.309 190.996" stroke="#333333" stroke-width="0.658833" stroke-miterlimit="10" stroke-linecap="round"/>
<path d="M251.213 249.502C250.95 239.026 250.093 233.755 249.895 230.593C249.171 216.23 245.942 200.484 242.451 188.955C240.145 181.378 233.029 164.314 233.029 164.314L192.972 165.171C192.972 165.171 184.012 176.042 178.346 198.442C176.765 204.701 174.657 223.214 171.758 248.316" fill="#FFA3A3"/>
<path d="M202.259 171.891C201.27 179.994 195.143 187.834 186.974 190.865C186.315 191.129 185.985 190.14 186.644 189.877C194.287 187.044 200.216 179.467 201.073 171.891C201.204 171.232 202.325 171.232 202.259 171.891Z" fill="#333333"/>
<path d="M238.434 189.745C232.57 185.66 228.485 179.599 227.761 172.747C227.695 172.088 228.815 172.088 228.881 172.747C229.539 179.204 233.492 185.001 239.027 188.823C239.554 189.218 239.027 190.14 238.434 189.745Z" fill="#333333"/>
<path d="M204.887 79.2587C208.181 81.894 211.739 83.1458 215.56 82.7505C216.219 82.6847 216.021 81.5646 215.362 81.5646C211.739 81.8282 208.379 80.5764 204.887 79.127C204.887 79.127 204.887 79.1928 204.887 79.2587Z" fill="#333333"/>
<path d="M52.3759 23.7181C52.5736 23.3887 52.7712 23.0593 52.9689 22.7299C60.3478 11.3321 79.0586 10.3438 86.1082 21.9393C87.1623 23.6522 85.9764 26.4193 86.1082 28.4617C86.174 29.8453 86.174 31.3606 86.1082 32.8759C86.0423 34.5889 85.9105 36.3018 85.7129 38.0148C85.5152 39.9913 85.2517 41.9678 84.9881 43.7466C84.3952 47.5679 83.7364 50.6644 83.5387 51.9162C83.4728 52.2456 83.4069 52.4432 83.4069 52.4432L83.8022 63.1163C81.1669 73.6577 72.6021 80.9048 72.6021 80.9048C72.6021 80.9048 66.1455 72.0106 64.9596 68.5846C64.3667 66.8058 64.1031 61.1398 64.1031 61.1398L64.0373 60.6786C64.0373 60.6786 63.8396 60.6786 63.5102 60.6128C60.809 60.2833 48.7523 57.8457 48.5547 42.0996C48.5547 41.4407 48.5547 40.716 48.5547 39.9913C48.95 32.8759 50.1359 27.6052 52.3759 23.7181Z" fill="#F49980"/>
<path d="M53.491 7.84011C53.491 7.84011 49.7357 5.86361 53.491 2.3718C59.0911 -2.89887 68.5124 2.30591 68.5124 2.30591C68.5124 2.30591 68.0512 0 71.6748 0C82.0844 0 83.6655 9.15778 83.6655 9.15778C94.6681 12.6496 95.4587 20.1603 94.8657 26.6168C93.6798 40.2547 83.3361 51.9819 83.3361 51.9819L84.9173 38.8711C84.9173 38.8711 79.1196 36.0382 80.8326 28.9886C81.7549 25.2992 84.5879 25.5627 83.8632 22.4662C83.2044 19.3697 73.3219 15.9438 73.3219 15.9438L69.1712 15.4167C69.1712 15.4167 64.0982 21.6756 57.3781 23.5203C51.251 25.1674 50.8557 19.9626 50.8557 19.9626C50.8557 19.9626 45.9803 20.7532 44.9921 15.4826C43.4767 7.51069 53.491 7.84011 53.491 7.84011Z" fill="#422E28"/>
<path d="M84.5906 33.3373C86.5671 32.1514 89.2683 32.6125 90.1907 33.4031C91.113 34.1937 91.6401 35.4455 91.8377 36.6973C92.1672 38.7397 91.5742 40.9797 90.0589 42.4292C88.5436 43.8127 84.92 44.3398 83.207 43.2198L84.5906 33.3373Z" fill="#F49980"/>
<path d="M88.7393 38.5415C88.344 38.278 87.4875 38.0803 87.0922 38.0144C86.4334 38.0144 86.0381 38.3439 85.5769 38.6733C85.0498 39.1345 84.4569 38.3439 84.7863 37.8168C85.3133 37.0921 86.3016 36.7627 87.0922 36.8285C87.5534 36.8285 87.9487 37.0262 88.2781 37.2897C88.6734 37.6191 88.7393 37.9486 88.871 38.4097C88.9369 38.5415 88.8052 38.6074 88.7393 38.5415Z" fill="#333333"/>
<path d="M53.957 8.23488C51.8488 7.7737 49.477 7.3784 47.4346 8.30077C44.7334 9.55255 43.1522 13.5055 46.4464 15.1526C46.9734 15.4162 46.5781 16.2068 46.0511 16.0091C43.5475 14.8891 42.9545 11.7267 44.5357 9.55255C46.7099 6.45604 50.8605 6.65369 54.0888 7.57605C54.55 7.64193 54.4182 8.30077 53.957 8.23488Z" fill="#422E28"/>
<path d="M74.8419 29.5151C72.8654 28.9221 71.6136 28.7245 70.0324 28.5927C68.583 28.5268 67.3971 28.5268 66.0135 28.6586C65.2229 28.7245 65.0253 27.6044 65.6182 27.2091C68.7806 25.3644 72.6677 26.8138 75.2372 28.7903C75.6983 29.1198 75.303 29.8445 74.8419 29.5151Z" fill="#422E28"/>
<path d="M51.9173 27.5399C52.9715 27.1446 54.0915 27.3423 55.1456 27.5399C56.1339 27.7376 57.0562 28.1329 57.9786 28.4623C58.5056 28.6599 58.8351 27.7376 58.5056 27.3423C56.7268 25.2999 53.8279 25.7611 51.7856 26.8811C51.3903 27.0129 51.522 27.6717 51.9173 27.5399Z" fill="#422E28"/>
<path d="M54.8763 29.3179C55.5351 29.1202 56.194 29.6473 56.3257 30.5038C56.4575 31.3602 56.1281 32.2167 55.4692 32.4144C54.8104 32.612 54.1516 32.085 54.0198 31.2285C53.8222 30.372 54.2175 29.5155 54.8763 29.3179Z" fill="#333333"/>
<path d="M67.3299 31.6237C68.0546 31.5578 68.7135 32.2166 68.7135 33.0731C68.7135 33.9296 68.1864 34.7202 67.4617 34.7861C66.737 34.852 66.0781 34.1931 66.0781 33.3366C66.0781 32.4802 66.6052 31.6896 67.3299 31.6237Z" fill="#333333"/>
<path d="M60.6755 41.5724C59.226 41.6383 56.7883 40.3865 56.7225 39.5959C56.6566 39.2665 57.4472 34.8523 60.8072 32.6123" stroke="#333333" stroke-width="1.06191" stroke-linecap="round" stroke-linejoin="round"/>
<path d="M75.4965 59.0312C72.0047 61.3371 68.1835 62.2595 64.0328 61.5347C63.3081 61.403 63.5058 60.283 64.2305 60.4147C68.1835 61.0077 71.7412 60.0194 75.4965 58.8994C75.5624 58.8994 75.5624 58.9653 75.4965 59.0312Z" fill="#333333"/>
<path d="M60.1484 45.3936L62.7838 46.0524" stroke="#333333" stroke-width="1.06191" stroke-linecap="round" stroke-linejoin="round"/>
<path d="M72.5896 37.8529C72.6792 37.1307 71.4345 36.3819 69.8096 36.1803C68.1847 35.9788 66.7948 36.4008 66.7052 37.123C66.6156 37.8452 67.8602 38.5941 69.4852 38.7956C71.1101 38.9972 72.5 38.5751 72.5896 37.8529Z" fill="#D46A6A"/>
<path d="M55.396 35.5698C55.5724 34.8638 54.4278 33.9696 52.8394 33.5726C51.251 33.1755 49.8202 33.4259 49.6438 34.1319C49.4673 34.8379 50.6119 35.732 52.2003 36.1291C53.7887 36.5262 55.2195 36.2758 55.396 35.5698Z" fill="#D46A6A"/>
<path d="M188.549 64.2357C188.813 63.9721 189.603 63.7745 189.999 63.7086C190.657 63.6427 191.053 63.9721 191.58 64.3674C192.173 64.8286 192.897 64.1039 192.436 63.4451C191.843 62.6545 190.855 62.1933 189.999 62.3251C189.603 62.391 189.142 62.5886 188.813 62.8521C188.483 63.1815 188.483 63.5768 188.352 64.038C188.352 64.1698 188.483 64.3016 188.549 64.2357Z" fill="#333333"/>
<path d="M137.883 178.478C135.05 176.435 131.822 178.28 131.295 178.478C130.043 179.005 127.671 179.927 127.342 181.772C127.013 183.485 128.726 184.144 129.977 187.043C131.624 190.732 129.78 191.852 131.295 194.949C132.547 197.518 133.864 196.991 136.566 200.878C137.949 202.854 138.542 204.699 137.883 206.149C137.883 206.149 134.655 208.323 134.589 209.443C134.523 210.299 136.434 210.695 137.883 210.76C139.003 210.826 140.255 210.365 140.453 210.168C140.453 210.168 140.058 211.09 140.519 211.419C141.243 212.012 143.747 210.826 143.813 210.76C144.669 210.168 144.735 210.76 145.131 210.76C148.425 210.76 149.084 207.862 149.084 208.784C149.084 209.443 151.389 207.993 151.719 207.466C153.037 205.49 153.3 199.494 153.037 198.901C152.378 197.584 148.556 189.941 142.495 185.066C139.201 182.431 139.992 179.993 137.883 178.478Z" fill="#F49980"/>
<path d="M140.194 210.43C139.865 211.419 141.512 212.407 144.147 210.43C144.147 210.43 144.41 211.089 144.806 211.089C148.1 211.089 149.088 207.861 149.088 208.783C149.088 209.442 151.394 207.993 151.723 207.466C153.041 205.489 153.305 199.494 153.041 198.901C152.382 197.583 148.561 189.941 142.5 185.065C139.206 182.43 139.667 179.663 137.559 178.147" stroke="#333333" stroke-width="0.658833" stroke-miterlimit="10" stroke-linecap="round"/>
<path d="M146.121 200.549C147.439 203.184 147.439 207.137 144.145 210.431" stroke="#333333" stroke-width="0.658833" stroke-miterlimit="10" stroke-linecap="round"/>
<path d="M149.873 199.89C150.664 202.525 150.664 205.819 148.688 208.784" stroke="#333333" stroke-width="0.479367" stroke-miterlimit="10" stroke-linecap="round"/>
<path d="M127.012 182.102C132.282 190.008 129.779 191.852 131.294 194.949C132.546 197.518 133.864 196.991 136.565 200.878C137.948 202.855 138.541 204.7 137.882 206.149C137.882 206.149 134.654 208.323 134.588 209.443C134.522 210.3 136.433 210.695 137.882 210.761C139.002 210.827 142.824 209.773 142.165 202.525" stroke="#333333" stroke-width="0.658833" stroke-miterlimit="10" stroke-linecap="round"/>
<path d="M141.182 178.741C136.438 177.951 131.497 178.807 127.478 181.508C126.556 182.101 125.633 182.826 124.711 183.485C128.005 178.148 135.516 175.645 141.182 178.741Z" fill="#333333"/>
<path d="M90.122 66.1465C89.1997 72.0101 83.5337 75.1725 78.9219 78.0055C80.569 75.7654 82.9408 74.1184 84.9173 72.3395C87.0255 70.5607 88.7385 68.5842 90.122 66.1465Z" fill="#333333"/>
<path d="M197.835 82.9465C194.343 84.1983 192.367 87.6901 190.588 88.876C189.863 89.3372 187.096 89.3372 185.976 89.5349C182.879 90.0619 183.67 93.2902 182.682 94.1467C168.846 106.006 173.722 113.385 166.87 128.406C159.491 144.613 152.046 148.764 147.764 162.006C144.272 172.811 144.14 184.407 154.352 191.654C159.491 195.278 168.253 196.859 173.458 192.972C182.089 186.515 181.364 171.889 182.023 167.936C182.023 167.936 185.515 171.296 197.176 172.548C209.694 173.865 228.273 177.95 240.659 165.959C242.767 163.917 243.097 160.425 243.294 154.759C243.492 149.423 240 146.524 240 138.289C240 134.994 240 133.15 241.318 131.7C241.318 131.7 247.247 134.336 257.789 131.041C265.826 128.538 271.361 121.62 273.601 115.229C279.662 97.7044 257.13 96.782 242.636 73.7229C239.275 68.3863 226.231 75.7653 224.188 81.6289C222.673 85.9772 224.188 88.2172 224.188 88.2172C220.894 89.5349 222.212 83.6054 214.965 82.9465C212.79 82.7489 215.623 94.1467 211.67 102.712C210.682 104.886 200.075 82.1559 197.835 82.9465Z" fill="#C95151"/>
<path d="M226.427 114.043C222.277 113.45 218.785 116.02 216.677 119.577C216.611 119.709 216.545 119.775 216.413 119.841C216.281 119.907 216.149 119.973 216.018 119.973C215.886 119.973 215.754 119.973 215.622 119.907C215.491 119.841 215.359 119.775 215.293 119.643C209.891 114.241 196.121 113.648 195.989 123.399C195.923 128.933 199.547 133.611 204.159 137.037C207.123 139.277 218.192 144.284 219.971 144.415C221.75 144.547 222.672 143.23 223.66 142.11C228.601 136.641 234.136 128.735 233.213 121.027C232.752 117.337 229.985 114.57 226.427 114.043Z" fill="#FFA3A3"/>
<path d="M181.695 114.241C184.726 120.302 189.074 126.825 186.966 133.94C184.989 140.463 184.133 147.183 183.738 154.035C183.408 158.581 183.408 163.324 181.695 167.607C182.881 163.192 182.552 158.581 182.684 154.035C182.749 147.117 183.606 140.199 185.78 133.611C187.888 126.891 183.869 120.434 181.695 114.241Z" fill="#333333"/>
<path d="M183.016 94.4766C187.627 94.4766 190.724 97.5731 195.533 100.406C204.098 105.479 207.063 106.797 211.345 107.653C214.64 108.312 225.84 96.4531 226.499 95.7942" stroke="#333333" stroke-width="0.941406" stroke-miterlimit="10" stroke-linecap="round"/>
<path d="M190.258 89.2056C194.738 88.8103 199.679 95.7939 202.117 99.088C200.997 98.3633 199.943 97.5068 199.02 96.6504C197.11 94.8715 195.397 92.9609 193.486 91.2479C192.498 90.3915 191.51 89.6009 190.258 89.2056Z" fill="#333333"/>
<path d="M257.133 120.5C244.549 119.183 234.14 110.025 228.21 99.2199C226.234 95.5964 224.718 91.6434 224.191 87.5586C225.246 91.5116 226.959 95.2669 229.067 98.6929C235.392 109.102 245.011 117.799 257.133 120.5Z" fill="#333333"/>
<path d="M240.658 115.229C241.976 117.799 243.161 120.5 243.227 123.465C243.293 124.914 243.03 126.364 242.832 127.813C241.778 133.479 239.472 138.882 236.244 143.625C235.387 144.811 234.531 145.931 233.477 146.853C234.333 145.733 235.058 144.482 235.717 143.23C238.747 137.696 240.987 131.7 242.041 125.441C242.634 122.015 241.712 118.655 240.658 115.229Z" fill="#333333"/>
<path d="M237.304 56.5938C246.264 65.6856 250.283 74.3164 234.339 77.6105C231.901 78.3352 227.553 78.9282 226.499 81.2341C226.367 81.6294 226.367 82.0906 226.499 82.4859C226.697 83.6718 226.763 84.9236 226.631 86.1095C226.433 88.0201 225.774 89.7989 225.05 91.446C224.061 93.8178 222.48 95.8602 222.085 98.2979C221.887 100.933 225.379 101.329 226.894 102.91C232.494 107.456 229.596 115.032 225.708 119.71C225.115 120.369 224.588 121.093 223.93 121.555C228.212 117.206 232.231 108.312 226.17 103.898C224.786 102.778 222.941 102.449 221.624 101.197C218.659 98.1002 222.085 93.7519 223.073 90.6554C223.666 89.0742 224.061 87.5589 224.193 85.9777C224.259 84.7259 223.995 83.54 223.798 82.3541C223.468 80.6412 224.588 78.5988 225.906 77.6764C228.212 75.9634 231.045 75.2387 233.549 74.4481C236.052 73.5258 242.047 72.3399 241.257 69.1116C240.137 65.488 236.909 62.655 234.207 59.9538C234.076 59.9538 237.304 56.5938 237.304 56.5938Z" fill="#333333"/>
<path d="M229.595 63.709C232.823 65.4219 239.939 68.5843 236.908 73.3938C235.459 75.8974 229.397 77.9398 231.44 81.1022C232.033 82.0904 232.626 83.1446 232.955 84.2646C234.141 87.4928 233.416 90.9188 233.68 94.1471C233.812 94.9377 234.141 95.2671 234.866 95.5306C237.962 96.9142 241.849 100.208 240.268 103.964C239.741 105.018 238.885 105.677 237.962 106.27C241.322 104.161 240.861 100.67 237.962 98.4295C236.974 97.573 235.788 96.9142 234.536 96.5189C233.614 96.3212 232.757 95.3988 232.626 94.4765C232.099 91.2482 232.692 87.8881 231.374 84.9234C230.979 84.001 230.451 83.0787 229.859 82.2222C229.068 81.1681 228.739 79.4551 229.266 78.2033C230.254 75.8315 232.362 74.7115 233.943 73.0644C234.404 72.5373 235.063 71.8785 234.997 71.2856C234.997 70.9561 234.47 70.2314 233.68 69.7044C232.164 68.5844 230.188 67.662 228.277 66.8055L229.595 63.709Z" fill="#333333"/>
<path d="M235.325 58.043C240.728 64.3678 241.518 71.8126 233.415 76.2268C231.438 77.3468 229.264 78.0715 227.09 78.7303C229.198 77.8738 231.24 76.9515 233.085 75.6997C239.871 71.1537 238.751 65.0925 233.415 59.8877C233.415 59.8218 235.325 58.043 235.325 58.043Z" fill="#333333"/>
<path d="M46.7043 151.334C43.476 155.419 41.6972 160.228 41.763 165.433C41.763 166.158 41.763 166.948 41.6972 167.739C41.3677 167.08 41.0383 166.355 40.7748 165.565C39.1277 160.294 41.4995 153.64 46.7043 151.334Z" fill="#333333"/>
</svg>
