<svg width="280" height="250" viewBox="0 0 280 250" fill="none" xmlns="http://www.w3.org/2000/svg">
<g clip-path="url(#clip0_3786_16833)">
<path d="M171.399 103.654C170.207 105.177 170.472 105.31 165.969 116.964C158.486 136.234 156.433 139.479 158.088 144.181C160.274 150.273 165.373 149.213 167.161 155.041C169.412 162.391 148.354 161 146.036 172.589C145.772 174.046 130.938 222.784 164.777 228.214C167.293 228.611 158.155 249.007 166.167 249.338C188.086 250.397 247.088 250.397 247.618 239.074C249.406 197.951 225.831 194.375 219.805 172.589C211.263 141.863 230.334 98.6213 202.853 93.39C192.523 91.4696 178.285 94.7806 171.399 103.654Z" fill="#B65353"/>
<path d="M165.371 228.213C180.204 226.425 193.25 218.413 201.196 205.765C203.845 201.659 205.964 197.222 207.619 192.587C206.427 198.679 203.911 204.573 200.401 209.672C192.852 221.128 179.211 228.544 165.371 228.213Z" fill="#702C34"/>
<path d="M125.908 31.1434C124.584 30.4812 123.193 29.7528 121.67 29.6204C118.426 29.2231 112.665 33.9247 109.751 35.9775C107.367 37.633 107.698 36.1099 105.049 36.9708C103.857 37.3681 102.599 37.3681 101.473 37.9641C99.4868 39.0236 98.6259 41.7386 99.1557 43.8576C99.6192 46.0429 101.208 47.6322 102.864 48.8904C100.017 49.0228 97.3015 51.9365 97.1691 54.9826C97.0366 58.0287 99.553 60.6775 102.4 60.6113C101.672 62.4654 102.268 64.6507 103.592 65.9751C104.917 67.2333 105.513 78.6893 107.367 78.3582C109.221 78.0271 124.584 79.0204 126.107 77.7622L130.411 36.7721C130.676 35.0504 127.961 32.203 125.908 31.1434Z" fill="#BF5E5E"/>
<path d="M148.755 38.4947C142.133 24.4561 122.532 22.5357 113.328 35.0512C110.414 38.9582 108.957 41.8719 107.699 49.6196C104.256 71.0748 122.466 72.0681 122.466 72.0681L122.135 85.577L141.802 83.1931L141.603 69.022C141.603 69.022 149.616 55.4469 150.146 45.1167C150.278 42.799 149.749 40.5475 148.755 38.4947Z" fill="#FFBC9C"/>
<path d="M135.977 70.9422C132.004 73.5248 127.104 74.3194 122.402 73.3923C121.541 73.1937 121.806 71.9355 122.733 72.0679C127.302 72.5977 131.541 72.0679 135.911 70.876C135.977 70.8097 136.043 70.9422 135.977 70.9422Z" fill="#333333"/>
<path d="M173.784 59.3528C172.394 58.1608 170.871 57.4324 169.546 56.2405C170.54 55.7769 171.533 55.3134 172.394 54.3863C173.188 53.5254 173.784 52.2011 173.652 50.8767C173.52 49.5523 172.659 48.559 171.665 47.963C170.738 47.367 169.679 47.1683 168.685 46.8372C164.778 45.5128 161.468 42.3343 158.421 39.0233C155.375 35.7123 152.462 32.0702 148.952 29.6201C145.442 27.17 135.576 26.0442 137.032 27.5673C146.105 37.434 144.515 46.175 145.509 48.6914C146.502 51.2078 139.35 65.1801 139.35 65.1801C142.86 74.4509 152.329 78.5566 159.944 77.5633C161.799 77.2984 163.52 76.0402 165.11 74.782C166.037 74.0536 166.898 73.259 167.427 72.1332C167.957 71.0075 168.023 69.352 167.361 68.3587C169.149 68.8884 170.937 69.4182 172.725 68.9547C174.513 68.4911 176.235 66.7032 176.301 64.3855C176.367 62.3327 175.175 60.4785 173.784 59.3528Z" fill="#BF5E5E"/>
<path d="M152.523 52.3338C154.046 51.9365 155.701 52.5987 156.695 53.7244C157.754 54.8501 158.218 56.4394 158.284 58.0287C158.416 60.6113 157.357 63.3263 155.238 64.8493C153.185 66.3724 150.006 66.4386 148.086 64.7831L152.523 52.3338Z" fill="#FFBC9C"/>
<path d="M154.381 59.9498C154.05 59.6187 153.189 59.2876 152.726 59.2214C151.931 59.0227 151.335 59.3538 150.673 59.7511C149.944 60.2147 149.348 59.1552 149.812 58.6254C150.54 57.8308 151.799 57.5659 152.858 57.8308C153.322 57.9632 153.719 58.2281 154.05 58.5592C154.447 59.0227 154.381 59.3538 154.514 59.8174C154.646 59.9498 154.514 60.016 154.381 59.9498Z" fill="#333333"/>
<path d="M138.023 47.9635C137.229 47.4337 136.765 46.6391 136.103 45.9769C135.176 45.1822 134.183 44.7849 132.991 44.7187C131.666 44.5862 131.865 42.2686 133.256 42.2686C135.64 42.2686 139.547 44.52 138.884 47.5661C138.752 47.8972 138.288 48.1621 138.023 47.9635Z" fill="#BF5E5E"/>
<path d="M115.837 41.0098C116.764 40.9436 117.559 40.4138 118.486 40.2151C119.678 39.9503 120.737 40.1489 121.797 40.6125C122.989 41.1422 123.982 39.0232 122.79 38.361C120.671 37.169 116.234 37.2352 115.307 40.2814C115.241 40.6125 115.506 41.0098 115.837 41.0098Z" fill="#BF5E5E"/>
<path d="M120.624 46.0311C121.266 45.0528 120.993 43.7391 120.015 43.0969C119.037 42.4546 117.723 42.727 117.081 43.7053C116.439 44.6835 116.711 45.9972 117.689 46.6395C118.668 47.2818 119.981 47.0094 120.624 46.0311Z" fill="#333333"/>
<path d="M126.367 57.8967C121.268 60.4793 119.348 56.2412 119.348 56.2412" stroke="#333333" stroke-width="1.20884" stroke-linecap="round" stroke-linejoin="round"/>
<path d="M125.177 53.7912C125.773 51.3411 119.747 49.5531 121.005 52.8641" stroke="#333333" stroke-width="0.765435" stroke-linecap="round" stroke-linejoin="round"/>
<path d="M135.277 51.2568C135.756 50.1886 135.331 48.9593 134.33 48.511C133.329 48.0627 132.129 48.5652 131.651 49.6333C131.173 50.7015 131.597 51.9308 132.598 52.3791C133.6 52.8274 134.799 52.3249 135.277 51.2568Z" fill="#333333"/>
<path d="M129.743 19.0921C128.286 17.1055 128.948 14.1919 127.889 13.6621C126.829 13.1323 119.611 19.0921 118.353 20.9463C116.102 24.1911 114.976 20.9463 109.215 32.4023C107.824 35.1835 103.123 32.4685 101.931 34.8524C100.143 38.4945 106.102 40.6798 112.791 34.8524C117.625 30.6144 139.477 29.6873 142.987 46.9707C144.444 53.9238 142.523 48.3613 143.715 50.0168C145.901 52.9967 156.429 47.8978 162.191 39.7527C167.29 32.5348 166.031 24.0586 164.707 23.4626C162.522 22.4693 156.429 25.9128 156.429 25.9128C156.429 25.9128 150.403 21.5423 143.053 19.8868C136.1 18.0326 129.743 19.0921 129.743 19.0921Z" fill="#4D9952"/>
<path d="M129.61 18.2975C129.544 18.4299 129.61 18.6286 129.875 18.5624L130.007 18.165L129.61 18.2975Z" fill="#64A668"/>
<path d="M131.399 18.8275C131.664 18.6288 131.995 18.2315 131.796 17.9004C131.531 18.2977 131.465 18.1653 131.134 18.6288C130.869 18.695 130.67 18.5626 130.67 18.3639C130.604 18.4964 130.273 18.2977 130.141 18.5626C130.538 18.8275 130.935 18.8275 131.333 18.4964C131.531 18.6288 131.465 18.7612 131.399 18.8275Z" fill="#64A668"/>
<path d="M154.839 25.317L154.707 25.1846C154.773 25.2508 154.773 25.2508 154.839 25.317Z" fill="#64A668"/>
<path d="M165.101 28.0983C165.101 27.9658 165.035 27.9658 165.035 27.9658C165.035 28.032 165.035 28.0983 165.101 28.0983Z" fill="#64A668"/>
<path d="M154.84 25.3174C154.972 25.4498 154.972 25.516 155.171 25.6485C155.237 25.5823 155.171 25.516 155.105 25.4498C155.039 25.4498 154.906 25.3836 154.84 25.3174Z" fill="#64A668"/>
<path d="M134.839 17.7021C134.773 17.7021 134.707 17.7684 134.641 17.8346C134.707 17.8346 134.773 17.7684 134.839 17.7021C134.839 17.7684 134.839 17.7684 134.839 17.7021Z" fill="#64A668"/>
<path d="M148.745 22.4695L148.613 22.4033C148.547 22.4033 148.48 22.4695 148.48 22.5358L148.745 22.4695Z" fill="#64A668"/>
<path d="M143.98 20.8797C144.113 20.946 144.245 20.6149 144.312 20.4824C144.179 20.6149 144.113 20.6149 143.98 20.6149C143.98 20.6811 143.98 20.7473 143.98 20.8797Z" fill="#64A668"/>
<path d="M136.031 19.1582L135.898 19.2244C135.898 19.1582 135.965 19.1582 136.031 19.1582Z" fill="#64A668"/>
<path d="M128.222 12.0732C128.155 12.1395 128.155 12.1395 128.222 12.0732C128.222 12.1395 128.222 12.1395 128.222 12.0732Z" fill="#64A668"/>
<path d="M138.221 35.9121C138.42 36.5081 137.294 35.6472 137.691 36.4419C137.757 36.2432 138.618 36.5081 138.221 35.9121Z" fill="#64A668"/>
<path d="M137.688 36.4414L137.754 36.5076C137.754 36.4414 137.688 36.4414 137.688 36.4414Z" fill="#64A668"/>
<path d="M157.023 43.2627C157.09 43.2627 157.156 43.3289 157.222 43.3289C157.222 43.2627 157.156 43.2627 157.023 43.2627Z" fill="#64A668"/>
<path d="M162.386 37.4355L162.254 37.568C162.32 37.568 162.386 37.5018 162.386 37.4355Z" fill="#64A668"/>
<path d="M154.113 46.2422C153.98 46.3084 153.98 46.2422 153.848 46.3746H153.914C153.98 46.3084 153.98 46.2422 154.113 46.2422Z" fill="#64A668"/>
<path d="M150.469 48.4275C150.469 48.4275 150.535 48.4275 150.601 48.4275C150.667 48.4275 150.667 48.3613 150.734 48.3613L150.469 48.4275Z" fill="#64A668"/>
<path d="M116.301 20.9465C116.433 20.9465 116.499 21.0127 116.632 21.0789C116.433 20.9465 116.698 20.5491 116.301 20.9465Z" fill="#64A668"/>
<path d="M134.84 17.901C134.84 17.8348 134.906 17.7686 134.972 17.7686C134.906 17.7686 134.84 17.7686 134.84 17.7686C134.84 17.8348 134.84 17.901 134.84 17.901Z" fill="#64A668"/>
<path d="M155.502 48.4941C155.303 48.6266 155.039 48.759 154.84 48.8915C155.039 48.8252 155.303 48.6928 155.502 48.4941Z" fill="#64A668"/>
<path d="M110.14 38.2959L110.008 38.4283C110.074 38.3621 110.14 38.3621 110.14 38.2959Z" fill="#64A668"/>
<path d="M152.983 50.0831C152.784 50.0169 152.652 50.0831 152.519 50.0831C152.519 50.1494 152.453 50.1494 152.453 50.2156L152.983 50.0831Z" fill="#64A668"/>
<path d="M119.279 17.1058C118.75 17.5693 119.345 17.6355 119.412 17.9666C118.882 18.6288 118.882 17.9666 118.551 18.0328C118.22 18.4964 118.22 19.0924 117.955 19.3572C117.889 19.3572 117.822 19.3572 117.822 19.2248C117.756 19.4235 117.69 19.5559 117.558 19.7546C117.425 19.9532 117.293 20.0857 117.16 20.2843C116.962 20.5492 116.763 20.8141 116.763 21.1452C116.697 21.1452 116.697 21.1452 116.63 21.079C116.829 21.2114 117.028 21.3438 117.094 21.4763C116.895 21.6749 116.895 22.006 116.63 21.8736C116.763 21.8074 116.697 21.6749 116.697 21.5425C116.63 21.6087 116.564 21.7412 116.564 21.8074C116.101 21.6087 116.829 21.4763 116.564 21.2114C116.299 21.6087 115.836 22.2709 115.306 22.4696C114.975 22.1385 116.233 21.7412 115.439 21.8074L116.101 21.5425C115.703 21.4101 115.836 21.3438 115.902 21.2776C115.968 21.2114 116.035 21.1452 115.703 21.0127C115.306 21.1452 115.107 21.3438 114.843 21.6087C114.578 21.8074 114.379 22.006 113.849 22.3371C113.783 22.6682 114.114 22.5358 114.114 22.8669C113.319 24.1913 112.459 22.9993 112.194 24.1913C112.194 24.5886 112.591 24.9859 111.929 25.4495L111.73 24.9859C111.134 25.7806 111.929 25.8468 111.134 26.509C111.068 26.2441 111.399 25.7806 111.333 25.8468C110.671 26.1779 111.267 26.3765 111.002 26.8401L110.604 26.7076C110.34 27.1712 110.141 27.7009 109.942 28.2307C109.744 28.7605 109.545 29.2902 109.346 29.82C109.28 29.6875 109.28 29.4889 109.015 29.6213C108.75 30.2835 108.419 30.9457 108.022 31.6079C107.889 31.8066 107.823 31.8066 107.823 31.8728C107.757 31.939 107.691 31.939 107.625 31.939C107.492 31.939 107.36 31.939 107.227 31.939C107.161 32.0714 107.095 32.2039 106.962 32.3363C106.896 32.3363 106.764 32.2039 106.896 32.1377C106.499 32.0052 106.896 32.3363 106.698 32.535C106.433 32.6012 106.366 32.3363 106.499 32.2701C106.102 32.4688 105.506 32.6012 104.777 32.6674C104.049 32.7336 103.32 32.7336 102.592 32.7999L102.857 32.6012C102.592 32.6012 102.327 32.7336 102.195 32.8661C102.062 32.9985 101.93 33.131 101.863 33.3296C101.797 33.4621 101.731 33.6607 101.599 33.7932C101.466 33.9256 101.4 34.1243 101.201 34.2567L101.267 34.058C101.201 34.1905 101.069 34.2567 101.003 34.3891C100.738 34.9189 100.605 35.3824 100.539 35.9784C100.539 36.5744 100.672 37.1704 101.003 37.7001C101.665 38.6934 102.526 39.157 103.254 39.6205C103.453 39.4219 103.983 39.6205 104.446 39.6205C104.91 39.6867 105.373 39.6867 105.373 39.2894C105.903 39.4219 106.102 39.4881 106.366 39.5543C106.631 39.6205 106.962 39.6867 107.691 39.5543C108.088 39.4881 108.154 38.9583 108.552 38.6934L108.684 39.0245C108.817 38.8259 109.015 38.6272 109.148 38.4286L109.677 38.6934C109.81 38.6272 109.942 38.4948 110.009 38.4286C109.81 38.4948 109.611 38.4286 109.545 38.3623C110.075 37.8988 111.134 37.7664 111.267 37.8988C111.664 37.5015 112.061 37.1042 112.459 36.7068C112.525 36.8393 112.326 37.0379 112.194 37.2366C112.657 36.442 112.591 37.4353 112.988 36.7068C112.856 36.7068 112.922 36.5082 112.856 36.442C113.055 36.442 113.386 36.2433 113.651 36.0446L113.849 35.9122C113.915 35.846 113.915 35.846 113.982 35.7798C114.048 35.7135 114.18 35.5811 114.247 35.5149L114.313 35.7798C115.041 35.3824 116.035 34.7865 117.094 34.5216C116.697 34.5216 116.63 34.058 116.962 33.9256L117.226 34.2567C117.359 33.9918 116.829 34.1905 117.226 33.7932C117.69 33.7269 117.624 34.1905 117.425 34.3229L117.889 34.058C117.955 34.1905 117.822 34.2567 117.822 34.3891C117.955 34.1243 118.75 34.5878 119.014 34.1243L119.081 34.2567C120.206 34.1243 120.736 33.9256 121.729 33.8594C121.729 33.5283 122.127 33.5945 122.392 33.2634C123.12 33.3958 123.915 33.6607 124.776 33.6607C125.372 33.5283 124.974 33.3958 125.239 33.1972C125.239 33.5283 126.1 33.5945 125.636 33.7269C126.696 33.7932 126.961 33.8594 128.285 33.8594C128.153 33.7269 128.02 33.5945 128.153 33.5283C128.418 33.5283 128.683 33.7932 128.616 33.9256H128.55C129.345 33.8594 130.073 34.3229 130.802 34.7865C131.53 35.25 132.126 35.7135 132.722 35.6473H132.656C133.053 35.7135 133.45 35.7798 133.848 35.9122C134.311 36.2433 133.45 35.9784 133.715 36.3095C134.377 36.3757 134.841 36.7068 135.172 36.9717C135.569 37.2366 135.834 37.5677 136.364 37.7664C136.364 38.0312 136.496 38.3623 136.695 38.561C136.894 38.8259 137.159 39.0245 137.424 39.2894C137.953 39.753 138.549 40.3489 138.615 40.9449L138.748 40.7462C139.079 40.8787 138.814 41.0773 138.88 41.276C139.013 41.1436 138.88 40.9449 139.079 41.0111C139.874 41.9382 140.337 43.1302 140.668 44.2559C140.801 44.8519 140.933 45.4479 140.999 46.1101L141.132 47.0371C141.198 47.3682 141.198 47.6993 141.264 48.0304C141.397 48.9575 142.456 48.3615 142.125 49.6197L141.662 49.3548C141.728 49.5535 141.794 49.7521 141.86 49.8846C141.86 49.9508 141.926 50.0832 141.926 50.0832H142.39C142.655 50.0832 142.92 50.0832 143.185 50.1495C143.251 50.1495 143.317 50.1495 143.45 50.2157C143.516 50.2157 143.516 50.2157 143.516 50.2157C143.516 50.2157 143.582 50.1495 143.648 50.0832C143.714 50.0832 143.781 50.017 143.913 49.9508C144.112 49.8846 144.31 49.7521 144.509 49.6859C144.708 49.6197 144.973 49.4873 144.906 49.5535C144.906 49.5535 144.906 49.5535 144.906 49.4873V49.421C144.906 49.421 144.906 49.421 144.84 49.421H144.575C144.443 49.421 144.244 49.421 144.112 49.4873C143.979 49.4873 143.781 49.4873 143.714 49.4873C143.582 49.4873 143.516 49.421 143.45 49.421C143.45 49.421 143.45 49.421 143.45 49.4873C143.45 49.5535 143.383 49.5535 143.383 49.6197C143.383 49.6197 143.317 49.7521 143.251 49.8184C143.118 49.9508 143.052 50.017 142.854 50.2157C142.787 50.2819 142.721 50.3481 142.589 50.4143L142.456 50.4806L142.522 50.5468C142.854 50.9441 143.185 51.2752 143.648 51.4739C143.847 51.6063 144.045 51.6725 144.244 51.7387C144.443 51.805 144.641 51.8712 144.84 51.8712C145.635 52.0036 146.297 51.9374 146.893 51.7387C146.761 51.8712 146.761 51.9374 146.562 52.0036C146.827 52.1361 147.29 52.0698 147.621 51.9374C147.952 51.805 148.284 51.6063 148.217 51.4739C148.548 51.4076 148.35 51.6725 148.548 51.7387C149.078 51.805 149.542 51.0103 149.807 51.209C149.873 51.209 149.74 51.3414 149.674 51.4076C149.873 51.209 150.932 50.9441 150.535 50.7454C151.33 50.613 151.793 50.017 152.455 49.8846C152.654 49.3548 153.647 49.421 153.515 48.8913C153.78 49.421 154.906 48.5602 155.104 48.0966C155.038 48.2953 155.568 47.9642 155.502 48.2953C155.965 47.9642 156.296 47.5669 156.031 47.4344C157.223 47.3682 157.289 45.779 158.217 46.0438C159.276 44.7194 160.137 43.5275 160.998 42.4017C161.395 42.7991 159.938 43.5937 160.402 43.991C161.196 42.7991 161.329 41.9382 162.322 40.9449C162.587 40.68 162.388 41.276 162.388 41.4084C163.051 40.2165 164.044 39.2232 164.375 37.965C164.441 37.965 164.375 38.1637 164.375 38.2961C164.507 38.0975 164.706 37.8326 164.507 37.7664L164.441 38.0312C163.978 38.2299 164.243 36.8393 164.044 36.7068C164.507 37.369 164.706 35.7135 165.236 36.6406C165.236 36.442 165.236 36.2433 165.037 36.1771C165.17 35.9784 165.302 35.9122 165.368 36.2433C165.567 35.3824 165.236 35.5811 165.501 34.8527C165.633 34.9189 165.633 35.0513 165.699 35.1838C165.633 34.7202 165.501 34.2567 165.832 33.6607C165.898 33.7269 166.03 33.6607 165.964 33.8594C166.229 32.7336 165.832 31.8728 166.229 30.6808C166.693 31.1444 166.428 30.2835 166.891 30.2835L166.825 29.6213L166.56 29.8862C166.626 29.2902 166.295 28.7605 166.494 28.2969C166.56 28.4294 166.626 28.5618 166.693 28.7605C166.693 28.3631 166.626 28.032 166.626 27.6347C166.56 27.8334 166.494 28.032 166.428 28.2307C166.163 27.6347 165.898 28.2969 165.964 27.5023C166.03 27.6347 165.964 26.9063 166.163 26.6414C165.964 26.3765 165.832 26.1117 165.832 25.6481C165.964 25.5157 166.362 25.6481 166.428 25.5819C166.03 25.317 166.03 24.1913 165.501 23.9264C165.633 23.9926 165.832 23.9264 165.898 23.8602C165.766 23.794 165.633 23.7278 165.501 23.7278C165.435 23.3967 165.435 23.3304 165.633 23.198C165.368 22.7345 165.302 22.9331 165.236 23.0656C165.236 23.1318 165.17 23.198 165.17 23.1318C165.103 23.1318 165.037 22.9993 164.839 22.8007C164.971 22.8007 164.905 22.7345 165.103 22.8007C164.64 22.4034 163.978 22.4034 163.382 22.4696C163.117 22.4696 162.918 22.5358 162.653 22.602C162.455 22.6682 162.19 22.6682 161.991 22.6682C161.792 22.4696 161.991 22.4033 162.19 22.3371C162.388 22.2709 162.587 22.2709 162.388 22.0723C160.998 22.4034 159.938 23.3304 158.746 23.7278L158.945 23.6615C159.077 24.3237 157.952 23.7277 157.554 24.2575C157.687 24.1251 157.554 23.8602 157.554 23.9264C157.422 23.9926 157.289 24.0588 157.157 24.1251C157.025 24.1913 156.892 24.2575 156.826 24.3237C156.693 24.4562 156.561 24.5886 156.362 24.7873C156.164 24.721 155.965 24.6548 155.7 24.5886C155.766 24.5886 155.833 24.5224 155.899 24.5224C155.833 24.4562 155.766 24.3899 155.634 24.2575C155.502 24.1913 155.369 24.0588 155.237 23.9926C154.972 23.794 154.707 23.6615 154.442 23.4629C154.243 23.5291 153.978 23.3304 153.978 23.6615C153.515 22.8669 152.72 22.602 151.992 22.3371C151.263 22.1385 150.535 21.9398 150.005 21.2776C150.138 21.3438 150.469 21.3438 150.336 21.2776C149.939 21.1452 149.542 21.0127 149.144 20.8803C149.144 21.1452 149.211 21.079 149.409 21.4101C149.211 21.4763 148.813 21.4763 148.548 21.3438C149.144 21.4101 148.747 20.9465 148.548 20.6816C148.548 20.7479 148.416 20.8141 148.416 20.9465C148.019 20.2181 148.085 21.4101 147.423 20.8141L147.489 20.6816C147.158 20.6154 146.827 20.6816 146.496 20.5492C146.496 20.2181 146.893 20.5492 146.959 20.2843C146.496 20.1519 145.833 20.5492 145.502 20.0857C145.701 20.0857 146.032 20.1519 146.231 20.1519C145.9 19.6221 145.833 19.6883 145.436 19.5559L144.641 19.1586L144.84 19.291C143.979 19.887 143.582 19.0924 142.589 19.4235C143.516 19.0924 142.787 19.1586 142.92 18.8275C142.721 18.695 142.456 18.4964 142.522 18.4302C142.059 18.6288 141.926 18.0328 141.264 18.3639C141.264 18.2315 140.867 18.2977 140.999 18.0328C140.47 18.0328 141.066 18.2315 140.999 18.3639C140.139 18.6288 139.211 17.5693 137.953 18.0328C136.96 18.1653 136.761 18.5626 135.834 18.695C135.503 18.4964 136.099 18.2977 136.099 18.2977C135.636 18.0991 135.238 18.0991 134.775 18.2315C134.841 18.0991 134.775 18.0328 134.642 17.9004C134.245 17.9004 134.377 18.2977 133.914 18.1653C133.98 18.0328 134.113 17.8342 134.311 17.7017C133.848 17.8342 133.45 18.0328 132.987 18.1653C132.854 17.9666 133.252 17.8342 133.45 17.7017C132.921 17.8342 132.126 17.9666 131.993 18.2977L132.325 18.3639C132.126 18.3639 132.192 18.0991 132.325 18.0328C132.788 17.768 132.987 18.0991 132.987 18.2315L132.656 18.2977C132.987 18.9599 133.98 18.1653 134.642 18.1653L134.377 18.695L135.04 18.2977C135.172 18.4302 135.304 18.695 134.973 18.7613C135.437 19.0261 135.371 18.5626 135.768 18.8937C135.834 18.9599 135.768 18.9599 135.768 18.9599L136.232 18.8275C136.165 18.9599 136.298 19.1586 136.033 19.0924C136.828 19.4235 137.357 18.8275 137.622 19.1586H137.556C138.682 19.0924 137.688 18.8275 138.615 18.4302C138.748 18.7613 138.947 19.0924 139.079 19.4235L139.211 19.0924C139.344 19.0924 139.543 19.1586 139.476 19.291C139.94 19.0924 139.41 19.0924 139.675 18.8937C140.205 19.291 141.264 18.9599 141.264 19.5559C141.529 19.291 140.801 19.2248 141.397 19.1586C141.463 19.8208 142.125 19.1586 142.522 19.5559C142.324 19.8208 141.86 19.5559 142.324 19.9532C142.721 19.4897 143.251 20.2843 143.714 20.2843C143.847 19.8208 144.641 20.3505 145.37 20.4168C145.304 20.5492 146.562 21.079 147.158 21.4763L147.092 21.5425C147.356 21.1452 148.019 21.4763 148.482 21.6087C148.35 21.8736 148.217 21.8736 147.952 21.9398L148.416 22.1385C148.548 22.0723 148.747 22.006 149.012 22.1385L148.747 22.4034C149.343 22.6682 150.072 22.602 150.667 23.1318C150.866 22.8669 150.469 22.0723 151.33 22.2709C151.263 22.4034 151.197 22.7344 150.932 22.6682C150.999 22.6682 151.263 22.6682 151.33 22.8007L150.866 22.8669C151.131 23.1318 151.131 22.7344 151.396 22.9331C151.263 23.1318 151.528 23.198 151.396 23.3304C151.33 23.3304 151.197 23.1318 151.065 23.1318C151.33 23.3304 151.661 23.6615 151.661 23.8602C151.727 23.7277 151.793 23.5953 152.058 23.6615C152.588 23.9264 152.124 23.9926 152.389 24.3237C152.588 24.2575 152.853 24.5886 153.051 24.3237C153.184 24.3899 153.184 24.5886 153.184 24.721C153.515 24.721 154.508 25.4495 154.376 24.9859L154.31 24.9197C154.31 24.9197 154.31 24.9197 154.376 24.9197C154.972 25.0521 155.502 25.5157 156.098 26.0454C156.362 25.913 156.693 25.8468 156.958 25.7143C157.091 25.6481 157.289 25.5819 157.422 25.5157C157.554 25.4495 157.621 25.3832 157.753 25.317L157.819 25.4495C158.349 25.0521 159.077 24.7873 159.342 24.3899C159.541 24.3237 159.806 24.3899 159.806 24.5886C160.203 24.3237 160.203 24.1913 160.932 24.1251C160.534 24.4562 161.13 24.2575 160.534 24.4562C161.13 24.3237 161.329 24.5224 161.859 23.9926C161.726 24.3237 162.388 24.2575 162.587 24.1251C162.455 24.0588 162.322 23.9926 162.124 23.9926C162.388 23.8602 162.72 23.8602 162.918 23.8602L162.852 24.2575C162.918 24.2575 162.984 24.3237 163.051 24.3237H163.183C163.249 24.3237 163.249 24.3237 163.315 24.3237C163.448 24.2575 163.58 24.1913 163.713 24.1913C163.845 24.1913 163.978 24.2575 164.044 24.3899C164.11 24.5224 164.044 24.6548 163.911 24.9197C164.11 25.0521 164.11 24.8535 164.11 24.721C164.11 24.5886 164.176 24.4562 164.309 24.5224C164.375 24.721 164.309 25.0521 164.176 25.317C164.044 25.5819 163.978 25.7806 163.978 25.8468C163.845 26.5752 164.64 26.4428 164.574 27.3036C164.706 27.1712 165.103 27.0387 165.236 27.7009C165.17 28.2969 164.64 28.4294 164.507 28.032C164.507 27.8996 164.574 27.8334 164.574 27.8334C164.507 27.6347 164.441 27.4361 164.309 27.6347L164.441 27.7009C164.309 27.9658 164.309 28.7605 164.044 28.5618C164.176 28.9591 164.243 28.7605 164.375 28.4294C164.11 29.1578 164.309 29.5551 164.11 30.2835C164.176 30.1511 164.375 30.0849 164.375 30.2173C164.044 31.2768 164.574 30.7471 164.507 31.4755C164.176 31.8728 164.044 31.2106 164.044 32.0052C163.779 32.4025 163.647 32.0052 163.58 31.8066C163.713 32.535 163.117 32.9985 162.918 33.3296V32.9323C162.918 33.131 162.852 33.3296 162.852 33.4621L163.183 33.3296C163.051 33.5283 162.984 33.6607 162.918 33.6607C163.051 33.9256 163.448 33.6607 163.514 34.1243C163.315 34.3229 163.382 34.9851 162.984 34.9189C163.448 34.1243 162.587 34.8527 162.786 34.1905C162.786 34.3229 162.72 34.5216 162.587 34.654C162.521 34.654 162.521 34.5878 162.521 34.5216C161.859 35.1176 162.786 35.0513 162.388 35.846C162.256 35.6473 161.925 35.846 161.925 35.9784C162.057 35.6473 162.322 35.9784 162.322 36.3757C161.925 36.7731 162.124 36.9717 161.991 37.2366L162.256 36.9717C162.388 37.1704 162.256 37.4353 162.057 37.7664C161.925 37.7001 162.124 37.369 161.991 37.5015C162.057 38.0975 161.13 38.1637 160.998 38.7597C160.733 38.8921 160.667 38.561 160.402 38.6934C160.203 39.4219 159.74 39.0907 159.475 39.8192C159.806 39.8192 159.806 39.7529 159.673 40.3489C159.872 40.0178 160.071 39.6205 160.269 39.2894C160.203 39.5543 160.203 39.8854 160.137 40.1503C160.336 39.8854 160.468 39.4219 160.6 39.2894C160.6 39.753 160.534 39.6867 160.799 39.6867C160.137 39.8192 160.402 40.6138 159.806 40.8787L159.276 40.4151C158.481 40.8787 158.548 41.8058 157.621 42.468L157.952 42.2693C158.018 42.6004 157.488 42.7991 157.289 43.1302C157.157 42.9315 156.892 42.9977 156.693 42.9977C156.826 43.1302 156.098 43.5275 156.296 43.991L155.7 44.0572C154.906 44.5208 155.303 45.2492 154.574 45.7127C154.641 45.3154 154.243 45.4479 154.574 44.9843C154.376 45.183 154.111 45.2492 154.177 45.4479C153.978 45.4479 153.714 46.1763 153.382 46.1763C153.316 46.3087 153.449 46.5736 153.184 46.706C153.118 46.706 153.118 46.6398 153.118 46.6398C153.184 46.706 152.787 47.0371 153.184 47.1033C152.058 46.9709 150.999 48.494 150.005 48.2291C149.476 48.5602 148.813 48.9575 148.284 49.1562C148.284 49.0899 148.217 49.0237 148.35 49.0237C147.555 49.0899 148.085 49.8184 147.158 49.8846C146.628 49.6197 147.555 49.5535 147.224 49.4873C147.092 49.1562 146.827 49.2224 146.562 49.3548C146.297 49.4873 145.9 49.6197 145.635 49.421L145.767 49.3548C145.635 49.2886 145.569 49.2886 145.436 49.2886C145.304 49.2886 145.171 49.3548 145.105 49.421C144.84 49.4873 144.575 49.5535 144.31 49.421C144.31 49.421 144.377 49.3548 144.377 49.2886C144.178 49.421 143.913 49.421 143.648 49.2224C143.516 49.1562 143.45 49.0237 143.251 48.8913L143.185 48.8251C143.118 48.8251 143.118 48.7588 143.052 48.7588C143.052 48.7588 142.92 48.6926 142.787 48.7588C142.655 48.7588 142.589 48.8251 142.456 48.8913C142.324 49.0237 142.39 49.0237 142.324 49.0899C142.324 49.1562 142.324 49.2224 142.324 49.2224C142.324 49.2886 142.324 49.3548 142.324 49.421C142.39 49.7521 142.456 49.9508 142.589 50.2157C142.191 50.017 142.324 49.8184 142.059 50.0832C142.125 50.2819 142.258 50.2157 142.39 50.2157C142.456 50.2157 142.522 50.2157 142.655 50.2819C142.655 50.2819 142.721 50.2819 142.721 50.3481C142.787 50.3481 142.721 50.3481 142.854 50.4143C142.986 50.4806 143.118 50.4806 143.251 50.4143C143.383 50.2819 143.383 50.2819 143.383 50.2157C143.383 50.0832 143.383 50.017 143.383 49.8846C143.516 49.6197 143.648 49.0899 143.913 49.0237C143.979 49.2224 143.979 49.4873 144.046 49.7521C144.443 49.2886 143.913 48.8251 143.913 48.494H144.112C143.847 47.5007 143.383 47.5669 143.251 46.5736L143.118 46.706C142.522 46.2425 143.251 46.1763 142.787 45.6465L143.185 45.3816C142.986 44.9843 142.324 44.1897 142.059 43.5937C142.522 43.8586 142.986 44.587 143.317 45.0505C143.251 44.6532 142.854 43.7924 142.589 43.6599C142.655 43.7924 142.854 43.9248 142.854 44.1235C142.589 43.9248 142.39 43.7261 142.191 43.4613C141.993 43.1964 141.794 42.9315 141.662 42.5342C142.589 42.2693 140.999 40.6138 141.264 39.7529C140.205 38.7597 139.741 37.369 138.483 36.2433C138.417 37.1704 138.086 35.9122 137.688 36.5744C137.357 36.3757 137.291 36.2433 137.291 36.1771C137.092 35.846 136.894 35.4487 136.695 35.1176C136.629 34.7865 137.092 35.1838 137.159 35.0513C136.496 34.5216 137.026 34.5878 136.695 34.1243C136.629 34.3891 136.232 34.2567 135.9 33.9256L136.298 34.5878C135.702 34.3891 135.569 34.1243 135.437 33.9256C135.304 33.6607 135.172 33.3958 134.51 33.2634C134.642 33.2634 134.841 33.2634 134.973 33.2634C134.642 33.131 134.179 32.9323 133.649 32.7336C133.119 32.535 132.523 32.4688 132.192 32.6012C132.126 32.4688 132.06 32.2701 132.325 32.2701C131 31.6079 129.08 31.8728 128.087 31.2768L128.219 31.1444C127.954 31.1444 127.689 31.4092 127.424 31.1444C127.424 31.0781 127.557 31.0119 127.424 30.9457C127.292 30.9457 126.696 31.1444 126.365 31.0119L126.696 30.8795C125.305 30.416 124.511 31.1444 123.385 31.2106C123.385 30.6808 122.325 30.4822 121.729 30.416V30.3497C120.074 30.3497 118.948 30.9457 117.558 31.4755C117.028 31.2768 116.233 31.4092 115.372 31.6079C114.511 31.8728 113.584 32.2039 112.79 32.4688C113.055 32.4025 112.922 32.8661 112.724 33.0647C112.326 33.131 112.061 33.9918 111.796 33.5945L111.929 33.5283C111.796 33.4621 111.664 33.4621 111.532 33.5283C111.399 33.5283 111.333 33.5945 111.2 33.6607C111.002 33.7932 110.803 33.9918 110.604 34.1243L111.2 34.7865C110.406 34.8527 109.744 35.3824 109.148 35.846C108.552 36.3095 107.889 36.6406 107.426 36.3757C107.227 36.6406 106.83 36.7068 106.631 36.9717L106.565 36.6406C105.77 36.7068 105.373 36.7731 104.578 36.7731L104.777 36.5744C104.578 36.5744 104.38 36.7731 104.181 36.9717C103.982 37.1704 103.784 37.4353 103.519 37.3028C103.519 37.1042 103.585 36.9717 103.585 36.7731C103.453 36.7068 103.32 36.5744 103.254 36.5082C103.188 36.3757 103.188 36.3095 103.188 36.2433C103.188 36.1109 103.122 36.0446 103.055 35.6473C103.122 35.6473 103.254 35.7135 103.254 35.846C103.254 35.7798 103.32 35.7798 103.32 35.7135C103.32 35.6473 103.387 35.5811 103.387 35.5811C103.453 35.5149 103.585 35.5149 103.32 35.0513C103.453 35.25 103.453 35.25 103.651 35.1176C103.85 34.9851 104.247 34.8527 104.512 34.7202L104.446 35.0513C104.91 34.654 104.976 34.5216 105.704 34.3891C105.903 34.4554 105.837 34.654 105.638 34.5878C106.234 34.7865 106.102 34.2567 106.83 34.4554L106.565 34.7202C107.227 34.7202 107.161 34.5878 107.492 34.2567C107.558 34.1905 107.691 34.1905 107.889 34.1243C108.022 34.058 108.221 34.058 108.353 34.058C108.684 33.9918 108.949 33.9256 109.148 34.058C109.148 33.9256 109.214 33.7932 109.28 33.5945C109.346 33.3958 109.479 33.2634 109.611 33.0647C109.744 33.0647 109.677 33.2634 109.677 33.3296C109.81 33.1972 109.876 33.0647 110.009 32.9323C110.075 32.8661 110.075 32.7999 110.141 32.7336C110.141 32.6674 110.207 32.6674 110.207 32.6012C110.273 32.4025 110.34 32.2701 110.34 32.0714C110.406 31.7403 110.472 31.4755 110.803 31.2106C110.936 31.2768 111.002 31.2106 111.002 31.2106C110.671 31.8728 110.34 32.4688 110.34 32.4025C110.604 32.535 110.936 32.0052 111.134 32.6674C111.134 32.1377 111.068 31.1444 111.532 30.6808C111.598 30.6808 111.598 30.6808 111.664 30.6808V30.7471C111.73 30.6146 111.796 30.5484 111.796 30.416C111.929 30.2835 111.995 30.1511 112.128 30.0186C112.392 30.0849 112.591 29.4889 112.79 29.224C112.459 29.0916 112.724 28.7605 112.326 28.9591C112.392 28.9591 112.326 29.0253 112.26 29.224C112.26 29.2902 112.194 29.2902 112.194 29.3564C112.194 29.3564 112.194 29.3564 112.194 29.2902C112.128 29.4889 111.995 29.6875 111.863 29.9524C111.863 29.6213 111.796 29.3564 112.128 29.1578C111.995 28.8929 111.929 28.628 111.863 28.4956C112.525 28.3631 113.121 27.7672 113.452 27.8996C113.783 27.0387 114.578 26.0454 114.445 25.2508C114.578 24.9859 114.776 25.1184 114.909 25.1184C114.843 25.2508 114.71 25.3832 114.776 25.5157C114.843 25.2508 115.107 24.9859 115.306 24.721C115.505 24.4562 115.637 24.2575 115.571 23.9926C116.167 23.794 115.571 24.5224 116.167 23.9264V24.1251C116.564 24.0588 116.895 23.8602 117.293 23.5953C117.624 23.3304 117.955 22.9331 118.22 22.5358C118.485 22.1385 118.683 21.7412 118.882 21.3438C119.081 21.0127 119.412 20.6816 119.941 20.483C119.809 20.5492 119.743 20.5492 119.677 20.5492C121.531 19.2248 122.988 16.9733 125.173 16.1125C125.769 15.8476 125.636 15.5827 125.901 15.1854L126.232 15.384C126.365 15.1192 126.365 14.9867 126.497 14.7219C126.696 14.457 126.961 14.3908 127.159 14.457C127.358 14.5232 127.491 14.6556 127.623 14.7881C127.755 14.9205 127.822 14.9867 128.02 15.0529C128.087 14.9205 128.153 14.8543 128.219 14.7219C128.285 15.0529 128.55 15.6489 128.285 15.7151C128.351 15.7151 128.55 15.7814 128.418 15.9138L128.219 15.98C128.351 16.3111 128.55 16.7084 128.749 17.0395C128.815 17.5031 128.616 17.5031 128.418 17.5693C128.285 17.6355 128.087 17.768 128.351 18.4302C128.484 18.695 128.815 18.9599 129.08 19.1586C129.345 19.3572 129.61 19.4235 129.61 19.291C129.477 19.0924 129.411 18.7613 129.61 18.695C129.676 18.8275 129.808 18.8937 129.941 19.0261C130.206 18.8937 130.47 18.8275 130.669 18.6288C130.868 18.4302 131 18.1653 131 17.768C130.802 17.7017 130.669 17.5693 130.47 17.3706L130.669 17.1058C130.735 17.2382 130.802 17.4369 130.868 17.5693C131 17.2382 130.735 17.172 130.537 17.0395C130.669 16.9733 130.735 16.8409 130.735 16.7084C130.537 16.576 130.272 16.3773 130.073 16.1787C130.272 16.0462 130.537 16.3773 130.603 15.9138C130.338 15.6489 130.139 16.3111 129.941 15.7814C130.073 15.6489 130.139 15.4503 130.206 15.3178C130.272 15.1854 130.206 15.0529 130.073 14.7881C130.206 14.6556 130.338 14.7218 130.404 14.9867C130.272 14.7218 130.206 14.3245 130.073 13.9934C129.941 13.6623 129.742 13.4637 129.61 13.4637C129.61 13.265 129.477 13.0001 129.345 12.8677C129.212 12.669 129.014 12.5366 128.815 12.4042C128.616 12.2717 128.484 12.2055 128.55 12.0068C128.418 12.0731 128.219 12.0731 127.954 12.2055C127.689 12.3379 127.358 12.4704 127.159 12.6028C127.623 12.1393 127.159 12.2055 126.63 12.4704C126.1 12.7353 125.438 13.0664 125.372 12.7353C125.305 12.8677 125.239 13.0001 125.173 13.0664C125.107 13.1326 125.04 13.1988 124.974 13.3312C124.842 13.4637 124.643 13.6623 124.511 13.7948C124.113 14.0597 123.716 14.3908 123.517 14.7881C123.517 14.7218 123.517 14.5894 123.65 14.5894C123.252 14.8543 123.054 14.7881 122.723 14.8543C122.988 15.2516 122.458 15.7814 122.392 16.2449C121.663 16.2449 122.325 15.5827 121.862 15.384C122.127 15.6489 121.332 16.3111 121.729 16.4436C121.2 16.5098 121.332 16.576 120.935 16.4436C121.266 16.9733 120.67 16.7747 120.67 17.3044C120.008 17.5031 120.206 16.9733 119.809 17.5693C118.948 17.7017 119.279 17.1058 119.279 17.1058ZM109.479 29.82C109.545 29.6875 109.611 29.5551 109.611 29.4889C109.545 29.6213 109.545 29.6875 109.479 29.82ZM108.817 31.0119C108.883 30.8795 109.015 30.6808 109.081 30.4822C109.214 30.4822 109.28 30.6146 109.214 30.6808C109.214 30.6146 109.015 30.8795 108.817 31.0119ZM112.26 29.6875C112.194 29.8862 112.128 29.8862 112.061 29.8862C112.128 29.82 112.128 29.6875 112.194 29.5551C112.194 29.5551 112.194 29.5551 112.194 29.4889C112.194 29.5551 112.194 29.6213 112.26 29.6875Z" fill="#64A668"/>
<path d="M112.062 29.158V29.0918C111.996 29.0918 111.996 29.158 111.93 29.158C111.93 29.2242 111.996 29.2242 111.996 29.2905C111.996 29.2242 111.996 29.158 112.062 29.158Z" fill="#64A668"/>
<path d="M108.75 39.1569L108.683 39.0244L108.617 39.1569H108.75Z" fill="#64A668"/>
<path d="M148.746 20.8141C148.746 20.7479 148.746 20.7479 148.68 20.6816C148.68 20.6816 148.68 20.7479 148.746 20.8141Z" fill="#64A668"/>
<path d="M145.702 19.6223L145.305 19.3574C145.503 19.4899 145.636 19.5561 145.702 19.6223Z" fill="#64A668"/>
<path d="M143.383 18.8271C143.316 18.8934 143.316 18.8934 143.316 18.9596L143.383 18.8271Z" fill="#64A668"/>
<path d="M164.441 38.4287C164.441 38.4287 164.441 38.4949 164.375 38.4949C164.375 38.7598 164.441 38.5612 164.441 38.4287Z" fill="#64A668"/>
<path d="M166.297 26.6416C166.363 26.774 166.429 26.9065 166.496 27.0389C166.496 26.8403 166.496 26.6416 166.297 26.6416Z" fill="#64A668"/>
<path d="M166.496 27.5688C166.562 27.3702 166.562 27.1715 166.496 27.0391C166.496 27.2377 166.496 27.4364 166.496 27.5688Z" fill="#64A668"/>
<path d="M132.656 17.7686H132.523V17.8348L132.656 17.7686Z" fill="#64A668"/>
<path d="M132.523 17.7686L132.391 17.8348C132.457 17.8348 132.523 17.8348 132.523 17.7686Z" fill="#64A668"/>
<path d="M132.125 17.9664L132.39 17.834C132.257 17.834 132.191 17.834 132.125 17.9664Z" fill="#64A668"/>
<path d="M135.965 17.901L136.031 17.7686C135.965 17.7686 135.965 17.8348 135.965 17.901Z" fill="#64A668"/>
<path d="M136.958 17.9005C136.693 17.8342 136.362 17.6356 136.031 17.7018L135.965 17.768C136.164 17.5694 136.693 18.0991 136.958 17.9005Z" fill="#64A668"/>
<path d="M140.869 19.8207C140.604 19.7545 140.339 19.6883 140.074 19.6221C140.206 19.7545 140.339 19.9532 140.008 19.9532C140.935 20.4829 139.809 19.6221 140.869 19.8207Z" fill="#64A668"/>
<path d="M143.25 20.4832C142.853 20.417 143.184 20.6819 143.184 20.7481C143.449 20.6819 143.515 20.6819 143.25 20.4832Z" fill="#64A668"/>
<path d="M160.336 24.7207L160.402 25.0518C160.667 24.8531 160.336 24.9194 160.336 24.7207Z" fill="#64A668"/>
<path d="M163.381 22.2711C163.249 22.2049 163.116 22.1387 162.984 22.1387L162.852 22.4698C162.984 22.4036 163.183 22.3373 163.381 22.2711Z" fill="#64A668"/>
<path d="M151 47.8313L151.265 48.0962C151.397 47.9637 151.265 47.5664 151 47.8313Z" fill="#64A668"/>
<path d="M143.914 46.905C144.046 46.7063 144.113 46.309 143.848 46.1104C143.914 46.4415 143.848 46.7726 143.914 46.905Z" fill="#64A668"/>
<path d="M110.406 34.7864L110.538 34.5215L110.207 34.8526L110.406 34.7864Z" fill="#64A668"/>
<g opacity="0.6">
<path d="M125.714 27.4364C125.781 27.3702 125.714 27.3702 125.714 27.4364C125.714 27.3702 125.714 27.3702 125.714 27.4364C125.648 27.4364 125.648 27.5026 125.648 27.5026C125.648 27.5026 125.648 27.5026 125.582 27.5688C125.582 27.4364 125.648 27.4364 125.714 27.4364Z" fill="#D1EDD2"/>
<path d="M127.37 26.8395C127.37 26.8395 127.37 26.7733 127.37 26.707C127.37 26.7733 127.304 26.7732 127.37 26.8395C127.304 26.8395 127.304 26.8395 127.37 26.8395Z" fill="#D1EDD2"/>
<path d="M137.035 29.1581C137.101 28.9594 137.234 29.0256 137.3 28.7607C137.3 28.827 137.035 28.9594 137.035 29.1581Z" fill="#D1EDD2"/>
<path d="M144.187 33.5947C144.187 33.5947 144.187 33.661 144.121 33.661C144.187 33.5947 144.254 33.6609 144.187 33.5947Z" fill="#D1EDD2"/>
<path d="M134.32 25.7139L134.387 25.7801C134.387 25.7801 134.32 25.7801 134.32 25.7139Z" fill="#D1EDD2"/>
<path d="M144.585 34.1238C144.519 34.0576 144.453 34.1238 144.453 34.19C144.387 34.1238 144.519 34.1238 144.519 34.0576C144.453 33.9913 144.32 34.0576 144.32 33.9913C144.32 33.9913 144.32 33.9913 144.387 33.9251C144.254 33.9251 144.254 33.7265 144.122 33.7265C144.056 33.7927 144.056 33.7927 143.989 33.8589C143.989 33.8589 143.857 33.8589 143.923 33.7927C143.989 33.6602 143.989 33.7927 144.056 33.7265C143.989 33.6602 143.857 33.6602 143.857 33.594C143.923 33.5278 143.989 33.6602 143.989 33.5278V33.6602C144.122 33.4616 143.989 33.7265 144.122 33.5278C144.056 33.3954 143.989 33.4616 143.923 33.3291C143.857 33.3291 143.857 33.3954 143.791 33.4616C143.592 33.3954 143.989 33.1305 143.724 33.1305C143.658 33.1305 143.46 33.2629 143.526 33.1305L143.658 33.0643C143.592 32.9318 143.46 33.1305 143.46 32.998C143.526 32.998 143.592 33.0643 143.592 32.998C143.658 32.8656 143.46 32.998 143.46 32.9318L143.592 32.7994C143.46 32.7332 143.327 32.6669 143.195 32.5345C143.261 32.5345 143.261 32.4683 143.327 32.4021C143.128 32.3359 143.062 32.071 143.062 31.8723L142.93 31.9385C142.93 31.9385 142.93 31.8723 142.996 31.8723C142.996 31.8061 142.93 31.9385 142.864 31.9385C142.797 31.9385 142.864 31.8061 142.93 31.8061C142.731 31.8061 142.466 31.7399 142.532 31.475H142.599C142.599 31.3426 142.268 31.6074 142.334 31.475H142.4C142.268 31.2763 142.003 31.2101 142.069 30.879C141.87 31.0777 142.003 30.6141 141.738 30.879C141.804 30.6804 141.87 30.6141 141.804 30.4155C141.804 30.3493 141.605 30.5479 141.539 30.5479L141.672 30.4155L141.473 30.5479L141.605 30.3493H141.539C141.539 30.3493 141.539 30.4817 141.473 30.4817C141.34 30.4817 141.407 30.2168 141.473 30.1506H141.208C141.274 30.0844 141.34 30.0844 141.34 30.0844C141.142 30.1506 141.473 29.8857 141.274 29.9519C141.274 30.0182 141.208 30.0182 141.142 30.0844C141.208 29.9519 141.076 29.8857 141.009 29.8857L141.142 29.7533C141.076 29.6208 140.877 29.5546 140.745 29.4884C140.745 29.5546 140.546 29.7533 140.546 29.7533L140.678 29.5546C140.546 29.6208 140.678 29.6871 140.48 29.7533C140.413 29.6871 140.612 29.4884 140.678 29.4884H140.546C140.612 29.4222 140.612 29.4222 140.678 29.356C140.546 29.4222 140.745 29.0911 140.546 29.2235L140.612 29.1573C140.48 29.0249 140.347 29.0249 140.281 28.9586C140.149 29.0911 140.149 29.0249 140.016 29.1573C139.95 29.0249 139.95 28.8262 139.884 28.76C139.751 28.76 139.751 28.8924 139.685 28.9586C139.817 28.8262 139.685 28.76 139.817 28.6938C139.685 28.6275 139.619 28.6275 139.42 28.6275C139.42 28.6938 139.42 28.76 139.354 28.8262C139.288 28.8262 139.354 28.6938 139.42 28.6275C139.089 28.76 139.354 27.8329 138.957 28.0978L138.692 28.164C138.625 28.0978 138.824 28.0316 138.824 27.8991C138.493 28.0978 138.559 27.7005 138.361 27.8329C138.559 27.2369 137.963 27.6342 138.03 27.2369L137.963 27.3694C137.831 27.4356 137.963 27.3031 137.963 27.2369C137.897 27.3031 137.963 27.3694 137.897 27.4356C137.5 27.3694 137.301 26.9058 137.036 26.6409C136.904 26.5747 136.639 27.2369 136.639 26.9058L136.771 26.7072C136.374 26.8396 136.242 26.4423 135.91 26.6409C135.977 26.5747 135.977 26.5085 135.977 26.5085C135.977 26.3098 135.778 26.4423 135.712 26.5747C135.646 26.5747 135.778 26.4423 135.778 26.3761C135.778 26.2436 135.579 26.5747 135.579 26.3761L135.646 26.3098C135.579 26.3761 135.513 26.2436 135.447 26.4423C135.381 26.3098 135.248 26.4423 135.182 26.3098C135.05 26.5085 135.05 26.1774 134.917 26.4423C135.05 26.1112 134.851 26.1112 134.719 26.2436C134.785 26.1774 134.719 26.1112 134.785 25.9787C134.719 25.9787 134.652 25.9787 134.586 26.1774C134.586 25.7801 134.255 26.4423 134.321 25.9125C134.056 26.045 133.858 26.1112 133.593 26.1112C133.659 25.7801 133.791 26.1112 133.858 25.7801C133.659 25.8463 133.46 26.1112 133.328 25.9787C133.262 25.9125 133.394 25.8463 133.394 25.7801C133.195 25.8463 133.063 25.7139 132.864 25.8463C132.864 25.8463 132.864 25.7801 132.931 25.7801C132.864 25.7801 132.864 25.7139 132.864 25.8463L132.931 25.7801C132.931 25.9787 132.732 26.1774 132.732 26.3098C132.864 25.9125 132.599 26.1774 132.732 25.7139C132.732 25.7139 132.666 25.7801 132.666 25.9125C132.666 25.9125 132.666 25.8463 132.666 25.7139C132.533 25.7801 132.533 25.9125 132.467 25.9125C132.467 25.8463 132.533 25.8463 132.533 25.7801C132.467 25.9125 132.401 26.045 132.335 25.9787C132.335 25.9125 132.335 25.9125 132.335 25.9125C132.202 25.9125 132.07 26.1774 131.871 26.1112C131.937 25.8463 131.805 26.045 131.805 25.7801L131.739 25.8463V25.9787C131.672 25.9787 131.606 26.1112 131.54 26.045L131.606 25.9787L131.474 26.045L131.54 26.1112C131.474 26.2436 131.54 26.3761 131.408 26.3098C131.408 26.3098 131.341 26.3098 131.275 26.1774C131.209 26.2436 131.209 26.3098 131.143 26.2436C131.143 26.1774 131.143 25.9787 131.143 25.9787C131.076 26.1774 130.944 26.045 130.878 26.2436C130.878 26.1774 130.878 26.1112 130.878 26.045L130.812 26.1774C130.745 26.1112 130.745 26.1112 130.745 26.045C130.613 26.045 130.812 26.3098 130.679 26.1774C130.679 26.1774 130.679 26.1774 130.679 26.1112C130.547 26.045 130.414 26.1774 130.282 26.1774C130.216 25.9787 130.414 26.1112 130.348 25.9787C130.149 26.045 130.017 26.2436 129.818 26.2436C129.818 26.5085 129.686 26.1112 129.62 26.2436V26.1112C129.487 26.1112 129.421 26.1774 129.222 26.3098V26.2436C129.156 26.1774 129.024 26.2436 128.957 26.2436C128.957 26.3098 128.891 26.3098 128.957 26.3761C128.693 26.1112 128.56 26.6409 128.361 26.4423C128.361 26.4423 128.428 26.3761 128.361 26.3761L128.229 26.4423C128.295 26.5085 128.295 26.5085 128.295 26.5085C128.295 26.5747 128.229 26.6409 128.229 26.6409C128.295 26.5747 128.163 26.5085 128.163 26.5085V26.5747C128.03 26.4423 128.163 26.7072 128.03 26.6409V26.5747C127.964 26.5747 127.964 26.6409 127.898 26.7072C127.832 26.6409 127.898 26.6409 127.898 26.5747C127.832 26.6409 127.832 26.7734 127.765 26.7072L127.832 26.6409C127.765 26.5747 127.765 26.5747 127.699 26.6409H127.567H127.633C127.633 26.8396 127.501 26.7734 127.434 26.9058C127.501 26.7734 127.434 26.8396 127.434 26.7734C127.368 26.7734 127.368 26.7734 127.368 26.7072C127.368 26.7734 127.302 26.7072 127.236 26.8396H127.169C127.103 26.9058 127.169 26.8396 127.236 26.9058C127.169 27.0383 126.971 26.9058 126.905 27.1045C126.838 27.2369 126.838 27.2369 126.706 27.3694C126.64 27.3694 126.706 27.3031 126.706 27.3031C126.64 27.3031 126.573 27.3694 126.573 27.3694C126.507 27.3694 126.573 27.4356 126.507 27.4356V27.3694C126.441 27.4356 126.441 27.4356 126.375 27.5018C126.375 27.5018 126.375 27.4356 126.441 27.4356C126.375 27.5018 126.309 27.568 126.309 27.568H126.375C126.441 27.5018 126.441 27.5018 126.441 27.5018H126.375C126.441 27.5018 126.507 27.4356 126.573 27.3694V27.4356L126.64 27.3694C126.64 27.3694 126.706 27.3694 126.64 27.4356C126.706 27.4356 126.706 27.3694 126.772 27.3694L126.838 27.3031C126.838 27.3031 126.838 27.3031 126.838 27.3694C126.971 27.3694 126.971 27.2369 127.037 27.3031C127.169 27.2369 127.037 27.2369 127.103 27.1707L127.236 27.3031V27.2369H127.302C127.368 27.1707 127.302 27.2369 127.302 27.1707C127.368 27.1707 127.501 27.0383 127.567 27.1707C127.567 27.1045 127.501 27.1707 127.567 27.1045C127.633 27.2369 127.633 27.0383 127.765 27.1045C127.765 27.1707 127.699 27.1707 127.765 27.1707C127.765 27.0383 127.898 27.1707 127.964 27.1045C127.964 27.0383 128.097 27.0383 128.163 26.972C128.163 27.0383 128.361 26.972 128.428 26.972C128.428 26.8396 128.494 26.8396 128.56 26.8396C128.56 26.9058 128.56 26.972 128.56 26.972H128.626C128.626 26.9058 128.626 26.9058 128.693 26.9058V26.972C128.759 26.972 128.825 26.8396 128.957 26.9058C128.957 26.7734 128.825 26.6409 128.891 26.5747C128.891 26.6409 128.957 26.7072 128.891 26.7734C128.891 26.7734 128.891 26.7072 128.957 26.7734V26.8396C129.024 26.8396 128.957 26.7734 129.024 26.7734C129.024 26.8396 129.09 26.8396 129.09 26.9058H129.024C129.09 26.9058 129.156 26.972 129.156 27.0383C129.156 26.972 129.156 26.9058 129.156 26.9058C129.222 26.9058 129.222 26.972 129.288 27.0383C129.288 26.972 129.355 27.0383 129.355 26.9058L129.421 26.972C129.487 26.9058 129.62 26.9058 129.553 26.7734C129.686 26.6409 129.884 26.8396 130.017 26.7734V26.8396C130.083 26.7734 130.216 26.7734 130.282 26.7072C130.282 26.7072 130.348 26.7734 130.348 26.8396C130.414 26.7734 130.414 26.7734 130.48 26.8396C130.414 26.9058 130.48 26.9058 130.414 26.9058C130.48 26.972 130.547 27.0383 130.613 26.9058C130.613 27.0383 130.679 27.1045 130.745 27.0383L130.679 26.972C130.745 26.972 130.745 26.972 130.812 26.972V27.1707C131.01 27.3694 131.143 26.8396 131.209 27.2369C131.275 27.1045 131.143 27.1045 131.143 26.972C131.209 26.972 131.275 27.3031 131.341 27.3031C131.474 27.4356 131.474 27.0383 131.54 27.1045C131.54 27.0383 131.54 26.8396 131.606 26.7734C131.672 26.7734 131.672 27.1045 131.606 27.1045C131.606 27.1045 131.606 27.1045 131.606 27.0383C131.606 27.0383 131.54 27.1045 131.54 27.1707V27.1045C131.606 27.1707 131.672 27.1707 131.672 27.3031C131.739 27.2369 131.672 27.1707 131.672 27.1707C131.739 27.3031 131.805 27.1707 131.937 27.3031C131.937 27.2369 131.937 27.1707 131.937 27.1707C132.07 27.3031 132.004 27.0383 132.136 27.0383C132.202 27.1707 132.07 27.3031 132.202 27.2369C132.268 27.3031 132.202 27.4356 132.136 27.5018C132.268 27.3694 132.268 27.6342 132.335 27.7005L132.268 27.7667H132.335V27.6342C132.335 27.6342 132.401 27.7005 132.401 27.7667C132.467 27.7005 132.401 27.5018 132.467 27.3694C132.467 27.4356 132.599 27.3031 132.599 27.5018C132.467 27.4356 132.599 27.7005 132.467 27.7005H132.533V27.7667C132.599 27.9653 132.599 27.568 132.732 27.568C132.666 27.7005 132.732 27.7667 132.732 27.7667C132.666 27.7667 132.732 27.568 132.798 27.5018C132.864 27.6342 132.864 27.4356 132.931 27.5018L132.864 27.4356C132.931 27.3031 132.931 27.3694 132.997 27.3031C132.997 27.3694 132.931 27.3694 132.931 27.3694C132.997 27.1707 132.997 27.6342 133.129 27.5018C133.129 27.568 133.063 27.7005 133.129 27.7667C133.262 27.6342 133.195 27.9653 133.328 27.8329C133.328 27.6342 133.328 27.7005 133.394 27.568C133.328 27.568 133.262 27.6342 133.195 27.6342L133.328 27.4356C133.262 27.4356 133.195 27.5018 133.195 27.5018C133.262 27.3694 133.262 27.4356 133.262 27.3031C133.262 27.568 133.394 27.1707 133.46 27.3694L133.394 27.7667C133.46 27.9653 133.659 27.6342 133.725 27.7667V27.7005C133.791 27.568 133.791 27.7005 133.858 27.6342C133.791 27.7667 133.858 27.8329 133.858 27.8991C133.858 27.7667 133.99 27.9653 134.056 27.7005V27.8991C134.123 28.0316 134.321 27.568 134.387 27.6342C134.321 27.7667 134.321 27.8991 134.189 27.9653C134.255 27.9653 134.255 28.0316 134.255 27.8991C134.255 27.9653 134.387 27.7667 134.387 27.8991C134.454 27.8329 134.454 27.7005 134.52 27.7005V27.7667C134.52 27.7005 134.586 27.7005 134.652 27.5018C134.652 27.9653 134.983 27.568 134.983 28.0316C135.05 28.0316 135.182 28.0316 135.248 28.0316C135.248 28.0978 135.248 28.0978 135.182 28.0978C135.248 28.2964 135.381 27.7005 135.447 27.8991C135.447 28.164 135.314 28.0316 135.314 28.0978C135.182 28.5613 135.447 28.0978 135.447 28.3627C135.447 28.5613 135.646 28.2302 135.712 28.2964V28.3627C135.844 28.164 136.043 28.164 136.175 28.0978C136.043 28.2964 136.109 28.164 136.043 28.3627C136.109 28.3627 136.175 28.0316 136.242 28.0316C136.242 28.164 136.242 28.2302 136.175 28.4289H136.109C136.043 28.6938 136.242 28.4951 136.242 28.5613L136.175 28.6938C136.308 28.6938 136.44 28.4289 136.573 28.4951V28.4289C136.771 28.164 136.573 28.6275 136.705 28.4289L136.573 28.6938C136.639 28.6275 136.838 28.4951 136.97 28.4951C136.838 28.6938 136.705 28.76 136.573 28.8262C136.639 28.8262 136.705 28.8924 136.838 28.76C136.838 28.76 136.771 28.8262 136.771 28.76C136.904 28.5613 137.036 28.4951 137.169 28.5613C136.904 29.0911 137.301 28.8262 137.169 29.2897C137.434 29.1573 137.434 29.5546 137.632 29.6208C137.831 29.1573 137.698 29.6208 137.897 29.2235C137.963 29.2235 137.963 29.2235 137.963 29.2897V29.6208C137.897 29.7533 137.897 29.6871 137.831 29.7533C137.897 29.8195 137.765 29.9519 137.765 30.0844C137.831 29.9519 137.897 29.8857 137.963 29.9519L138.03 29.7533C138.294 29.6208 137.897 30.1506 138.162 30.0182L138.03 30.1506C138.162 30.0844 138.228 30.283 138.493 30.0182C138.493 30.0844 138.427 30.2168 138.361 30.2168C138.493 30.3493 138.89 30.0844 138.89 30.3493L138.824 30.4155C138.89 30.4155 139.023 30.283 138.957 30.4155C138.957 30.4817 138.89 30.4817 138.89 30.5479C138.957 30.5479 139.089 30.4155 139.089 30.4817L138.957 30.5479C139.023 30.7466 139.354 30.4155 139.553 30.4817C139.354 30.7466 139.42 30.879 139.42 31.0115V31.0777C139.553 31.2101 139.884 31.0777 140.082 31.0777C139.95 31.4088 140.281 31.4088 140.347 31.6737C140.347 31.6074 140.48 31.475 140.546 31.475C140.546 31.5412 140.811 31.4088 140.612 31.6074C140.48 31.8723 140.612 31.8061 140.612 31.8723L140.877 31.6074C140.678 32.1372 141.407 31.7399 141.142 32.2034C141.208 32.1372 141.274 32.2034 141.34 32.1372L141.208 32.2696C141.274 32.4021 141.274 32.4683 141.473 32.4683L141.34 32.5345C141.407 32.6007 141.804 32.2034 141.87 32.2696L141.738 32.4683C141.87 32.5345 141.804 32.7994 142.069 32.7332C142.069 32.7332 142.003 32.7994 141.936 32.7994C142.003 32.8656 142.069 33.0643 142.268 32.7994C142.135 32.9318 142.4 32.9318 142.466 32.9318L142.334 33.0643C142.532 32.998 142.599 32.9318 142.665 32.9318C142.665 32.9318 142.599 33.0643 142.599 32.998C142.599 33.1305 142.731 32.9318 142.731 33.0643L142.665 33.1305C142.731 33.1967 142.731 33.1305 142.864 33.1305C142.93 33.1305 142.93 33.2629 142.864 33.3291C142.93 33.2629 143.062 33.2629 143.062 33.2629C143.062 33.3291 142.996 33.3291 142.996 33.3291C142.996 33.4616 143.261 33.3291 143.195 33.5278L143.128 33.594C143.062 33.5278 142.996 33.4616 142.996 33.4616C142.93 33.5278 142.93 33.594 142.797 33.7265C142.93 33.7265 143.128 33.6602 143.195 33.7265C143.195 33.7265 143.195 33.7265 143.195 33.7927C143.195 33.7927 143.195 33.7927 143.261 33.7927V33.8589C143.195 33.9251 143.327 33.9913 143.327 33.9913C143.393 33.9251 143.46 33.9251 143.46 33.8589C143.46 33.8589 143.46 33.8589 143.393 33.8589L143.327 33.7927C143.393 33.7927 143.46 33.7265 143.46 33.8589C143.526 33.7927 143.592 33.7927 143.658 33.7265C143.592 33.8589 143.592 34.0576 143.526 34.1238C143.658 34.19 143.791 34.3224 143.989 34.2562C144.056 34.2562 143.989 34.3224 143.923 34.3887H143.857C143.923 34.3887 144.056 34.5211 144.122 34.4549C144.122 34.5873 143.989 34.5211 144.122 34.5873H144.056C144.056 34.9184 144.585 34.6535 144.585 35.0509V34.9846C144.651 35.1171 144.784 35.2495 144.916 35.382C145.049 35.5144 145.115 35.6468 145.181 35.7793C145.247 35.8455 145.247 35.8455 145.314 35.8455V35.9117L145.446 35.9779C145.579 36.0442 145.512 36.2428 145.645 36.309C145.711 36.3753 145.777 36.4415 145.777 36.4415C145.777 36.4415 145.777 36.4415 145.843 36.4415L145.976 36.5739C146.042 36.6401 145.91 36.5739 146.042 36.7064C146.108 36.7726 146.175 36.8388 146.175 36.8388C146.175 36.8388 146.175 36.905 146.108 36.7726C146.108 36.7064 146.108 36.7064 146.042 36.7064C146.042 36.7064 146.042 36.7064 146.042 36.6401L145.976 36.5739C145.976 36.5739 146.042 36.5739 145.976 36.5077C145.976 36.5077 145.976 36.5739 145.91 36.5077C145.91 36.4415 145.91 36.4415 145.91 36.4415C145.91 36.3753 145.843 36.309 145.843 36.309C145.843 36.2428 145.777 36.1766 145.777 36.1104C145.777 36.1104 145.711 36.0442 145.645 36.0442C145.777 36.0442 145.579 35.9117 145.645 35.8455C145.579 35.8455 145.512 35.6468 145.446 35.5806C145.446 35.5144 145.446 35.5144 145.446 35.4482C145.38 35.5144 145.314 35.4482 145.247 35.382C145.314 35.2495 145.38 35.382 145.446 35.3157C145.38 35.382 145.314 35.2495 145.314 35.3157C145.314 35.2495 145.314 35.2495 145.38 35.1833C145.247 35.2495 145.314 35.1171 145.247 35.1833C145.247 35.0509 145.314 35.1171 145.247 35.0509C144.519 34.0576 144.585 34.1238 144.585 34.1238ZM142.996 32.3359C143.062 32.4021 143.062 32.4021 142.996 32.3359C142.996 32.4683 142.996 32.4683 142.93 32.4683C142.996 32.4683 142.996 32.4021 142.996 32.3359ZM142.599 33.2629C142.599 33.1967 142.599 33.1967 142.599 33.2629Z" fill="#D1EDD2"/>
<path d="M142.734 33.1974C142.801 33.1974 142.801 33.1974 142.734 33.1974C142.801 33.1974 142.801 33.1312 142.734 33.1974Z" fill="#D1EDD2"/>
<path d="M132.402 25.6483C132.469 25.5821 132.469 25.5821 132.402 25.6483Z" fill="#D1EDD2"/>
<path d="M130.746 25.9129L130.812 25.8467C130.812 25.8467 130.746 25.8467 130.746 25.9129Z" fill="#D1EDD2"/>
<path d="M130.879 25.8468C130.879 25.7806 130.812 25.8468 130.812 25.8468H130.879Z" fill="#D1EDD2"/>
<path d="M126.312 26.9727C126.312 26.9727 126.246 26.9727 126.18 27.0389C126.18 26.9727 126.312 26.9727 126.312 26.9727Z" fill="#D1EDD2"/>
<path d="M126.906 26.9062H126.773C126.773 26.9062 126.84 26.9725 126.773 26.9725C126.972 27.0387 126.773 26.9725 126.906 26.9062Z" fill="#D1EDD2"/>
<path d="M127.236 26.8398C127.236 26.9061 127.17 26.9061 127.236 26.8398C127.303 26.8398 127.303 26.8398 127.236 26.8398Z" fill="#D1EDD2"/>
<path d="M129.621 26.5088V26.6412C129.687 26.6412 129.621 26.575 129.621 26.5088Z" fill="#D1EDD2"/>
<path d="M130.082 25.7801L130.016 25.7139V25.8463L130.082 25.7801Z" fill="#D1EDD2"/>
<path d="M130.348 26.7734V26.8397L130.414 26.7734H130.348Z" fill="#D1EDD2"/>
<path d="M134.191 27.6342L134.258 27.4355C134.191 27.4355 134.125 27.7004 134.191 27.6342Z" fill="#D1EDD2"/>
<path d="M135.848 28.0977C135.782 28.2301 135.848 28.2963 135.914 28.2301C135.914 28.1639 135.914 28.0977 135.848 28.0977Z" fill="#D1EDD2"/>
</g>
<path d="M78.159 137.823C78.159 137.823 49.6845 140.075 49.2872 140.538C48.8899 140.936 45.8438 134.579 45.8438 134.579L51.936 124.977L77.1657 115.64L78.159 137.823Z" fill="#FFBC9C"/>
<path d="M51.9313 124.91C51.9313 124.91 54.6463 121.666 56.2356 123.321C57.8249 124.977 63.9833 139.214 61.4008 140.273C58.8182 141.333 49.2825 140.472 49.2825 140.472L45.5742 131.599L51.9313 124.91Z" fill="#99D474"/>
<path d="M53.7187 141.134C53.7187 141.134 41.0045 147.756 38.8855 146.166C36.7664 144.577 27.4294 113.189 27.9592 112.461C29.416 110.54 32.3959 109.679 37.0313 113.653C41.6005 117.626 50.5401 122.261 51.401 123.652C52.2619 125.042 51.9308 130.208 48.4211 132.327C48.4211 132.327 49.1495 134.909 50.4077 135.108C51.6659 135.373 54.712 137.161 53.7187 141.134Z" fill="#4D9952"/>
<path d="M41.7949 145.835C37.1595 134.578 33.4512 122.989 30.5376 111.202C30.4051 110.54 29.3456 110.805 29.5443 111.467C32.4579 123.254 36.2325 134.842 40.8016 146.1C41.0665 146.762 42.0598 146.497 41.7949 145.835Z" fill="#333333"/>
<path d="M35.043 128.818C39.546 126.236 41.7974 121.07 40.7379 115.971C40.6055 115.309 39.546 115.574 39.7446 116.236C40.7379 120.806 38.5527 125.507 34.5133 127.825C33.8511 128.222 34.447 129.149 35.043 128.818Z" fill="#333333"/>
<path d="M43.1224 125.904C44.3806 123.454 44.6455 120.54 43.8508 117.891C43.6522 117.229 42.6589 117.494 42.8575 118.156C43.5197 120.54 43.3211 123.189 42.1953 125.374C41.8642 126.036 42.7913 126.566 43.1224 125.904Z" fill="#333333"/>
<path d="M46.5716 127.492C47.896 125.306 48.2934 122.591 47.4987 120.141C47.3001 119.479 46.3068 119.81 46.5054 120.406C47.1676 122.591 46.8365 125.041 45.6446 126.962C45.3135 127.558 46.2405 128.021 46.5716 127.492Z" fill="#333333"/>
<path d="M53.2599 140.537C48.8894 138.087 43.3931 137.558 38.8902 140.074C38.2942 140.405 38.824 141.332 39.4199 141.001C43.5918 138.683 48.6907 139.279 52.7301 141.531C53.3261 141.796 53.8559 140.869 53.2599 140.537Z" fill="#333333"/>
<path d="M42.6694 135.306C42.2721 133.981 41.8748 132.657 41.4775 131.333C41.1464 130.141 40.8815 128.883 40.2855 127.757C39.9544 127.161 39.0273 127.426 39.0273 128.088C39.1598 130.604 40.6166 133.386 41.7424 135.637C42.0072 136.233 42.8019 135.836 42.6694 135.306Z" fill="white"/>
<path d="M53.3937 124.579C56.1749 129.413 58.3602 133.85 59.8832 139.28C59.9495 139.478 60.3468 139.478 60.2806 139.213C59.7508 133.916 57.4331 128.221 53.791 124.248C53.5924 123.983 53.2613 124.314 53.3937 124.579Z" fill="white"/>
<path d="M101.933 88.0266C101.536 88.2915 101.337 88.424 101.337 88.424L101.536 89.0199L103.721 95.3108L106.634 103.721L108.489 109.018L99.4165 110.409L96.3704 110.872L96.0393 110.939L93.3905 111.336L92.8607 111.402L89.8808 111.866L87.232 112.263L82.7953 112.925L79.7492 104.251L78.8221 101.734L78.2261 100.079L74.7827 90.4106C74.7827 90.4106 74.6503 90.2119 74.3854 89.8808C73.4583 88.6226 71.0082 85.5103 68.2269 81.4709C66.9688 79.6167 65.5781 77.5639 64.2537 75.4449C63.128 73.5907 62.0023 71.6703 61.009 69.8162C60.0819 68.0945 59.2873 66.3728 58.6251 64.7835C57.6318 62.3334 54.8505 59.9494 55.0492 57.3669C56.7709 40.0835 78.6234 30.3492 93.3243 39.024C93.7216 39.2888 94.1189 39.4875 94.5162 39.7524C99.1516 42.8647 103.059 48.0299 107.363 55.91C107.826 56.7047 107.628 58.1615 107.959 58.9561C108.422 59.8832 108.82 61.6712 109.151 62.5982C109.879 64.5848 111.204 65.0484 111.468 66.8363C113.323 79.4843 104.317 86.4374 101.933 88.0266Z" fill="#FFA87D"/>
<path d="M67.4982 54.6514C68.5577 52.6648 70.6105 50.8769 72.3985 49.6187C74.2526 48.2943 76.2392 47.897 78.2258 46.9699C79.484 46.3739 79.0204 44.7184 77.696 44.7184C72.266 44.6522 68.2266 49.8173 66.3062 54.1878C65.9751 54.9163 67.1009 55.3798 67.4982 54.6514Z" fill="#6D302F"/>
<path d="M94.6497 42.9307C92.4644 43.4604 90.809 44.6524 88.7561 45.5132C87.4317 46.043 86.5709 44.5862 87.4317 43.5929" fill="#6D302F"/>
<path d="M84.3837 23.5944C84.3837 23.5944 87.4961 19.2901 81.3376 17.436C72.0668 14.6547 64.3853 25.7134 64.3853 25.7134C64.3853 25.7134 63.6569 22.866 59.5513 24.8526C47.8304 30.6799 51.0751 41.8049 51.0751 41.8049C40.5462 51.8041 43.8572 60.6775 48.0953 67.6968C56.9687 82.3314 75.1792 89.748 75.1792 89.748L66.1733 75.8419C66.1733 75.8419 71.1398 69.4848 65.2462 62.4655C62.2001 58.8234 59.154 60.7437 58.2269 56.8368C57.2998 52.9298 66.5044 43.5928 66.5044 43.5928L70.8749 40.6791C70.8749 40.6791 84.3837 46.1091 92.8599 44.4537C100.74 42.9306 96.502 34.7856 96.502 34.7856C96.502 34.7856 101.336 33.3949 99.5481 26.9054C96.7006 17.1049 84.3837 23.5944 84.3837 23.5944Z" fill="#B25752"/>
<path d="M63.526 69.5509C60.6785 69.3523 57.8311 71.3389 57.2351 72.7295C56.6391 74.1863 56.7054 75.8418 57.1689 77.2986C57.8973 79.815 59.8177 82.0003 62.334 82.7287C64.8504 83.4571 69.2209 82.0665 70.4791 79.7488L63.526 69.5509Z" fill="#FFA87D"/>
<path d="M52.3363 44.2551C49.6876 41.3415 47.4361 38.1629 45.3833 34.7857C44.8535 33.9248 43.6616 34.8519 44.1913 35.7128C46.1779 39.1562 48.7605 42.2023 51.6742 44.9173C52.0715 45.2484 52.7337 44.6525 52.3363 44.2551Z" fill="#B25752"/>
<path d="M54.9811 44.2555C51.2728 42.7324 47.3658 41.7391 43.3264 41.408C42.1345 41.3418 41.8696 43.1298 43.0615 43.2622C46.9023 43.6595 50.6768 44.4542 54.3851 45.5799C55.3122 45.911 55.9082 44.5866 54.9811 44.2555Z" fill="#B25752"/>
<path d="M90.6077 91.0724C95.8391 91.867 101.004 91.2711 105.375 88.0263C106.236 87.4303 105.242 86.2383 104.381 86.7681C100.011 89.4831 95.508 90.0129 90.6077 90.94C90.5415 90.94 90.4753 91.0724 90.6077 91.0724Z" fill="#333333"/>
<path d="M84.1191 24.3224C86.4368 22.4021 89.3505 20.4155 92.5953 20.8128C95.9725 21.2101 98.7537 24.7198 96.3698 27.8321C95.9063 28.4943 96.8333 29.2227 97.3631 28.5605C99.5484 25.9117 98.4888 22.071 95.5752 20.4817C91.3371 18.0978 86.7679 20.6804 83.5232 23.5278C83.0596 23.9251 83.6556 24.7198 84.1191 24.3224Z" fill="#B25752"/>
<path d="M66.3704 74.9153C64.6487 73.5909 62.1324 74.4517 61.0066 76.1072C60.5431 76.7694 61.5364 77.4978 62.0661 76.9019C63.1919 75.6437 64.4501 75.3788 66.1056 75.5775C66.5029 75.6437 66.7678 75.1802 66.3704 74.9153Z" fill="#333333"/>
<path d="M69.0861 34.7193C69.8145 32.2029 71.47 30.0839 73.6553 28.6933C76.1054 27.1702 79.6151 26.4418 82.1976 28.1635C83.3896 28.9581 84.3167 30.2825 84.2505 31.8056C84.1842 32.8651 82.9261 34.1233 82.0652 32.9313C81.5354 32.1367 81.9328 31.1434 82.4625 30.4812C84.0518 28.4946 87.0317 28.3622 89.217 29.3555C92.1306 30.7461 93.5212 34.0571 93.9186 37.037C93.9848 37.6329 94.9781 37.6992 94.9119 37.037C94.4483 33.5273 92.7928 29.7528 89.2832 28.2959C86.4357 27.104 82.1976 27.7662 81.0057 30.9447C80.4759 32.2691 81.0057 34.1233 82.595 34.3882C84.4491 34.6531 85.31 32.6665 85.1113 31.1434C84.5816 26.9716 79.8137 25.7134 76.3703 26.508C72.3971 27.4351 69.0861 30.5474 68.0266 34.4544C67.9604 35.0504 68.9537 35.3153 69.0861 34.7193Z" fill="#6D302F"/>
<path d="M62.5298 31.0113C63.3906 27.4354 65.4434 24.2569 68.4233 22.0716C69.0193 21.6081 68.4233 20.6148 67.8273 21.0783C64.5164 23.5284 62.5298 26.9057 62 31.0113C62 31.2099 62.4635 31.2762 62.5298 31.0113Z" fill="#6D302F"/>
<path d="M107.561 49.8838C105.707 57.1018 108.091 64.8495 113.654 69.1538C113.852 69.3524 114.183 68.9551 113.918 68.7564C108.753 64.2535 106.502 57.1018 107.628 49.95C107.628 49.8838 107.561 49.8838 107.561 49.8838Z" fill="#333333"/>
<path d="M145.438 217.155C145.438 217.155 153.252 248.08 149.676 248.013L79.5494 249.205C78.0926 249.205 91.3366 180.602 91.3366 180.602L145.438 217.155Z" fill="#333333"/>
<path d="M70.0144 108.488C69.8157 109.812 68.2927 127.824 70.2793 134.976C72.2659 142.127 83.9205 179.144 83.9205 179.144C83.9205 179.144 83.9205 196.361 83.1921 213.115C82.861 220.002 148.485 220.929 148.485 219.141C148.485 214.307 145.439 202.851 146.697 150.206C147.028 136.83 114.514 102.991 101.932 98.0911C89.2181 93.1246 70.6766 104.25 70.0144 108.488Z" fill="#475B9E"/>
<path d="M65.4453 93.3896L73.5903 102.793L102.065 94.714L65.4453 93.3896Z" fill="#5674B7"/>
<path d="M77.0343 59.2863C77.4316 60.0147 78.3587 60.3458 78.9547 59.9485C79.6169 59.5512 79.7493 58.6903 79.352 58.0281C78.9547 57.2997 78.0938 57.101 77.4316 57.3659C76.7694 57.6308 76.7032 58.6903 77.0343 59.2863Z" fill="#333333"/>
<path d="M92.7899 51.4728C93.1872 52.2012 94.1143 52.5323 94.7103 52.135C95.3725 51.7377 95.5049 50.8768 95.1076 50.2146C94.7103 49.4862 93.8494 49.2876 93.1872 49.5525C92.525 49.8173 92.3926 50.8106 92.7899 51.4728Z" fill="#333333"/>
<path d="M98.6188 65.3125C94.9767 70.7425 89.4805 68.7559 89.4805 68.7559" stroke="#333333" stroke-width="0.893438" stroke-linecap="round" stroke-linejoin="round"/>
<path d="M78.8199 65.908C82.7331 65.908 85.9054 62.9433 85.9054 59.286C85.9054 55.6288 82.7331 52.6641 78.8199 52.6641C74.9067 52.6641 71.7344 55.6288 71.7344 59.286C71.7344 62.9433 74.9067 65.908 78.8199 65.908Z" stroke="#333333" stroke-width="1.20884" stroke-miterlimit="10"/>
<path d="M94.8458 55.6443C98.2836 55.6443 101.07 53.065 101.07 49.8832C101.07 46.7014 98.2836 44.1221 94.8458 44.1221C91.408 44.1221 88.6211 46.7014 88.6211 49.8832C88.6211 53.065 91.408 55.6443 94.8458 55.6443Z" stroke="#333333" stroke-width="1.20884" stroke-miterlimit="10"/>
<path d="M93.853 62.1335C97.0978 60.7429 97.8924 59.0212 97.6938 58.359C97.6275 58.0941 91.0718 52.929 87.4297 52.333" fill="#FFA87D"/>
<path d="M93.853 62.1335C97.0978 60.7429 97.8924 59.0212 97.6938 58.359C97.6275 58.0941 91.0718 52.929 87.4297 52.333" stroke="#333333" stroke-width="1.20884" stroke-miterlimit="10" stroke-linecap="round"/>
<path d="M84.3164 55.9754C86.0381 51.7374 88.9518 52.5982 88.9518 52.5982" stroke="#333333" stroke-width="1.20884" stroke-miterlimit="10" stroke-linecap="round"/>
<path d="M131.534 169.146C131.534 169.146 111.072 163.915 111.734 155.637C112.198 150.075 118.356 144.91 124.515 144.777C134.514 144.645 137.825 159.346 138.289 162.855C138.885 167.623 131.865 169.014 131.534 169.146Z" fill="#FFA87D"/>
<path d="M194.973 101.27C174.18 105.442 174.445 133.321 165.372 147.823C159.942 156.498 140.077 146.697 131.931 152.392C125.972 156.498 126.104 171.596 127.23 173.317C138.024 189.541 174.114 188.018 190.139 167.821C198.019 157.888 211.064 129.546 207.687 115.243C204.641 102.462 201.065 100.078 194.973 101.27Z" fill="#F36868"/>
<path d="M164.777 147.823C159.346 156.498 140.143 146.698 131.931 152.392C125.972 156.498 126.104 171.596 127.23 173.318C138.024 189.542 174.114 188.019 190.139 167.822C198.019 157.889 211.064 129.547 207.687 115.243" stroke="#914040" stroke-width="1.20884" stroke-linecap="round" stroke-linejoin="round"/>
<path d="M106.632 165.437C106.632 165.437 92.3943 190.203 92.5267 190.799C92.6592 191.395 85.7061 190.269 85.7061 190.269L81.2031 179.806L87.7589 153.716L106.632 165.437Z" fill="#FFBC9C"/>
<path d="M81.1994 179.74C81.1994 179.74 80.0737 175.635 82.3251 175.303C84.5766 174.906 99.8734 177.886 99.2112 180.601C98.6152 183.316 92.523 190.733 92.523 190.733L83.1198 188.746L81.1994 179.74Z" fill="#99D474"/>
<path d="M95.573 187.421C95.573 187.421 93.8512 201.658 91.3349 202.452C88.8185 203.247 57.629 193.248 57.3641 192.387C56.6357 190.069 57.629 187.156 63.4563 185.633C69.3499 184.11 78.1571 179.342 79.8789 179.408C81.5344 179.474 85.5738 182.653 85.3089 186.758C85.3089 186.758 87.8915 187.619 88.7523 186.692C89.6794 185.897 92.8579 184.374 95.573 187.421Z" fill="#4D9952"/>
<path d="M92.7186 199.87C80.7991 197.287 69.1444 193.844 57.7546 189.606C57.0924 189.341 56.7613 190.4 57.4235 190.599C68.8133 194.903 80.468 198.281 92.3875 200.863C93.0497 201.062 93.3808 200.002 92.7186 199.87Z" fill="#333333"/>
<path d="M74.8354 195.831C75.2327 190.666 72.2529 185.832 67.485 183.912C66.8228 183.647 66.4917 184.64 67.1539 184.905C71.4582 186.693 74.1732 191.13 73.7759 195.765C73.7097 196.493 74.7692 196.56 74.8354 195.831Z" fill="#333333"/>
<path d="M77.03 187.554C75.7056 185.103 73.4541 183.249 70.8053 182.388C70.1431 182.19 69.812 183.183 70.4742 183.382C72.8581 184.176 74.8447 185.832 76.1029 188.017C76.434 188.613 77.3611 188.15 77.03 187.554Z" fill="#333333"/>
<path d="M80.2701 185.567C79.2106 183.249 77.1578 181.395 74.7077 180.6C74.0455 180.402 73.7144 181.395 74.3766 181.594C76.5618 182.256 78.416 183.911 79.2768 186.03C79.6079 186.693 80.535 186.163 80.2701 185.567Z" fill="#333333"/>
<path d="M94.8385 187.488C90.3355 189.739 86.8259 193.977 86.3624 199.076C86.2961 199.738 87.3557 199.804 87.4219 199.142C87.8854 194.441 91.1964 190.534 95.3683 188.481C95.898 188.15 95.4345 187.156 94.8385 187.488Z" fill="#333333"/>
<path d="M84.5113 193.248C83.1869 192.784 81.8625 192.387 80.6044 191.99C79.4124 191.592 78.2205 191.063 76.9623 190.93C76.3001 190.864 75.969 191.791 76.565 192.122C78.7502 193.446 81.8625 193.844 84.3127 194.175C84.9087 194.307 85.0411 193.38 84.5113 193.248Z" fill="white"/>
<path d="M81.3382 178.018C83.8546 178.747 86.4371 178.946 88.9535 179.674C91.8672 180.535 94.516 181.859 97.1648 183.25C97.9594 183.647 98.5554 182.588 97.827 182.058C93.4564 179.078 86.6358 176.363 81.272 177.687C81.1396 177.754 81.1395 178.018 81.3382 178.018Z" fill="white"/>
<path d="M127.027 118.818C125.769 119.083 100.208 129.744 94.1817 138.684C88.2219 147.624 83.9839 158.219 84.1163 161.464C84.1825 162.258 109.545 172.456 110.935 169.145C112.326 165.834 115.637 154.113 118.749 152.59C121.795 151.067 139.41 151.001 144.31 145.571C149.144 140.075 128.748 118.487 127.027 118.818Z" fill="#333333"/>
<path d="M92.3305 202.123C93.8536 199.342 94.2509 196.56 94.9131 193.514C95.4429 191.263 96.4362 189.276 95.3766 187.091C95.1118 186.561 94.3171 186.959 94.4496 187.488C95.1118 189.872 94.0522 191.991 93.6549 194.309C93.1914 196.892 92.5292 199.342 91.8008 201.858C91.6683 202.255 92.1319 202.454 92.3305 202.123Z" fill="#333333"/>
<path d="M107.691 92.0004L114.115 104.317L131.133 133.52L154.575 146.036C154.575 146.036 179.937 134.778 167.422 112.793C164.111 106.966 159.608 99.5495 159.608 99.5495C159.608 99.5495 150.337 93.7221 146.165 90.8084C142.06 87.8286 107.691 92.0004 107.691 92.0004Z" fill="#333333"/>
<path d="M146.963 79.4844C151.598 85.7753 168.55 108.091 173.252 110.873C173.98 111.27 174.709 111.8 174.907 112.594C175.172 113.786 173.914 114.713 172.855 115.309C162.193 121.004 139.016 123.719 127.03 122.395L110.078 97.9597L118.488 82.9278L146.963 79.4844Z" fill="#99D474"/>
<path d="M69.4803 80.5438C69.0168 80.5438 64.0503 78.1598 60.5407 78.7558C57.031 79.3518 57.031 83.2588 57.031 83.2588C57.031 83.2588 52.9254 86.5035 53.0578 88.5563C53.3227 92.066 56.1702 91.2051 56.1702 91.2051C56.1702 91.2051 56.3026 93.5228 58.4216 94.7148C58.4216 94.7148 57.2959 98.5555 62.8584 98.7542C68.4208 98.9529 73.6522 92.3309 73.6522 92.3309C73.6522 92.3309 69.9439 80.61 69.4803 80.5438Z" fill="#FFBC9C"/>
<path d="M77.4313 93.5888C77.4313 94.0523 79.3517 99.1513 78.4908 102.661C77.63 106.104 73.723 105.773 73.723 105.773C73.723 105.773 71.4053 110.541 68.3592 108.753C65.3131 106.965 65.7766 105.906 65.7766 105.906C65.7766 105.906 63.4589 105.575 62.4656 103.389C62.4656 103.389 58.5587 104.184 58.7573 98.6215C59.0222 93.059 66.0415 88.3574 66.0415 88.3574C66.0415 88.3574 77.4313 93.1253 77.4313 93.5888Z" fill="#FFBC9C"/>
<path d="M144.043 80.0143C139.209 71.0746 137.752 75.5776 121.925 76.6371C106.099 77.6304 67.559 80.0143 67.559 80.0143L66.3008 93.4569C66.3008 93.4569 114.972 101.867 127.488 98.8207C139.937 95.8408 148.877 88.954 144.043 80.0143Z" fill="#FFBC9C"/>
<path d="M113.783 76.3054C113.585 82.3976 114.181 88.556 115.571 94.5158C116.167 97.0984 117.359 98.2903 119.677 99.4823C121.266 100.343 122.988 100.144 124.776 99.9458C128.617 99.5485 131.464 97.893 135.172 96.6348C139.543 95.1118 143.384 93.655 145.635 89.6818C147.357 86.5694 149.079 84.3842 147.754 81.0732C146.43 77.7622 143.648 75.1134 140.271 73.8552C136.695 72.5308 132.788 72.7957 129.08 73.3917C123.451 74.2525 119.28 74.9147 113.783 76.3054Z" fill="#99D474"/>
<path d="M113.585 77.0998C104.579 77.5634 95.5733 78.2256 86.5674 78.8878C82.0644 79.2189 77.4953 79.55 72.9923 79.8149C71.8666 79.8811 70.7408 79.9473 69.5489 80.0135C68.9529 80.0135 68.4894 80.2122 68.0258 80.0135C67.165 79.7486 66.3703 79.1527 65.5757 78.8216C62.662 77.6958 59.2186 77.5634 57.1658 80.2122C56.7684 80.6757 57.4969 81.4041 57.8942 80.9406C59.8808 78.4242 63.0593 78.8216 65.7081 79.9473C66.4365 80.2122 67.0987 80.6757 67.7609 81.0068C68.2245 81.2055 68.7542 81.073 69.2178 81.073C70.4759 81.0068 71.7341 80.9406 73.0585 80.8744C81.4684 80.4108 89.8784 79.6824 98.2883 79.0864C103.387 78.6891 108.486 78.4242 113.585 78.1594C114.247 78.0269 114.247 77.0336 113.585 77.0998Z" fill="#333333"/>
<path d="M63.6484 92.9927C77.4884 95.9726 91.4608 98.6876 105.632 99.3498C109.605 99.5485 113.578 99.5485 117.551 99.3498C118.214 99.3498 118.214 98.2903 117.551 98.3565C103.447 99.0849 89.3417 97.0984 75.568 94.4496C71.661 93.7211 67.8203 92.8603 63.9133 92.0656C63.3173 91.9332 63.0525 92.8603 63.6484 92.9927Z" fill="#333333"/>
<path d="M113.583 76.3055C113.517 80.6098 113.583 84.9141 114.179 89.1521C114.576 92.1982 115.106 96.8999 117.623 99.0851C120.536 101.601 126.033 99.6811 129.211 98.8202C134.442 97.4296 139.541 95.3106 144.044 92.3307C144.508 91.9996 144.111 91.3374 143.647 91.6023C139.939 93.6551 136.23 95.5755 132.191 96.8999C127.953 98.2905 119.94 101.337 116.894 96.5688C115.106 93.7875 114.841 89.2846 114.51 86.106C114.179 82.8612 113.914 79.5503 113.98 76.2393C113.98 76.0406 113.583 76.0406 113.583 76.3055Z" fill="#333333"/>
<path d="M73.651 106.303C75.439 104.581 76.4985 102.065 76.3661 99.5484C76.3661 98.8862 75.3728 98.8862 75.3728 99.5484C75.439 101.8 74.5781 103.985 72.9226 105.574C72.5253 106.038 73.1875 106.7 73.651 106.303Z" fill="#333333"/>
<path d="M66.1089 106.436C67.2346 104.052 68.6253 101.8 70.2807 99.7475C70.4794 99.5489 70.4794 99.2178 70.2807 99.0191C70.0821 98.8205 69.751 98.8205 69.5523 99.0191C67.8306 101.138 66.3738 103.456 65.1818 105.906C64.9832 106.502 65.844 106.965 66.1089 106.436Z" fill="#333333"/>
<path d="M73.9219 106.038C76.1733 106.767 78.3586 105.177 79.1532 103.058C80.0803 100.476 79.087 97.7609 78.1599 95.377C77.9613 94.781 76.968 95.0459 77.2328 95.6418C78.0275 97.6946 78.9546 99.9461 78.4248 102.198C77.9613 104.052 76.2395 105.707 74.253 105.111C73.5908 104.913 73.3259 105.84 73.9219 106.038Z" fill="#333333"/>
<path d="M145.437 88.0268C146.562 84.3185 145.569 80.3453 143.384 77.2329C143.119 76.8356 142.457 77.2329 142.722 77.6302C144.973 80.7426 145.503 84.2522 145.172 88.0268C145.172 88.1592 145.37 88.1592 145.437 88.0268Z" fill="#333333"/>
<path d="M54.9169 85.5096C55.9764 84.9137 56.9034 84.0528 57.963 83.3244C59.0225 82.596 60.2807 82.1986 61.4064 81.6027C61.6713 81.4702 61.6051 80.9405 61.2077 81.0067C58.89 81.2716 55.8439 83.3906 54.9169 85.5096C54.8506 85.5758 54.8506 85.5096 54.9169 85.5096Z" fill="#333333"/>
<path d="M55.7091 91.6686C56.7686 91.3375 57.7619 90.8077 58.7552 90.278C59.881 89.682 61.0067 89.1522 62.1324 88.49C62.3973 88.3576 62.1987 87.894 61.9338 88.0265C59.8147 88.7549 57.2984 90.0131 55.7091 91.6024C55.6429 91.6686 55.7091 91.7348 55.7091 91.6686Z" fill="#333333"/>
<path d="M58.2879 94.8469C58.8177 94.7807 59.3475 94.7145 59.8772 94.5821C60.3408 94.4496 60.8705 94.3172 61.2016 93.9861C61.3341 93.8536 61.2016 93.5888 61.003 93.655C60.5394 93.7212 60.2083 94.0523 59.811 94.1847C59.2812 94.4496 58.8177 94.5821 58.2879 94.7807C58.2217 94.7807 58.2217 94.8469 58.2879 94.8469Z" fill="#333333"/>
<path d="M63.5871 91.9329C61.3357 93.4559 59.3491 95.5087 58.8193 98.2238C58.3558 100.674 59.2829 103.323 61.5343 104.515C62.1303 104.78 62.5939 103.919 62.0641 103.654C60.0113 102.594 59.3491 100.21 59.8788 98.0913C60.4748 95.7736 62.1965 94.0519 64.1169 92.7937C64.6467 92.4626 64.1169 91.6018 63.5871 91.9329Z" fill="#333333"/>
<path d="M62.3994 104.316C62.4656 101.866 63.3927 99.4154 64.9819 97.495C65.3793 97.0315 64.7171 96.3031 64.2535 96.7666C62.4656 98.8857 61.4723 101.534 61.3398 104.249C61.4061 104.978 62.3994 104.978 62.3994 104.316Z" fill="#333333"/>
<path d="M128.484 74.9807C128.351 75.2456 126.299 80.0134 126.299 80.0134C126.299 80.0134 121.663 77.6295 122.458 79.4174C123.253 81.2054 124.312 83.9204 124.312 83.9204C124.312 83.9204 120.14 85.1123 121.2 85.6421C122.193 86.1719 125.438 87.1652 125.438 87.1652C125.438 87.1652 123.65 93.1912 125.107 91.933C126.563 90.6748 128.285 88.622 128.285 88.622C128.285 88.622 136.165 92.1979 134.907 90.8735C133.649 89.4828 131.265 85.907 131.265 85.907C131.265 85.907 137.887 81.6027 136.629 81.2054C135.371 80.808 130.537 81.4702 130.537 81.4702C130.537 81.4702 128.683 74.4509 128.484 74.9807Z" fill="white"/>
<path d="M138.152 77.6961C139.344 68.624 130.868 59.5518 139.94 50.4797C142.854 46.7714 149.476 41.4076 152.588 43.328L174.971 103.058C173.845 111.534 133.782 110.806 138.152 77.6961Z" fill="#333333"/>
<path d="M167.223 50.8112C154.376 45.1825 139.609 55.8439 140.602 70.0812C140.933 74.5841 142.721 79.6831 146.43 85.6428C156.694 102.529 171.262 93.7217 171.262 93.7217L172.653 102.264L189.208 96.4367L183.182 75.9085C183.182 75.9085 177.818 62.0024 172.057 54.5857C170.798 52.9302 169.143 51.7383 167.223 50.9436V50.8112Z" fill="#FFA87D"/>
<path d="M202.252 75.9083L194.372 89.2185C182.254 95.2445 173.91 63.3265 167.951 61.075C152.72 55.3139 150.8 52.93 150.402 49.3541L151.197 46.5067C151.065 44.3214 152.124 42.0699 154.111 40.7456C158.283 37.8319 163.646 36.2426 168.811 36.0439C185.962 37.1697 210.729 55.9099 202.252 75.9083Z" fill="#333333"/>
<path d="M173.647 91.2715C171.793 95.4433 167.621 95.8406 167.621 95.8406" stroke="#333333" stroke-width="1.20884" stroke-linecap="round" stroke-linejoin="round"/>
<path d="M158.616 70.0809C159.014 70.9418 159.808 71.1404 160.404 70.8756C161 70.6107 161.067 69.5512 160.669 68.8227C160.272 68.0943 159.477 67.7632 158.881 68.0281C158.352 68.293 158.285 69.4187 158.616 70.0809Z" fill="#333333"/>
<path d="M162.057 63.9226C158.482 62.7307 155.171 63.8564 151.86 64.9822C151.065 65.1808 150.138 63.6577 150.933 63.0618C154.508 61.936 156.892 61.3401 160.534 62.5982C162.389 63.1942 162.653 64.1213 162.057 63.9226Z" fill="#333333"/>
<path d="M139.543 70.5445C141 68.0943 143.715 67.6308 146.496 66.8362C147.092 66.6375 146.43 65.2469 145.702 65.1807C140.603 66.8362 140.603 67.8957 139.411 70.4783C139.278 70.8094 139.543 71.1404 139.742 70.8094L139.543 70.5445Z" fill="#333333"/>
<path d="M150.271 73.3926C152.058 80.147 150.271 78.4915 149.807 80.2794C149.41 81.7363 150.535 83.1931 152.058 83.1931C152.588 83.1931 153.118 83.1269 153.515 82.9282" stroke="#333333" stroke-width="0.965551" stroke-linecap="round" stroke-linejoin="round"/>
<path d="M145.965 74.9149C146.363 75.7758 147.157 75.9744 147.753 75.7095C148.349 75.4447 148.415 74.3851 148.018 73.6567C147.621 72.9283 146.826 72.5972 146.23 72.8621C145.634 73.127 145.568 74.2527 145.965 74.9149Z" fill="#333333"/>
<path d="M175.633 64.0554C177.023 62.3337 179.738 61.7377 180.864 62.2012C181.99 62.6648 182.917 63.5918 183.513 64.6514C184.506 66.4393 184.771 68.6908 183.844 70.5449C182.917 72.3991 179.672 74.1208 177.686 73.591L175.633 64.0554Z" fill="#FFA87D"/>
<path d="M177.09 68.6241C177.289 66.9024 179.143 65.9753 180.666 66.174C181.262 66.2402 181.195 67.2335 180.533 67.2335C179.143 67.1673 178.348 67.7633 177.62 68.8228C177.487 69.1539 177.09 68.9552 177.09 68.6241Z" fill="#333333"/>
<path d="M180.466 74.849C179.473 74.849 178.612 74.0543 178.479 73.0611C178.347 71.9353 179.141 70.942 180.267 70.8096C180.333 70.8096 180.4 70.8096 180.466 70.8096C181.459 70.8096 182.32 71.6042 182.452 72.5975C182.585 73.7233 181.79 74.7165 180.665 74.849C180.665 74.849 180.598 74.849 180.466 74.849Z" fill="#DD6666"/>
<path d="M180.467 71.273C181.261 71.273 181.99 71.8689 182.056 72.7298C182.122 73.1271 181.99 73.5907 181.725 73.9218C181.46 74.2529 181.063 74.4515 180.665 74.5177C180.599 74.5177 180.533 74.5177 180.467 74.5177C179.672 74.5177 178.944 73.9218 178.878 73.0609C178.811 72.6636 178.944 72.2 179.209 71.8689C179.474 71.5378 179.871 71.3392 180.268 71.273C180.401 71.273 180.467 71.273 180.467 71.273ZM180.467 70.4121C180.401 70.4121 180.268 70.4121 180.202 70.4121C178.878 70.5445 177.95 71.7365 178.083 73.0609C178.215 74.3191 179.275 75.1799 180.467 75.1799C180.533 75.1799 180.665 75.1799 180.732 75.1799C182.056 75.0475 182.983 73.8555 182.851 72.5311C182.785 71.3392 181.725 70.4121 180.467 70.4121Z" fill="#B65353"/>
<path d="M162.389 83.126C159.939 86.7681 156.363 86.1721 156.363 86.1721" stroke="#333333" stroke-width="1.20884" stroke-linecap="round" stroke-linejoin="round"/>
<path d="M188.743 99.1514L176.757 106.038C174.042 107.628 170.466 106.7 168.943 103.919C167.354 101.204 168.281 97.6284 171.062 96.1053L183.048 89.2184C185.763 87.6292 189.339 88.5562 190.862 91.3375C192.451 94.0525 191.524 97.6284 188.743 99.1514Z" fill="#F36868"/>
<path d="M170.866 95.9727C170.138 99.0188 171.661 101.734 173.316 104.184C173.912 105.045 174.508 105.839 175.104 106.7C171.528 104.846 168.085 99.681 170.866 95.9727Z" fill="#702C34"/>
<path d="M174.507 94.1191C173.778 97.1653 175.301 99.8803 176.957 102.33C177.553 103.191 178.149 103.986 178.745 104.847C175.169 102.993 171.725 97.8937 174.507 94.1191Z" fill="#702C34"/>
<path d="M178.082 92.3311C177.354 95.3772 178.877 98.0922 180.532 100.542C181.128 101.403 181.724 102.198 182.32 103.059C178.811 101.205 175.367 96.1056 178.082 92.3311Z" fill="#702C34"/>
<path d="M163.318 53.9895C163.385 53.9895 163.385 54.0557 163.451 54.0557C163.186 53.4597 162.921 52.93 162.656 52.334L163.318 53.9895Z" fill="#333333"/>
<path d="M250.599 146.565C253.314 135.771 252.387 128.42 243.977 121.798C238.944 117.825 240.003 110.144 238.149 103.654C235.236 93.3238 226.495 99.4161 211.992 85.5099C208.681 82.3314 191.928 82.8611 187.226 85.5099C175.108 76.5702 176.366 59.949 163.52 53.9893C170.406 68.6238 173.453 107.296 188.418 101.204C219.873 88.4898 210.8 135.042 216.231 164.047C219.873 183.383 236.759 185.171 247.089 172.523C261.459 154.71 248.811 153.849 250.599 146.565Z" fill="#333333"/>
<path d="M206.101 75.7756C206.101 75.7756 204.379 72.4646 202.194 71.9348C199.347 71.2726 191.731 73.2592 190.606 75.9742C189.414 78.6893 192.592 80.6096 194.115 80.0137C195.638 79.4177 198.949 77.2986 200.538 77.1C201.995 76.9675 202.326 77.8284 202.326 77.8284C202.326 77.8284 195.175 81.6029 195.44 84.7815C195.704 87.96 198.552 87.2978 198.552 87.2978C198.552 87.2978 198.618 92.0657 203.717 90.4102C203.717 90.4102 205.373 92.2643 207.69 91.8008C210.008 91.4035 215.041 88.0262 215.041 88.0262C215.041 88.0262 218.617 91.3372 219.146 90.8737C221.067 89.4169 218.153 81.4705 215.173 81.338C215.173 81.338 213.451 78.4244 211.2 78.1595H210.074C210.008 78.2919 208.485 75.1796 206.101 75.7756Z" fill="#FFA87D"/>
<path d="M204.114 90.6092C204.312 88.0928 206.167 86.2387 208.153 84.9143C210.405 83.3912 212.987 82.0668 215.702 81.7357C216.365 81.6695 216.166 80.6762 215.57 80.7424C212.59 81.1397 209.809 82.5966 207.359 84.2521C205.24 85.7089 203.385 87.7617 203.187 90.4767C203.121 91.1389 204.114 91.2714 204.114 90.6092Z" fill="#333333"/>
<path d="M198.952 88.4237C201.534 83.9207 205.574 80.4773 210.474 78.7556C211.07 78.5569 210.673 77.6299 210.077 77.8285C205.044 79.6164 200.806 83.1923 198.157 87.8277C197.826 88.3575 198.621 88.9534 198.952 88.4237Z" fill="#333333"/>
<path d="M195.702 84.5833C198.02 80.4115 201.993 77.2991 206.628 76.1734C207.224 76.041 207.092 75.0477 206.496 75.1801C201.595 76.3721 197.357 79.6168 194.907 83.9873C194.576 84.5833 195.371 85.1793 195.702 84.5833Z" fill="#333333"/>
<path d="M203.783 91.0061C205.306 91.7345 206.961 90.8075 207.756 89.4831C208.617 88.0924 208.815 86.1721 207.491 84.9801C207.292 84.7814 206.961 84.9139 206.829 85.1125C206.63 85.3774 206.762 85.6423 206.961 85.7747C207.822 86.5694 207.491 88.0262 206.961 88.9533C206.365 89.8804 205.306 90.6088 204.246 90.079C203.981 89.9466 203.716 90.1452 203.584 90.3439C203.385 90.6088 203.518 90.8737 203.783 91.0061Z" fill="#333333"/>
<path d="M198.416 88.5563C198.88 88.9536 199.343 89.3509 199.939 89.5496C200.535 89.7482 201.197 89.682 201.727 89.4171C202.853 88.8211 203.383 87.4967 203.118 86.3048C202.985 85.5764 202.588 84.9142 202.058 84.3844C201.86 84.1857 201.595 84.1195 201.33 84.3182C201.131 84.4506 201.065 84.8479 201.264 85.0466C202.058 85.8412 202.522 87.2319 201.727 88.2252C201.396 88.6225 200.866 88.8211 200.403 88.7549C199.807 88.6887 199.343 88.2252 198.946 87.8941C198.747 87.6954 198.416 87.8278 198.284 88.0265C198.151 88.0927 198.218 88.3576 198.416 88.5563Z" fill="#333333"/>
<path d="M190.474 77.1665C191.268 77.8287 192.46 78.0274 193.387 77.5639C194.314 77.1003 194.976 76.107 194.91 75.0475C194.91 74.4515 194.645 73.8555 194.248 73.3258C193.851 72.8622 193.056 73.4582 193.453 73.988C193.784 74.3191 193.917 74.7826 193.851 75.2462C193.851 75.511 193.784 75.6435 193.652 75.9084C193.652 75.9746 193.652 75.9084 193.586 76.0408C193.52 76.107 193.52 76.1732 193.453 76.1732C193.453 76.2395 193.387 76.2395 193.321 76.3057C193.255 76.3719 193.321 76.3057 193.255 76.3719C193.056 76.5706 192.924 76.6368 192.725 76.703C192.593 76.7692 192.593 76.7692 192.46 76.7692C192.394 76.7692 192.328 76.7692 192.261 76.8354C192.261 76.8354 192.129 76.8354 192.195 76.8354C191.665 76.8354 191.268 76.703 190.937 76.3719C190.738 76.1732 190.407 76.3057 190.275 76.5043C190.209 76.7692 190.275 77.0341 190.474 77.1665Z" fill="#333333"/>
<path d="M195.169 84.7153C195.897 85.841 197.42 86.2384 198.612 85.6424C199.208 85.3775 199.671 84.8477 199.936 84.2518C200.201 83.6558 200.201 82.9936 200.003 82.3314C199.804 81.603 199.274 81.0732 198.612 80.7421C198.347 80.6097 198.082 80.8083 197.95 81.007C197.817 81.2719 198.016 81.5367 198.215 81.6692C198.678 81.8678 199.009 82.3976 199.076 82.8611C199.208 83.3909 199.009 83.9207 198.678 84.318C198.347 84.7153 197.817 84.914 197.288 84.8477C196.692 84.7815 196.228 84.5166 195.897 83.9869C195.765 83.7882 195.367 83.7882 195.169 83.9207C194.97 84.1855 194.97 84.4504 195.169 84.7153Z" fill="#333333"/>
<path d="M212.389 90.4106C214.044 89.4173 215.7 88.424 217.355 87.3645C217.554 87.232 217.752 86.9672 217.62 86.7023C217.488 86.5036 217.223 86.305 216.958 86.4374C215.302 87.4307 213.647 88.424 211.991 89.4835C211.793 89.616 211.594 89.8808 211.726 90.1457C211.859 90.4106 212.19 90.543 212.389 90.4106Z" fill="#333333"/>
<path d="M117.227 151.068C116.432 151.598 139.808 171.397 148.549 169.874C152.654 169.146 157.82 168.153 160.468 163.583C166.229 153.65 166.759 136.367 166.759 136.367C161.991 139.81 158.879 141.201 151.595 144.313L138.483 133.188L117.227 151.068Z" fill="#FFA87D"/>
<path d="M87.425 135.109C93.5835 143.122 110.403 156.233 110.403 156.233C110.403 156.233 141.858 135.44 139.408 131.467C130.931 117.561 103.715 84.9143 83.187 104.251C77.8894 109.283 78.8165 124.05 87.425 135.109Z" fill="#5674B7"/>
<path d="M118.216 151.399C117.421 151.929 139.804 171.397 148.545 169.808C152.65 169.08 157.815 168.086 160.464 163.517C166.225 153.584 166.755 136.301 166.755 136.301" stroke="#333333" stroke-width="1.20884" stroke-linecap="round" stroke-linejoin="round"/>
<path d="M107.359 159.279C113.253 154.577 141.727 133.784 140.602 129.281" stroke="#333333" stroke-width="1.20884" stroke-linecap="round" stroke-linejoin="round"/>
</g>
<defs>
<clipPath id="clip0_3786_16833">
<rect width="245.013" height="247" fill="white" transform="translate(18.4922 3)"/>
</clipPath>
</defs>
</svg>
