<svg width="280" height="250" viewBox="0 0 280 250" fill="none" xmlns="http://www.w3.org/2000/svg">
<g clip-path="url(#clip0_3786_16356)">
<path d="M194.699 250C194.699 250 187.099 190.375 171.116 177.134C154.505 163.344 124.889 166.948 109.219 183.01C96.8392 195.703 102.872 250 102.872 250H194.699Z" fill="#99ABE5"/>
<path d="M212.174 144.462C217.424 139.212 211.626 107.794 207.552 109.047C205.828 109.596 207.552 73.6328 198.855 69.0884C186.24 62.4286 136.253 62.9771 124.97 72.4575C114.236 81.4678 115.411 100.742 115.96 104.111C122.306 146.107 186.789 150.965 198.933 150.808C201.91 150.73 208.257 148.379 212.174 144.462Z" fill="#252740"/>
<path d="M203.326 89.6945C203.326 80.9976 200.114 74.4945 195.961 73.6327C192.984 73.0059 190.32 75.2781 189.693 75.9049C185.149 80.2141 184.6 88.9894 188.283 98.8616" fill="#7981AD"/>
<path d="M192.518 74.4951C192.753 75.1219 192.048 75.357 192.283 76.0621C192.518 76.6889 193.223 76.4539 193.458 77.0807C193.693 77.7075 192.988 77.9425 193.223 78.6477C193.458 79.2745 194.163 79.0395 194.399 79.6663C194.634 80.2931 193.928 80.5281 194.163 81.2333C194.399 81.8601 195.104 81.625 195.339 82.2518C195.574 82.8786 194.869 83.1137 195.104 83.8188C195.339 84.4456 196.044 84.2106 196.279 84.8374C196.514 85.4642 195.809 85.6992 196.044 86.4044C196.279 87.0312 196.984 86.7962 197.219 87.423C197.454 88.0498 196.749 88.2848 196.984 88.99" stroke="#595F8E" stroke-width="0.491728" stroke-miterlimit="10" stroke-linecap="round"/>
<path d="M191.414 74.7305C192.668 79.0397 194.783 84.1325 196.115 88.4418Z" fill="#E8C4DB"/>
<path d="M191.414 74.7305C192.668 79.0397 194.783 84.1325 196.115 88.4418" stroke="#595F8E" stroke-width="0.655559" stroke-miterlimit="10" stroke-linecap="round"/>
<path d="M192.828 74.0244C194.552 78.9605 196.432 84.8368 198.078 89.6945Z" fill="#E8C4DB"/>
<path d="M192.828 74.0244C194.552 78.9605 196.432 84.8368 198.078 89.6945" stroke="#595F8E" stroke-width="0.655559" stroke-miterlimit="10" stroke-linecap="round"/>
<path d="M192.828 78.1774V80.763C192.828 81.5465 193.533 82.095 194.317 81.8599L195.257 81.5465C196.119 81.2331 196.354 80.2146 195.727 79.5877L194.082 77.9424L192.828 78.1774Z" fill="#B2AAAF" stroke="#595F8E" stroke-width="0.655559" stroke-miterlimit="10"/>
<path d="M193.769 78.7259L193.534 78.8043C193.221 78.8827 192.907 78.726 192.829 78.4125L192.75 78.1775C192.672 77.8641 192.829 77.5507 193.142 77.4723L193.377 77.394C193.691 77.3156 194.004 77.4723 194.082 77.7857L194.161 78.0208C194.317 78.3342 194.082 78.6476 193.769 78.7259Z" fill="#B2AAAF" stroke="#595F8E" stroke-width="0.655559" stroke-miterlimit="10"/>
<path d="M203.326 89.6945C203.326 80.9976 200.114 74.4945 195.961 73.6327C192.984 73.0059 190.32 75.2781 189.693 75.9049C185.149 80.2141 184.6 88.9894 188.283 98.8616" stroke="#A19FD4" stroke-width="0.655559" stroke-miterlimit="10" stroke-linecap="round"/>
<path d="M204.656 89.0677C204.734 79.6656 200.974 73.2409 196.038 72.3007C192.512 71.6739 189.456 74.1028 188.673 74.7296C183.266 79.3522 182.718 89.4595 187.027 100.115" stroke="#A19FD4" stroke-width="0.655559" stroke-miterlimit="10" stroke-linecap="round"/>
<path d="M192.512 87.4219L201.052 91.3394L203.324 121.739L194.47 95.9621L192.512 87.4219Z" fill="#A6A6BC"/>
<path d="M194.233 95.5709L192.039 86.874" stroke="#2D3161" stroke-width="0.488281" stroke-miterlimit="10" stroke-linecap="round" stroke-linejoin="round"/>
<path d="M192.041 86.874L197.526 93.6905L185.852 100.35L203.794 124.091L197.526 93.6905L192.041 86.874Z" fill="white" stroke="#2D3161" stroke-width="0.488281" stroke-miterlimit="10" stroke-linecap="round" stroke-linejoin="round"/>
<path d="M192.039 86.8733L200.893 91.3393L210.216 86.0898L203.792 127.146L200.893 91.3393L192.039 86.8733Z" fill="#EFEDEF" stroke="#2D3161" stroke-width="0.488281" stroke-miterlimit="10" stroke-linecap="round" stroke-linejoin="round"/>
<path d="M207.549 108.028C211.075 109.439 207.549 113.435 194.543 114.845" stroke="#A6B0D1" stroke-width="2.33759" stroke-miterlimit="10" stroke-linecap="round"/>
<path d="M216.639 133.179C220.165 134.589 216.639 138.585 203.633 139.995" stroke="#A6B0D1" stroke-width="1.55839" stroke-miterlimit="10" stroke-linecap="round"/>
<path d="M217.577 136.704C221.025 138.898 217.342 145.558 204.336 148.378" stroke="#A6B0D1" stroke-width="1.55839" stroke-miterlimit="10" stroke-linecap="round"/>
<path d="M212.014 117.117C215.54 118.527 212.014 122.523 199.008 123.934" stroke="#A6B0D1" stroke-width="1.55839" stroke-miterlimit="10" stroke-linecap="round"/>
<path d="M210.209 139.055C210.679 139.446 211.698 121.661 205.43 112.572" stroke="#A6B0D1" stroke-width="1.55839" stroke-miterlimit="10" stroke-linecap="round"/>
<path d="M203.713 141.406C204.183 141.798 203.869 124.326 197.68 115.237" stroke="#A6B0D1" stroke-width="1.55839" stroke-miterlimit="10" stroke-linecap="round"/>
<path d="M216.244 136.313C216.714 136.704 215.147 120.251 208.879 111.162" stroke="#A6B0D1" stroke-width="1.55839" stroke-miterlimit="10" stroke-linecap="round"/>
<path d="M214.752 125.5C218.278 126.91 214.752 130.906 201.746 132.316" stroke="#A6B0D1" stroke-width="1.55839" stroke-miterlimit="10" stroke-linecap="round"/>
<path d="M182.399 103.249C180.205 98.3128 173.154 94.8654 166.964 92.6716C166.65 90.9479 166.024 89.3025 164.848 87.8922C162.89 85.62 159.834 84.7582 156.857 84.2881C150.119 83.2695 139.698 82.5644 133.273 84.9149C129.121 86.4035 126.77 86.7169 124.733 89.2241C121.991 89.4592 120.267 89.6159 120.267 89.6159C120.267 89.6159 111.805 87.9705 99.6607 99.6448C50.77 146.577 76.7824 161.698 88.2999 161.698C110.003 161.698 96.9185 152.923 103.108 145.715C100.601 157.546 99.1906 176.428 102.56 185.909C103.657 189.121 119.954 213.331 179.03 187.397C185.063 184.733 180.44 174.783 181.145 175.096C200.968 184.028 210.37 169.847 210.84 155.665C211.859 128.713 183.731 104.267 182.399 103.249Z" fill="#6983D9"/>
<path d="M159.367 37.6685C149.573 19.883 126.147 22.0768 115.178 39.1572C111.73 44.5634 110.006 48.4809 109.066 58.5881C106.324 86.951 130.299 86.6376 130.299 86.6376L135.705 99.6438L155.45 88.4397L152.159 83.4253C152.159 83.4253 162.736 64.4644 162.501 50.9098C162.423 47.8541 160.856 40.2541 159.367 37.6685Z" fill="#FEA689"/>
<path d="M120.113 33.2026C120.113 33.2026 128.105 22.9387 142.13 23.017C151.375 23.017 157.8 24.5057 164.773 33.0459C171.746 41.6645 173.862 58.1964 171.276 64.5428C166.34 76.8439 151.924 83.4253 151.924 83.4253C156.546 74.2583 163.284 63.1325 160.777 54.0439C160.777 54.0439 158.192 49.2645 156.155 46.6006C155.919 46.2872 144.715 49.1078 139.936 27.248C139.074 23.5655 124.579 29.05 120.113 33.2026Z" fill="#8C5342"/>
<path d="M160.858 55.0632C162.816 54.4364 165.01 55.1415 166.42 56.5518C167.909 57.9621 168.614 59.9993 168.849 62.0364C169.241 65.4054 168.066 69.0096 165.48 71.125C162.895 73.3188 158.82 73.6322 156.078 71.5951L160.858 55.0632Z" fill="#FEA689"/>
<path d="M163.903 64.8569C163.433 64.4651 162.257 64.0734 161.709 63.995C160.69 63.8383 159.907 64.3084 159.123 64.8569C158.183 65.4837 157.321 64.2301 157.948 63.4466C158.888 62.3497 160.534 61.8796 161.865 62.193C162.492 62.3497 163.041 62.5847 163.511 63.0548C164.059 63.6033 163.981 63.995 164.216 64.7002C164.216 64.8569 164.059 64.9352 163.903 64.8569Z" fill="#333333"/>
<path d="M148.794 53.2601C148.089 52.8683 138.687 32.8889 141.116 25.4456C141.116 25.4456 137.277 41.5075 137.355 44.8766H130.617C130.617 44.8766 129.833 44.4848 129.833 37.6683C129.833 29.5982 135.631 24.8972 135.631 24.8972C135.631 24.8972 122.39 31.557 122.86 43.858L115.652 44.1714C115.652 44.1714 117.14 38.3735 116.984 39.0786C116.827 39.7838 112.283 45.9735 112.283 45.9735C112.283 45.9735 104.213 41.6642 104.839 41.8209C105.466 41.9776 111.734 7.8951 144.093 21.9982C144.72 22.3116 157.569 19.3343 168.068 29.1281C175.12 35.7096 177.392 46.5219 175.433 51.0663C175.433 51.0663 164.229 52.9467 157.726 48.559C157.726 48.559 159.606 53.4951 158.588 53.9652C157.569 54.4353 151.066 54.6704 148.794 53.2601Z" fill="#8C5342"/>
<path d="M141.97 22.1555C129.512 16.6709 116.114 19.4915 106.321 28.6586C105.694 29.207 104.91 28.3452 105.459 27.7967C115.174 17.5328 129.826 15.4957 142.44 21.4503C142.832 21.6854 142.44 22.3905 141.97 22.1555Z" fill="#8C5342"/>
<path d="M142.835 23.0173C141.033 20.1183 138.682 17.6894 136.018 15.4956C135.313 14.8688 136.253 13.5368 137.037 14.1637C139.936 16.3575 142.129 19.1781 143.853 22.3905C144.323 23.0956 143.305 23.6441 142.835 23.0173Z" fill="#8C5342"/>
<path d="M141.668 22.7821C143 19.6481 145.899 16.7491 148.641 14.947C149.582 14.3202 150.757 15.8089 149.895 16.5924C148.641 17.6893 147.309 18.7862 146.134 19.9615C144.881 21.1367 143.862 22.3904 142.53 23.4873C142.06 23.879 141.433 23.4089 141.668 22.7821Z" fill="#8C5342"/>
<g opacity="0.5">
<path d="M136.018 62.3506C135.94 63.7609 137.742 65.0145 140.092 65.1712C142.443 65.3279 144.402 64.3093 144.48 62.899C144.558 61.4887 142.756 60.2351 140.406 60.0784C138.055 59.9217 136.096 60.9403 136.018 62.3506Z" fill="#BF5345"/>
</g>
<g opacity="0.5">
<path d="M113.227 58.9025C112.835 60.2344 114.323 61.8798 116.596 62.5066C118.868 63.1334 120.983 62.5849 121.375 61.1746C121.767 59.8427 120.278 58.1973 118.006 57.5705C115.734 56.9437 113.618 57.4921 113.227 58.9025Z" fill="#BF5345"/>
</g>
<path d="M141.041 56.4742C141.041 57.4927 140.257 58.3546 139.395 58.3546C138.455 58.3546 137.75 57.4927 137.75 56.4742C137.75 55.4556 138.533 54.5938 139.395 54.5938C140.336 54.5938 141.041 55.4556 141.041 56.4742Z" fill="#333333"/>
<path d="M123.099 54.5943C123.099 55.6128 122.316 56.4747 121.454 56.4747C120.514 56.4747 119.809 55.6128 119.809 54.5943C119.809 53.5757 120.592 52.7139 121.454 52.7139C122.394 52.7922 123.099 53.5757 123.099 54.5943Z" fill="#333333"/>
<path d="M136.023 48.2476C136.729 47.9342 138.609 47.3074 141.038 47.9342C143.388 48.561 144.799 50.128 145.269 50.7548" stroke="#8C5342" stroke-width="2.33539" stroke-miterlimit="10" stroke-linecap="round"/>
<path d="M124.434 71.3611C124.747 71.2827 125.687 71.2044 126.706 71.5178C127.724 71.8312 128.273 72.3013 128.508 72.5364" stroke="#333333" stroke-width="1.3112" stroke-miterlimit="10" stroke-linecap="round"/>
<path d="M117.297 48.2477C117.767 47.7776 119.256 46.6807 121.528 46.6807C123.722 46.6807 125.367 47.8559 125.994 48.2477" stroke="#8C5342" stroke-width="2.20478" stroke-miterlimit="10" stroke-linecap="round"/>
<path d="M127.246 59.373C127.089 59.9999 126.854 60.7834 126.227 61.0184C125.365 61.4102 124.66 60.47 123.877 60.8617C123.093 61.1751 122.702 62.4287 122.858 63.4473C123.172 64.9359 124.66 65.5627 124.739 65.5627" stroke="#333333" stroke-width="1.3112" stroke-miterlimit="10" stroke-linecap="round" stroke-linejoin="round"/>
<path d="M130.449 86.7174C131.781 86.4824 133.191 86.6391 134.602 86.404C136.169 86.169 137.579 85.5422 139.068 84.9154C139.851 84.602 140.243 85.9339 139.616 86.404C137.109 88.1277 133.035 89.068 130.371 87.2659C130.136 87.1875 130.136 86.7958 130.449 86.7174Z" fill="#333333"/>
<path d="M152.24 115.549C152.24 115.549 159.056 119.701 158.351 122.522C157.646 125.421 100.293 145.087 100.293 145.087L72.4789 130.122L64.8789 107.792C64.8789 107.792 68.248 104.501 70.6768 104.109C73.0274 103.796 86.7387 108.34 98.9614 132.081C99.0398 132.081 135.316 112.806 152.24 115.549Z" fill="white"/>
<path d="M162.427 122.13C162.427 122.13 168.225 149.631 166.188 154.019C164.15 158.406 113.458 173.528 108.6 173.449C103.742 173.371 81.7257 151.825 79.3751 147.202C77.0246 142.579 58.8473 105.755 61.5896 105.049C64.3318 104.344 95.5937 136.781 95.5937 136.781L102.724 137.487C102.724 137.487 143.936 121.738 157.882 118.291C160.625 117.664 162.27 121.738 162.427 122.13Z" fill="#87D3F6"/>
<path d="M108.76 173.607C106.488 161.776 104.215 149.945 101.943 138.035C101.787 137.252 103.04 136.86 103.197 137.722C105.469 149.553 107.741 161.384 110.013 173.293C110.17 174.077 108.916 174.468 108.76 173.607Z" fill="#333333"/>
<path d="M95.9865 137.173C97.005 143.598 98.0236 150.023 99.0421 156.448C99.5123 159.268 99.7473 162.167 100.531 164.988C101.001 166.79 101.471 168.827 102.49 170.472C102.96 171.178 101.784 171.804 101.393 171.099C100.452 169.532 99.904 167.573 99.4339 165.85C98.6504 163.107 98.4153 160.209 97.9452 157.31C96.9267 150.728 95.8298 144.147 94.8112 137.565C94.6545 136.703 95.8298 136.39 95.9865 137.173Z" fill="#333333"/>
<path d="M155.053 117.664C135.857 121.425 117.131 127.537 99.4238 135.999C98.7186 136.39 98.0135 135.215 98.797 134.902C116.583 126.44 135.387 120.172 154.739 116.489C155.523 116.254 155.836 117.508 155.053 117.664Z" fill="#333333"/>
<path d="M97.0016 136.078C89.715 125.736 80.3129 117.039 69.5005 110.457C68.7954 110.065 69.4222 108.89 70.1273 109.36C81.0964 116.02 90.6552 124.952 98.0985 135.451C98.5686 136.078 97.4717 136.783 97.0016 136.078Z" fill="#333333"/>
<path d="M156.15 139.525C161.713 148.379 152.39 162.012 140.089 162.012C127.866 162.012 120.109 162.482 117.132 149.476C114.155 136.548 123.322 129.104 133.742 130.985C144.163 133.022 150.588 130.671 156.15 139.525Z" fill="white"/>
<path d="M148.556 142.502C148.478 142.424 148.399 142.346 148.243 142.189C148.87 141.405 149.183 140.543 149.183 139.525C149.183 136.783 146.519 134.589 143.307 134.589C140.016 134.589 137.43 136.783 137.43 139.525C137.43 140.23 137.665 140.935 137.979 141.562C137.587 141.64 137.195 141.719 136.804 141.797C134.845 142.189 133.043 142.502 131.319 142.972C130.771 141.17 129.36 139.838 127.558 139.838C125.364 139.838 123.641 141.875 123.641 144.461C123.641 145.245 123.797 145.95 124.111 146.576C123.641 147.125 123.249 147.673 123.014 148.379C122.23 150.337 122.309 153.001 123.641 154.96C127.245 159.974 138.449 157.311 144.639 153.628C149.105 150.964 149.731 148.535 149.888 147.752C149.888 147.595 150.437 144.539 148.556 142.502Z" fill="#0E8621"/>
<path d="M127.245 147.125C127.808 147.125 128.264 146.669 128.264 146.106C128.264 145.544 127.808 145.088 127.245 145.088C126.683 145.088 126.227 145.544 126.227 146.106C126.227 146.669 126.683 147.125 127.245 147.125Z" fill="#333333"/>
<path d="M142.995 142.503C143.558 142.503 144.014 142.047 144.014 141.484C144.014 140.922 143.558 140.466 142.995 140.466C142.433 140.466 141.977 140.922 141.977 141.484C141.977 142.047 142.433 142.503 142.995 142.503Z" fill="#333333"/>
<path d="M132.109 148.379C133.99 149.554 136.34 148.927 137.516 147.125" stroke="#333333" stroke-width="0.994033" stroke-miterlimit="10" stroke-linecap="round"/>
<path d="M117.215 167.887L116.04 167.26L114.865 167.887C113.533 168.592 111.966 167.495 112.279 166.007L112.514 164.675L111.574 163.734C110.477 162.716 111.104 160.914 112.514 160.679L113.846 160.444L114.395 159.269C115.022 157.937 116.98 157.937 117.607 159.269L118.234 160.444L119.566 160.6C121.055 160.835 121.681 162.638 120.585 163.656L119.644 164.596L119.879 165.85C120.114 167.417 118.547 168.592 117.215 167.887Z" fill="white"/>
<path d="M116.197 165.301C117.279 165.301 118.156 164.424 118.156 163.343C118.156 162.261 117.279 161.384 116.197 161.384C115.115 161.384 114.238 162.261 114.238 163.343C114.238 164.424 115.115 165.301 116.197 165.301Z" fill="#DAE240"/>
<path d="M157.175 133.021L155.765 132.316L154.355 133.021C152.788 133.883 150.907 132.551 151.221 130.749L151.456 129.182L150.359 128.085C149.105 126.832 149.732 124.716 151.534 124.403L153.101 124.168L153.806 122.758C154.59 121.191 156.862 121.112 157.645 122.758L158.351 124.168L159.918 124.403C161.72 124.638 162.425 126.832 161.171 128.085L160.074 129.182L160.388 130.749C160.544 132.473 158.742 133.805 157.175 133.021Z" fill="white"/>
<path d="M155.917 129.888C157.172 129.888 158.189 128.871 158.189 127.616C158.189 126.361 157.172 125.344 155.917 125.344C154.662 125.344 153.645 126.361 153.645 127.616C153.645 128.871 154.662 129.888 155.917 129.888Z" fill="#DAE240"/>
<path d="M92.6926 158.093C92.4576 158.093 92.2225 158.014 91.9875 157.936C91.5174 157.701 91.1256 157.309 90.5772 156.604C89.7153 155.507 88.6968 153.235 87.2864 149.239C86.8163 148.769 86.1895 148.064 85.406 147.124L85.0926 147.594H84.3875C83.6823 147.594 83.2122 147.045 82.9772 146.732C82.7421 146.418 82.5071 146.027 82.272 145.635C82.037 145.165 81.8019 144.773 81.7236 144.46C81.5669 144.068 81.4102 143.519 81.3318 141.717C81.2535 141.639 81.2535 141.561 81.2535 141.482C81.0967 141.169 80.8617 140.385 81.2535 139.759L81.4101 139.602C81.6452 129.651 82.5854 129.651 83.6823 129.651C83.9957 129.651 84.2308 129.73 84.4658 129.965C85.5627 130.748 86.5029 132.394 87.3648 135.058C88.1483 137.878 89.3236 141.717 90.8122 146.653C91.9875 150.493 92.6926 152.686 92.8493 153.157C93.006 153.627 93.2411 154.097 93.4761 154.724C93.7895 155.429 93.9462 155.977 94.0246 156.291C94.1029 156.526 94.2596 157.231 93.7895 157.779C93.4761 157.936 93.0844 158.093 92.6926 158.093Z" fill="#0E8621"/>
<path d="M83.6021 130.748C83.6021 130.748 83.6805 130.748 83.6805 130.827C84.5423 131.453 85.4042 133.02 86.1877 135.371C86.9712 138.192 88.1465 142.187 89.5568 146.967C90.8104 151.041 91.4372 153.078 91.5939 153.548C91.7506 154.018 91.9856 154.488 92.2207 155.115C92.4557 155.82 92.6124 156.29 92.6908 156.604C92.7691 156.917 92.7691 157.074 92.6124 157.074C92.5341 157.074 92.5341 157.074 92.4557 156.996C92.2207 156.839 91.8289 156.526 91.4372 155.977C90.6537 154.959 89.6351 152.686 88.2248 148.69C87.7547 148.22 87.1279 147.437 86.1877 146.418C85.3258 145.478 84.7774 144.851 84.464 144.46C84.464 145.713 84.464 146.34 84.3856 146.497C84.3856 146.497 84.3856 146.497 84.3073 146.497C84.2289 146.497 84.0722 146.34 83.8372 146.105C83.6021 145.87 83.4454 145.478 83.2104 145.086C82.9753 144.695 82.8186 144.381 82.6619 143.989C82.5052 143.598 82.4269 142.814 82.2702 141.404C82.1918 141.247 82.1135 141.09 82.1135 141.012C81.9568 140.62 81.9568 140.385 82.0351 140.385C82.1135 140.385 82.1918 140.464 82.2702 140.542C82.5836 134.979 82.9753 130.748 83.6021 130.748ZM87.1279 145.243C86.7361 143.911 86.1093 142.109 85.3258 139.68C85.1691 140.855 85.0124 141.874 84.7774 142.814C85.0124 143.049 85.4042 143.441 85.8743 143.989C86.5794 144.616 86.9712 145.086 87.1279 145.243ZM83.6021 128.319C81.0165 128.319 80.7031 131.297 80.4681 133.255C80.3114 134.744 80.1547 136.781 80.1547 139.132C79.4495 140.229 79.9196 141.404 80.0763 141.796C80.0763 141.796 80.0763 141.874 80.1547 141.952C80.3114 143.676 80.4681 144.303 80.6248 144.851C80.7815 145.243 81.0165 145.713 81.2516 146.183C81.565 146.653 81.8001 147.123 82.1135 147.437C82.4269 147.829 83.132 148.769 84.464 148.769C84.699 148.769 85.0124 148.69 85.2475 148.612C85.6392 149.082 86.031 149.474 86.266 149.787C87.7547 153.783 88.7732 156.055 89.6351 157.309C90.2619 158.171 90.8887 158.719 91.4372 158.954C91.8289 159.111 92.2207 159.268 92.6124 159.268C93.3959 159.268 94.1011 158.954 94.5712 158.328C95.1196 157.622 95.198 156.839 94.9629 155.82C94.8846 155.429 94.6495 154.88 94.4145 154.097C94.1794 153.47 93.9444 153 93.7877 152.53C93.7093 152.216 93.2392 150.884 91.8289 146.105C90.3403 141.169 89.165 137.33 88.4598 134.587V134.509V134.431C87.5196 131.532 86.4227 129.73 85.1691 128.789C84.699 128.554 84.1506 128.319 83.6021 128.319Z" fill="white"/>
<path d="M83.8351 133.334L83.2866 132.785H82.8948C82.5031 132.785 81.8763 132.002 81.7196 131.453L81.5629 130.905L81.0144 130.278C80.3876 129.495 80.0742 128.398 80.6227 128.398L81.1711 128.476L81.0928 127.457C81.0144 126.047 82.1897 126.282 82.9732 128.006L83.5216 129.338L84.3835 129.808C85.4804 130.435 85.8722 132.002 85.167 132.315L84.6186 132.55L84.7753 133.255C85.0887 133.882 84.3835 133.882 83.8351 133.334Z" fill="#F2FFA4"/>
<path d="M83.9084 131.453C83.9868 132.08 83.6734 132.237 83.2033 132.002C82.7332 131.767 82.2631 131.14 82.1064 130.513C81.8713 129.808 82.1064 129.416 82.6548 129.651C83.2033 129.886 83.7517 130.748 83.9084 131.453Z" fill="#DAE240"/>
<path d="M94.0226 156.291L93.2391 155.586L92.6907 155.508C92.1422 155.429 91.1236 154.489 90.8886 153.705L90.6535 152.922L89.87 151.982C88.9298 150.885 88.4597 149.318 89.2432 149.396L90.0267 149.475L89.9484 148.143C89.7917 146.184 91.5937 146.497 92.769 148.926L93.6309 150.728L94.9628 151.433C96.6865 152.295 97.235 154.567 96.1381 154.959L95.3546 155.272L95.5896 156.213C95.903 157.153 94.9628 157.075 94.0226 156.291Z" fill="#F2FFA4"/>
<path d="M94.0967 153.706C94.2534 154.568 93.705 154.803 92.9998 154.489C92.2947 154.176 91.5895 153.236 91.3545 152.452C91.0411 151.512 91.3545 150.885 92.138 151.199C93.0782 151.512 93.94 152.687 94.0967 153.706Z" fill="#DAE240"/>
<path d="M80.3129 144.539L79.7644 143.912H79.3727C78.9809 143.912 78.1974 142.972 78.0407 142.345L77.884 141.64L77.2572 140.856C76.5521 139.916 76.2387 138.584 76.7871 138.584L77.3356 138.662L77.2572 137.487C77.1789 135.763 78.5108 135.999 79.3727 138.114L79.9995 139.681L81.018 140.308C82.2717 141.091 82.7418 142.972 81.8799 143.363L81.2531 143.599L81.4098 144.46C81.7232 145.322 80.9397 145.244 80.3129 144.539Z" fill="#F2FFA4"/>
<path d="M80.3882 142.267C80.4666 142.972 80.0748 143.285 79.6047 142.893C79.1346 142.58 78.5862 141.796 78.3511 141.091C78.1161 140.308 78.3511 139.759 78.9779 139.994C79.6047 140.386 80.2315 141.483 80.3882 142.267Z" fill="#DAE240"/>
<path d="M153.431 157.7C154.058 157.465 153.979 158.405 153.431 157.7C152.961 156.995 147.633 156.681 146.693 156.681C145.753 156.603 141.6 155.741 141.13 154.017C140.738 152.294 143.089 151.902 143.089 151.902C142.07 151.745 141.443 151.353 141.052 150.883C140.346 150.1 140.503 148.846 141.443 148.298C144.107 146.888 150.689 148.141 151.394 148.063C152.256 147.984 154.371 148.376 154.371 148.376C154.528 147.749 154.449 148.219 153.509 147.906C152.021 147.358 146.379 146.026 144.421 145.634C142.462 145.164 143.01 142.578 143.01 142.578C143.48 140.071 151.55 142.578 154.136 142.97C157.113 143.44 159.072 143.989 159.072 143.989C157.505 142.186 154.92 142.892 154.293 141.011C153.588 139.131 154.293 137.015 155.703 137.25C157.035 137.485 158.68 138.034 161.188 139.601C162.99 140.776 165.419 142.108 167.221 143.91C173.41 150.1 173.175 147.358 174.037 149.16C177.406 156.211 172.862 160.756 172.862 160.756C172.862 160.756 166.124 162.479 163.538 162.714C162.363 162.793 158.837 163.106 155.938 162.793C155.625 162.793 141.835 161.852 142.305 158.483C142.775 155.193 153.431 157.7 153.431 157.7Z" fill="#FEA689"/>
<path d="M145.345 156.214C148.558 156.449 151.77 156.762 154.983 157.232C155.296 157.311 155.531 157.703 155.453 158.016C155.374 158.408 154.983 158.486 154.669 158.486C151.613 158.016 148.479 157.703 145.345 157.467C144.562 157.467 144.562 156.214 145.345 156.214Z" fill="#333333"/>
<path d="M142.998 151.511C146.994 151.903 150.911 152.295 154.907 152.687C155.691 152.765 155.691 154.019 154.907 153.94C150.911 153.548 146.994 153.157 142.998 152.765C142.136 152.687 142.136 151.433 142.998 151.511Z" fill="#333333"/>
<path d="M151.221 147.36C152.944 147.517 154.668 147.674 156.392 147.909C156.705 147.909 157.018 148.222 157.018 148.536C157.018 148.849 156.705 149.241 156.392 149.162C154.668 149.006 152.944 148.849 151.221 148.614C150.907 148.614 150.594 148.301 150.594 147.987C150.594 147.674 150.907 147.36 151.221 147.36Z" fill="#333333"/>
<path d="M145.803 161.149C145.803 161.071 145.803 160.992 145.803 161.149C145.803 161.071 145.803 160.992 145.803 160.992C145.803 160.914 145.724 160.835 145.724 160.679C145.724 160.679 145.646 160.522 145.724 160.6C145.724 160.679 145.724 160.522 145.724 160.522C145.646 160.444 145.646 160.365 145.568 160.287C145.489 160.209 145.489 160.13 145.411 160.052C145.411 159.974 145.333 159.974 145.333 159.895C145.254 159.817 145.176 159.739 145.176 159.739L145.098 159.66C145.176 159.66 145.019 159.582 145.019 159.582C144.941 159.504 144.862 159.504 144.784 159.425C144.706 159.425 144.706 159.347 144.627 159.347C144.549 159.347 144.471 159.268 144.314 159.268C144.236 159.268 144.236 159.268 144.157 159.268C144.157 159.268 144.001 159.268 144.079 159.268C143.766 159.19 143.374 159.268 143.06 159.347C142.747 159.425 142.355 159.19 142.277 158.877C142.199 158.485 142.434 158.172 142.747 158.093C143.687 157.78 144.862 157.937 145.724 158.563C146.586 159.19 147.135 160.13 147.213 161.149C147.213 161.462 146.9 161.776 146.586 161.776C146.038 161.776 145.881 161.462 145.803 161.149Z" fill="#333333"/>
<path d="M145.587 156.762C145.587 156.605 145.587 156.527 145.587 156.37C145.587 156.213 145.587 156.213 145.587 156.135C145.508 155.9 145.508 155.743 145.43 155.586C145.351 155.351 145.195 155.195 145.116 155.116C145.038 155.038 144.96 154.96 144.881 154.881C144.803 154.803 144.803 154.803 144.646 154.725C143.941 154.333 143.079 154.333 142.374 154.803C142.061 154.96 141.669 154.803 141.512 154.568C141.356 154.255 141.512 153.863 141.747 153.706C142.766 153.001 144.255 153.001 145.273 153.628C146.37 154.255 146.997 155.587 146.84 156.84C146.84 157.154 146.527 157.467 146.213 157.467C145.9 157.467 145.508 157.154 145.587 156.762Z" fill="#333333"/>
<path d="M144.633 152.216C144.633 152.138 144.633 152.138 144.633 152.06C144.633 152.138 144.633 151.981 144.633 151.981C144.633 151.903 144.633 151.903 144.633 151.825C144.633 151.825 144.633 151.668 144.633 151.746C144.633 151.668 144.633 151.59 144.554 151.511C144.554 151.511 144.476 151.355 144.554 151.433C144.554 151.511 144.554 151.355 144.554 151.355C144.476 151.276 144.476 151.198 144.398 151.12L144.319 151.041C144.398 151.12 144.319 150.963 144.241 150.963C144.162 150.884 144.084 150.806 144.006 150.728L143.927 150.649C144.006 150.728 143.927 150.649 143.849 150.649C143.066 150.101 142.125 150.101 141.264 150.179C140.95 150.179 140.637 149.866 140.637 149.552C140.637 149.161 140.95 148.926 141.264 148.926C142.439 148.769 143.771 148.926 144.711 149.709C145.573 150.414 146.043 151.511 145.808 152.608C145.729 152.922 145.338 153.157 145.024 153.078C144.711 152.922 144.554 152.53 144.633 152.216Z" fill="#333333"/>
<path d="M145.583 145.95C145.583 145.871 145.583 145.793 145.583 145.715C145.583 145.636 145.583 145.636 145.583 145.558C145.583 145.479 145.505 145.401 145.505 145.323C145.505 145.244 145.505 145.244 145.505 145.166C145.505 145.166 145.426 145.009 145.505 145.088C145.583 145.166 145.505 145.009 145.505 145.009C145.505 145.009 145.505 144.931 145.426 144.931C145.426 144.853 145.348 144.774 145.27 144.696L145.191 144.618L145.113 144.539C145.113 144.618 145.035 144.461 145.035 144.461C145.035 144.383 144.956 144.383 144.956 144.383C144.721 144.148 144.486 143.991 144.173 143.834C144.094 143.834 144.094 143.834 144.016 143.756C143.938 143.756 143.781 143.677 143.703 143.677C143.624 143.677 143.624 143.677 143.546 143.677C143.468 143.677 143.624 143.677 143.468 143.677C143.389 143.677 143.233 143.677 143.154 143.677C142.841 143.677 142.527 143.364 142.527 143.051C142.527 142.737 142.841 142.424 143.154 142.424C144.173 142.424 145.113 142.816 145.818 143.599C146.445 144.304 146.758 145.166 146.758 146.106C146.758 146.42 146.445 146.733 146.131 146.733C145.896 146.576 145.583 146.341 145.583 145.95Z" fill="#333333"/>
<path d="M159.445 139.366C158.035 140.306 156.076 140.463 154.509 139.836C154.195 139.679 153.96 139.366 154.039 139.053C154.117 138.739 154.509 138.426 154.822 138.582C155.136 138.739 155.527 138.817 155.919 138.896C155.997 138.896 155.997 138.896 155.919 138.896C155.997 138.896 155.997 138.896 156.076 138.896C156.154 138.896 156.232 138.896 156.311 138.896C156.467 138.896 156.703 138.896 156.859 138.896C156.938 138.896 156.938 138.896 157.016 138.896C157.094 138.896 157.173 138.896 157.251 138.817C157.408 138.817 157.643 138.739 157.799 138.661C157.878 138.661 157.878 138.661 157.956 138.582C158.035 138.582 158.035 138.504 157.956 138.582C158.035 138.582 158.113 138.504 158.191 138.504C158.348 138.426 158.505 138.347 158.74 138.191C159.053 138.034 159.445 138.112 159.602 138.426C159.915 138.817 159.758 139.131 159.445 139.366Z" fill="#333333"/>
<path d="M67.9313 126.206C67.9313 126.206 65.9725 123.777 66.3643 121.897C66.8344 119.468 70.987 114.375 73.4942 114.375C76.0014 114.453 76.3148 117.509 75.3746 118.449C74.4344 119.389 71.6138 121.192 70.9086 122.367C70.2818 123.385 70.9086 124.012 70.9086 124.012C70.9086 124.012 76.3148 119.86 78.587 121.192C80.9375 122.523 79.4488 124.482 79.4488 124.482C79.4488 124.482 83.053 126.128 79.9973 129.575C79.9973 129.575 80.7808 131.455 79.6839 133.101C78.587 134.746 74.2777 137.41 74.2777 137.41C74.2777 137.41 76.2365 140.936 75.688 141.249C73.886 142.189 68.1664 137.567 69.1066 135.216C69.1066 135.216 67.4612 132.866 68.088 131.064L68.4798 130.202C68.5581 130.123 66.6777 127.851 67.9313 126.206Z" fill="#FEA689"/>
<path d="M69.6628 135.373C70.7597 133.336 72.8752 131.847 74.834 130.75C75.7742 130.202 76.7927 129.81 77.8113 129.575C78.3598 129.418 79.2216 129.262 79.6134 129.732C80.0835 130.202 80.7886 129.497 80.3969 128.948C79.8484 128.321 78.9082 128.321 78.1247 128.4C76.9494 128.557 75.7742 129.027 74.7556 129.575C72.4835 130.75 70.0546 132.474 68.801 134.746C68.4092 135.451 69.3494 136 69.6628 135.373Z" fill="#333333"/>
<path d="M68.6414 131.219C71.4621 128.085 75.2229 125.578 79.4538 125.108C80.159 125.029 80.159 124.011 79.4538 124.089C74.9095 124.559 70.9136 127.145 67.9363 130.514C67.4662 130.984 68.1713 131.768 68.6414 131.219Z" fill="#333333"/>
<path d="M68.0111 127.536C68.6379 126.439 69.6565 125.42 70.5967 124.637C72.5554 123.07 74.9059 122.051 77.2565 121.425C77.8833 121.268 77.6482 120.249 77.0214 120.406C74.4359 121.033 72.0853 122.13 69.9699 123.775C68.873 124.637 67.776 125.734 67.0709 126.987C66.7575 127.536 67.6977 128.084 68.0111 127.536Z" fill="#333333"/>
<path d="M74.7436 130.672C75.3704 131.847 76.6241 132.474 77.956 132.317C79.2096 132.16 80.3065 131.142 80.6199 129.888C80.6983 129.575 80.5416 129.34 80.2282 129.261C79.9931 129.183 79.6797 129.34 79.6014 129.653C79.4447 130.515 78.7395 131.22 77.8777 131.298C77.0158 131.377 76.1539 130.907 75.7622 130.123C75.6055 129.888 75.2921 129.81 75.057 129.888C74.6653 130.123 74.5869 130.436 74.7436 130.672Z" fill="#333333"/>
<path d="M75.6138 126.126C76.0056 127.145 77.0241 127.928 78.1211 127.928C79.218 127.928 80.3149 127.223 80.4716 126.126C80.5499 125.499 80.3932 124.872 80.0015 124.402C79.8448 124.167 79.453 124.246 79.218 124.402C78.9829 124.637 79.0613 124.951 79.218 125.186C79.2963 125.264 79.2963 125.264 79.218 125.186C79.218 125.186 79.218 125.264 79.2963 125.264C79.2963 125.342 79.3747 125.342 79.3747 125.421C79.2963 125.342 79.3747 125.499 79.3747 125.499C79.3747 125.578 79.3747 125.578 79.3747 125.656C79.3747 125.578 79.3747 125.734 79.3747 125.734C79.3747 125.813 79.3747 125.891 79.3747 125.969C79.3747 125.891 79.3747 126.048 79.3747 126.048C79.3747 126.126 79.3747 126.204 79.2963 126.283C79.2963 126.361 79.2963 126.283 79.2963 126.361C79.2963 126.439 79.218 126.439 79.218 126.518L79.1396 126.596C79.1396 126.674 79.0613 126.674 79.0613 126.674C78.9829 126.753 78.9829 126.753 79.0613 126.674L78.9829 126.753C78.9046 126.753 78.9046 126.831 78.8262 126.831C78.8262 126.831 78.7479 126.831 78.7479 126.909C78.6695 126.909 78.6695 126.909 78.7479 126.909H78.6695C78.4345 126.988 78.2778 126.988 78.0427 126.988C77.8076 126.988 77.6509 126.909 77.4942 126.753C77.3375 126.674 77.3375 126.674 77.2592 126.596C77.1808 126.518 77.1025 126.439 76.9458 126.283C76.9458 126.283 76.8674 126.126 76.8674 126.204C76.7891 126.126 76.7891 126.048 76.7107 126.048C76.6324 125.969 76.554 125.813 76.554 125.734C76.4757 125.499 76.0839 125.421 75.8489 125.499C75.5355 125.499 75.5355 125.813 75.6138 126.126Z" fill="#333333"/>
<path d="M73.8125 122.051C74.0476 123.462 75.5362 124.245 76.7898 124.167C77.4166 124.167 78.2001 124.01 78.7486 123.618C79.3754 123.227 79.5321 122.521 79.297 121.816C78.9836 121.033 78.2785 120.641 77.495 120.328C77.2599 120.249 76.9465 120.406 76.8682 120.719C76.7898 121.033 76.9465 121.268 77.2599 121.346C77.5733 121.424 77.8867 121.581 78.0434 121.738C78.1218 121.816 78.1218 121.816 78.2001 121.895C78.2785 121.973 78.2785 121.973 78.2001 121.895C78.2001 121.895 78.2001 121.973 78.2785 121.973C78.2785 121.973 78.3568 122.208 78.3568 122.051C78.3568 122.13 78.4352 122.208 78.4352 122.286C78.4352 122.208 78.4352 122.365 78.4352 122.365V122.443C78.4352 122.365 78.4352 122.365 78.4352 122.443C78.4352 122.521 78.3568 122.6 78.2785 122.6C78.0434 122.756 77.73 122.835 77.4166 122.913C76.8682 122.992 76.2414 123.07 75.7713 122.835C75.2228 122.6 74.9094 122.208 74.7527 121.66C74.6744 121.346 74.3609 121.189 74.1259 121.268C73.9692 121.503 73.8125 121.738 73.8125 122.051Z" fill="#333333"/>
<path d="M69.8851 117.273C70.8253 117.821 72.0789 117.821 73.0191 117.351C73.4892 117.116 74.0377 116.646 74.2727 116.176C74.5861 115.549 74.5078 114.844 74.0377 114.374C73.881 114.139 73.4892 114.217 73.2542 114.374C73.0191 114.609 73.0975 114.922 73.2542 115.157C73.3325 115.236 73.3325 115.392 73.3325 115.471C73.3325 115.628 73.2542 115.784 73.1758 115.941C73.0191 116.254 72.6274 116.411 72.314 116.568C71.6872 116.803 70.9037 116.803 70.3552 116.411C69.8068 116.019 69.3366 116.96 69.8851 117.273Z" fill="#333333"/>
<path d="M144.634 248.039C143.615 223.75 144.32 225.396 136.172 212.39" stroke="#333333" stroke-width="0.994033" stroke-miterlimit="10" stroke-linecap="round" stroke-linejoin="round"/>
<path d="M179.42 202.126C179.42 202.126 167.589 202.126 165.316 194.447" stroke="#333333" stroke-width="0.994033" stroke-miterlimit="10" stroke-linecap="round" stroke-linejoin="round"/>
<path d="M105.926 208.629C105.926 208.629 114.858 204.868 113.212 197.816" stroke="#333333" stroke-width="0.994033" stroke-miterlimit="10" stroke-linecap="round" stroke-linejoin="round"/>
<path d="M132.326 104.893C123.394 99.3298 112.19 118.917 132.404 104.893M132.326 104.893C138.751 125.577 139.456 99.8782 132.404 104.893M132.326 104.893C133.266 107.948 128.8 104.187 132.404 104.893" stroke="#CFF4FF" stroke-width="1.02718" stroke-linecap="round" stroke-linejoin="round"/>
<path d="M131.62 105.912C132.012 106.382 132.717 116.803 127.859 116.96" stroke="#CFF4FF" stroke-width="0.866165" stroke-linecap="round" stroke-linejoin="round"/>
<path d="M131.073 105.598C130.524 105.754 121.671 112.806 122.297 114.921" stroke="#CFF4FF" stroke-width="0.866165" stroke-linecap="round" stroke-linejoin="round"/>
<path d="M170.797 163.499C173.226 159.816 174.479 155.429 174.009 151.041C173.931 149.552 173.539 148.142 173.226 146.653C173.617 147.28 174.009 147.985 174.323 148.69C176.516 153.627 175.185 160.13 170.797 163.499Z" fill="#333333"/>
<path d="M124.104 89.3008C121.44 96.1956 127.473 102.072 130.528 104.501C131.469 105.284 132.722 105.598 133.897 105.441C147.374 103.561 158.891 99.173 166.57 92.8266" stroke="#333333" stroke-width="0.994033" stroke-miterlimit="10" stroke-linecap="round"/>
<path d="M130.367 87.1855C133.188 94.1587 135.617 99.3299 135.617 99.3299C135.303 99.6433 147.761 94.0804 155.439 88.5175" stroke="#333333" stroke-width="0.994033" stroke-miterlimit="10" stroke-linecap="round"/>
<path d="M182.55 175.564C181.296 175.564 170.014 174.154 165.156 163.028" stroke="#333333" stroke-width="0.994033" stroke-miterlimit="10" stroke-linecap="round"/>
<path d="M176.441 135.371C177.382 134.509 186.94 128.32 197.831 133.726" stroke="#333333" stroke-width="0.994033" stroke-miterlimit="10" stroke-linecap="round"/>
<path d="M105.847 128.085C105.534 126.753 105.534 114.374 111.645 107.4" stroke="#333333" stroke-width="0.855901" stroke-miterlimit="10" stroke-linecap="round"/>
<path d="M121.514 87.3421C121.514 87.3421 116.969 87.1854 114.384 88.5957C108.508 91.7297 104.903 110.769 107.646 112.728C111.015 115.078 124.804 88.5957 124.569 88.204C124.334 87.4988 123.316 87.4988 121.514 87.3421Z" fill="#333333"/>
<path d="M166.885 91.7295C166.885 91.7295 153.643 100.74 152.938 100.74C151.371 100.74 149.804 115.47 152.938 116.723C162.811 120.798 170.567 93.5316 170.332 93.0614C170.097 92.4346 168.765 91.8078 166.885 91.7295Z" fill="#333333"/>
</g>
<defs>
<clipPath id="clip0_3786_16356">
<rect width="280" height="250" fill="white"/>
</clipPath>
</defs>
</svg>
