<svg width="84" height="84" viewBox="0 0 84 84" fill="none" xmlns="http://www.w3.org/2000/svg">
<path d="M71.9081 7.19754C77.2408 4.02336 84 7.86606 84 14.0719V76C84 80.4183 80.4183 84 76 84H8C3.58172 84 0 80.4183 0 76V54.5481C0 51.728 1.48483 49.1162 3.90813 47.6737L71.9081 7.19754Z" fill="#F6F8FA"/>
<path d="M12.6719 40.9999C12.6048 41.0012 12.5379 40.9911 12.4741 40.97C12.3365 40.9283 12.2161 40.8433 12.1307 40.7276C12.0452 40.612 11.9994 40.4719 12 40.3282C12 25.8113 25.4574 14 42.0019 14C50.6325 14 58.8525 17.2691 64.5527 22.9564C64.6152 23.0189 64.6648 23.0931 64.6986 23.1747C64.7325 23.2564 64.7499 23.3439 64.7499 23.4322C64.7499 23.5206 64.7325 23.6081 64.6986 23.6897C64.6648 23.7714 64.6152 23.8456 64.5527 23.908C64.4902 23.9705 64.416 24.0201 64.3344 24.0539C64.2527 24.0877 64.1652 24.1051 64.0768 24.1051C63.9884 24.1051 63.9009 24.0877 63.8192 24.0539C63.7375 24.0201 63.6633 23.9705 63.6008 23.908C58.1544 18.4596 50.2779 15.3248 42.0019 15.3248C26.9207 15.3248 14.5198 25.5351 13.4223 38.4622C15.565 36.5217 18.85 35.3648 22.4486 35.3648C26.4989 35.3648 30.1497 36.8277 32.2252 39.231C34.3008 36.8277 37.9516 35.3648 42.0019 35.3648C46.0521 35.3648 49.6993 36.8277 51.7785 39.231C53.854 36.8277 57.5012 35.3648 61.5552 35.3648C65.1537 35.3648 68.435 36.5179 70.5777 38.4622C70.2699 35.0115 69.1755 31.677 67.3786 28.7147C67.2934 28.5625 67.2707 28.3833 67.3153 28.2147C67.3599 28.0462 67.4683 27.9016 67.6175 27.8115C67.7668 27.7214 67.9453 27.6928 68.1152 27.7318C68.2852 27.7708 68.4333 27.8743 68.5283 28.0205C70.7865 31.7326 71.9869 35.991 72 40.3356C71.9981 40.478 71.9509 40.6161 71.8654 40.73C71.7799 40.8438 71.6603 40.9276 71.5241 40.9691C71.3878 41.0106 71.2419 41.0078 71.1074 40.961C70.9728 40.9142 70.8566 40.8259 70.7756 40.7088C69.1144 38.2794 65.4972 36.7083 61.5552 36.7083C57.6131 36.7083 53.9922 38.2794 52.331 40.7088C52.2696 40.7986 52.1872 40.8721 52.0909 40.9228C51.9946 40.9736 51.8874 41 51.7785 40.9999C51.669 41.0006 51.5611 40.9745 51.4641 40.9237C51.3671 40.873 51.2841 40.7992 51.2223 40.7088C49.5611 38.2794 45.9439 36.7083 42.0019 36.7083C38.0599 36.7083 34.4389 38.2794 32.7777 40.7088C32.7127 40.796 32.6283 40.8669 32.5311 40.9157C32.4338 40.9645 32.3266 40.9899 32.2178 40.9899C32.109 40.9899 32.0017 40.9645 31.9045 40.9157C31.8072 40.8669 31.7228 40.796 31.6578 40.7088C29.9966 38.2794 26.3794 36.7083 22.4374 36.7083C18.4954 36.7083 14.8744 38.2794 13.2132 40.7088C13.1529 40.7971 13.0722 40.8696 12.978 40.9203C12.8839 40.9709 12.7789 40.9982 12.6719 40.9999Z" fill="#34A853" stroke="#34A853"/>
<path d="M51.3031 33C51.1341 32.9986 50.9713 32.9377 50.8448 32.8286C50.7184 32.7195 50.6369 32.5696 50.6154 32.4066C49.302 22.3677 45.6319 15.352 41.6954 15.352C41.5109 15.352 41.3341 15.2808 41.2037 15.154C41.0733 15.0273 41 14.8553 41 14.676C41 14.4967 41.0733 14.3248 41.2037 14.198C41.3341 14.0712 41.5109 14 41.6954 14C46.5012 14 50.5459 21.1583 51.9946 32.2376C52.006 32.3254 51.9994 32.4146 51.9752 32.4999C51.951 32.5852 51.9097 32.6651 51.8537 32.7349C51.7978 32.8046 51.7281 32.863 51.6489 32.9066C51.5696 32.9501 51.4823 32.9781 51.392 32.9887L51.3031 33Z" fill="#34A853" stroke="#34A853"/>
<path d="M32.744 40C32.5467 40 32.3574 39.9301 32.2179 39.8056C32.0784 39.6812 32 39.5124 32 39.3364C32 32.1989 33.2937 25.3269 35.5505 20.4531C35.5828 20.3668 35.6347 20.2874 35.703 20.2197C35.7712 20.1521 35.8543 20.0977 35.947 20.0599C36.0398 20.0222 36.1403 20.0018 36.2423 20.0001C36.3443 19.9984 36.4455 20.0155 36.5398 20.0502C36.6341 20.0849 36.7194 20.1365 36.7903 20.2018C36.8613 20.2672 36.9165 20.3448 36.9524 20.43C36.9883 20.5151 37.0042 20.6059 36.9991 20.6968C36.994 20.7877 36.968 20.8766 36.9227 20.9581C34.7404 25.6697 33.488 32.3648 33.488 39.3364C33.4885 39.4237 33.4696 39.5102 33.4325 39.5909C33.3953 39.6716 33.3405 39.745 33.2713 39.8067C33.2021 39.8684 33.1199 39.9173 33.0293 39.9505C32.9388 39.9837 32.8418 40.0005 32.744 40Z" fill="#34A853" stroke="#34A853"/>
<path d="M41.5 15C41.4342 15.0005 41.3691 14.9835 41.3082 14.9499C41.2474 14.9163 41.1921 14.8668 41.1456 14.8044C41.0991 14.7419 41.0623 14.6677 41.0373 14.586C41.0123 14.5043 40.9996 14.4167 41 14.3284V11.6716C41 11.4935 41.0527 11.3227 41.1464 11.1967C41.2402 11.0708 41.3674 11 41.5 11C41.6326 11 41.7598 11.0708 41.8536 11.1967C41.9473 11.3227 42 11.4935 42 11.6716V14.3284C42 14.4166 41.9871 14.5039 41.9619 14.5854C41.9368 14.6669 41.9 14.7409 41.8536 14.8033C41.8071 14.8656 41.752 14.9151 41.6913 14.9489C41.6307 14.9826 41.5657 15 41.5 15Z" fill="#34A853" stroke="#34A853"/>
<path d="M66.325 74C66.1459 74 65.9742 73.9314 65.8476 73.8094C65.721 73.6874 65.6499 73.522 65.6499 73.3494V65.0795C65.6479 63.8122 65.1244 62.5974 64.1943 61.7016C63.2642 60.8058 62.0033 60.3022 60.6884 60.3012H50.3078C48.9933 60.3022 47.7328 60.8059 46.8033 61.7018C45.8737 62.5977 45.3511 63.8125 45.3501 65.0795V73.3494C45.3501 73.522 45.279 73.6874 45.1524 73.8094C45.0258 73.9314 44.8541 74 44.675 74C44.496 74 44.3243 73.9314 44.1977 73.8094C44.0711 73.6874 44 73.522 44 73.3494V65.0795C44.002 63.4677 44.6672 61.9225 45.8497 60.7828C47.0322 59.643 48.6355 59.0019 50.3078 59H60.6884C62.3611 59.0019 63.9647 59.6429 65.1479 60.7825C66.331 61.9222 66.997 63.4674 67 65.0795V73.3494C66.999 73.5217 66.9276 73.6866 66.8012 73.8084C66.6748 73.9302 66.5037 73.9991 66.325 74Z" fill="#34A853" stroke="#34A853"/>
<path d="M55 56C53.8133 56 52.6533 55.6481 51.6666 54.9888C50.6799 54.3295 49.9109 53.3924 49.4567 52.2961C49.0026 51.1997 48.8838 49.9933 49.1153 48.8295C49.3468 47.6656 49.9182 46.5965 50.7574 45.7574C51.5965 44.9182 52.6656 44.3468 53.8295 44.1153C54.9933 43.8838 56.1997 44.0026 57.2961 44.4567C58.3925 44.9109 59.3295 45.6799 59.9888 46.6666C60.6481 47.6533 61 48.8133 61 50C60.998 51.5907 60.3652 53.1156 59.2404 54.2404C58.1156 55.3652 56.5907 55.998 55 56ZM55 45.3784C54.0859 45.3784 53.1924 45.6495 52.4324 46.1573C51.6724 46.6651 51.08 47.3869 50.7302 48.2314C50.3804 49.0759 50.2889 50.0051 50.4672 50.9016C50.6456 51.7981 51.0857 52.6216 51.7321 53.2679C52.3784 53.9143 53.2019 54.3544 54.0984 54.5328C54.9949 54.7111 55.9241 54.6196 56.7686 54.2698C57.6131 53.92 58.3349 53.3276 58.8427 52.5676C59.3505 51.8076 59.6216 50.9141 59.6216 50C59.6195 48.7749 59.132 47.6006 58.2657 46.7343C57.3994 45.868 56.2251 45.3805 55 45.3784Z" fill="#34A853" stroke="#34A853"/>
<path d="M17.6767 74C17.4972 74 17.3251 73.9314 17.1982 73.8094C17.0713 73.6874 17 73.522 17 73.3494V65.759C17.002 63.967 17.7433 62.2489 19.0613 60.9818C20.3792 59.7146 22.1662 59.0019 24.0301 59H41.3233C41.5028 59 41.6749 59.0686 41.8018 59.1906C41.9287 59.3126 42 59.478 42 59.6506C42 59.8231 41.9287 59.9886 41.8018 60.1107C41.6749 60.2327 41.5028 60.3012 41.3233 60.3012H24.0301C22.5248 60.3022 21.0815 60.8775 20.0171 61.9008C18.9528 62.9242 18.3544 64.3118 18.3534 65.759V73.3494C18.3524 73.5217 18.2808 73.6866 18.1541 73.8084C18.0274 73.9302 17.8559 73.9991 17.6767 74Z" fill="#34A853" stroke="#34A853"/>
<path d="M36.6519 74C36.5663 74 36.4815 73.9833 36.4024 73.9509C36.3234 73.9185 36.2515 73.8709 36.191 73.811C36.1304 73.7511 36.0824 73.68 36.0496 73.6017C36.0169 73.5235 36 73.4396 36 73.3548V65.6452C35.9995 65.5603 36.0161 65.4762 36.0487 65.3977C36.0813 65.3192 36.1293 65.2479 36.1899 65.1879C36.2505 65.1279 36.3226 65.0804 36.4019 65.0482C36.4812 65.0159 36.5662 64.9995 36.6519 65H44.3481C44.521 65 44.6868 65.068 44.8091 65.189C44.9313 65.31 45 65.4741 45 65.6452C45 65.8163 44.9313 65.9804 44.8091 66.1014C44.6868 66.2224 44.521 66.2903 44.3481 66.2903H37.3038V73.3548C37.3029 73.5257 37.2339 73.6892 37.1118 73.81C36.9898 73.9308 36.8245 73.9991 36.6519 74Z" fill="#34A853" stroke="#34A853"/>
<path d="M31 56C29.8133 56 28.6533 55.6481 27.6666 54.9888C26.6799 54.3295 25.9109 53.3924 25.4567 52.2961C25.0026 51.1997 24.8838 49.9933 25.1153 48.8295C25.3468 47.6656 25.9182 46.5965 26.7574 45.7574C27.5965 44.9182 28.6656 44.3468 29.8295 44.1153C30.9934 43.8838 32.1997 44.0026 33.2961 44.4567C34.3925 44.9109 35.3295 45.6799 35.9888 46.6666C36.6481 47.6533 37 48.8133 37 50C36.998 51.5907 36.3652 53.1156 35.2404 54.2404C34.1156 55.3652 32.5907 55.998 31 56ZM31 45.3784C30.0859 45.3784 29.1924 45.6495 28.4324 46.1573C27.6724 46.6651 27.08 47.3869 26.7302 48.2314C26.3804 49.0759 26.2889 50.0051 26.4672 50.9016C26.6456 51.7981 27.0857 52.6216 27.7321 53.2679C28.3784 53.9143 29.2019 54.3544 30.0984 54.5328C30.9949 54.7111 31.9241 54.6196 32.7686 54.2698C33.6131 53.92 34.3349 53.3276 34.8427 52.5676C35.3505 51.8076 35.6216 50.9141 35.6216 50C35.6195 48.7749 35.132 47.6006 34.2657 46.7343C33.3994 45.868 32.2251 45.3805 31 45.3784Z" fill="#34A853" stroke="#34A853"/>
</svg>
