<svg width="84" height="84" viewBox="0 0 84 84" fill="none" xmlns="http://www.w3.org/2000/svg">
<path d="M71.9081 7.19754C77.2408 4.02336 84 7.86606 84 14.0719V76C84 80.4183 80.4183 84 76 84H8C3.58172 84 0 80.4183 0 76V54.5481C0 51.728 1.48483 49.1162 3.90813 47.6737L71.9081 7.19754Z" fill="#F6F8FA"/>
<path d="M32.351 33C32.2579 33.0002 32.1659 32.9803 32.0816 32.9418C31.9974 32.9032 31.923 32.847 31.8639 32.7771C30.7043 31.4203 29.865 29.8331 29.4051 28.1272C28.9452 26.4213 28.8759 24.6382 29.2021 22.9035C29.5282 21.1687 30.2419 19.5246 31.2928 18.0867C32.3437 16.6488 33.7063 15.4522 35.2847 14.5812C35.7214 14.3322 36.1756 14.1133 36.6439 13.9261L36.6897 13.909C38.2066 13.3025 39.8322 12.9936 41.4725 13.0001C43.1128 13.0066 44.7357 13.3283 46.2475 13.9467C47.7593 14.5651 49.1301 15.468 50.2811 16.6033C51.4321 17.7386 52.3404 19.084 52.9538 20.5619C52.9851 20.6371 53.0007 20.7175 53 20.7986C52.9993 20.8798 52.9821 20.9599 52.9495 21.0346C52.9169 21.1093 52.8694 21.177 52.8098 21.2339C52.7503 21.2907 52.6799 21.3356 52.6025 21.366C52.5251 21.3964 52.4422 21.4117 52.3587 21.411C52.2752 21.4103 52.1926 21.3937 52.1157 21.362C52.0388 21.3303 51.9693 21.2842 51.9107 21.2264C51.8522 21.1685 51.8058 21.1 51.7746 21.0248C51.2228 19.695 50.4051 18.4847 49.3687 17.4639C48.3323 16.4432 47.0979 15.6322 45.7367 15.0779C44.3756 14.5236 42.9146 14.237 41.4387 14.2347C39.9628 14.2325 38.5011 14.5146 37.1381 15.0647L37.0922 15.0818C36.6893 15.2467 36.2978 15.4368 35.9203 15.6511C34.5023 16.4323 33.2778 17.5061 32.3333 18.7968C31.3888 20.0875 30.7472 21.5637 30.4537 23.1214C30.1602 24.6791 30.2219 26.2804 30.6345 27.8124C31.0471 29.3444 31.8006 30.7699 32.8418 31.9884C32.9489 32.115 33.0002 32.2776 32.9843 32.4408C32.9685 32.604 32.8866 32.7545 32.757 32.8594C32.643 32.9513 32.4992 33.0011 32.351 33Z" fill="#34A853" stroke="#34A853"/>
<path d="M23.1889 71.9998C21.979 72.0075 20.7888 71.6925 19.7412 71.0871C18.605 70.4168 17.6628 69.4624 17.0069 68.3177C16.3509 67.173 16.004 65.8774 16.0001 64.558V59.3124C15.9862 54.9232 17.5334 50.6721 20.3652 47.3189C23.1971 43.9658 27.129 41.7291 31.4581 41.0088C31.6227 40.981 31.7915 41.0197 31.9276 41.1164C32.0636 41.2132 32.1557 41.36 32.1835 41.5246C32.2113 41.6892 32.1726 41.8582 32.0759 41.9943C31.9792 42.1304 31.8325 42.2224 31.6679 42.2503C27.6328 42.9223 23.9679 45.0074 21.3283 48.133C18.6887 51.2586 17.2464 55.2211 17.2589 59.3124V64.558C17.2616 65.6578 17.5506 66.7379 18.0975 67.692C18.6443 68.6461 19.4302 69.4414 20.3777 69.9995C21.7037 70.7369 23.2632 70.9336 24.7307 70.5485C39.7447 66.8451 41.8217 66.373 42.0769 66.352C42.7981 66.265 43.4939 66.0313 44.1214 65.6654C44.7489 65.2994 45.2949 64.8089 45.7259 64.224C46.1569 63.6391 46.4637 62.9722 46.6273 62.2644C46.791 61.5565 46.8082 60.8226 46.6777 60.1079C46.5473 59.3932 46.272 58.7127 45.8688 58.1083C45.4656 57.5039 44.9431 56.9885 44.3333 56.5936C43.7235 56.1987 43.0393 55.9328 42.323 55.8122C41.6066 55.6916 40.8731 55.7189 40.1677 55.8923L29.7028 58.3193C29.6052 58.3423 29.5035 58.3415 29.4063 58.3171C29.309 58.2926 29.2191 58.2451 29.144 58.1786C29.069 58.1121 29.011 58.0285 28.975 57.9349C28.939 57.8414 28.926 57.7405 28.9371 57.6408L29.3286 53.8395C29.3457 53.6731 29.4284 53.5202 29.5582 53.4146C29.688 53.309 29.8546 53.2594 30.0211 53.2765C30.1875 53.2937 30.3403 53.3763 30.4458 53.5061C30.5514 53.636 30.6011 53.8024 30.5839 53.9689L30.2797 56.8925L39.8846 54.6648C41.3178 54.3096 42.8287 54.4473 44.174 55.0557C45.5193 55.6641 46.6207 56.7077 47.3007 58.0185C47.7629 58.9448 48.0024 59.9663 48 61.0015C47.9991 61.4274 47.9592 61.8523 47.881 62.271C47.6174 63.6372 46.9316 64.8862 45.9204 65.8418C44.9091 66.7973 43.6235 67.4113 42.2448 67.597C41.9511 67.6459 38.7203 68.4083 25.0316 71.7935C24.4277 71.9351 23.8091 72.0043 23.1889 71.9998Z" fill="#34A853" stroke="#34A853"/>
<path d="M66.3911 72C66.2299 71.9991 66.0755 71.9336 65.9616 71.8177C65.8476 71.7019 65.7833 71.545 65.7824 71.3811V59.4028C65.7917 56.7878 65.1987 54.2068 64.0509 51.8665C63.9884 51.721 63.9833 51.5565 64.0367 51.4073C64.0901 51.258 64.198 51.1353 64.3379 51.0646C64.4778 50.994 64.6391 50.9807 64.7883 51.0276C64.9376 51.0744 65.0635 51.1778 65.1399 51.3164C66.3725 53.8272 67.0095 56.5967 66.9999 59.4028V71.3811C66.999 71.545 66.9345 71.7019 66.8206 71.8177C66.7066 71.9336 66.5522 71.9991 66.3911 72Z" fill="#34A853" stroke="#34A853"/>
<path d="M49.4939 55.9995C49.4125 56.0027 49.3312 55.9898 49.2547 55.9615C49.1783 55.9332 49.1082 55.8901 49.0484 55.8347C48.9885 55.7792 48.9403 55.7125 48.9062 55.6384C48.8721 55.5642 48.8529 55.484 48.8497 55.4025C48.8466 55.3209 48.8595 55.2395 48.8877 55.1629C48.916 55.0863 48.959 55.016 49.0144 54.9561C49.0697 54.8962 49.1361 54.8478 49.2102 54.8136C49.2842 54.7794 49.3642 54.7602 49.4456 54.7571C52.5814 54.4893 55.5224 53.1217 57.7508 50.895C59.778 48.8858 61.1381 46.2997 61.6465 43.4885L64.6193 27.1741C55.9581 28.191 47.1911 26.5887 39.4459 22.5734L36.4733 38.881C36.0204 41.3645 36.2501 43.9248 37.138 46.2875C37.6922 47.7911 38.5086 49.1841 39.5492 50.4015C39.6561 50.5269 39.709 50.6897 39.696 50.8541C39.6831 51.0185 39.6056 51.171 39.4804 51.2781C39.3553 51.3852 39.1927 51.4381 39.0286 51.4252C38.8646 51.4122 38.7124 51.3345 38.6055 51.2091C37.4701 49.8808 36.578 48.3618 35.9704 46.7224C35.0031 44.1506 34.753 41.3635 35.2469 38.6601L38.3678 21.5173C38.3864 21.4208 38.4273 21.33 38.4871 21.2522C38.5469 21.1743 38.624 21.1114 38.7123 21.0687C38.7996 21.0235 38.8964 21 38.9947 21C39.0929 21 39.1897 21.0235 39.2771 21.0687C47.2254 25.3856 56.3402 27.0515 65.2978 25.8246C65.3947 25.8101 65.4937 25.8195 65.5861 25.852C65.6786 25.8845 65.7617 25.939 65.8283 26.011C65.8957 26.0816 65.9455 26.1672 65.9737 26.2607C66.0018 26.3543 66.0075 26.4532 65.9903 26.5494L62.8626 43.6956C62.3104 46.7578 60.8284 49.5746 58.6188 51.7613C56.1836 54.195 52.9693 55.6898 49.5422 55.9823L49.4939 55.9995Z" fill="#34A853" stroke="#34A853"/>
<path d="M49.7054 47C49.2923 46.9988 48.8802 46.9641 48.474 46.8963C46.3261 46.5429 44.5827 45.3109 44.0314 43.7644C44.0053 43.6913 43.9953 43.6144 44.002 43.5379C44.0088 43.4614 44.0322 43.3868 44.0707 43.3185C44.1093 43.2501 44.1623 43.1894 44.2268 43.1396C44.2913 43.0898 44.3661 43.052 44.4467 43.0284C44.5273 43.0048 44.6122 42.9957 44.6967 43.0019C44.7811 43.008 44.8635 43.0291 44.9389 43.064C45.0144 43.0989 45.0815 43.147 45.1365 43.2054C45.1914 43.2638 45.2331 43.3315 45.2592 43.4045C45.6601 44.5328 47.0492 45.473 48.7066 45.7485C50.3641 46.0241 52.0322 45.5864 52.8484 44.6592C52.9009 44.5985 52.9664 44.5478 53.0407 44.5101C53.115 44.4724 53.1968 44.4484 53.2814 44.4395C53.366 44.4306 53.4517 44.437 53.5336 44.4583C53.6155 44.4796 53.6919 44.5154 53.7584 44.5637C53.8249 44.6119 53.8801 44.6715 53.9209 44.7392C53.9618 44.8069 53.9875 44.8813 53.9965 44.958C54.0054 45.0347 53.9974 45.1123 53.973 45.1862C53.9486 45.2601 53.9083 45.329 53.8543 45.3887C52.9522 46.4002 51.4022 47 49.7054 47Z" fill="#34A853" stroke="#34A853"/>
<path d="M46.4335 37C46.3418 37.0001 46.2513 36.98 46.1702 36.9415C46.089 36.903 46.0196 36.8473 45.9678 36.7791C45.5872 36.4022 45.0795 36.1484 44.5229 36.0568C43.9663 35.9652 43.3916 36.0408 42.8874 36.2721C42.8266 36.3104 42.7578 36.3376 42.6852 36.3519C42.6127 36.3663 42.5377 36.3676 42.4646 36.3557C42.3915 36.3439 42.3218 36.3191 42.2594 36.2829C42.1969 36.2467 42.143 36.1997 42.1008 36.1446C42.0154 36.0333 41.9824 35.8961 42.0089 35.7629C42.0355 35.6297 42.1194 35.5114 42.2425 35.4337C42.9948 35.0485 43.8737 34.914 44.7252 35.0539C45.5767 35.1937 46.3464 35.5989 46.8992 36.1984C46.9846 36.3098 47.0176 36.447 46.9911 36.5802C46.9645 36.7133 46.8806 36.8317 46.7575 36.9094C46.6618 36.9677 46.5491 36.9993 46.4335 37Z" fill="#34A853" stroke="#34A853"/>
<path d="M58.3076 39C58.1978 38.9996 58.0898 38.9795 57.9927 38.9413C57.8956 38.9031 57.8123 38.8479 57.7498 38.7806C57.2929 38.4064 56.6841 38.1546 56.0169 38.0636C55.3497 37.9727 54.6609 38.0476 54.0563 38.277C53.982 38.314 53.8989 38.3397 53.8113 38.3526C53.7238 38.3655 53.6337 38.3654 53.5462 38.3524C53.4587 38.3393 53.3756 38.3135 53.3014 38.2765C53.2273 38.2394 53.1636 38.1918 53.1141 38.1364C53.0646 38.081 53.0302 38.0188 53.0129 37.9535C52.9956 37.8882 52.9957 37.8209 53.0132 37.7556C53.0307 37.6903 53.0654 37.6283 53.115 37.5729C53.1647 37.5176 53.2283 37.4701 53.3025 37.4331C54.2031 37.0489 55.2566 36.9144 56.2771 37.0534C57.2976 37.1923 58.2196 37.5958 58.8804 38.1927C58.9823 38.3036 59.0213 38.4401 58.9888 38.5724C58.9563 38.7047 58.8551 38.822 58.7071 38.8987C58.5914 38.9628 58.4516 38.9982 58.3076 39Z" fill="#34A853" stroke="#34A853"/>
</svg>
