<svg width="84" height="84" viewBox="0 0 84 84" fill="none" xmlns="http://www.w3.org/2000/svg">
<path d="M71.9081 7.19754C77.2408 4.02336 84 7.86606 84 14.0719V76C84 80.4183 80.4183 84 76 84H8C3.58172 84 0 80.4183 0 76V54.5481C0 51.728 1.48483 49.1162 3.90813 47.6737L71.9081 7.19754Z" fill="#F6F8FA"/>
<path d="M54.6811 31C54.5454 31.0003 54.4126 30.964 54.3 30.8957C54.1874 30.8274 54.1001 30.7302 54.0493 30.6168C53.9985 30.5033 53.9866 30.3787 54.0152 30.2591C54.0437 30.1395 54.1114 30.0303 54.2094 29.9457C58.6661 26.0823 60.3982 22.2086 59.3529 18.4369C59.2963 18.2057 59.2321 17.9914 59.1604 17.784C59.1106 17.6305 59.1294 17.4656 59.2128 17.3244C59.2962 17.1833 59.4376 17.0772 59.6067 17.0288C59.7757 16.9803 59.9591 16.9934 60.1176 17.0653C60.2761 17.1371 60.3971 17.262 60.4548 17.4132C60.5416 17.6581 60.6133 17.9098 60.6736 18.1581C61.8246 22.3072 59.9189 26.6944 55.1528 30.83C55.0255 30.9389 54.8567 30.9997 54.6811 31Z" fill="#34A853" stroke="#34A853"/>
<path d="M37.9263 32C37.7615 31.9997 37.6031 31.936 37.4836 31.822C33.0108 27.4886 31.2224 22.8919 32.3096 18.5265C32.8868 15.8168 35.0436 12.776 38.539 12.1386C39.9597 11.8794 41.4226 11.9849 42.792 12.4455C44.1614 12.9061 45.393 13.7069 46.3726 14.7735C47.3585 13.7044 48.5972 12.9033 49.9736 12.4445C51.3499 11.9857 52.8193 11.8842 54.2452 12.1493C55.5665 12.4027 56.7923 13.0189 57.7866 13.9297C57.913 14.043 57.9893 14.2021 57.999 14.3721C58.0086 14.542 57.9507 14.7088 57.838 14.8358C57.7253 14.9628 57.567 15.0396 57.398 15.0493C57.2289 15.059 57.063 15.0008 56.9367 14.8875C56.1119 14.1267 55.0908 13.6146 53.9902 13.4098C52.6671 13.1736 51.3049 13.3043 50.0501 13.788C48.7953 14.2717 47.6953 15.09 46.8684 16.1551C46.8091 16.2288 46.734 16.2881 46.6488 16.3288C46.5636 16.3695 46.4705 16.3904 46.3761 16.3901C46.2818 16.3904 46.1887 16.3695 46.1035 16.3288C46.0183 16.2881 45.9432 16.2288 45.8839 16.1551C45.0585 15.0982 43.9651 14.2845 42.7187 13.7995C41.4723 13.3146 40.119 13.1763 38.801 13.3991C35.8546 13.9404 34.0484 16.5111 33.5562 18.8256C32.5646 22.7921 34.1866 26.8513 38.3725 30.9033C38.4917 31.024 38.5585 31.1872 38.5585 31.3573C38.5585 31.5274 38.4917 31.6906 38.3725 31.8113C38.3144 31.8711 38.245 31.9186 38.1684 31.951C38.0917 31.9834 38.0094 32.0001 37.9263 32Z" fill="#34A853" stroke="#34A853"/>
<path d="M25.2959 73C24.7855 73.0005 24.2801 72.9024 23.8084 72.7114C23.3368 72.5205 22.9082 72.2403 22.5472 71.887C22.1861 71.5337 21.8997 71.1141 21.7043 70.6523C21.5089 70.1905 21.4083 69.6955 21.4083 69.1956V54.4054L18.6401 58.0872C18.3348 58.4842 17.9499 58.8158 17.5089 59.0616C17.0679 59.3074 16.5802 59.4621 16.0758 59.5165C15.5716 59.5714 15.0613 59.5235 14.5769 59.3758C14.0925 59.2281 13.6445 58.9837 13.2612 58.6582C12.5494 58.0372 12.1045 57.1749 12.0162 56.2452C11.9279 55.3156 12.2028 54.3877 12.7855 53.6487L20.0028 44.1412C20.6078 43.3582 21.3893 42.7225 22.2863 42.2838C23.1834 41.8451 24.1717 41.6152 25.1743 41.612H31.6118L36.372 35.443C36.6763 35.0473 37.0602 34.7169 37.5 34.4723C37.9397 34.2278 38.4261 34.0741 38.9289 34.0209C39.4317 33.9678 39.9403 34.0161 40.4232 34.1631C40.9061 34.3101 41.3532 34.5525 41.7367 34.8755C42.449 35.496 42.8946 36.3581 42.9836 37.2878C43.0725 38.2175 42.7982 39.1456 42.2159 39.885L35.6425 48.4151V69.0835C35.6565 70.0542 35.2959 70.9943 34.6328 71.7159C33.9698 72.4375 33.0531 72.8873 32.066 72.9755C31.5071 73.0179 30.9455 72.9409 30.42 72.7498C29.8945 72.5586 29.4177 72.2579 29.0225 71.8685C28.8385 71.6888 28.6732 71.4916 28.5289 71.28C28.1769 71.8059 27.6975 72.2382 27.1333 72.5383C26.5691 72.8385 25.9379 72.9971 25.2959 73ZM22.0449 51.8621C22.113 51.862 22.1806 51.8727 22.2452 51.8937C22.3741 51.935 22.4864 52.0152 22.5661 52.1228C22.6457 52.2304 22.6886 52.3598 22.6887 52.4927V69.1956C22.7136 69.8542 22.9983 70.4778 23.4828 70.9351C23.9674 71.3924 24.614 71.648 25.2869 71.648C25.9598 71.648 26.6065 71.3924 27.091 70.9351C27.5756 70.4778 27.8602 69.8542 27.8852 69.1956V61.3766C27.8852 61.2938 27.9018 61.2118 27.9342 61.1353C27.9665 61.0588 28.014 60.9893 28.0737 60.9308C28.1335 60.8722 28.2045 60.8258 28.2826 60.7941C28.3607 60.7624 28.4444 60.7461 28.5289 60.7461C28.6135 60.7461 28.6972 60.7624 28.7753 60.7941C28.8534 60.8258 28.9244 60.8722 28.9842 60.9308C29.0439 60.9893 29.0914 61.0588 29.1237 61.1353C29.1561 61.2118 29.1727 61.2938 29.1727 61.3766V69.1956C29.1732 69.546 29.2474 69.8926 29.3909 70.2136C29.5343 70.5346 29.7438 70.8232 30.0064 71.0612C30.2689 71.2993 30.5787 71.4817 30.9165 71.5971C31.2543 71.7125 31.6128 71.7584 31.9695 71.7319C32.6336 71.6677 33.2488 71.3611 33.6928 70.8731C34.1368 70.385 34.377 69.7511 34.3657 69.0975V48.2119C34.3656 48.0748 34.4122 47.9417 34.498 47.8335L41.1966 39.1318C41.5834 38.6491 41.7686 38.0406 41.7149 37.4294C41.6611 36.8181 41.3723 36.2495 40.9069 35.8388C40.6579 35.6265 40.3669 35.4664 40.0522 35.3686C39.7374 35.2708 39.4055 35.2373 39.077 35.2701C38.7485 35.3029 38.4303 35.4014 38.1422 35.5595C37.8541 35.7176 37.6022 35.9319 37.4021 36.1891L32.4523 42.6139C32.3918 42.6913 32.3138 42.7541 32.2245 42.7972C32.1352 42.8404 32.0369 42.8628 31.9373 42.8626H25.1743C24.3718 42.8645 23.5807 43.0483 22.8628 43.3995C22.1449 43.7508 21.5198 44.26 21.0363 44.8874L13.8191 54.4054C13.4317 54.8882 13.2457 55.497 13.2989 56.1089C13.352 56.7207 13.6402 57.2901 14.1052 57.7019C14.3543 57.9142 14.6452 58.0743 14.96 58.1721C15.2748 58.2699 15.6067 58.3034 15.9352 58.2706C16.2637 58.2378 16.5818 58.1393 16.8699 57.9812C17.158 57.8231 17.41 57.6088 17.6101 57.3516L21.5442 52.1284C21.6012 52.0493 21.676 51.9842 21.7628 51.938C21.8497 51.8919 21.9462 51.8659 22.0449 51.8621Z" fill="#34A853" stroke="#34A853"/>
<path d="M27.5 39C26.4122 39 25.3488 38.7068 24.4444 38.1573C23.5399 37.6079 22.8349 36.827 22.4187 35.9134C22.0024 34.9998 21.8935 33.9944 22.1057 33.0245C22.3179 32.0546 22.8417 31.1637 23.6109 30.4645C24.3801 29.7652 25.3601 29.289 26.427 29.0961C27.4939 28.9031 28.5998 29.0022 29.6048 29.3806C30.6098 29.7591 31.4687 30.3999 32.0731 31.2222C32.6774 32.0444 33 33.0111 33 34C32.9932 35.3242 32.4116 36.5924 31.3816 37.5288C30.3516 38.4651 28.9566 38.9939 27.5 39ZM27.5 30.1667C26.6696 30.1667 25.8579 30.3905 25.1675 30.8099C24.4771 31.2293 23.939 31.8253 23.6212 32.5227C23.3035 33.2202 23.2203 33.9876 23.3823 34.7279C23.5443 35.4683 23.9442 36.1484 24.5313 36.6821C25.1185 37.2159 25.8666 37.5794 26.6809 37.7267C27.4953 37.874 28.3395 37.7984 29.1066 37.5095C29.8738 37.2206 30.5295 36.7314 30.9908 36.1038C31.4521 35.4761 31.6983 34.7382 31.6983 33.9833C31.6983 32.9711 31.256 32.0003 30.4687 31.2845C29.6813 30.5688 28.6135 30.1667 27.5 30.1667Z" fill="#34A853" stroke="#34A853"/>
<path d="M59.8508 72.9992C59.313 72.9987 58.7835 72.8667 58.3099 72.6147C57.8362 72.3628 57.4331 71.9988 57.1364 71.5553C57.0136 71.7349 56.874 71.9026 56.7195 72.0564C56.3877 72.3853 55.9876 72.6391 55.547 72.8003C55.1063 72.9616 54.6355 73.0264 54.167 72.9903C53.3405 72.9124 52.5738 72.5306 52.0183 71.9207C51.4629 71.3107 51.1593 70.517 51.1676 69.6964V52.204L45.6577 44.9847C45.1697 44.3591 44.9396 43.574 45.0136 42.7873C45.0876 42.0007 45.4603 41.271 46.0566 40.7451C46.3781 40.4695 46.7538 40.2628 47.16 40.1378C47.5663 40.0128 47.9943 39.9722 48.4172 40.0187C48.8394 40.0647 49.2476 40.1954 49.6169 40.4029C49.9862 40.6104 50.3087 40.8903 50.5647 41.2254L54.5539 46.4464H59.9528C60.7926 46.4485 61.6205 46.6426 62.3718 47.0134C63.1232 47.3842 63.7776 47.9218 64.2839 48.584L70.3427 56.6364C70.8308 57.2617 71.0608 58.0467 70.9862 58.833C70.9116 59.6194 70.538 60.3485 69.9408 60.8731C69.6192 61.1464 69.2443 61.3516 68.8392 61.476C68.4342 61.6004 68.0077 61.6414 67.586 61.5963C67.1643 61.5513 66.7565 61.4213 66.3876 61.2143C66.0188 61.0073 65.6969 60.7277 65.4417 60.3928L63.1112 57.262V69.7735C63.1112 70.1965 63.0268 70.6155 62.8629 71.0063C62.6991 71.3972 62.4589 71.7522 62.1561 72.0512C61.8533 72.3503 61.4938 72.5874 61.0983 72.749C60.7027 72.9106 60.2789 72.9937 59.8508 72.9933V72.9992ZM57.6883 69.7794C57.6889 70.2054 57.8173 70.6216 58.0571 70.9756C58.297 71.3295 58.6375 71.6052 59.0358 71.768C59.4341 71.9307 59.8722 71.9732 60.2949 71.8899C60.7175 71.8067 61.1057 71.6015 61.4105 71.3003C61.6131 71.101 61.7735 70.864 61.8827 70.6029C61.9918 70.3418 62.0475 70.0619 62.0464 69.7794V55.6432C62.0462 55.5307 62.0819 55.421 62.1486 55.3298C62.2152 55.2385 62.3093 55.1704 62.4174 55.1353C62.5256 55.1001 62.6422 55.0996 62.7506 55.1338C62.859 55.1681 62.9537 55.2353 63.0212 55.326L66.3205 59.7495C66.4884 59.9667 66.6995 60.1477 66.9409 60.2812C67.1822 60.4147 67.4487 60.4979 67.7238 60.5257C67.999 60.5535 68.277 60.5253 68.5406 60.4427C68.8043 60.3602 69.0481 60.2252 69.2569 60.0459C69.6472 59.6983 69.8894 59.2172 69.9345 58.6998C69.9796 58.1825 69.8243 57.6675 69.4999 57.259L63.4411 49.2066C63.0356 48.6766 62.5117 48.2464 61.9102 47.9497C61.3088 47.6529 60.646 47.4976 59.9738 47.4959H54.275C54.1919 47.496 54.1099 47.4771 54.0355 47.4406C53.961 47.404 53.8962 47.3509 53.8461 47.2854L49.6919 41.848C49.524 41.6302 49.3127 41.4489 49.0711 41.3151C48.8295 41.1813 48.5627 41.0979 48.2872 41.0701C48.0117 41.0423 47.7333 41.0707 47.4693 41.1535C47.2054 41.2363 46.9614 41.3718 46.7525 41.5515C46.3628 41.8995 46.1211 42.3805 46.076 42.8977C46.031 43.4148 46.1859 43.9297 46.5095 44.3384L52.1304 51.703C52.2001 51.7955 52.238 51.9078 52.2384 52.0232V69.6993C52.2289 70.2525 52.4303 70.789 52.8027 71.202C53.175 71.6151 53.691 71.8746 54.248 71.9289C54.5472 71.9518 54.8481 71.9132 55.1315 71.8157C55.415 71.7182 55.6751 71.5639 55.8953 71.3623C56.1156 71.1607 56.2913 70.9163 56.4114 70.6444C56.5316 70.3725 56.5936 70.0791 56.5935 69.7824V63.162C56.5935 63.0204 56.6504 62.8847 56.7516 62.7846C56.8529 62.6845 56.9902 62.6283 57.1334 62.6283C57.2766 62.6283 57.4139 62.6845 57.5151 62.7846C57.6164 62.8847 57.6733 63.0204 57.6733 63.162L57.6883 69.7794Z" fill="#34A853" stroke="#34A853"/>
<path d="M58.485 44C57.5956 43.997 56.7271 43.7306 55.989 43.2343C55.251 42.7381 54.6765 42.0342 54.3383 41.2117C54 40.3892 53.913 39.4848 54.0883 38.6129C54.2636 37.741 54.6934 36.9406 55.3233 36.3127C55.9532 35.6849 56.7551 35.2578 57.6276 35.0854C58.5001 34.913 59.4041 35.0029 60.2255 35.344C61.0469 35.685 61.7488 36.2618 62.2426 37.0015C62.7365 37.7412 63 38.6106 63 39.5C62.9945 40.6944 62.5165 41.838 61.6706 42.6812C60.8246 43.5243 59.6794 43.9984 58.485 44ZM58.485 36.05C57.8056 36.05 57.1415 36.2514 56.5766 36.6289C56.0117 37.0063 55.5715 37.5428 55.3115 38.1705C55.0515 38.7981 54.9835 39.4888 55.116 40.1551C55.2485 40.8215 55.5757 41.4335 56.0561 41.9139C56.5365 42.3943 57.1485 42.7215 57.8149 42.854C58.4812 42.9866 59.1719 42.9185 59.7995 42.6585C60.4272 42.3985 60.9637 41.9583 61.3411 41.3934C61.7185 40.8285 61.92 40.1644 61.92 39.485C61.92 38.574 61.5581 37.7003 60.9139 37.0561C60.2697 36.4119 59.396 36.05 58.485 36.05Z" fill="#34A853" stroke="#34A853"/>
</svg>
