<svg width="84" height="84" viewBox="0 0 84 84" fill="none" xmlns="http://www.w3.org/2000/svg">
<path d="M71.9081 7.19754C77.2408 4.02336 84 7.86606 84 14.0719V76C84 80.4183 80.4183 84 76 84H8C3.58172 84 0 80.4183 0 76V54.5481C0 51.728 1.48483 49.1162 3.90813 47.6737L71.9081 7.19754Z" fill="#F6F8FA"/>
<path d="M68.1788 36C67.9718 36.0004 67.7725 35.9361 67.6211 35.8201C67.4698 35.7042 67.3779 35.5453 67.364 35.3758L67.009 31.7724C66.9924 31.6813 66.9987 31.5883 67.0277 31.4992C67.0567 31.4101 67.1075 31.3269 67.1773 31.2547C67.2471 31.1824 67.3343 31.1228 67.4333 31.0794C67.5324 31.0359 67.6413 31.0096 67.7532 31.0022C67.8651 30.9948 67.9776 31.0063 68.0839 31.0361C68.1901 31.0658 68.2878 31.1132 68.3708 31.1753C68.4539 31.2373 68.5204 31.3128 68.5664 31.3968C68.6125 31.4809 68.637 31.5719 68.6384 31.6641L68.998 35.2786C69.013 35.4565 68.9414 35.6321 68.7989 35.7667C68.6564 35.9012 68.4546 35.9838 68.2379 35.9963L68.1788 36Z" fill="#34A853" stroke="#34A853"/>
<path d="M41.8783 72H41.7989C28.7874 70.3156 17.9577 58.6205 15.4617 43.5669C14.9998 40.6251 14.884 37.6398 15.1165 34.6713L16.1211 20.7155C16.1321 20.5683 16.1954 20.4298 16.2998 20.3248C16.4042 20.2198 16.5428 20.1552 16.6907 20.1426C26.4053 19.3604 34.5493 17.055 41.5781 13.0823C41.6714 13.0284 41.7772 13 41.8852 13C41.9931 13 42.0992 13.0284 42.1925 13.0823C49.1936 17.0344 57.2787 19.3398 66.9139 20.1323C67.0611 20.144 67.1993 20.2074 67.3037 20.3112C67.408 20.4149 67.4717 20.5522 67.4835 20.6984L67.998 26.9901C68.0113 27.1534 67.9587 27.3153 67.8518 27.4401C67.7989 27.5019 67.7344 27.5528 67.6617 27.5897C67.589 27.6267 67.5098 27.6491 67.4284 27.6556C67.264 27.6688 67.1011 27.6166 66.9755 27.5105C66.8499 27.4043 66.772 27.2529 66.7587 27.0896L66.2891 21.3158C56.8368 20.4822 48.8449 18.194 41.8852 14.3277C34.8944 18.2111 26.8508 20.5028 17.3261 21.3296L16.356 34.7571C16.1354 37.6298 16.2512 40.5183 16.7012 43.3645C19.1177 57.8589 29.4538 69.1114 41.9025 70.765C42.0821 70.7421 42.2616 70.7147 42.4411 70.6826C42.6035 70.6568 42.7695 70.6956 42.9033 70.7906C43.0371 70.8857 43.1278 71.0293 43.1557 71.1904C43.1695 71.2701 43.1673 71.3519 43.1493 71.4308C43.1312 71.5097 43.0976 71.5843 43.0505 71.6503C43.0033 71.7163 42.9435 71.7724 42.8745 71.8154C42.8054 71.8583 42.7285 71.8872 42.6481 71.9005C42.4272 71.9383 42.2028 71.9691 41.9784 72H41.8783Z" fill="#34A853" stroke="#34A853"/>
<path d="M21.3151 48C21.1681 48.0002 21.025 47.9583 20.9065 47.8806C20.788 47.8029 20.7004 47.6934 20.6565 47.5681C19.6801 44.6661 19.1235 41.6644 19.0004 38.6362C18.9942 38.474 19.06 38.3162 19.1833 38.1971C19.3067 38.078 19.4778 38.0072 19.6592 38.0002C19.8408 37.9964 20.0168 38.0562 20.1498 38.1667C20.2828 38.2773 20.3621 38.4299 20.371 38.592C20.4884 41.5143 21.0259 44.411 21.97 47.2109C21.9964 47.288 22.0055 47.3689 21.9968 47.4491C21.9881 47.5293 21.9619 47.6072 21.9195 47.6783C21.877 47.7494 21.8193 47.8123 21.7496 47.8634C21.6799 47.9146 21.5994 47.9529 21.5131 47.9762C21.4487 47.9922 21.382 48.0002 21.3151 48Z" fill="#34A853" stroke="#34A853"/>
<path d="M19.5001 36C19.3675 36 19.2402 35.9284 19.1465 35.801C19.0527 35.6737 19 35.5009 19 35.3207V32.6792C19 32.4991 19.0527 32.3263 19.1465 32.199C19.2402 32.0716 19.3675 32 19.5001 32C19.6327 32 19.7598 32.0716 19.8535 32.199C19.9473 32.3263 20 32.4991 20 32.6792V35.3207C20 35.5009 19.9473 35.6737 19.8535 35.801C19.7598 35.9284 19.6327 36 19.5001 36Z" fill="#34A853" stroke="#34A853"/>
<path d="M54.6684 53C54.5807 53.0003 54.4938 52.986 54.4126 52.958C54.3315 52.9299 54.2578 52.8885 54.1956 52.8363C54.0703 52.7295 54 52.5852 54 52.4349C54 52.2845 54.0703 52.1402 54.1956 52.0335C54.5344 51.7438 54.8992 51.4637 55.2752 51.1993C56.3439 50.4441 57.1752 49.4773 57.6951 48.3848C57.7243 48.312 57.7706 48.2449 57.8315 48.1877C57.8923 48.1305 57.9663 48.0844 58.0489 48.0522C58.1314 48.02 58.221 48.0023 58.3119 48.0002C58.4028 47.9981 58.4932 48.0117 58.5777 48.0402C58.6622 48.0686 58.7389 48.1113 58.8033 48.1657C58.8676 48.22 58.9182 48.2849 58.952 48.3563C58.9857 48.4277 59.0021 48.5042 58.9998 48.5811C58.9975 48.658 58.9765 48.7337 58.9385 48.8036C58.3382 50.073 57.3735 51.196 56.1314 52.0712C55.7889 52.3105 55.4576 52.5687 55.1449 52.8331C55.0829 52.8867 55.0088 52.9292 54.9269 52.9578C54.845 52.9865 54.7571 53.0009 54.6684 53Z" fill="#34A853" stroke="#34A853"/>
<path d="M58.5413 46C58.4227 46.0001 58.3087 45.9465 58.2232 45.8505C58.1377 45.7545 58.0874 45.6236 58.0828 45.4851C58.0727 45.1969 58.0473 44.9096 58.0064 44.625C57.9964 44.5557 57.9981 44.4847 58.0115 44.4161C58.025 44.3475 58.0499 44.2827 58.0848 44.2253C58.1197 44.168 58.1638 44.1193 58.2149 44.0819C58.2659 44.0445 58.3227 44.0192 58.3821 44.0075C58.4415 43.9958 58.5022 43.9978 58.5609 44.0135C58.6196 44.0293 58.675 44.0583 58.7241 44.0991C58.7731 44.1399 58.8148 44.1915 58.8468 44.2511C58.8788 44.3107 58.9004 44.3771 58.9105 44.4465C58.9581 44.7763 58.9879 45.1093 58.9996 45.4435C59.002 45.5138 58.9925 45.584 58.9717 45.6501C58.9508 45.7162 58.9191 45.7768 58.8781 45.8285C58.8372 45.8802 58.7879 45.9219 58.7332 45.9514C58.6784 45.9808 58.6193 45.9973 58.5591 46H58.5413Z" fill="#34A853" stroke="#34A853"/>
<path d="M50.5289 72H50.473C49.148 72.0011 47.873 71.5093 46.9102 70.6258C45.9473 69.7423 45.37 68.5343 45.2967 67.2501L45.0136 62.0965C44.9349 60.9446 44.6135 59.8206 44.0694 58.7941C43.5254 57.7676 42.7701 56.8604 41.8503 56.1286C39.7226 54.4081 38.1926 52.0932 37.4686 49.4986C36.7446 46.9041 36.8618 44.156 37.8042 41.6284C38.7465 39.1008 40.4683 36.9164 42.7352 35.3725C45.002 33.8286 47.7038 33.0002 50.473 33H50.5289C53.298 33.0013 55.9994 33.8305 58.2659 35.3748C60.5323 36.9192 62.2537 39.1037 63.1958 41.6313C64.138 44.1588 64.2553 46.9067 63.5317 49.5012C62.8081 52.0958 61.2787 54.411 59.1516 56.132C58.2336 56.8633 57.4805 57.7703 56.9393 58.7964C56.3981 59.8226 56.0804 60.946 56.0059 62.0965L55.7228 67.2501C55.6495 68.5343 55.0721 69.7423 54.1093 70.6258C53.1465 71.5093 51.8715 72.0011 50.5465 72H50.5289ZM50.4765 34.2078C47.965 34.2065 45.5141 34.9567 43.4576 36.3562C41.4011 37.7556 39.8392 39.7364 38.9841 42.0286C38.1291 44.3209 38.0226 46.8133 38.6793 49.1663C39.3361 51.5194 40.7241 53.6188 42.6543 55.1786C43.7085 56.0165 44.5733 57.0563 45.1951 58.2331C45.8169 59.4099 46.1823 60.6985 46.2683 62.0185L46.5548 67.1721C46.6085 68.1457 47.0447 69.0623 47.7735 69.7332C48.5024 70.4041 49.4685 70.7783 50.473 70.7786H50.5289C51.5334 70.7783 52.4995 70.4041 53.2283 69.7332C53.9572 69.0623 54.3934 68.1457 54.4471 67.1721L54.7302 62.0151C54.8179 60.6956 55.1844 59.4078 55.8067 58.2317C56.4291 57.0556 57.294 56.0164 58.3478 55.1786C60.2681 53.6143 61.6469 51.5152 62.2976 49.1652C62.9484 46.8152 62.8398 44.3278 61.9863 42.0397C61.1329 39.7517 59.5757 37.7734 57.5258 36.3726C55.476 34.9718 53.0324 34.2161 50.5255 34.2078H50.4765Z" fill="#34A853" stroke="#34A853"/>
<path d="M49.4999 29C49.3676 28.9991 49.2409 28.936 49.1473 28.8243C49.0537 28.7126 49.0007 28.5613 49 28.4033V26.5967C49 26.4384 49.0527 26.2867 49.1465 26.1748C49.2402 26.0629 49.3673 26 49.4999 26C49.6325 26 49.7598 26.0629 49.8535 26.1748C49.9473 26.2867 50 26.4384 50 26.5967V28.4033C49.9993 28.5613 49.9463 28.7126 49.8527 28.8243C49.7591 28.936 49.6323 28.9991 49.4999 29Z" fill="#34A853" stroke="#34A853"/>
<path d="M67.3847 52C67.3207 51.9998 67.2572 51.9883 67.1965 51.966L65.4269 51.3305C65.2712 51.2748 65.142 51.1531 65.0676 50.9921C64.9931 50.8311 64.9796 50.644 65.03 50.4719C65.0804 50.2999 65.1904 50.157 65.3361 50.0747C65.4818 49.9924 65.6512 49.9774 65.8069 50.0331L67.5764 50.6723C67.7155 50.7229 67.8337 50.8266 67.9099 50.9648C67.9862 51.1029 68.0154 51.2666 67.9923 51.4264C67.9692 51.5863 67.8954 51.7318 67.7841 51.8369C67.6727 51.942 67.5311 51.9998 67.3847 52Z" fill="#34A853" stroke="#34A853"/>
<path d="M65.6126 41C65.4663 40.9989 65.3252 40.9404 65.2143 40.8349C65.1035 40.7293 65.0301 40.5837 65.0074 40.4239C64.9848 40.2642 65.0142 40.1007 65.0906 39.9627C65.1669 39.8248 65.2851 39.7213 65.4241 39.6709L67.1953 39.0346C67.272 39.0064 67.3529 38.9952 67.4335 39.0019C67.5141 39.0085 67.5928 39.0328 67.6648 39.0733C67.7369 39.1138 67.8009 39.1698 67.8532 39.2379C67.9055 39.306 67.945 39.385 67.9694 39.4701C68.0202 39.6419 68.0073 39.8289 67.9335 39.9901C67.8596 40.1513 67.7308 40.2735 67.5755 40.3298L65.8045 40.9659C65.7426 40.9886 65.6778 41.0001 65.6126 41Z" fill="#34A853" stroke="#34A853"/>
<path d="M59.5179 32.9997C59.411 32.9966 59.3075 32.9517 59.2212 32.8712C59.1642 32.8187 59.116 32.7523 59.0792 32.676C59.0423 32.5996 59.0176 32.5147 59.0066 32.4262C58.9956 32.3377 58.9984 32.2473 59.0149 32.1602C59.0313 32.073 59.0612 31.9909 59.1026 31.9185L60.0519 30.2512C60.138 30.1162 60.2614 30.0284 60.3967 30.0058C60.532 29.9832 60.669 30.0275 60.7795 30.1296C60.89 30.2317 60.9656 30.3839 60.9908 30.5549C61.016 30.7258 60.9888 30.9026 60.9149 31.0489L59.9658 32.72C59.9145 32.8093 59.8469 32.8814 59.7689 32.9301C59.6908 32.9789 59.6047 33.0028 59.5179 32.9997Z" fill="#34A853" stroke="#34A853"/>
<path d="M32.6149 52C32.4685 51.9998 32.327 51.942 32.2158 51.8369C32.1045 51.7318 32.0307 51.5864 32.0077 51.4266C31.9846 51.2668 32.0138 51.1032 32.09 50.9651C32.1662 50.8269 32.2843 50.7233 32.4233 50.6727L34.1914 50.0337C34.3469 49.9775 34.5164 49.992 34.6623 50.0739C34.8082 50.1558 34.9187 50.2985 34.9695 50.4705C35.0203 50.6425 35.0072 50.8297 34.9331 50.991C34.8591 51.1524 34.73 51.2745 34.5744 51.3307L32.8064 51.966C32.7446 51.9886 32.6799 52.0001 32.6149 52Z" fill="#34A853" stroke="#34A853"/>
<path d="M34.388 41C34.3233 40.9995 34.259 40.988 34.1974 40.966L32.4376 40.3315C32.3591 40.3055 32.2863 40.2624 32.2232 40.2046C32.16 40.1469 32.1079 40.0757 32.0699 39.9952C32.032 39.9148 32.0089 39.8267 32.0021 39.7362C31.9953 39.6457 32.0049 39.5546 32.0304 39.4683C32.0558 39.382 32.0967 39.3022 32.1504 39.2337C32.2041 39.1652 32.2697 39.1093 32.3432 39.0693C32.4167 39.0294 32.4966 39.0062 32.5783 39.0011C32.6601 38.996 32.7418 39.0091 32.8188 39.0396L34.5786 39.6742C34.717 39.7247 34.8347 39.8282 34.9106 39.9662C34.9864 40.1042 35.0153 40.2676 34.9923 40.4272C34.9694 40.5868 34.896 40.7321 34.7852 40.8371C34.6745 40.9421 34.5336 40.9998 34.388 41Z" fill="#34A853" stroke="#34A853"/>
<path d="M39.4653 33C39.3815 32.9997 39.299 32.9742 39.2243 32.9256C39.1497 32.877 39.0851 32.8066 39.0357 32.7202L38.0848 31.049C38.0111 30.9027 37.984 30.7259 38.0092 30.5549C38.0344 30.3839 38.1099 30.2317 38.2202 30.1296C38.3306 30.0275 38.4674 29.9832 38.6025 30.0058C38.7377 30.0284 38.8609 30.1162 38.9469 30.2512L39.8978 31.9186C39.9558 32.0203 39.9906 32.1404 39.9983 32.2658C40.0061 32.3912 39.9866 32.5169 39.9418 32.6289C39.897 32.7409 39.8287 32.8348 39.7446 32.9003C39.6605 32.9659 39.5639 33.0004 39.4653 33Z" fill="#34A853" stroke="#34A853"/>
<path d="M54.4032 62H48.5968C48.4385 62 48.2866 61.9473 48.1747 61.8535C48.0628 61.7598 48 61.6326 48 61.5C48 61.3674 48.0628 61.2402 48.1747 61.1465C48.2866 61.0527 48.4385 61 48.5968 61H54.4032C54.5615 61 54.7132 61.0527 54.8251 61.1465C54.9371 61.2402 55 61.3674 55 61.5C55 61.6326 54.9371 61.7598 54.8251 61.8535C54.7132 61.9473 54.5615 62 54.4032 62Z" fill="#34A853" stroke="#34A853"/>
<path d="M55.3481 66H49.6518C49.5662 66 49.4814 65.987 49.4023 65.9619C49.3232 65.9368 49.2513 65.9 49.1908 65.8535C49.1303 65.8071 49.0823 65.752 49.0495 65.6913C49.0168 65.6307 49 65.5656 49 65.5C49 65.4343 49.0168 65.3693 49.0495 65.3086C49.0823 65.248 49.1303 65.1929 49.1908 65.1465C49.2513 65.1 49.3232 65.0632 49.4023 65.038C49.4814 65.0129 49.5662 65 49.6518 65H55.3481C55.4337 65 55.5185 65.0129 55.5976 65.038C55.6766 65.0632 55.7485 65.1 55.809 65.1465C55.8696 65.1929 55.9176 65.248 55.9503 65.3086C55.9831 65.3693 56 65.4343 56 65.5C56 65.5656 55.9831 65.6307 55.9503 65.6913C55.9176 65.752 55.8696 65.8071 55.809 65.8535C55.7485 65.9 55.6766 65.9368 55.5976 65.9619C55.5185 65.987 55.4337 66 55.3481 66Z" fill="#34A853" stroke="#34A853"/>
</svg>
