<svg width="84" height="84" viewBox="0 0 84 84" fill="none" xmlns="http://www.w3.org/2000/svg">
<path d="M71.9081 7.19754C77.2408 4.02336 84 7.86606 84 14.0719V76C84 80.4183 80.4183 84 76 84H8C3.58172 84 0 80.4183 0 76V54.5481C0 51.728 1.48483 49.1162 3.90813 47.6737L71.9081 7.19754Z" fill="#F6F8FA"/>
<path d="M52.4587 26.9903H52.3798L50.0787 26.6351C49.9904 26.621 49.9066 26.5842 49.8347 26.5279C49.7627 26.4716 49.7048 26.3976 49.6658 26.3121L48.0568 22.8404C47.9924 22.7021 47.9824 22.5422 48.0288 22.3959C48.0752 22.2497 48.1742 22.129 48.3042 22.0605C48.4342 21.992 48.5846 21.9812 48.722 22.0306C48.8595 22.0799 48.9729 22.1854 49.0373 22.3237L50.5189 25.5209L52.5346 25.8439C52.6705 25.8655 52.7938 25.9409 52.8798 26.055C52.9658 26.169 53.0082 26.3133 52.9987 26.4592C52.9891 26.6051 52.9281 26.7417 52.8281 26.842C52.728 26.9422 52.5961 26.9986 52.4587 27V26.9903Z" fill="#34A853" stroke="#34A853"/>
<path d="M31.9818 52.9891C31.6319 52.9897 31.2862 52.9128 30.9686 52.7639C30.6511 52.615 30.3694 52.3976 30.1433 52.1269C29.9172 51.8563 29.7521 51.5388 29.6596 51.1968C29.5671 50.8548 29.5494 50.4964 29.6077 50.1468L31.1183 41.2288L24.7262 34.9125C24.4051 34.5961 24.1778 34.1948 24.0702 33.7541C23.9626 33.3135 23.9789 32.8511 24.1173 32.4193C24.2557 31.9876 24.5107 31.6038 24.8533 31.3114C25.1958 31.0189 25.6124 30.8296 26.0557 30.7648L30.863 30.055C31.0035 30.0343 31.1464 30.071 31.2602 30.157C31.374 30.243 31.4495 30.3713 31.47 30.5137C31.4905 30.6561 31.4542 30.8009 31.3693 30.9162C31.2844 31.0316 31.1578 31.108 31.0173 31.1288L26.21 31.8356C25.9644 31.8721 25.7338 31.9774 25.5442 32.1397C25.3545 32.3019 25.2132 32.5146 25.1364 32.7538C25.0596 32.993 25.0502 33.2492 25.1093 33.4935C25.1684 33.7378 25.2937 33.9605 25.471 34.1365L32.065 40.6483C32.1265 40.7103 32.1724 40.7864 32.1987 40.8702C32.225 40.9539 32.231 41.0429 32.2162 41.1295L30.6613 50.3242C30.6189 50.5722 30.6459 50.8273 30.7391 51.0605C30.8324 51.2937 30.9881 51.4958 31.1889 51.6439C31.3897 51.792 31.6273 51.8801 31.875 51.8983C32.1226 51.9165 32.3705 51.8641 32.5902 51.7469L40.7391 47.4037C40.8163 47.3636 40.9017 47.3427 40.9884 47.3427C41.075 47.3427 41.1604 47.3636 41.2376 47.4037L49.3866 51.7469C49.6066 51.8637 49.8542 51.9158 50.1019 51.8975C50.3495 51.8792 50.5872 51.7911 50.7881 51.6432C50.989 51.4952 51.145 51.2934 51.2387 51.0603C51.3325 50.8273 51.3601 50.5723 51.3184 50.3242L49.7605 41.1295C49.7463 41.0427 49.753 40.9536 49.7799 40.8699C49.8067 40.7861 49.853 40.7102 49.9148 40.6483L56.5088 34.1365C56.6861 33.9605 56.8113 33.7378 56.8704 33.4935C56.9296 33.2492 56.9202 32.993 56.8433 32.7538C56.7665 32.5146 56.6253 32.3019 56.4356 32.1397C56.2459 31.9774 56.0153 31.8721 55.7698 31.8356L46.6593 30.4941C46.5729 30.4813 46.491 30.4471 46.4207 30.3947C46.3503 30.3422 46.2937 30.2731 46.2558 30.1934L42.1813 21.8228C42.0697 21.601 41.8999 21.4148 41.6904 21.2847C41.4809 21.1547 41.24 21.0858 40.9943 21.0858C40.7486 21.0858 40.5078 21.1547 40.2983 21.2847C40.0889 21.4148 39.9189 21.601 39.8073 21.8228L35.7447 30.2024C35.6817 30.3312 35.5709 30.4294 35.4365 30.4754C35.3021 30.5214 35.1551 30.5113 35.028 30.4475C34.9009 30.3837 34.804 30.2713 34.7587 30.1351C34.7133 29.9989 34.7232 29.85 34.7862 29.7212L38.8606 21.3536C39.0592 20.9472 39.3658 20.6051 39.746 20.3659C40.1261 20.1267 40.5647 20 41.0121 20C41.4596 20 41.8981 20.1267 42.2783 20.3659C42.6584 20.6051 42.9651 20.9472 43.1636 21.3536L47.1134 29.4745L55.9479 30.7769C56.3905 30.8427 56.8062 31.0326 57.1481 31.3252C57.4899 31.6177 57.7443 32.0013 57.8826 32.4325C58.0208 32.8638 58.0373 33.3257 57.9304 33.766C57.8234 34.2063 57.5973 34.6076 57.2773 34.9245L50.8852 41.2408L52.3927 50.1588C52.4684 50.6056 52.4192 51.065 52.2507 51.485C52.0823 51.905 51.8011 52.2689 51.4393 52.5355C51.0775 52.8021 50.6494 52.9608 50.2033 52.9936C49.7571 53.0265 49.3107 52.9322 48.9147 52.7214L41.0121 48.5106L33.1124 52.7214C32.7632 52.9041 32.3747 52.9961 31.9818 52.9891Z" fill="#34A853" stroke="#34A853"/>
<path d="M64.775 65.9977C64.4573 65.9978 64.1443 65.9204 63.8637 65.7723L57.8714 62.6491L51.8702 65.7782C51.5467 65.9462 51.1823 66.0213 50.8181 65.9948C50.4539 65.9684 50.1043 65.8415 49.8088 65.6285C49.5133 65.4156 49.2837 65.1249 49.1456 64.7893C49.0075 64.4538 48.9666 64.0866 49.0274 63.7292L50.1746 57.1022L49.3548 56.3119C49.3035 56.264 49.2624 56.2064 49.2337 56.1425C49.2051 56.0786 49.1895 56.0097 49.1879 55.9398C49.1864 55.8699 49.1989 55.8004 49.2247 55.7353C49.2504 55.6703 49.289 55.611 49.3381 55.5608C49.3872 55.5107 49.446 55.4708 49.5108 55.4434C49.5756 55.4161 49.6452 55.4018 49.7157 55.4014C49.7861 55.401 49.8559 55.4145 49.921 55.4412C49.9861 55.4678 50.0453 55.5071 50.095 55.5567L51.1153 56.5402C51.1769 56.6002 51.2231 56.6742 51.2498 56.7557C51.2765 56.8372 51.2829 56.924 51.2686 57.0085L50.0744 63.9077C50.0459 64.0718 50.0642 64.2405 50.1272 64.3948C50.1903 64.5491 50.2956 64.6828 50.4312 64.7809C50.5668 64.8789 50.7273 64.9374 50.8945 64.9496C51.0618 64.9619 51.2292 64.9275 51.3778 64.8503L57.6238 61.5895C57.7004 61.5504 57.7853 61.5301 57.8714 61.5301C57.9576 61.5301 58.0425 61.5504 58.1191 61.5895L64.3621 64.8503C64.5107 64.9275 64.6782 64.9619 64.8455 64.9496C65.0127 64.9374 65.1733 64.8789 65.3088 64.7809C65.4444 64.6828 65.5496 64.5491 65.6127 64.3948C65.6757 64.2405 65.6941 64.0718 65.6656 63.9077L64.4712 57.0085C64.4564 56.924 64.4626 56.8371 64.4894 56.7555C64.5161 56.6739 64.5625 56.5999 64.6246 56.5402L69.6674 51.6548C69.7923 51.5409 69.8815 51.3938 69.9245 51.2309C69.9676 51.068 69.9627 50.8963 69.9101 50.7362C69.8576 50.5761 69.7597 50.4344 69.6283 50.3279C69.4969 50.2215 69.3375 50.1547 69.169 50.1357L62.1888 49.1258C62.1028 49.1138 62.0211 49.0807 61.9511 49.0296C61.8811 48.9786 61.8248 48.911 61.7876 48.8331L58.6647 42.5515C58.5904 42.4021 58.4755 42.2763 58.3329 42.1884C58.1904 42.1005 58.026 42.0539 57.8582 42.0539C57.6904 42.0539 57.5258 42.1005 57.3833 42.1884C57.2408 42.2763 57.126 42.4021 57.0517 42.5515L55.8337 45.0074C55.7715 45.1327 55.6617 45.2284 55.5284 45.2734C55.3951 45.3185 55.2494 45.3091 55.123 45.2474C54.9967 45.1856 54.9003 45.0767 54.8549 44.9444C54.8096 44.8121 54.819 44.6673 54.8811 44.5419L56.0992 42.0861C56.261 41.7601 56.5114 41.4856 56.8223 41.2937C57.1332 41.1017 57.4921 41 57.8582 41C58.2243 41 58.5831 41.1017 58.8939 41.2937C59.2048 41.4856 59.4554 41.7601 59.6172 42.0861L62.6163 48.1189L69.3224 49.0877C69.6842 49.1397 70.0241 49.2912 70.3037 49.5251C70.5832 49.7589 70.7913 50.0658 70.9043 50.4109C71.0172 50.756 71.0305 51.1257 70.9427 51.478C70.8549 51.8302 70.6695 52.1511 70.4075 52.4042L65.5535 57.0876L66.7007 63.7145C66.7487 63.9939 66.7348 64.2803 66.6599 64.5537C66.585 64.8272 66.451 65.0812 66.2671 65.2979C66.0832 65.5147 65.8539 65.6891 65.5952 65.8089C65.3365 65.9288 65.0546 65.9912 64.7691 65.9918L64.775 65.9977Z" fill="#34A853" stroke="#34A853"/>
<path d="M18.2194 65.9882C17.9344 65.9877 17.653 65.9253 17.3947 65.8054C17.1365 65.6856 16.9076 65.5112 16.7242 65.2943C16.5408 65.0775 16.4072 64.8236 16.3328 64.5501C16.2584 64.2767 16.245 63.9904 16.2934 63.7113L17.436 57.0855L12.5916 52.4029C12.33 52.1499 12.1448 51.8291 12.0572 51.4769C11.9695 51.1247 11.9829 50.7551 12.0957 50.41C12.2085 50.0649 12.4161 49.7581 12.6953 49.5243C12.9745 49.2905 13.314 49.139 13.6753 49.0871L20.3722 48.1183L23.3672 42.0866C23.5283 41.7606 23.7782 41.4859 24.0884 41.2939C24.3987 41.1018 24.7568 41 25.1223 41C25.4879 41 25.8461 41.1018 26.1564 41.2939C26.4666 41.4859 26.7164 41.7606 26.8775 42.0866L28.0968 44.542C28.1589 44.6674 28.1682 44.8121 28.1229 44.9444C28.0776 45.0767 27.9815 45.1857 27.8553 45.2474C27.7292 45.3091 27.5835 45.3185 27.4504 45.2734C27.3173 45.2284 27.2076 45.1328 27.1455 45.0074L25.9263 42.552C25.856 42.3987 25.7429 42.2687 25.6003 42.1776C25.4578 42.0864 25.2918 42.038 25.1223 42.038C24.9528 42.038 24.7869 42.0864 24.6444 42.1776C24.5018 42.2687 24.3886 42.3987 24.3184 42.552L21.1997 48.8325C21.1621 48.9101 21.1059 48.9773 21.0361 49.0283C20.9663 49.0794 20.8848 49.1126 20.7991 49.1251L13.8284 50.1348C13.6601 50.1538 13.5009 50.2206 13.3697 50.3271C13.2385 50.4335 13.1409 50.5752 13.0885 50.7353C13.036 50.8954 13.031 51.067 13.0739 51.2299C13.1169 51.3927 13.206 51.5398 13.3308 51.6537L18.3754 56.5411C18.4362 56.601 18.4817 56.6746 18.5079 56.7556C18.534 56.8365 18.5401 56.9226 18.5257 57.0065L17.3477 63.9074C17.313 64.0728 17.3271 64.2447 17.3883 64.4023C17.4494 64.56 17.555 64.6967 17.6924 64.7962C17.8298 64.8957 17.9931 64.9537 18.1629 64.9632C18.3326 64.9727 18.5016 64.9333 18.6494 64.8498L24.8838 61.5895C24.9598 61.5505 25.0441 61.5302 25.1297 61.5302C25.2152 61.5302 25.2995 61.5505 25.3756 61.5895L31.616 64.8498C31.7638 64.9324 31.9322 64.9711 32.1015 64.9612C32.2707 64.9512 32.4335 64.8931 32.5704 64.7938C32.7073 64.6944 32.8126 64.5581 32.8737 64.4009C32.9347 64.2437 32.9489 64.0724 32.9146 63.9074L31.7367 57.0094C31.7216 56.9248 31.7278 56.8379 31.7545 56.7563C31.7812 56.6746 31.8276 56.6007 31.8898 56.5411L32.9059 55.5578C33.0066 55.46 33.1424 55.406 33.2832 55.4076C33.424 55.4093 33.5584 55.4665 33.6568 55.5666C33.7552 55.6667 33.8096 55.8016 33.8079 55.9416C33.8063 56.0815 33.7488 56.215 33.648 56.3128L32.8292 57.1031L33.972 63.7289C34.0335 64.0861 33.9932 64.4533 33.8558 64.789C33.7184 65.1247 33.4892 65.4155 33.1942 65.6286C32.8992 65.8417 32.5502 65.9686 32.1865 65.9949C31.8227 66.0212 31.4588 65.9459 31.1359 65.7775L25.1429 62.649L19.1529 65.7775C18.8643 65.9241 18.5434 65.9966 18.2194 65.9882Z" fill="#34A853" stroke="#34A853"/>
</svg>
