<svg width="84" height="84" viewBox="0 0 84 84" fill="none" xmlns="http://www.w3.org/2000/svg">
<path d="M71.9081 7.19754C77.2408 4.02336 84 7.86606 84 14.0719V76C84 80.4183 80.4183 84 76 84H8C3.58172 84 0 80.4183 0 76V54.5481C0 51.728 1.48483 49.1162 3.90813 47.6737L71.9081 7.19754Z" fill="#F6F8FA"/>
<path d="M61.5831 54.9892C60.944 54.9904 60.3124 54.8487 59.7316 54.5737C59.1509 54.2988 58.6349 53.8973 58.2193 53.3968L48.1313 41.2419C48.0328 41.1109 47.9869 40.9459 48.0032 40.7811C48.0195 40.6162 48.0966 40.4641 48.2186 40.3563C48.3406 40.2484 48.4984 40.1931 48.6589 40.2018C48.8194 40.2104 48.9705 40.2823 49.0809 40.4027L59.1689 52.5575C59.5911 53.0608 60.1523 53.4191 60.7774 53.5847C61.4026 53.7502 62.0617 53.715 62.6669 53.4837C63.2721 53.2524 63.7945 52.8362 64.164 52.2906C64.5335 51.745 64.7326 51.0961 64.7347 50.4307C64.7377 49.6513 64.4671 48.8972 63.9729 48.3074L48.8095 30.0411C48.7111 29.9101 48.6653 29.7451 48.6816 29.5802C48.6979 29.4154 48.775 29.2633 48.897 29.1554C49.019 29.0476 49.1766 28.9922 49.3371 29.0009C49.4976 29.0095 49.6487 29.0814 49.7592 29.2018L64.926 47.4682C65.4798 48.1295 65.8374 48.941 65.9563 49.806C66.0752 50.6711 65.9504 51.5531 65.5965 52.347C65.2427 53.1408 64.6749 53.8131 63.9608 54.2835C63.2468 54.7538 62.4165 55.0026 61.5691 55L61.5831 54.9892Z" fill="#34A853" stroke="#34A853"/>
<path d="M15.8993 45C15.7805 44.9989 15.6641 44.9654 15.5635 44.9032C15.4629 44.8409 15.3818 44.7524 15.3293 44.6474C12.1287 38.7421 11.2292 32.9002 12.6592 27.2909C13.8564 21.7628 18.3186 15.5789 25.5623 14.2779C28.0424 13.8387 30.589 13.9208 33.0346 14.5187C35.4802 15.1166 37.7694 16.2169 39.7519 17.7471C39.8869 17.8509 39.9744 18.0032 39.9952 18.1705C40.016 18.3377 39.9686 18.5063 39.8631 18.6391C39.7575 18.7719 39.6028 18.858 39.4327 18.8785C39.2627 18.899 39.0912 18.8522 38.9562 18.7484C37.1133 17.346 34.9947 16.3349 32.7343 15.7791C30.4739 15.2232 28.1209 15.1346 25.8239 15.519C19.1287 16.7247 15.0212 22.4397 13.9065 27.5765C12.5553 32.8931 13.4154 38.4283 16.4583 44.0516C16.4984 44.125 16.5233 44.2053 16.5317 44.2882C16.54 44.371 16.5316 44.4546 16.507 44.5343C16.4823 44.6139 16.442 44.688 16.3881 44.7521C16.3343 44.8163 16.268 44.8694 16.1932 44.9083C16.1046 44.9627 16.0036 44.9943 15.8993 45Z" fill="#34A853" stroke="#34A853"/>
<path d="M50.5234 64.9778C50.1738 64.9781 49.8253 64.9346 49.4854 64.8484C49.3221 64.8072 49.1811 64.6994 49.0934 64.549C49.0056 64.3985 48.9783 64.2175 49.0175 64.0459C49.0583 63.8745 49.1617 63.7268 49.3052 63.6348C49.4487 63.5428 49.6208 63.5138 49.7845 63.554C50.0262 63.6168 50.2744 63.6479 50.5234 63.6465C51.1333 63.6429 51.7297 63.4566 52.2425 63.1094C52.7553 62.7623 53.1634 62.2688 53.4189 61.6866C53.6744 61.1044 53.7668 60.4576 53.6852 59.8222C53.6036 59.1868 53.3513 58.5891 52.958 58.099C52.8488 57.9646 52.7948 57.7902 52.808 57.614C52.8212 57.4378 52.9006 57.2744 53.0284 57.1596C53.1563 57.0449 53.3221 56.9882 53.4897 57.0021C53.6573 57.0159 53.8127 57.0992 53.9219 57.2336C54.4792 57.9167 54.8385 58.7535 54.957 59.6447C55.0754 60.5359 54.9481 61.4442 54.5903 62.2617C54.2326 63.0792 53.6593 63.7717 52.9384 64.2571C52.2175 64.7424 51.3794 65.0003 50.5234 65V64.9778Z" fill="#34A853" stroke="#34A853"/>
<path d="M55.6154 59.9928C54.9792 59.9941 54.3502 59.851 53.7722 59.5737C53.1942 59.2963 52.681 58.8912 52.268 58.3864L42.229 46.153C42.1588 46.0933 42.102 46.0183 42.0625 45.9334C42.0229 45.8484 42.0017 45.7555 42.0001 45.6611C41.9985 45.5666 42.0167 45.473 42.0533 45.3866C42.09 45.3003 42.1443 45.2234 42.2124 45.1611C42.2805 45.0989 42.3608 45.0529 42.4477 45.0263C42.5346 44.9997 42.626 44.9932 42.7156 45.0072C42.8052 45.0212 42.8907 45.0554 42.9663 45.1074C43.0419 45.1594 43.1056 45.228 43.1532 45.3083L53.1922 57.5418C53.4616 57.87 53.7903 58.1398 54.1596 58.3356C54.5289 58.5314 54.9316 58.6494 55.3447 58.6829C55.7577 58.7164 56.1732 58.6648 56.5671 58.5309C56.961 58.3971 57.3258 58.1836 57.6406 57.9027C57.9554 57.6219 58.214 57.2791 58.4017 56.894C58.5895 56.5089 58.7027 56.089 58.7349 55.6582C58.767 55.2275 58.7176 54.7944 58.5892 54.3836C58.4608 53.9729 58.2561 53.5925 57.9868 53.2642C57.8801 53.1327 57.8274 52.9626 57.8404 52.7909C57.8534 52.6192 57.9308 52.4598 58.0559 52.3473C58.1181 52.2918 58.1903 52.2496 58.2682 52.2232C58.3461 52.1967 58.4282 52.1866 58.5099 52.1933C58.5916 52.2 58.6712 52.2234 58.7442 52.2623C58.8172 52.3011 58.882 52.3545 58.9352 52.4195C59.485 53.0858 59.8398 53.9028 59.9571 54.7732C60.0745 55.6436 59.9496 56.5308 59.5973 57.3294C59.245 58.1279 58.6802 58.8042 57.97 59.2776C57.2598 59.751 56.4342 60.0018 55.5913 60L55.6154 59.9928Z" fill="#34A853" stroke="#34A853"/>
<path d="M67.8839 44.9994C67.7774 44.9993 67.6726 44.973 67.5788 44.9231C67.4329 44.842 67.3253 44.7073 67.2793 44.5481C67.2334 44.389 67.2528 44.2183 67.3334 44.0732C70.5421 38.3671 71.4748 32.7512 70.1142 27.3781C69.0236 22.3033 65.0085 16.6805 58.486 15.5011C56.2334 15.1192 53.925 15.2041 51.7073 15.7505C49.4896 16.2968 47.4107 17.2927 45.6022 18.675C44.5374 19.5022 43.5684 20.4434 42.7128 21.4812C42.6956 21.5044 42.6756 21.5254 42.6532 21.5437C41.9974 22.1403 41.0926 22.893 40.0476 23.7671L39.462 24.2562C36.8635 26.4312 32.0277 30.4792 31.2527 32.6506C31.2527 32.6992 31.3124 32.942 31.7332 33.2611C33.1183 34.3226 36.5094 34.9955 39.3744 33.0981C41.0013 32.045 42.4981 30.8075 43.8348 29.4108C44.4169 28.7864 44.8447 28.2418 45.2375 27.7597C45.4619 27.4752 45.6619 27.2186 45.8618 26.9862C45.9706 26.8601 46.1256 26.782 46.2926 26.769C46.4596 26.756 46.6251 26.8092 46.7525 26.9168C46.8799 27.0244 46.9589 27.1777 46.972 27.3429C46.9852 27.5082 46.9314 27.6718 46.8225 27.7978C46.6332 28.0164 46.4439 28.2557 46.2335 28.5228C45.8408 29.0258 45.3954 29.5947 44.7747 30.2572C43.3728 31.7254 41.8015 33.0258 40.0932 34.1318C36.6741 36.4108 32.701 35.5713 30.9757 34.2497C30.1656 33.6323 29.8396 32.8969 30.0745 32.2344C30.8951 29.9381 34.7664 26.563 38.6624 23.3023L39.2482 22.8132C40.2651 21.9634 41.1487 21.228 41.7799 20.6557C42.6873 19.5602 43.7127 18.5657 44.8378 17.6899C46.7816 16.1794 49.0273 15.0943 51.4266 14.5065C53.826 13.9187 56.3243 13.8415 58.756 14.2801C65.822 15.5566 70.1844 21.6373 71.3591 27.1145C72.7934 32.7824 71.8185 38.7036 68.4521 44.6976C68.3935 44.7938 68.3099 44.8726 68.2099 44.9257C68.11 44.9788 67.9973 45.0043 67.8839 44.9994Z" fill="#34A853" stroke="#34A853"/>
<path d="M21.7459 55C20.6328 55.0022 19.5589 54.598 18.7346 53.8665L18.4778 53.6405C17.5956 52.859 17.0663 51.7673 17.0058 50.6048C16.9453 49.4422 17.3586 48.3036 18.1551 47.4386L20.9171 44.447C21.7163 43.5832 22.8332 43.0649 24.0229 43.0057C25.2126 42.9465 26.3776 43.3514 27.2624 44.1314L27.5192 44.361C27.9568 44.7474 28.3124 45.2144 28.5654 45.7352C28.8185 46.2561 28.9642 46.8206 28.9942 47.3966C29.0242 47.9725 28.9378 48.5485 28.7401 49.0918C28.5424 49.6351 28.2372 50.135 27.8419 50.5629L25.0799 53.5544C24.6588 54.0104 24.1445 54.3748 23.5702 54.6238C22.9958 54.8729 22.3742 55.001 21.7459 55ZM19.6222 52.9087C20.2465 53.4596 21.0688 53.7456 21.9085 53.7039C22.7482 53.6622 23.5366 53.2962 24.1006 52.6864L26.8626 49.6984C27.424 49.0871 27.7151 48.2833 27.6725 47.4627C27.6299 46.642 27.257 45.8713 26.6352 45.3187L26.3784 45.0891C25.7525 44.5396 24.9297 44.2546 24.0897 44.2964C23.6724 44.3145 23.2629 44.4135 22.8851 44.5878C22.5073 44.7621 22.1687 45.0081 21.889 45.3115L19.1308 48.3031C18.5675 48.9136 18.275 49.7177 18.3177 50.5389C18.3603 51.3601 18.7346 52.1312 19.3582 52.6828L19.6222 52.9087Z" fill="#34A853" stroke="#34A853"/>
<path d="M25.6409 61C24.5538 61.0024 23.5051 60.6149 22.6999 59.9135L22.4484 59.6927C21.5839 58.9417 21.0649 57.8918 21.0057 56.7736C20.9464 55.6554 21.3517 54.5603 22.1324 53.7289L28.0899 47.3926C28.4768 46.981 28.9444 46.6467 29.4658 46.4087C29.9872 46.1707 30.5523 46.0336 31.1289 46.0055C31.7055 45.9773 32.2822 46.0585 32.8261 46.2444C33.37 46.4303 33.8704 46.7174 34.2988 47.0891L34.5502 47.3098C34.9787 47.6815 35.3268 48.1305 35.5746 48.6314C35.8223 49.1322 35.965 49.6751 35.9943 50.2289C36.0237 50.7827 35.9391 51.3366 35.7455 51.859C35.5519 52.3814 35.2532 52.8621 34.8662 53.2736L28.9086 59.6099C28.5216 60.0206 28.0541 60.3539 27.5328 60.5907C27.0115 60.8274 26.4466 60.963 25.8706 60.9896L25.6409 61ZM31.3541 47.2443C30.9194 47.2433 30.4895 47.3303 30.0923 47.4997C29.695 47.6691 29.3394 47.9171 29.0487 48.2274L23.0912 54.5602C22.5398 55.1472 22.2534 55.9205 22.2952 56.7102C22.3369 57.4999 22.7034 58.2414 23.3139 58.7717L23.5652 58.989C24.1763 59.5187 24.9815 59.7937 25.8036 59.7536C26.6257 59.7135 27.3976 59.3616 27.9498 58.7752L33.9074 52.4423C34.1809 52.1519 34.392 51.8125 34.5288 51.4435C34.6656 51.0746 34.7255 50.6834 34.7049 50.2922C34.6842 49.9011 34.5834 49.5177 34.4083 49.164C34.2333 48.8103 33.9874 48.4932 33.6847 48.2308L33.4333 48.01C32.8635 47.5153 32.1221 47.2423 31.3541 47.2443Z" fill="#34A853" stroke="#34A853"/>
<path d="M31.64 66C30.5528 66.0011 29.5043 65.6124 28.6996 64.91L28.4484 64.6927C27.5839 63.941 27.0649 62.8904 27.0057 61.7716C26.9465 60.6527 27.3516 59.557 28.1324 58.7249L34.0886 52.3916C34.8709 51.5609 35.9642 51.0624 37.1287 51.0055C38.2931 50.9486 39.4335 51.3379 40.2995 52.088L40.5472 52.3054C40.9766 52.6768 41.3255 53.126 41.5738 53.6272C41.8221 54.1284 41.965 54.6718 41.9943 55.2262C42.0237 55.7806 41.9388 56.3351 41.7447 56.8579C41.5506 57.3808 41.251 57.8617 40.8631 58.2731L34.9107 64.6064C34.5241 65.0183 34.0561 65.3523 33.5341 65.5892C33.0121 65.826 32.4465 65.961 31.8698 65.9862L31.64 66ZM29.5649 63.9889C29.8676 64.2518 30.221 64.4547 30.6053 64.5862C30.9896 64.7177 31.3972 64.7752 31.8046 64.7553C32.212 64.7354 32.6113 64.6386 32.9798 64.4704C33.3483 64.3023 33.6786 64.066 33.952 63.7751L39.9046 57.4383C40.178 57.1478 40.3892 56.8083 40.526 56.4394C40.6628 56.0704 40.7225 55.6792 40.7018 55.288C40.6812 54.8968 40.5806 54.5134 40.4056 54.1597C40.2306 53.8059 39.9846 53.4888 39.6819 53.2264L39.4307 53.0091C38.8193 52.4802 38.0146 52.2058 37.193 52.2459C36.3713 52.2859 35.5997 52.6373 35.0471 53.2229L29.0909 59.5597C28.5414 60.1476 28.2565 60.9206 28.2982 61.7098C28.3399 62.499 28.7049 63.2402 29.3135 63.7716L29.5649 63.9889Z" fill="#34A853" stroke="#34A853"/>
<path d="M38.7486 70C37.6362 70.0018 36.5629 69.599 35.7373 68.8697L35.4807 68.6437C35.0427 68.2568 34.687 67.7893 34.4339 67.2678C34.1808 66.7464 34.0353 66.1813 34.0057 65.6047C33.976 65.0282 34.0629 64.4516 34.2612 63.9079C34.4596 63.3643 34.7655 62.8642 35.1615 62.4363L37.9198 59.4475C38.719 58.5834 39.8359 58.0649 41.0256 58.0057C42.2152 57.9465 43.3803 58.3515 44.265 59.1317L44.5219 59.3578C45.4043 60.1401 45.9337 61.2327 45.9942 62.3962C46.0547 63.5597 45.6413 64.6992 44.8446 65.5651L42.0828 68.554C41.6623 69.0108 41.1479 69.3758 40.5734 69.625C39.9989 69.8741 39.377 70.0019 38.7486 70ZM36.6249 67.9117C37.2492 68.4627 38.0715 68.7488 38.9112 68.7071C39.7509 68.6653 40.5393 68.2993 41.1033 67.6892L43.8653 64.7004C44.4274 64.0883 44.7186 63.2832 44.6753 62.4614C44.632 61.6397 44.2577 60.8682 43.6343 60.3158L43.3812 60.0898C42.7559 59.5394 41.9331 59.2538 41.0931 59.2955C40.2531 59.3372 39.4642 59.7028 38.899 60.3122L36.1408 63.3046C35.8615 63.6068 35.6457 63.9599 35.5059 64.3437C35.3662 64.7274 35.3052 65.1344 35.3263 65.5413C35.3474 65.9482 35.4504 66.347 35.6291 66.7149C35.8079 67.0829 36.0591 67.4127 36.3683 67.6857L36.6249 67.9117Z" fill="#34A853" stroke="#34A853"/>
</svg>
