<svg width="84" height="84" viewBox="0 0 84 84" fill="none" xmlns="http://www.w3.org/2000/svg">
<path d="M71.9081 7.19754C77.2408 4.02336 84 7.86606 84 14.0719V76C84 80.4183 80.4183 84 76 84H8C3.58172 84 0 80.4183 0 76V54.5481C0 51.728 1.48483 49.1162 3.90813 47.6737L71.9081 7.19754Z" fill="#F6F8FA"/>
<path d="M41.3592 65C40.9257 65.001 40.4925 64.9745 40.0621 64.9207L36.0864 64.4131C35.9104 64.3832 35.7525 64.2841 35.6456 64.1365C35.5388 63.989 35.4913 63.8045 35.5131 63.6216C35.5349 63.4388 35.6244 63.2717 35.7627 63.1554C35.901 63.0391 36.0775 62.9825 36.2552 62.9976L40.2309 63.5051C41.3081 63.618 42.3951 63.5793 43.4622 63.3901L52.0968 61.7486C52.5476 61.6455 52.9486 61.3813 53.2294 61.0027C53.5102 60.6241 53.6527 60.1553 53.6319 59.6788C53.6273 59.5457 53.6131 59.4132 53.5896 59.2823C53.5171 58.8407 53.2912 58.4415 52.9542 58.1598C52.6172 57.878 52.1922 57.7329 51.7591 57.7518L44.6787 58.2593C42.8789 58.4139 40.9639 57.8945 39.6898 57.5496L37.1647 56.9112C36.0589 56.6329 34.9288 56.4708 33.7915 56.4274L28.7181 56.6297C28.5349 56.637 28.3564 56.5689 28.2218 56.4402C28.0872 56.3116 28.0076 56.133 28.0005 55.9437C27.9934 55.7544 28.0594 55.5699 28.1839 55.4309C28.3084 55.2918 28.4812 55.2096 28.6644 55.2022L33.7646 55H33.8183C35.0566 55.0446 36.2872 55.2199 37.4909 55.5234L40.0238 56.1657C41.2134 56.4869 42.9901 56.9587 44.5597 56.8358L51.6439 56.3283C52.4139 56.2801 53.1742 56.5263 53.78 57.0198C54.3857 57.5133 54.7947 58.2198 54.9289 59.0047C54.9669 59.2142 54.9901 59.4262 54.9981 59.6391C55.0248 60.4544 54.7723 61.2532 54.2852 61.8951C53.798 62.537 53.1073 62.9808 52.3347 63.1483L43.6886 64.7898C42.9187 64.9234 42.1399 64.9937 41.3592 65Z" fill="#34A853" stroke="#34A853"/>
<path d="M37.8436 73C34.016 73.0008 30.2385 72.1427 26.7974 70.491L26.7406 70.4611L26.2965 70.1956C26.1525 70.0982 26.0518 69.9501 26.0152 69.7817C25.9786 69.6134 26.0088 69.4376 26.0997 69.2906C26.1906 69.1435 26.3353 69.0364 26.5039 68.9912C26.6725 68.946 26.8522 68.9662 27.0062 69.0477L27.4235 69.2945C31.1118 71.0602 35.2003 71.8575 39.2931 71.609L47.922 70.9883C51.8746 70.7314 55.7053 69.5343 59.0858 67.4997L69.2933 61.3862C69.8818 61.0182 70.3144 60.4519 70.5106 59.7929C70.7067 59.1338 70.6531 58.427 70.3596 57.804C70.1861 57.4208 69.9163 57.0875 69.5756 56.8356C69.235 56.5837 68.8348 56.4215 68.4129 56.3645C67.957 56.3077 67.4941 56.383 67.081 56.5813L58.8847 60.4514C58.7211 60.5287 58.533 60.5389 58.3619 60.4796C58.1908 60.4204 58.0506 60.2966 57.9721 60.1354C57.8936 59.9743 57.8832 59.789 57.9433 59.6203C58.0035 59.4517 58.1292 59.3135 58.2927 59.2361L66.4853 55.3698C67.1349 55.0618 67.8602 54.9425 68.5761 55.0258C69.232 55.1083 69.8553 55.3551 70.3868 55.7426C70.9183 56.1302 71.3401 56.6455 71.6118 57.2394C72.0422 58.1634 72.1175 59.21 71.8237 60.1845C71.5298 61.1591 70.8868 61.9953 70.0142 62.5378L59.8105 68.6514C56.2429 70.7987 52.1999 72.0613 48.0283 72.3307L39.3993 72.9514C38.8757 72.985 38.3597 73 37.8436 73Z" fill="#34A853" stroke="#34A853"/>
<path d="M18.8184 71C18.6736 71.0006 18.5289 70.9916 18.3851 70.9731L15.0547 70.5388C14.1382 70.4159 13.3054 69.9186 12.7379 69.1553C12.1703 68.392 11.9142 67.4248 12.0255 66.4646L13.7256 52.1975C13.843 51.2382 14.318 50.3664 15.0472 49.7723C15.7764 49.1783 16.7004 48.9102 17.6177 49.0266L20.9444 49.461C21.8618 49.5819 22.6958 50.0787 23.2637 50.8425C23.8316 51.6062 24.0869 52.5745 23.9737 53.5351L22.2774 67.8137C22.1686 68.6938 21.7577 69.5024 21.1212 70.0887C20.4848 70.675 19.6662 70.9989 18.8184 71ZM17.1844 50.3834C16.6573 50.3863 16.149 50.5893 15.754 50.9547C15.3589 51.3202 15.1039 51.8232 15.0364 52.3705L13.3363 66.6376C13.2668 67.2342 13.4259 67.8354 13.779 68.3095C14.1321 68.7835 14.6502 69.0917 15.22 69.1666L18.5467 69.601C19.1169 69.6728 19.6912 69.5059 20.1444 69.1366C20.5976 68.7673 20.8931 68.2255 20.9665 67.6292L22.6628 53.3621C22.6991 53.0674 22.6789 52.768 22.6032 52.4816C22.5276 52.1951 22.398 51.9274 22.2222 51.694C22.0485 51.4582 21.8318 51.2607 21.5848 51.1129C21.3377 50.9652 21.0652 50.8701 20.7829 50.8331L17.4525 50.3988C17.3635 50.388 17.274 50.3828 17.1844 50.3834Z" fill="#34A853" stroke="#34A853"/>
<path d="M64.5716 30H29.4246C28.7812 29.999 28.1645 29.7332 27.71 29.2612C27.2554 28.7892 27 28.1494 27 27.4824V24.5176C27 23.8505 27.2554 23.2108 27.71 22.7388C28.1645 22.2668 28.7812 22.001 29.4246 22H64.5716C65.2153 22.001 65.8324 22.2666 66.2876 22.7385C66.7428 23.2104 66.999 23.8502 67 24.5176V27.4904C66.997 28.1564 66.7399 28.7941 66.2849 29.2643C65.8299 29.7345 65.214 29.999 64.5716 30ZM29.4246 23.4171C29.1458 23.4182 28.8787 23.5337 28.6819 23.7385C28.485 23.9433 28.3746 24.2206 28.3746 24.5096V27.4824C28.3746 27.7715 28.485 28.0488 28.6819 28.2536C28.8787 28.4583 29.1458 28.5739 29.4246 28.575H64.5716C64.8507 28.5739 65.1182 28.4585 65.3156 28.2538C65.513 28.0491 65.6244 27.7719 65.6254 27.4824V24.5176C65.6244 24.2281 65.513 23.9508 65.3156 23.7462C65.1182 23.5415 64.8507 23.4261 64.5716 23.425L29.4246 23.4171Z" fill="#34A853" stroke="#34A853"/>
<path d="M30.5 52C30.4342 52.0005 30.3691 51.9833 30.3082 51.9495C30.2474 51.9157 30.1922 51.8659 30.1457 51.803C30.0992 51.7401 30.0623 51.6654 30.0373 51.5831C30.0123 51.5008 29.9996 51.4127 30 51.3237V34.6763C30 34.4969 30.0527 34.3249 30.1465 34.1981C30.2403 34.0712 30.3674 34 30.5 34C30.6326 34 30.7598 34.0712 30.8535 34.1981C30.9473 34.3249 31 34.4969 31 34.6763V51.3237C31 51.5031 30.9473 51.6751 30.8535 51.8019C30.7598 51.9287 30.6326 52 30.5 52Z" fill="#34A853" stroke="#34A853"/>
<path d="M63.5 54C63.4343 54 63.3694 53.9819 63.3087 53.9467C63.248 53.9116 63.1929 53.86 63.1465 53.795C63.1001 53.7301 63.0632 53.653 63.0381 53.5681C63.013 53.4832 63 53.3922 63 53.3003V34.6997C63 34.5141 63.0527 34.3362 63.1465 34.2049C63.2402 34.0737 63.3674 34 63.5 34C63.6326 34 63.7598 34.0737 63.8536 34.2049C63.9473 34.3362 64 34.5141 64 34.6997V53.3003C64.0004 53.3923 63.9877 53.4835 63.9627 53.5687C63.9377 53.6538 63.9009 53.7311 63.8544 53.7962C63.8079 53.8613 63.7526 53.9128 63.6918 53.9478C63.6309 53.9827 63.5658 54.0005 63.5 54Z" fill="#34A853" stroke="#34A853"/>
<path d="M43.5 54C43.3676 53.999 43.2408 53.9262 43.1472 53.7974C43.0536 53.6685 43.0007 53.4941 43 53.3119V34.6881C43 34.5056 43.0526 34.3306 43.1464 34.2015C43.2402 34.0725 43.3674 34 43.5 34C43.6326 34 43.7598 34.0725 43.8535 34.2015C43.9473 34.3306 44 34.5056 44 34.6881V53.3119C44 53.4944 43.9473 53.6694 43.8535 53.7985C43.7598 53.9275 43.6326 54 43.5 54Z" fill="#34A853" stroke="#34A853"/>
<path d="M49.5 53C49.3674 53 49.2402 52.9295 49.1464 52.8041C49.0527 52.6786 49 52.5084 49 52.331V34.669C49 34.4916 49.0527 34.3214 49.1464 34.1959C49.2402 34.0705 49.3674 34 49.5 34C49.6326 34 49.7598 34.0705 49.8536 34.1959C49.9473 34.3214 50 34.4916 50 34.669V52.331C49.9993 52.5081 49.9464 52.6777 49.8528 52.803C49.7591 52.9282 49.6324 52.999 49.5 53Z" fill="#34A853" stroke="#34A853"/>
<path d="M40.4218 23.9844C40.3402 23.9834 40.2593 23.9692 40.1826 23.9422C36.4033 22.6161 32.5457 19.8489 33.0436 16.0775C33.1876 15.0097 33.7036 14.023 34.5048 13.2837C35.306 12.5444 36.3434 12.0976 37.4422 12.0187C39.0104 11.8769 44.4754 12.2717 47.9567 23.0722C47.9897 23.1598 48.004 23.253 47.999 23.3462C47.994 23.4394 47.9697 23.5307 47.9276 23.6144C47.8855 23.6982 47.8264 23.7727 47.754 23.8335C47.6816 23.8943 47.5974 23.9401 47.5063 23.9682C47.4152 23.9962 47.3192 24.0059 47.2242 23.9966C47.1292 23.9873 47.0372 23.9593 46.9536 23.9143C46.87 23.8692 46.7966 23.808 46.7379 23.7344C46.6792 23.6608 46.6363 23.5764 46.612 23.4861C44.0951 15.6828 40.2963 13.157 37.5638 13.3908C36.7858 13.4407 36.0492 13.7511 35.478 14.2698C34.9068 14.7885 34.5357 15.4837 34.4275 16.2385C34.1726 18.1817 35.6702 20.8799 40.6451 22.6276C40.8033 22.6814 40.9367 22.7883 41.0216 22.9294C41.1065 23.0704 41.1373 23.2364 41.1086 23.3976C41.0798 23.5589 40.9934 23.7049 40.8647 23.8095C40.736 23.9142 40.5734 23.9707 40.4061 23.969L40.4218 23.9844Z" fill="#34A853" stroke="#34A853"/>
<path d="M53.594 23.969C53.427 23.9698 53.2651 23.9126 53.1371 23.8076C53.0091 23.7026 52.9234 23.5567 52.8951 23.3957C52.8669 23.2347 52.898 23.0692 52.9829 22.9285C53.0678 22.7878 53.201 22.6812 53.3588 22.6275C58.3298 20.8797 59.8275 18.1813 59.5726 16.238C59.4643 15.4832 59.0933 14.7879 58.5221 14.2692C57.9508 13.7505 57.2143 13.44 56.4363 13.3901C53.692 13.1563 49.9049 15.6899 47.388 23.4861C47.3637 23.5763 47.3208 23.6608 47.2621 23.7344C47.2034 23.808 47.13 23.8692 47.0464 23.9142C46.9628 23.9593 46.8708 23.9873 46.7758 23.9966C46.6808 24.0059 46.5848 23.9962 46.4938 23.9681C46.4027 23.9401 46.3184 23.8943 46.246 23.8335C46.1736 23.7727 46.1145 23.6982 46.0724 23.6144C46.0303 23.5306 46.006 23.4394 46.001 23.3462C45.996 23.253 46.0104 23.1597 46.0434 23.0721C49.5247 12.2709 54.9739 11.88 56.5617 12.018C57.6575 12.0971 58.6921 12.542 59.4922 13.2782C60.2924 14.0144 60.8093 14.9972 60.9564 16.0617C61.4543 19.8333 57.5967 22.6007 53.8174 23.9269C53.7457 23.9525 53.6703 23.9667 53.594 23.969Z" fill="#34A853" stroke="#34A853"/>
</svg>
