<svg width="84" height="84" viewBox="0 0 84 84" fill="none" xmlns="http://www.w3.org/2000/svg">
<path d="M71.9081 7.19754C77.2408 4.02336 84 7.86606 84 14.0719V76C84 80.4183 80.4183 84 76 84H8C3.58172 84 0 80.4183 0 76V54.5481C0 51.728 1.48483 49.1162 3.90813 47.6737L71.9081 7.19754Z" fill="#F6F8FA"/>
<path d="M23.6671 37C23.5283 37.0003 23.3929 36.9571 23.2798 36.8765C23.1667 36.7959 23.0816 36.682 23.0363 36.5505C22.9911 36.4191 22.988 36.2768 23.0275 36.1436C23.067 36.0103 23.1471 35.8927 23.2566 35.8072L27.9458 32.1254C28.0852 32.025 28.258 31.9824 28.428 32.0066C28.598 32.0308 28.7521 32.1199 28.8581 32.2552C28.9641 32.3905 29.0137 32.5617 28.9967 32.7328C28.9797 32.904 28.8973 33.0619 28.7668 33.1736L24.0776 36.8555C23.9609 36.9486 23.8162 36.9995 23.6671 37Z" fill="#34A853" stroke="#34A853"/>
<path d="M60.3444 36C60.1978 35.9996 60.0557 35.9511 59.941 35.8624L42.3541 22.4516L33.0792 29.5099C33.0121 29.5655 32.9341 29.6074 32.8499 29.633C32.7658 29.6587 32.6771 29.6675 32.5893 29.659C32.5015 29.6505 32.4165 29.6249 32.3392 29.5836C32.2618 29.5424 32.1939 29.4864 32.1395 29.419C32.085 29.3516 32.0452 29.2742 32.0223 29.1915C31.9995 29.1087 31.9941 29.0224 32.0065 28.9375C32.0189 28.8527 32.0488 28.7712 32.0945 28.6979C32.1402 28.6247 32.2007 28.5611 32.2723 28.5111L41.9507 21.1352C42.0658 21.0476 42.2079 21 42.3541 21C42.5004 21 42.6424 21.0476 42.7576 21.1352L60.7479 34.8424C60.8555 34.9238 60.9342 35.0358 60.973 35.1628C61.0118 35.2898 61.0087 35.4254 60.9643 35.5506C60.9198 35.6758 60.8362 35.7844 60.7251 35.8612C60.6139 35.938 60.4808 35.9791 60.3444 35.9788V36Z" fill="#34A853" stroke="#34A853"/>
<path d="M63.4063 72H20.6204C20.0433 72 19.4895 71.7745 19.0798 71.3725C18.67 70.9706 18.4374 70.4247 18.4326 69.8539V38.4735H12.3432C12.0639 38.4761 11.7908 38.3916 11.5627 38.2321C11.3345 38.0726 11.163 37.8461 11.0722 37.5848C10.9814 37.3234 10.9761 37.0404 11.057 36.7759C11.1379 36.5114 11.3008 36.2788 11.5228 36.111L21.4262 28.4246V17.3441C21.4262 16.8036 21.6433 16.2853 22.0296 15.9031C22.416 15.5209 22.94 15.3062 23.4864 15.3062H28.4527C28.9991 15.3062 29.5231 15.5209 29.9094 15.9031C30.2958 16.2853 30.5129 16.8036 30.5129 17.3441V21.3694L40.7226 13.4342C41.0872 13.1528 41.5363 13 41.9988 13C42.4612 13 42.9104 13.1528 43.275 13.4342L72.482 36.1038C72.7025 36.272 72.864 36.5044 72.944 36.7682C73.0239 37.0321 73.0182 37.3141 72.9276 37.5745C72.837 37.8349 72.6662 38.0607 72.439 38.2201C72.2119 38.3794 71.94 38.4643 71.6616 38.4627H65.5722V69.8431C65.5704 70.412 65.342 70.9574 64.9366 71.3611C64.5313 71.7648 63.9815 71.9943 63.4063 72ZM23.501 16.5939C23.309 16.5984 23.1262 16.6759 22.9904 16.8102C22.8546 16.9445 22.7764 17.1254 22.7717 17.3152V28.7095C22.7716 28.8082 22.7489 28.9055 22.7054 28.9942C22.6618 29.0829 22.5984 29.1607 22.5201 29.2217L12.3615 37.1101L19.1218 37.1462C19.2955 37.1471 19.4619 37.2158 19.5848 37.3374C19.7077 37.4589 19.7771 37.6235 19.7781 37.7954V69.8358C19.7781 70.0606 19.8684 70.2763 20.0291 70.4352C20.1898 70.5942 20.4077 70.6835 20.6349 70.6835H63.4209C63.6482 70.6835 63.8661 70.5942 64.0268 70.4352C64.1875 70.2763 64.2778 70.0606 64.2778 69.8358V37.7954C64.2778 37.6232 64.3469 37.4581 64.47 37.3363C64.5931 37.2146 64.7601 37.1462 64.9341 37.1462H71.6798V37.1101L42.4728 14.4369C42.34 14.3343 42.1764 14.2785 42.0079 14.2785C41.8394 14.2785 41.6757 14.3343 41.543 14.4369L30.2722 23.1801C30.1763 23.2561 30.0605 23.3033 29.9383 23.3161C29.8161 23.3289 29.6928 23.3067 29.583 23.2522C29.4734 23.1989 29.3811 23.1162 29.3166 23.0136C29.2522 22.9109 29.2181 22.7924 29.2184 22.6715V17.3116C29.2138 17.1218 29.1354 16.9409 28.9997 16.8066C28.8639 16.6723 28.6811 16.5948 28.4891 16.5902L23.501 16.5939Z" fill="#34A853" stroke="#34A853"/>
<path d="M39.1005 66H39.0639C36.8613 65.8285 34.6884 65.3825 32.5953 64.6722C28.1438 63.1238 25.5483 60.5344 25.087 57.1837C24.7466 55.2307 25.3726 52.6156 27.5398 51.24C28.3853 50.7055 29.3472 50.3848 30.343 50.3054C31.3389 50.2259 32.339 50.3901 33.2579 50.7839C33.6482 49.8519 34.2591 49.0298 35.0374 48.3888C35.8157 47.7478 36.7379 47.3074 37.7241 47.1058C40.2024 46.5909 42.4538 48.0364 43.5813 49.6805C45.5508 52.3949 45.4703 56.0692 43.336 60.288C42.3197 62.2597 41.0615 64.0959 39.5911 65.7536C39.5319 65.8278 39.4573 65.8883 39.3727 65.9308C39.288 65.9734 39.1952 65.997 39.1005 66ZM30.8345 51.6151C29.9285 51.6136 29.0404 51.8685 28.2719 52.3507C26.5916 53.4174 26.1194 55.444 26.3866 56.9888C27.2579 63.293 36.948 64.4883 38.8333 64.6575C40.067 63.2267 46.2171 55.6021 42.4941 50.4823C41.6082 49.1655 39.8693 48.0327 37.9547 48.4299C37.0939 48.6126 36.2979 49.0244 35.6499 49.6223C35.002 50.2202 34.5261 50.9822 34.272 51.8284C34.2505 51.9391 34.2016 52.0425 34.13 52.1293C34.0584 52.2161 33.9662 52.2833 33.8619 52.325C33.7638 52.3616 33.6586 52.3751 33.5545 52.3642C33.4503 52.3534 33.3501 52.3186 33.2616 52.2625C32.5172 51.8446 31.6799 51.6219 30.8272 51.6151H30.8345Z" fill="#34A853" stroke="#34A853"/>
<path d="M50.5511 49.9928C50.4568 49.9924 50.3636 49.973 50.2774 49.9359C50.1912 49.8989 50.114 49.845 50.0504 49.7776C49.8465 49.5517 45.018 44.2469 47.9329 40.5203C48.3329 39.9576 48.8941 39.5201 49.5476 39.2614C50.2011 39.0027 50.9185 38.9341 51.6117 39.0641C52.2798 39.9393 53.1779 40.6257 54.2127 41.052C55.2476 41.4783 56.3815 41.6291 57.497 41.4887C58.806 42.3208 59.1695 43.8882 58.9321 45.0754C58.1904 49.6664 50.8848 49.9857 50.5733 50L50.5511 49.9928ZM50.9219 40.28C50.5459 40.2934 50.1782 40.3907 49.8476 40.5643C49.5169 40.7379 49.2322 40.9831 49.0158 41.2807C47.0429 43.7914 50.0207 47.6866 50.87 48.6801C52.1828 48.5689 57.1373 47.9627 57.6453 44.8423C57.7406 44.4186 57.7081 43.9774 57.5516 43.5711C57.3952 43.1648 57.1213 42.8105 56.7627 42.5504C56.3856 42.3135 55.95 42.1784 55.5008 42.1588C55.0516 42.1393 54.6051 42.2361 54.2076 42.4392C54.1187 42.4946 54.0174 42.5284 53.9121 42.5378C53.8069 42.5471 53.7009 42.5318 53.6031 42.493C53.5034 42.4543 53.4147 42.393 53.3444 42.3144C53.2741 42.2358 53.2242 42.1421 53.1989 42.0411C53.0798 41.6248 52.8484 41.2467 52.5285 40.9454C52.2085 40.6442 51.8115 40.4306 51.378 40.3266C51.2256 40.2954 51.0703 40.2798 50.9145 40.28H50.9219Z" fill="#34A853" stroke="#34A853"/>
</svg>
