<svg width="50" height="51" viewBox="0 0 50 51" fill="none" xmlns="http://www.w3.org/2000/svg">
<path d="M19.0899 43.1186L17.5107 43.3221C17.5775 43.1112 17.657 42.9051 17.7486 42.7049C17.8321 42.529 17.9147 42.3512 18.0044 42.1829C18.1786 41.8443 18.369 41.5229 18.5629 41.2072C18.9557 40.5906 19.3813 39.9982 19.8377 39.4329C20.727 38.3153 21.6965 37.2722 22.7376 36.313C24.7833 34.4034 26.9778 32.6806 29.2978 31.163C31.5495 29.6415 33.759 28.064 35.8248 26.3134C37.8682 24.5609 39.8281 22.6391 41.1568 20.3494C41.8185 19.2083 42.2782 17.9721 42.4138 16.7008C42.5493 15.4295 42.3419 14.1382 41.8858 12.9324C41.4426 11.7479 40.6964 10.7175 39.7311 9.95707C38.7741 9.19635 37.6159 8.7209 36.4039 8.49934C33.9655 8.04766 31.3637 8.57161 29.086 9.69081C26.8082 10.81 24.7999 12.5853 23.446 14.7895C23.2947 15.0252 23.0612 15.1876 22.797 15.2411C22.5327 15.2945 22.2591 15.2347 22.0365 15.0748C21.9255 14.9938 21.8302 14.8912 21.7555 14.7724C20.9285 13.4118 19.715 12.3643 18.29 11.7809C16.8581 11.1936 15.2889 11.0939 13.801 11.4956C12.2951 11.8852 10.9341 12.7441 9.89376 13.9613C8.84559 15.2033 8.13695 16.7244 7.84409 18.3611C7.54333 20.0071 7.64297 21.7624 8.05595 23.4303C8.48052 25.1144 9.19488 26.701 10.1631 28.1106C12.1158 30.949 15.0695 32.9773 18.3187 34.048C18.4007 34.0759 18.4694 34.1363 18.5102 34.2167C18.5511 34.2971 18.5609 34.3911 18.5377 34.479C18.5144 34.5669 18.4599 34.6419 18.3856 34.6881C18.3112 34.7343 18.2229 34.7482 18.1391 34.7269C16.4152 34.2784 14.7453 33.596 13.2075 32.6578C11.6536 31.6842 10.2734 30.4289 9.12976 28.9493C7.97455 27.4482 7.10717 25.7227 6.57639 23.8696C6.04489 22.0135 5.84648 20.0232 6.12749 18.0482C6.19815 17.5511 6.30077 17.0596 6.43457 16.5772L6.66529 15.8697C6.74789 15.6358 6.84486 15.4076 6.94002 15.1765C7.33591 14.2562 7.85279 13.3998 8.47526 12.6329C9.74162 11.0759 11.4248 9.96334 13.3018 9.44264C15.1923 8.912 17.192 9.01869 19.0226 9.74788C20.8565 10.4952 22.411 11.8543 23.4514 13.6199L21.7609 13.6047C23.3912 11.0706 25.7174 9.11742 28.3148 7.90503C29.6194 7.29336 30.9967 6.87331 32.4087 6.65652C33.8337 6.428 35.2845 6.44984 36.7028 6.72117C38.1268 7.00644 39.5345 7.59791 40.7205 8.56307C41.9099 9.52938 42.8232 10.8259 43.3591 12.3086C43.8825 13.7416 44.133 15.3401 43.9292 16.8976C43.7497 18.4543 43.1778 19.9139 42.4254 21.1843C40.9064 23.7412 38.8289 25.7124 36.7056 27.5106C34.5607 29.2945 32.3064 30.8805 30.0152 32.3963C27.7788 33.9044 25.616 35.5409 23.6875 37.436C22.7221 38.3662 21.8274 39.3757 21.0121 40.4551C20.6162 40.9884 20.2496 41.5452 19.9141 42.123C19.7525 42.4082 19.5971 42.6982 19.4652 42.9902C19.3969 43.1366 19.3413 43.2831 19.2811 43.4266C19.221 43.5702 19.1698 43.7376 19.1554 43.807C19.1174 43.9811 19.031 44.1391 18.9074 44.2607C18.7838 44.3823 18.6287 44.462 18.462 44.4894C18.2953 44.5168 18.1247 44.4907 17.9721 44.4145C17.8195 44.3383 17.6919 44.2155 17.6058 44.0618L17.5762 44.0096C17.0365 42.3083 19.0899 43.1186 19.0899 43.1186Z" stroke="#FF5454" stroke-width="2.08333" stroke-linejoin="round"/>
</svg>
