<svg width="23" height="22" viewBox="0 0 23 22" fill="none" xmlns="http://www.w3.org/2000/svg">
<path d="M11.1852 3.85683C8.16235 0.221901 4.19069 0.331684 2 2.64317C2.39341 2.7131 2.96498 2.94526 3.39336 3.58482C3.82175 4.22438 4.04021 5.07553 4.13624 5.38599C5.61561 3.92399 8.10865 3.85683 11.1852 6.84798C14.0054 3.85683 18.5744 4.31243 18.5744 7.82934C18.5744 11.3463 16.1928 14.1049 13.3703 16.5946C13.3818 17.1758 13.4384 19.4226 13.3703 20C16.7299 17.0958 22 12.0186 22 7.03299C22 1.20643 15.5854 -1.43492 11.1852 3.85683Z" fill="#FF5454"/>
<path d="M7.80103 12.7052C7.13102 11.775 5.20467 10.3558 4.90111 8.614C4.74154 7.69499 5.55241 7.43186 6.22139 8.19319C8.0287 10.2465 11.8502 12.1967 12.5805 14.9315C12.9522 16.3231 13.1689 18.2869 12.8342 20.004C12.6231 21.0884 11.36 21.1402 10.9328 20.8471C4.90493 16.7236 -0.515026 8.34943 1.38665 4.28992C1.46675 4.11893 1.61858 3.9783 1.80452 4.01112C2.1469 4.07157 2.62395 4.37674 2.91321 4.88801C3.14918 5.30511 3.44307 6.36871 3.46977 6.48646C4.063 9.1023 4.90111 10.6987 7.80103 12.7052Z" fill="#34A853"/>
</svg>
