<svg width="56" height="56" viewBox="0 0 56 56" fill="none" xmlns="http://www.w3.org/2000/svg">
    <g clip-path="url(#clip0_1435_3837)">
    <path fill-rule="evenodd" clip-rule="evenodd" d="M45.6465 35.9687C41.547 39.8501 37.2021 44.2266 31.5157 44.1023C25.7531 43.9764 21.5532 39.2368 17.2372 35.3478C12.2513 30.8551 5.27799 26.9393 5.07281 20.2754C4.86382 13.4878 10.3467 7.58106 16.2842 4.39445C21.247 1.73091 26.955 5.62586 32.6184 5.49175C39.1726 5.33655 46.2014 -0.499763 51.4169 3.56251C56.6666 7.65143 55.5428 15.9582 54.3874 22.4473C53.4047 27.9656 49.6942 32.1363 45.6465 35.9687Z" fill="#FFC0C0"/>
    <path d="M17.568 54.0732L15.4485 54.3571C15.5383 54.063 15.645 53.7755 15.7679 53.4963C15.8799 53.251 15.9907 53.0029 16.1112 52.7682C16.345 52.2961 16.6005 51.8478 16.8607 51.4075C17.3879 50.5474 17.9591 49.7212 18.5717 48.9327C19.7651 47.374 21.0664 45.9191 22.4637 44.5813C25.2092 41.9179 28.1545 39.515 31.2681 37.3983C34.2901 35.2763 37.2555 33.0761 40.028 30.6345C42.7705 28.1902 45.4009 25.5099 47.1842 22.3163C48.0722 20.7248 48.6892 19.0006 48.8711 17.2274C49.0531 15.4542 48.7747 13.6532 48.1626 11.9715C47.5676 10.3194 46.5662 8.88236 45.2707 7.8217C43.9862 6.7607 42.4319 6.09757 40.8052 5.78855C37.5326 5.15859 34.0407 5.88935 30.9838 7.45034C27.9269 9.01134 25.2314 11.4875 23.4144 14.5617C23.2113 14.8904 22.898 15.1169 22.5433 15.1915C22.1886 15.2661 21.8215 15.1827 21.5226 14.9596C21.3737 14.8466 21.2457 14.7035 21.1455 14.5378C20.0356 12.6401 18.407 11.1792 16.4944 10.3654C14.5727 9.54634 12.4667 9.40726 10.4697 9.96756C8.44865 10.5109 6.62203 11.7088 5.22584 13.4065C3.81909 15.1388 2.86802 17.2604 2.47496 19.5431C2.0713 21.8388 2.20504 24.2871 2.75931 26.6133C3.32912 28.9622 4.28786 31.1751 5.58732 33.1411C8.20806 37.0999 12.1723 39.9288 16.533 41.4222C16.6431 41.4611 16.7353 41.5454 16.7901 41.6576C16.8449 41.7697 16.8581 41.9008 16.8269 42.0234C16.7957 42.146 16.7225 42.2505 16.6227 42.315C16.523 42.3794 16.4044 42.3988 16.292 42.3691C13.9783 41.7435 11.7371 40.7918 9.67328 39.4832C7.58776 38.1253 5.73532 36.3746 4.20047 34.3108C2.65006 32.2173 1.48594 29.8107 0.773573 27.226C0.0602502 24.6372 -0.206041 21.8614 0.171104 19.1067C0.265935 18.4133 0.403667 17.7278 0.583242 17.055L0.89289 16.0683C1.00374 15.742 1.13388 15.4237 1.26161 15.1015C1.79293 13.8178 2.48664 12.6234 3.32206 11.5537C5.02165 9.38217 7.2807 7.83044 9.79978 7.10421C12.337 6.36411 15.0208 6.51291 17.4777 7.52993C19.939 8.57231 22.0253 10.4679 23.4216 12.9304L21.1527 12.9092C23.3409 9.37475 26.4629 6.65061 29.9488 4.95965C31.6997 4.10653 33.5482 3.52067 35.4432 3.2183C37.3558 2.89958 39.3029 2.93004 41.2065 3.30848C43.1175 3.70635 45.0068 4.53129 46.5985 5.87743C48.1949 7.22518 49.4207 9.03343 50.1399 11.1015C50.8424 13.1002 51.1785 15.3296 50.905 17.502C50.664 19.673 49.8965 21.7088 48.8868 23.4807C46.848 27.047 44.0598 29.7963 41.2101 32.3042C38.3315 34.7923 35.3059 37.0044 32.2309 39.1185C29.2294 41.2219 26.3267 43.5044 23.7385 46.1476C22.4428 47.445 21.2421 48.8529 20.1478 50.3584C19.6165 51.1022 19.1245 51.8789 18.6741 52.6847C18.4572 53.0825 18.2488 53.487 18.0717 53.8942C17.9801 54.0984 17.9054 54.3027 17.8247 54.5029C17.7439 54.7032 17.6753 54.9366 17.656 55.0334C17.6049 55.2762 17.489 55.4966 17.3231 55.6663C17.1572 55.8359 16.949 55.947 16.7253 55.9852C16.5016 56.0235 16.2726 55.9871 16.0678 55.8808C15.863 55.7745 15.6918 55.6032 15.5762 55.3889L15.5365 55.316C14.8121 52.9432 17.568 54.0732 17.568 54.0732Z" fill="#191919"/>
    <path d="M16.8791 53.146L14.8427 53.4191C14.9289 53.1361 15.0314 52.8594 15.1495 52.5908C15.2572 52.3547 15.3636 52.116 15.4794 51.8902C15.704 51.4358 15.9495 51.0045 16.1995 50.5808C16.706 49.7532 17.2548 48.9581 17.8434 48.1994C18.99 46.6995 20.2402 45.2995 21.5828 44.0122C24.2206 41.4493 27.0504 39.1371 30.0419 37.1003C32.9454 35.0584 35.7945 32.9412 38.4583 30.5917C41.0932 28.2396 43.6205 25.6604 45.3338 22.5873C46.187 21.0559 46.7798 19.3968 46.9546 17.6905C47.1294 15.9843 46.8619 14.2512 46.2738 12.633C45.7022 11.0432 44.7401 9.66039 43.4954 8.63975C42.2613 7.61879 40.7679 6.98068 39.205 6.68332C36.0607 6.07713 32.7058 6.78032 29.7687 8.28241C26.8317 9.78449 24.242 12.1672 22.4962 15.1254C22.3011 15.4417 22 15.6596 21.6592 15.7314C21.3184 15.8032 20.9657 15.7229 20.6786 15.5083C20.5355 15.3996 20.4126 15.2618 20.3163 15.1024C19.2498 13.2763 17.6852 11.8705 15.8476 11.0875C14.0012 10.2993 11.9778 10.1655 10.0592 10.7046C8.11733 11.2275 6.36234 12.3802 5.02091 14.0138C3.66932 15.6807 2.75555 17.7222 2.3779 19.9188C1.99008 22.1279 2.11856 24.4838 2.6511 26.7222C3.19857 28.9825 4.11971 31.1119 5.36821 33.0037C7.88618 36.8131 11.6949 39.5353 15.8846 40.9723C15.9904 41.0097 16.079 41.0909 16.1316 41.1988C16.1843 41.3067 16.197 41.4328 16.167 41.5508C16.137 41.6688 16.0667 41.7694 15.9709 41.8314C15.875 41.8934 15.7611 41.9121 15.6531 41.8835C13.4301 41.2815 11.2768 40.3657 9.29394 39.1065C7.2902 37.7999 5.5104 36.1152 4.03574 34.1293C2.54613 32.1147 1.42767 29.7989 0.743237 27.3118C0.0578874 24.8207 -0.197961 22.1496 0.164394 19.4989C0.255507 18.8317 0.387837 18.1721 0.56037 17.5247L0.857875 16.5752C0.964382 16.2612 1.08942 15.9549 1.21213 15.6448C1.72262 14.4096 2.38912 13.2603 3.19179 12.231C4.82472 10.1413 6.99518 8.64816 9.41547 7.94934C11.8532 7.23716 14.4318 7.38035 16.7923 8.35899C19.1571 9.36204 21.1615 11.1861 22.5031 13.5557L20.3232 13.5353C22.4256 10.1342 25.4251 7.51285 28.7743 5.8857C30.4566 5.06477 32.2326 4.50102 34.0533 4.21006C35.8908 3.90337 37.7616 3.93268 39.5905 4.29684C41.4266 4.6797 43.2419 5.47351 44.7712 6.76885C46.3049 8.06574 47.4826 9.80576 48.1736 11.7958C48.8485 13.719 49.1715 15.8643 48.9087 17.9547C48.6772 20.0439 47.9398 22.0028 46.9696 23.7079C45.0108 27.1396 42.3319 29.7851 39.594 32.1984C36.8283 34.5926 33.9214 36.7213 30.967 38.7555C28.0832 40.7796 25.2943 42.9759 22.8076 45.5194C21.5626 46.7678 20.4091 48.1226 19.3577 49.5713C18.8473 50.287 18.3745 51.0344 17.9418 51.8098C17.7334 52.1926 17.5331 52.5819 17.363 52.9736C17.275 53.1702 17.2032 53.3667 17.1257 53.5594C17.0481 53.7521 16.9821 53.9768 16.9636 54.0699C16.9145 54.3035 16.8031 54.5156 16.6438 54.6789C16.4844 54.8421 16.2843 54.949 16.0694 54.9858C15.8544 55.0226 15.6345 54.9876 15.4377 54.8853C15.2409 54.783 15.0764 54.6182 14.9654 54.4119L14.9272 54.3418C14.2312 52.0586 16.8791 53.146 16.8791 53.146Z" fill="#191919"/>
    </g>
    <defs>
    <clipPath id="clip0_1435_3837">
    <rect width="56" height="56" fill="white"/>
    </clipPath>
    </defs>
    </svg>
    